<svg width="106" height="106" viewBox="0 0 105.958 105.958" preserveAspectRatio="xMidYMid meet" fill="none" xmlns="http://www.w3.org/2000/svg">
<path d="M37.4317 75.9155C41.5556 71.7929 47.148 69.4769 52.9792 69.4769C58.8103 69.4769 64.4028 71.7929 68.5266 75.9155M36.4861 41.9838H36.5411M69.4722 41.9838H69.5272M102.458 52.9792C102.458 59.4769 101.179 65.9109 98.692 71.914C96.2054 77.9171 92.5608 83.3717 87.9662 87.9662C83.3717 92.5608 77.9171 96.2054 71.914 98.692C65.9109 101.179 59.4769 102.458 52.9792 102.458C46.4815 102.458 40.0474 101.179 34.0443 98.692C28.0412 96.2054 22.5867 92.5608 17.9921 87.9662C13.3975 83.3717 9.75294 77.9171 7.26638 71.914C4.77982 65.9109 3.5 59.4769 3.5 52.9792C3.5 39.8565 8.71297 27.2713 17.9921 17.9921C27.2713 8.71297 39.8565 3.5 52.9792 3.5C66.1019 3.5 78.6871 8.71297 87.9662 17.9921C97.2454 27.2713 102.458 39.8565 102.458 52.9792Z" stroke="#CCCCCC" stroke-width="7" stroke-linecap="round" stroke-linejoin="round"/>
</svg>
