<svg preserveAspectRatio="none" width="100%" height="100%" overflow="visible" style="display: block;" viewBox="0 0 119 119" fill="none" xmlns="http://www.w3.org/2000/svg">
<g id="used icon">
<path id="Vector" d="M86.4259 32.2407L90.8333 27.8333M90.8333 27.8333L95.2407 23.4259M90.8333 27.8333L86.4259 23.4259M90.8333 27.8333L95.2407 32.2407M110.667 27.8333C110.667 30.4379 110.154 33.0169 109.157 35.4232C108.16 37.8295 106.699 40.0159 104.858 41.8576C103.016 43.6993 100.83 45.1602 98.4232 46.1569C96.0169 47.1537 93.4379 47.6667 90.8333 47.6667C88.2288 47.6667 85.6497 47.1537 83.2434 46.1569C80.8372 45.1602 78.6507 43.6993 76.809 41.8576C74.9674 40.0159 73.5064 37.8295 72.5097 35.4232C71.513 33.0169 71 30.4379 71 27.8333C71 22.5732 73.0896 17.5285 76.809 13.809C80.5285 10.0896 85.5732 8 90.8333 8C96.0935 8 101.138 10.0896 104.858 13.809C108.577 17.5285 110.667 22.5732 110.667 27.8333Z" stroke="var(--stroke-0, #CCCCCC)" stroke-width="5" stroke-linecap="round" stroke-linejoin="round"/>
<g id="Subtract">
<mask id="path-2-outside-1_0_4" maskUnits="userSpaceOnUse" x="12.8662" y="10.3955" width="90" height="101" fill="black">
<rect fill="white" x="12.8662" y="10.3955" width="90" height="101"/>
<path d="M26.4219 12.3994C26.8601 12.4379 27.2266 12.7611 27.3145 13.1992L29.2471 22.8633H61.9365C61.8205 23.525 61.7278 24.1921 61.6582 24.8633H29.6475L37.6211 64.7334H88.5215L92.6182 56.5371C93.4172 56.4727 94.2123 56.3747 95.002 56.2441L90.0342 66.1807C89.8648 66.5194 89.5183 66.7333 89.1396 66.7334H37.2158L25.5078 78.4414C22.8406 81.1088 24.7291 85.6686 28.501 85.6689H89.1396C92.1807 85.669 95.0976 86.8771 97.248 89.0273C99.3986 91.1779 100.607 94.0954 100.607 97.1367C100.607 100.178 99.3985 103.095 97.248 105.245C95.0975 107.396 92.1809 108.603 89.1396 108.604C86.0984 108.603 83.1808 107.396 81.0303 105.245C78.8801 103.095 77.672 100.178 77.6719 97.1367C77.672 94.0955 78.8799 91.1778 81.0303 89.0273C81.5374 88.5203 82.089 88.0678 82.6729 87.6689H43.2686C43.8521 88.0676 44.4033 88.5205 44.9102 89.0273C47.0607 91.1779 48.2685 94.0954 48.2686 97.1367C48.2684 100.178 47.0606 103.095 44.9102 105.245C42.7597 107.396 39.843 108.603 36.8018 108.604C33.7605 108.603 30.8429 107.396 28.6924 105.245C26.5422 103.095 25.3341 100.178 25.334 97.1367C25.3341 94.0955 26.5419 91.1778 28.6924 89.0273C29.1995 88.5202 29.7511 88.0678 30.335 87.6689H28.501C22.947 87.6686 20.1661 80.9544 24.0928 77.0273L35.7158 65.4043L27.4463 24.0596L25.5146 14.3955H15.8662C15.3141 14.3953 14.8662 13.9476 14.8662 13.3955C14.8664 12.8435 15.3142 12.3958 15.8662 12.3955H26.334L26.4219 12.3994ZM36.8018 87.6689C34.291 87.6691 31.8819 88.666 30.1064 90.4414C28.3311 92.2168 27.3341 94.6259 27.334 97.1367C27.3341 99.6473 28.3313 102.056 30.1064 103.831C31.8819 105.606 34.291 106.603 36.8018 106.604C39.3125 106.603 41.7207 105.606 43.4961 103.831C45.2715 102.056 46.2684 99.6475 46.2686 97.1367C46.2685 94.6259 45.2715 92.2168 43.4961 90.4414C41.7207 88.6663 39.3124 87.669 36.8018 87.6689ZM89.1396 87.6689C86.6289 87.6691 84.2197 88.666 82.4443 90.4414C80.669 92.2168 79.672 94.6259 79.6719 97.1367C79.672 99.6473 80.6692 102.056 82.4443 103.831C84.2197 105.606 86.6289 106.603 89.1396 106.604C91.6504 106.603 94.0585 105.606 95.834 103.831C97.6094 102.056 98.6073 99.6475 98.6074 97.1367C98.6073 94.6259 97.6094 92.2168 95.834 90.4414C94.0586 88.6663 91.6503 87.669 89.1396 87.6689Z"/>
</mask>
<path d="M26.4219 12.3994C26.8601 12.4379 27.2266 12.7611 27.3145 13.1992L29.2471 22.8633H61.9365C61.8205 23.525 61.7278 24.1921 61.6582 24.8633H29.6475L37.6211 64.7334H88.5215L92.6182 56.5371C93.4172 56.4727 94.2123 56.3747 95.002 56.2441L90.0342 66.1807C89.8648 66.5194 89.5183 66.7333 89.1396 66.7334H37.2158L25.5078 78.4414C22.8406 81.1088 24.7291 85.6686 28.501 85.6689H89.1396C92.1807 85.669 95.0976 86.8771 97.248 89.0273C99.3986 91.1779 100.607 94.0954 100.607 97.1367C100.607 100.178 99.3985 103.095 97.248 105.245C95.0975 107.396 92.1809 108.603 89.1396 108.604C86.0984 108.603 83.1808 107.396 81.0303 105.245C78.8801 103.095 77.672 100.178 77.6719 97.1367C77.672 94.0955 78.8799 91.1778 81.0303 89.0273C81.5374 88.5203 82.089 88.0678 82.6729 87.6689H43.2686C43.8521 88.0676 44.4033 88.5205 44.9102 89.0273C47.0607 91.1779 48.2685 94.0954 48.2686 97.1367C48.2684 100.178 47.0606 103.095 44.9102 105.245C42.7597 107.396 39.843 108.603 36.8018 108.604C33.7605 108.603 30.8429 107.396 28.6924 105.245C26.5422 103.095 25.3341 100.178 25.334 97.1367C25.3341 94.0955 26.5419 91.1778 28.6924 89.0273C29.1995 88.5202 29.7511 88.0678 30.335 87.6689H28.501C22.947 87.6686 20.1661 80.9544 24.0928 77.0273L35.7158 65.4043L27.4463 24.0596L25.5146 14.3955H15.8662C15.3141 14.3953 14.8662 13.9476 14.8662 13.3955C14.8664 12.8435 15.3142 12.3958 15.8662 12.3955H26.334L26.4219 12.3994ZM36.8018 87.6689C34.291 87.6691 31.8819 88.666 30.1064 90.4414C28.3311 92.2168 27.3341 94.6259 27.334 97.1367C27.3341 99.6473 28.3313 102.056 30.1064 103.831C31.8819 105.606 34.291 106.603 36.8018 106.604C39.3125 106.603 41.7207 105.606 43.4961 103.831C45.2715 102.056 46.2684 99.6475 46.2686 97.1367C46.2685 94.6259 45.2715 92.2168 43.4961 90.4414C41.7207 88.6663 39.3124 87.669 36.8018 87.6689ZM89.1396 87.6689C86.6289 87.6691 84.2197 88.666 82.4443 90.4414C80.669 92.2168 79.672 94.6259 79.6719 97.1367C79.672 99.6473 80.6692 102.056 82.4443 103.831C84.2197 105.606 86.6289 106.603 89.1396 106.604C91.6504 106.603 94.0585 105.606 95.834 103.831C97.6094 102.056 98.6073 99.6475 98.6074 97.1367C98.6073 94.6259 97.6094 92.2168 95.834 90.4414C94.0586 88.6663 91.6503 87.669 89.1396 87.6689Z" fill="var(--fill-0, #CCCCCC)"/>
<path d="M26.4219 12.3994L26.5968 10.4071C26.5681 10.4046 26.5394 10.4027 26.5107 10.4014L26.4219 12.3994ZM27.3145 13.1992L29.2756 12.807L29.2754 12.8059L27.3145 13.1992ZM29.2471 22.8633L27.2859 23.2555C27.4729 24.1903 28.2937 24.8633 29.2471 24.8633V22.8633ZM61.9365 22.8633L63.9065 23.2085C64.0085 22.6266 63.848 22.0293 63.4679 21.5769C63.0879 21.1245 62.5273 20.8633 61.9365 20.8633V22.8633ZM61.6582 24.8633V26.8633C62.6829 26.8633 63.5418 26.0888 63.6475 25.0696L61.6582 24.8633ZM29.6475 24.8633V22.8633C29.0483 22.8633 28.4807 23.1319 28.1008 23.5953C27.7209 24.0587 27.5688 24.6679 27.6863 25.2555L29.6475 24.8633ZM37.6211 64.7334L35.6599 65.1256C35.8469 66.0605 36.6677 66.7334 37.6211 66.7334V64.7334ZM88.5215 64.7334V66.7334C89.2791 66.7334 89.9717 66.3053 90.3105 65.6276L88.5215 64.7334ZM92.6182 56.5371L92.4574 54.5436C91.7597 54.5998 91.1421 55.0168 90.8292 55.6429L92.6182 56.5371ZM95.002 56.2441L96.7908 57.1385C97.127 56.4661 97.0577 55.6619 96.6115 55.0569C96.1652 54.4519 95.4173 54.1483 94.6756 54.2709L95.002 56.2441ZM90.0342 66.1807L91.823 67.0751L91.8231 67.075L90.0342 66.1807ZM89.1396 66.7334V68.7334H89.1402L89.1396 66.7334ZM37.2158 66.7334V64.7334C36.6854 64.7334 36.1767 64.9441 35.8016 65.3192L37.2158 66.7334ZM25.5078 78.4414L24.0936 77.0272L24.0936 77.0272L25.5078 78.4414ZM28.501 85.6689L28.5008 87.6689H28.501V85.6689ZM89.1396 85.6689L89.1397 83.6689H89.1396V85.6689ZM97.248 89.0273L98.6623 87.6131L98.6622 87.613L97.248 89.0273ZM100.607 97.1367L102.607 97.1368V97.1367L100.607 97.1367ZM97.248 105.245L98.6622 106.659L98.6623 106.659L97.248 105.245ZM89.1396 108.604L89.1396 110.604H89.1397L89.1396 108.604ZM81.0303 105.245L79.616 106.659L79.6161 106.659L81.0303 105.245ZM77.6719 97.1367L75.6719 97.1367V97.1368L77.6719 97.1367ZM81.0303 89.0273L79.6161 87.6131L79.616 87.6132L81.0303 89.0273ZM82.6729 87.6689L83.8009 89.3205C84.5252 88.8257 84.8427 87.9167 84.5837 87.0786C84.3248 86.2405 83.55 85.6689 82.6729 85.6689V87.6689ZM43.2686 87.6689V85.6689C42.3914 85.6689 41.6166 86.2405 41.3577 87.0786C41.0988 87.9167 41.4161 88.8257 42.1404 89.3204L43.2686 87.6689ZM44.9102 89.0273L46.3244 87.6131L46.3243 87.613L44.9102 89.0273ZM48.2686 97.1367L50.2686 97.1368V97.1367L48.2686 97.1367ZM44.9102 105.245L46.3243 106.659L46.3244 106.659L44.9102 105.245ZM36.8018 108.604L36.8017 110.604H36.8018L36.8018 108.604ZM28.6924 105.245L27.2781 106.659L27.2782 106.659L28.6924 105.245ZM25.334 97.1367L23.334 97.1367V97.1368L25.334 97.1367ZM28.6924 89.0273L27.2782 87.6131L27.2781 87.6132L28.6924 89.0273ZM30.335 87.6689L31.463 89.3205C32.1873 88.8257 32.5048 87.9167 32.2459 87.0786C31.9869 86.2405 31.2121 85.6689 30.335 85.6689V87.6689ZM28.501 87.6689L28.5008 89.6689H28.501V87.6689ZM24.0928 77.0273L22.6786 75.6131L22.6785 75.6132L24.0928 77.0273ZM35.7158 65.4043L37.13 66.8185C37.6029 66.3457 37.8081 65.6678 37.677 65.012L35.7158 65.4043ZM27.4463 24.0596L25.4851 24.4516L25.4851 24.4518L27.4463 24.0596ZM25.5146 14.3955L27.4759 14.0035C27.289 13.0685 26.4681 12.3955 25.5146 12.3955V14.3955ZM15.8662 14.3955L15.8653 16.3955H15.8662V14.3955ZM14.8662 13.3955L12.8662 13.3949V13.3955H14.8662ZM15.8662 12.3955V10.3955L15.8653 10.3955L15.8662 12.3955ZM26.334 12.3955L26.4228 10.3975C26.3932 10.3962 26.3636 10.3955 26.334 10.3955V12.3955ZM36.8018 87.6689L36.8018 85.6689H36.8017L36.8018 87.6689ZM30.1064 90.4414L28.6922 89.0272L28.6922 89.0272L30.1064 90.4414ZM27.334 97.1367L25.334 97.1367V97.1368L27.334 97.1367ZM30.1064 103.831L28.6921 105.245L28.6922 105.245L30.1064 103.831ZM36.8018 106.604L36.8017 108.604H36.8018L36.8018 106.604ZM43.4961 103.831L44.9103 105.245L44.9103 105.245L43.4961 103.831ZM46.2686 97.1367L48.2686 97.1368V97.1367L46.2686 97.1367ZM43.4961 90.4414L44.9103 89.0272L44.9102 89.0271L43.4961 90.4414ZM89.1396 87.6689L89.1397 85.6689H89.1395L89.1396 87.6689ZM82.4443 90.4414L81.0301 89.0272L81.0301 89.0272L82.4443 90.4414ZM79.6719 97.1367L77.6719 97.1367V97.1368L79.6719 97.1367ZM82.4443 103.831L81.03 105.245L81.0301 105.245L82.4443 103.831ZM89.1396 106.604L89.1395 108.604H89.1397L89.1396 106.604ZM95.834 103.831L97.2482 105.245L97.2482 105.245L95.834 103.831ZM98.6074 97.1367L100.607 97.1368V97.1367L98.6074 97.1367ZM95.834 90.4414L97.2482 89.0272L97.2481 89.0271L95.834 90.4414ZM26.4219 12.3994L26.247 14.3918C25.8071 14.3531 25.4414 14.0307 25.3535 13.5925L27.3145 13.1992L29.2754 12.8059C29.0118 11.4915 27.9131 10.5226 26.5968 10.4071L26.4219 12.3994ZM27.3145 13.1992L25.3533 13.5914L27.2859 23.2555L29.2471 22.8633L31.2082 22.4711L29.2756 12.807L27.3145 13.1992ZM29.2471 22.8633V24.8633H61.9365V22.8633V20.8633H29.2471V22.8633ZM61.9365 22.8633L59.9665 22.518C59.8424 23.2263 59.7433 23.9397 59.6689 24.657L61.6582 24.8633L63.6475 25.0696C63.7124 24.4444 63.7987 23.8237 63.9065 23.2085L61.9365 22.8633ZM61.6582 24.8633V22.8633H29.6475V24.8633V26.8633H61.6582V24.8633ZM29.6475 24.8633L27.6863 25.2555L35.6599 65.1256L37.6211 64.7334L39.5823 64.3412L31.6086 24.4711L29.6475 24.8633ZM37.6211 64.7334V66.7334H88.5215V64.7334V62.7334H37.6211V64.7334ZM88.5215 64.7334L90.3105 65.6276L94.4071 57.4313L92.6182 56.5371L90.8292 55.6429L86.7325 63.8392L88.5215 64.7334ZM92.6182 56.5371L92.7789 58.5306C93.6339 58.4617 94.4842 58.3569 95.3283 58.2173L95.002 56.2441L94.6756 54.2709C93.9404 54.3925 93.2005 54.4837 92.4574 54.5436L92.6182 56.5371ZM95.002 56.2441L93.2131 55.3498L88.2453 65.2863L90.0342 66.1807L91.8231 67.075L96.7908 57.1385L95.002 56.2441ZM90.0342 66.1807L88.2453 65.2862C88.4152 64.9466 88.7615 64.7335 89.1391 64.7334L89.1396 66.7334L89.1402 68.7334C90.2751 68.7331 91.3145 68.0921 91.823 67.0751L90.0342 66.1807ZM89.1396 66.7334V64.7334H37.2158V66.7334V68.7334H89.1396V66.7334ZM37.2158 66.7334L35.8016 65.3192L24.0936 77.0272L25.5078 78.4414L26.922 79.8556L38.63 68.1476L37.2158 66.7334ZM25.5078 78.4414L24.0936 77.0272C20.1666 80.9544 22.9471 87.6684 28.5008 87.6689L28.501 85.6689L28.5012 83.6689C26.5111 83.6688 25.5145 81.2632 26.9221 79.8556L25.5078 78.4414ZM28.501 85.6689V87.6689H89.1396V85.6689V83.6689H28.501V85.6689ZM89.1396 85.6689L89.1396 87.6689C91.6503 87.669 94.0585 88.6665 95.8339 90.4416L97.248 89.0273L98.6622 87.613C96.1366 85.0878 92.7111 83.669 89.1397 83.6689L89.1396 85.6689ZM97.248 89.0273L95.8338 90.4416C97.6094 92.2171 98.6074 94.626 98.6074 97.1368L100.607 97.1367L102.607 97.1367C102.607 93.5649 101.188 90.1386 98.6623 87.6131L97.248 89.0273ZM100.607 97.1367L98.6074 97.1366C98.6073 99.6472 97.6094 102.055 95.8338 103.831L97.248 105.245L98.6623 106.659C101.188 104.134 102.607 100.709 102.607 97.1368L100.607 97.1367ZM97.248 105.245L95.8339 103.831C94.0585 105.606 91.6505 106.603 89.1396 106.604L89.1396 108.604L89.1397 110.604C92.7112 110.603 96.1366 109.185 98.6622 106.659L97.248 105.245ZM89.1396 108.604L89.1397 106.604C86.6285 106.603 84.2197 105.606 82.4445 103.831L81.0303 105.245L79.6161 106.659C82.1419 109.185 85.5683 110.603 89.1396 110.604L89.1396 108.604ZM81.0303 105.245L82.4446 103.831C80.6694 102.056 79.672 99.6473 79.6719 97.1366L77.6719 97.1367L75.6719 97.1368C75.672 100.708 77.0908 104.134 79.616 106.659L81.0303 105.245ZM77.6719 97.1367L79.6719 97.1368C79.6719 94.6257 80.6693 92.2168 82.4445 90.4415L81.0303 89.0273L79.616 87.6132C77.0904 90.1389 75.672 93.5654 75.6719 97.1367L77.6719 97.1367ZM81.0303 89.0273L82.4445 90.4416C82.8594 90.0267 83.3143 89.6528 83.8009 89.3205L82.6729 87.6689L81.5448 86.0174C80.8636 86.4827 80.2153 87.0139 79.6161 87.6131L81.0303 89.0273ZM82.6729 87.6689V85.6689H43.2686V87.6689V89.6689H82.6729V87.6689ZM43.2686 87.6689L42.1404 89.3204C42.6257 89.6519 43.0805 90.0261 43.496 90.4416L44.9102 89.0273L46.3243 87.613C45.7261 87.0149 45.0785 86.4833 44.3967 86.0175L43.2686 87.6689ZM44.9102 89.0273L43.4959 90.4416C45.2712 92.2168 46.2685 94.6256 46.2686 97.1368L48.2686 97.1367L50.2686 97.1367C50.2685 93.5653 48.8502 90.1389 46.3244 87.6131L44.9102 89.0273ZM48.2686 97.1367L46.2686 97.1366C46.2685 99.6476 45.2712 102.056 43.4959 103.831L44.9102 105.245L46.3244 106.659C48.85 104.134 50.2684 100.708 50.2686 97.1368L48.2686 97.1367ZM44.9102 105.245L43.496 103.831C41.7206 105.606 39.3126 106.603 36.8017 106.604L36.8018 108.604L36.8018 110.604C40.3733 110.603 43.7987 109.185 46.3243 106.659L44.9102 105.245ZM36.8018 108.604L36.8018 106.604C34.2907 106.603 31.8818 105.606 30.1066 103.831L28.6924 105.245L27.2782 106.659C29.804 109.185 33.2304 110.603 36.8017 110.604L36.8018 108.604ZM28.6924 105.245L30.1067 103.831C28.3315 102.056 27.3341 99.6473 27.334 97.1366L25.334 97.1367L23.334 97.1368C23.3341 100.708 24.7529 104.134 27.2781 106.659L28.6924 105.245ZM25.334 97.1367L27.334 97.1368C27.3341 94.6256 28.3314 92.2168 30.1066 90.4415L28.6924 89.0273L27.2781 87.6132C24.7524 90.1389 23.3341 93.5653 23.334 97.1367L25.334 97.1367ZM28.6924 89.0273L30.1066 90.4416C30.5215 90.0266 30.9764 89.6528 31.463 89.3205L30.335 87.6689L29.2069 86.0174C28.5257 86.4827 27.8775 87.0138 27.2782 87.6131L28.6924 89.0273ZM30.335 87.6689V85.6689H28.501V87.6689V89.6689H30.335V87.6689ZM28.501 87.6689L28.5011 85.6689C24.7287 85.6687 22.8402 81.1086 25.507 78.4415L24.0928 77.0273L22.6785 75.6132C17.4919 80.8002 21.1653 89.6685 28.5008 89.6689L28.501 87.6689ZM24.0928 77.0273L25.507 78.4416L37.13 66.8185L35.7158 65.4043L34.3016 63.9901L22.6786 75.6131L24.0928 77.0273ZM35.7158 65.4043L37.677 65.012L29.4074 23.6673L27.4463 24.0596L25.4851 24.4518L33.7547 65.7966L35.7158 65.4043ZM27.4463 24.0596L29.4075 23.6676L27.4759 14.0035L25.5146 14.3955L23.5534 14.7875L25.4851 24.4516L27.4463 24.0596ZM25.5146 14.3955V12.3955H15.8662V14.3955V16.3955H25.5146V14.3955ZM15.8662 14.3955L15.8671 12.3955C16.418 12.3958 16.8662 12.8422 16.8662 13.3955H14.8662H12.8662C12.8662 15.0531 14.2103 16.3948 15.8653 16.3955L15.8662 14.3955ZM14.8662 13.3955L16.8662 13.3961C16.866 13.9485 16.4188 14.3953 15.8671 14.3955L15.8662 12.3955L15.8653 10.3955C14.2097 10.3962 12.8667 11.7386 12.8662 13.3949L14.8662 13.3955ZM15.8662 12.3955V14.3955H26.334V12.3955V10.3955H15.8662V12.3955ZM26.334 12.3955L26.2452 14.3935L26.3331 14.3974L26.4219 12.3994L26.5107 10.4014L26.4228 10.3975L26.334 12.3955ZM36.8018 87.6689L36.8017 85.6689C33.761 85.6691 30.8431 86.8763 28.6922 89.0272L30.1064 90.4414L31.5207 91.8556C32.9206 90.4557 34.8209 89.669 36.8019 89.6689L36.8018 87.6689ZM30.1064 90.4414L28.6922 89.0272C26.5415 91.178 25.3341 94.0959 25.334 97.1367L27.334 97.1367L29.334 97.1368C29.3341 95.1559 30.1207 93.2556 31.5207 91.8556L30.1064 90.4414ZM27.334 97.1367L25.334 97.1368C25.3341 100.178 26.5419 103.095 28.6921 105.245L30.1064 103.831L31.5208 102.417C30.1208 101.017 29.3341 99.117 29.334 97.1366L27.334 97.1367ZM30.1064 103.831L28.6922 105.245C30.8431 107.396 33.761 108.603 36.8017 108.604L36.8018 106.604L36.8019 104.604C34.8209 104.603 32.9206 103.817 31.5207 102.417L30.1064 103.831ZM36.8018 106.604L36.8018 108.604C39.8427 108.603 42.7596 107.396 44.9103 105.245L43.4961 103.831L42.0819 102.417C40.6817 103.817 38.7823 104.603 36.8017 104.604L36.8018 106.604ZM43.4961 103.831L44.9103 105.245C47.061 103.095 48.2684 100.178 48.2686 97.1368L46.2686 97.1367L44.2686 97.1366C44.2685 99.1173 43.482 101.017 42.0819 102.417L43.4961 103.831ZM46.2686 97.1367L48.2686 97.1367C48.2685 94.0959 47.0612 91.1781 44.9103 89.0272L43.4961 90.4414L42.0819 91.8556C43.4819 93.2556 44.2685 95.1558 44.2686 97.1368L46.2686 97.1367ZM43.4961 90.4414L44.9102 89.0271C42.7597 86.8768 39.8426 85.6691 36.8018 85.6689L36.8018 87.6689L36.8017 89.6689C38.7821 89.669 40.6817 90.4557 42.082 91.8557L43.4961 90.4414ZM89.1396 87.6689L89.1395 85.6689C86.0989 85.6691 83.181 86.8763 81.0301 89.0272L82.4443 90.4414L83.8586 91.8556C85.2585 90.4557 87.1588 89.669 89.1397 89.6689L89.1396 87.6689ZM82.4443 90.4414L81.0301 89.0272C78.8794 91.178 77.672 94.096 77.6719 97.1367L79.6719 97.1367L81.6719 97.1368C81.6719 95.1559 82.4586 93.2556 83.8586 91.8556L82.4443 90.4414ZM79.6719 97.1367L77.6719 97.1368C77.672 100.178 78.8798 103.095 81.03 105.245L82.4443 103.831L83.8587 102.417C82.4587 101.017 81.672 99.117 81.6719 97.1366L79.6719 97.1367ZM82.4443 103.831L81.0301 105.245C83.181 107.396 86.0989 108.603 89.1395 108.604L89.1396 106.604L89.1397 104.604C87.1588 104.603 85.2585 103.817 83.8586 102.417L82.4443 103.831ZM89.1396 106.604L89.1397 108.604C92.1806 108.603 95.0975 107.396 97.2482 105.245L95.834 103.831L94.4198 102.417C93.0196 103.817 91.1202 104.603 89.1396 104.604L89.1396 106.604ZM95.834 103.831L97.2482 105.245C99.3985 103.095 100.607 100.178 100.607 97.1368L98.6074 97.1367L96.6074 97.1366C96.6073 99.1168 95.8203 101.016 94.4198 102.417L95.834 103.831ZM98.6074 97.1367L100.607 97.1367C100.607 94.0954 99.3987 91.1777 97.2482 89.0272L95.834 90.4414L94.4198 91.8556C95.8202 93.256 96.6074 95.1564 96.6074 97.1368L98.6074 97.1367ZM95.834 90.4414L97.2481 89.0271C95.0975 86.8769 92.1806 85.669 89.1397 85.6689L89.1396 87.6689L89.1396 89.6689C91.12 89.669 93.0196 90.4557 94.4199 91.8557L95.834 90.4414Z" fill="var(--stroke-0, #CCCCCC)" mask="url(#path-2-outside-1_0_4)"/>
</g>
</g>
</svg>
