<svg preserveAspectRatio="none" width="100%" height="100%" overflow="visible" style="display: block;" viewBox="0 0 204.487 214.138" fill="none" xmlns="http://www.w3.org/2000/svg">
<g id="Group 195929323">
<path id="Vector 742 (Stroke)" d="M38.7048 46.3522C40.503 45.7194 42.3423 45.6235 44.5959 45.8888C52.6093 46.8323 56.0597 52.4394 60.0895 58.1643C60.7074 59.0421 61.121 59.6955 61.3933 60.4656C61.6438 61.174 61.7554 61.9521 61.9206 62.8958C62.2323 64.6757 61.6378 66.3034 60.797 67.6234C59.9572 68.9419 58.786 70.0954 57.6642 71.0244C56.5315 71.9624 55.3813 72.7267 54.5217 73.2539C54.5101 73.2611 54.4983 73.2678 54.4868 73.2749C54.5267 73.3582 54.5682 73.4442 54.6101 73.5332C55.0977 74.5685 55.717 75.9967 56.2228 77.5379C56.7223 79.0599 57.145 80.7911 57.1714 82.4049C57.1973 83.9923 56.838 85.8085 55.3768 87.0262C53.6933 88.4292 51.6727 87.941 50.207 87.1708C48.702 86.3799 47.2131 85.0361 45.941 83.6379C44.6504 82.2195 43.4851 80.6362 42.6428 79.2522C42.559 79.1145 42.478 78.9772 42.3994 78.8415C42.2413 79.0274 42.0758 79.2169 41.9034 79.4066C41.2226 80.1557 40.399 80.956 39.5044 81.5808C38.6404 82.1843 37.5207 82.7585 36.2843 82.7586C35.1756 82.7586 34.0074 82.3388 33.0139 81.8736C31.9788 81.3889 30.9352 80.7583 30.0226 80.1521C29.3077 79.6772 28.6539 79.2042 28.1227 78.8044C27.9662 79.0213 27.7948 79.2618 27.6112 79.5243C26.6965 80.8323 25.4837 82.6723 24.29 84.8007C21.855 89.1422 19.6878 94.3583 19.9298 98.6583C20.0359 100.543 20.4569 101.959 21.0842 103.069C21.7095 104.176 22.5885 105.066 23.7363 105.831C26.1177 107.419 29.4639 108.368 33.7464 109.555C37.1134 110.488 41.6222 110.507 45.4178 110.257C47.2899 110.133 48.941 109.947 50.1231 109.793C50.7134 109.716 51.1853 109.646 51.5075 109.597C51.6686 109.572 51.7923 109.552 51.8745 109.539C51.9155 109.532 51.9462 109.527 51.9661 109.523C51.9759 109.522 51.9831 109.52 51.9875 109.52C51.9897 109.519 51.9914 109.519 51.9922 109.519L51.9927 109.519L53.1562 109.317L63.6578 128.002L62.4426 128.875L61.4684 127.517L62.4419 128.875C62.4417 128.875 62.4412 128.876 62.4407 128.876C62.4398 128.877 62.4386 128.877 62.4372 128.878C62.4344 128.88 62.4306 128.883 62.4258 128.887C62.4162 128.893 62.4027 128.903 62.3852 128.915C62.3504 128.94 62.3 128.975 62.2347 129.021C62.104 129.112 61.9137 129.243 61.6689 129.407C61.1794 129.736 60.4712 130.2 59.5864 130.747C57.8193 131.839 55.3355 133.269 52.472 134.618C46.8479 137.266 39.3539 139.796 32.9302 138.337C26.8174 136.948 18.6826 133.103 12.0388 127.185C5.38482 121.259 0.0574463 113.091 0.000391982 103.058C-0.0475442 94.629 4.30951 85.1629 8.48864 77.9848C10.6009 74.3567 12.7136 71.2368 14.2981 69.024C15.091 67.9168 15.7534 67.0346 16.219 66.4269C16.4519 66.123 16.6358 65.8877 16.7624 65.727C16.8258 65.6467 16.8746 65.5849 16.9084 65.5426C16.9252 65.5216 16.9382 65.5054 16.9473 65.4942C16.9518 65.4885 16.9555 65.484 16.958 65.4809L16.961 65.4771C16.9628 65.475 16.9647 65.4724 16.9669 65.4697C16.9762 65.4579 16.9899 65.441 17.0074 65.4191C17.0426 65.3751 17.0939 65.311 17.1601 65.2291C17.2925 65.0654 17.4846 64.8298 17.7266 64.5384C18.2103 63.9559 18.8953 63.1482 19.7023 62.244C21.2853 60.4703 23.3977 58.2578 25.4066 56.6646C25.4103 56.6612 25.4144 56.6577 25.4185 56.6539C25.4557 56.6196 25.5104 56.569 25.581 56.504C25.7221 56.374 25.927 56.1857 26.1827 55.9518C26.6941 55.484 27.4098 54.8331 28.2273 54.1003C29.8558 52.6407 31.9127 50.8341 33.5662 49.5047C35.3654 48.058 36.9457 46.9714 38.7048 46.3522ZM41.4465 74.5692C41.4464 74.5692 41.4464 74.5693 41.4483 74.5706L44.5152 75.6014C44.5281 75.4275 44.4823 75.5038 44.6882 75.9893C44.8585 76.3908 45.1307 76.912 45.4976 77.5148C46.2297 78.7178 47.2672 80.1295 48.4129 81.3888C49.5771 82.6682 50.7583 83.685 51.7616 84.2123C52.8042 84.7601 53.1305 84.5476 53.2373 84.4587C53.5663 84.1844 53.8487 83.6135 53.8299 82.4595C53.8114 81.3318 53.5028 79.9672 53.0475 78.5799C52.5985 77.2119 52.0391 75.9173 51.5868 74.9571C51.3618 74.4794 51.1659 74.09 51.0276 73.8223C50.9584 73.6885 50.9037 73.5855 50.8672 73.5173C50.8489 73.4832 50.8351 73.4579 50.8264 73.4418C50.822 73.4338 50.8189 73.4279 50.8171 73.4246C50.8164 73.4234 50.816 73.4226 50.8157 73.422L50.8154 73.4215L50.8152 73.4213L49.9802 71.9112L51.5173 71.1253C51.5176 71.1252 51.518 71.1253 51.5183 71.1251C51.5206 71.1239 51.5249 71.1214 51.5313 71.1181C51.5441 71.1114 51.565 71.1006 51.5931 71.0857C51.6495 71.0557 51.7355 71.0095 51.8465 70.9479C52.0686 70.8247 52.3898 70.641 52.7745 70.405C53.5485 69.9303 54.5587 69.2568 55.5325 68.4503C56.5173 67.6349 57.3991 66.7374 57.9782 65.8282C58.5562 64.9207 58.7464 64.1439 58.6288 63.4723C58.43 62.3373 58.3731 61.949 58.2425 61.5797C58.1337 61.2719 57.9535 60.9358 57.3567 60.0879C53.1067 54.0503 50.4774 49.9464 44.2052 49.2079C42.2691 48.98 40.9797 49.0945 39.8142 49.5047C38.7017 49.8962 37.5773 50.5991 36.0486 51.8004C36.0113 51.9237 35.9684 52.07 35.9228 52.2356C35.7677 52.7977 35.5842 53.5638 35.4631 54.3941C35.3406 55.233 35.2904 56.0811 35.3705 56.825C35.4519 57.5815 35.6526 58.0893 35.9048 58.3967C36.0274 58.5461 36.2152 58.7192 36.4412 58.9007C36.6271 58.6085 36.8272 58.3345 37.0301 58.0768C37.6379 57.3049 38.4642 56.4567 39.0929 55.7487C40.7093 53.9284 42.1678 52.2407 44.5299 51.3549C45.394 51.0309 46.357 51.4686 46.6811 52.3326C47.0051 53.1967 46.5675 54.16 45.7034 54.4841C44.2461 55.0305 43.3122 56.0303 41.5919 57.9677C40.7881 58.873 40.1904 59.4654 39.6559 60.1444C39.1582 60.7765 38.9133 61.2547 38.8311 61.6981C38.7873 61.9344 38.8103 62.0302 38.8906 62.1471C39.0183 62.3329 39.466 62.7915 40.8809 63.2733C41.5259 63.4929 41.7702 63.3208 41.857 63.2586C41.9366 63.2015 41.9998 63.131 42.0425 63.0728C42.057 63.053 42.0667 63.0375 42.0721 63.0287L42.1115 62.9455L42.1875 62.835L43.565 63.781C42.2307 62.8645 42.189 62.8358 42.1878 62.8348L42.188 62.8345C42.1881 62.8343 42.1883 62.8341 42.1885 62.8338C42.1888 62.8333 42.1891 62.8325 42.1896 62.8317C42.1907 62.8302 42.1923 62.828 42.1941 62.8254C42.1977 62.8202 42.2028 62.813 42.2092 62.8038C42.2221 62.7853 42.2403 62.7589 42.2638 62.7254C42.3107 62.6585 42.3782 62.563 42.4626 62.4455C42.6311 62.2109 42.869 61.886 43.148 61.5228C43.6897 60.8175 44.4464 59.8885 45.174 59.2138C45.9094 58.5319 46.9044 57.8415 47.6574 57.3507C48.0452 57.0979 48.3911 56.8836 48.6407 56.7322C48.7657 56.6564 48.8672 56.5959 48.9384 56.5539C48.9739 56.5329 49.0019 56.5164 49.0216 56.5049C49.0314 56.4992 49.0391 56.4949 49.0447 56.4917C49.0474 56.49 49.0498 56.4887 49.0514 56.4877C49.0523 56.4872 49.053 56.4868 49.0535 56.4865C49.0538 56.4864 49.054 56.4862 49.0542 56.4861L49.0545 56.4858C49.0546 56.4858 49.0547 56.4858 49.8645 57.8871L49.0545 56.4858C49.8535 56.0241 50.8758 56.2974 51.3376 57.0964C51.7993 57.8954 51.5258 58.9173 50.7268 59.379C50.7263 59.3794 50.725 59.3804 50.7233 59.3814C50.72 59.3833 50.7145 59.3866 50.707 59.3909C50.692 59.3997 50.6687 59.4132 50.6383 59.4313C50.5771 59.4674 50.4868 59.5211 50.3739 59.5895C50.1477 59.7268 49.8333 59.9217 49.4825 60.1504C48.758 60.6227 47.9624 61.1856 47.4462 61.6643C46.9353 62.1379 46.3195 62.88 45.7983 63.5586C45.6026 63.8133 45.4293 64.0483 45.2899 64.24C45.2958 64.2743 45.3021 64.31 45.3094 64.3468C45.3884 64.7431 45.5378 65.2095 45.8015 65.6154C45.8684 65.7182 45.908 65.7294 45.9335 65.738C45.9905 65.7572 46.1421 65.7861 46.4377 65.7364C47.0625 65.6312 47.907 65.25 48.8514 64.6629C49.7635 64.0959 50.6331 63.4233 51.2849 62.8814C51.6079 62.6129 51.871 62.3818 52.0516 62.2193C52.1419 62.1382 52.2112 62.0744 52.2568 62.0321C52.2795 62.011 52.2964 61.9954 52.3069 61.9855C52.3122 61.9806 52.3158 61.977 52.3179 61.975L52.3197 61.9734C52.988 61.3376 54.0452 61.3635 54.6814 62.0314C55.3179 62.6997 55.2921 63.7574 54.6239 64.3938L53.4716 63.184C54.624 64.3939 54.6237 64.3943 54.6234 64.3945C54.6232 64.3947 54.6229 64.395 54.6227 64.3952C54.6222 64.3957 54.6215 64.3962 54.6208 64.3969C54.6193 64.3983 54.6173 64.4003 54.615 64.4025C54.6104 64.4069 54.604 64.4128 54.5961 64.4202C54.5802 64.4351 54.5578 64.4562 54.5292 64.4827C54.472 64.5357 54.3901 64.611 54.2863 64.7044C54.0789 64.8908 53.7829 65.1509 53.4217 65.4513C52.705 66.0472 51.7055 66.8235 50.6156 67.5011C49.5582 68.1584 48.2677 68.8172 46.9923 69.0319C46.3379 69.1421 45.598 69.151 44.8681 68.9056C44.1069 68.6496 43.4643 68.1518 42.9995 67.4367C42.8139 67.1511 42.6605 66.8619 42.5333 66.5793C41.7623 66.7895 40.8447 66.7914 39.8037 66.4369C38.0644 65.8447 36.8431 65.0682 36.1363 64.0397C35.731 63.4499 35.5501 62.8599 35.4913 62.3231C35.4208 62.2778 35.3479 62.2302 35.2733 62.1804C34.7068 61.8028 33.8868 61.2056 33.3216 60.5171C32.5023 59.5189 32.1671 58.2927 32.0477 57.1826C31.9764 56.5202 31.9765 55.8479 32.0183 55.2032C31.4782 55.6784 30.9505 56.1475 30.458 56.5889C29.6507 57.3125 28.9435 57.9556 28.4383 58.4177C28.1858 58.6486 27.984 58.8344 27.8455 58.962C27.7763 59.0257 27.7229 59.0749 27.687 59.1082C27.669 59.1248 27.6552 59.1373 27.6462 59.1457C27.6417 59.1499 27.6384 59.1532 27.6362 59.1552C27.6351 59.1563 27.6341 59.1569 27.6336 59.1573C27.6333 59.1576 27.6332 59.1579 27.6331 59.158L27.5839 59.2035L27.5313 59.245C25.7421 60.6549 23.7618 62.7143 22.1957 64.4691C21.4207 65.3375 20.762 66.1144 20.2976 66.6735C20.0657 66.9528 19.8827 67.1773 19.7584 67.3309C19.6963 67.4077 19.6488 67.4666 19.6174 67.506C19.6017 67.5256 19.59 67.5405 19.5824 67.55C19.5787 67.5547 19.576 67.5581 19.5743 67.5603C19.5734 67.5613 19.5727 67.5622 19.5724 67.5626L19.5722 67.5628L19.5668 67.5698L19.561 67.5764L19.5612 67.5766L19.561 67.5768C19.5607 67.5771 19.5603 67.5778 19.5596 67.5787C19.5581 67.5805 19.5556 67.5837 19.5521 67.588C19.5452 67.5967 19.5342 67.6102 19.5195 67.6286C19.4901 67.6654 19.4454 67.7214 19.3866 67.796C19.269 67.9452 19.0947 68.1685 18.8717 68.4596C18.4255 69.0419 17.7849 69.8951 17.0154 70.9698C15.475 73.1209 13.4233 76.151 11.3767 79.6663C7.23801 86.7749 3.29969 95.5701 3.34212 103.039C3.39203 111.816 8.04492 119.153 14.2615 124.69C20.4883 130.236 28.1144 133.816 33.6704 135.078C38.9156 136.269 45.5056 134.204 51.0483 131.594C53.7681 130.314 56.1383 128.949 57.8294 127.904C58.3841 127.561 58.864 127.253 59.2582 126.995L51.3882 112.993C51.1437 113.028 50.8652 113.066 50.5564 113.107C49.3214 113.268 47.5974 113.462 45.6381 113.591C41.771 113.847 36.7909 113.866 32.8542 112.776C28.7427 111.637 24.8048 110.56 21.8828 108.612C20.3791 107.609 19.1016 106.354 18.1746 104.713C17.2497 103.076 16.7224 101.141 16.5932 98.8462C16.2935 93.5216 18.9005 87.5779 21.3751 83.1658C22.6362 80.9173 23.9123 78.982 24.8726 77.609C25.3533 76.9216 25.7565 76.3728 26.0414 75.9935C26.1839 75.8038 26.2968 75.6563 26.3752 75.555C26.4144 75.5043 26.4451 75.4651 26.4664 75.438C26.477 75.4244 26.4854 75.4138 26.4913 75.4063C26.4943 75.4025 26.4968 75.3996 26.4985 75.3974L26.5013 75.3937C26.5016 75.3934 26.5019 75.393 27.7525 76.387L26.5018 75.393L27.5702 74.0488L28.885 75.1534C28.8853 75.1536 28.8855 75.154 28.8861 75.1545C28.8879 75.156 28.8911 75.1586 28.8955 75.1622C28.9042 75.1695 28.918 75.1811 28.9367 75.1965C28.9741 75.2274 29.0311 75.274 29.1053 75.334C29.2538 75.4542 29.4714 75.628 29.7426 75.8373C30.2868 76.2574 31.038 76.8144 31.8717 77.3682C32.7109 77.9257 33.6025 78.4588 34.4313 78.8469C35.3017 79.2544 35.9263 79.4166 36.2843 79.4166C36.5147 79.4166 36.9489 79.2895 37.5907 78.8413C38.202 78.4143 38.8363 77.8122 39.43 77.1589C40.0167 76.5132 40.5252 75.8604 40.8888 75.3653C41.0696 75.1191 41.2122 74.9152 41.3082 74.775C41.3562 74.705 41.3923 74.6509 41.4157 74.6158C41.4273 74.5983 41.4358 74.5856 41.4409 74.5778C41.4434 74.5739 41.4451 74.5712 41.446 74.5699C41.4462 74.5696 41.4464 74.5693 41.4465 74.5692Z" fill="var(--fill-0, #460001)"/>
<g id="Group 195929311">
<g id="Group 68">
<path id="Vector 116 (Stroke)" d="M134.864 29.8085C138.932 29.5439 141.709 32.7672 142.336 36.419C143.332 42.2211 141.784 45.7516 139.658 47.8035C138.633 48.7921 137.543 49.3693 136.711 49.7001C136.579 49.7525 136.453 49.7984 136.334 49.8395C136.224 50.403 136.051 51.1654 135.782 52.0651C135.206 53.9913 134.188 56.5724 132.415 59.188C128.827 64.4813 122.237 69.7701 110.435 70.2072C107.094 70.3309 104.221 68.9797 101.857 67.0342C99.5056 65.0995 97.5866 62.5236 96.0831 60.0158C94.5735 57.4976 93.4415 54.9784 92.6885 53.0967C92.311 52.1535 92.0263 51.3645 91.835 50.8081C91.7394 50.5299 91.6669 50.3093 91.6178 50.1564C91.5932 50.0799 91.5745 50.0202 91.5616 49.9787C91.5551 49.958 91.55 49.9416 91.5464 49.93C91.5447 49.9243 91.5433 49.9197 91.5422 49.9162C91.5417 49.9146 91.5414 49.9132 91.5411 49.912C91.5409 49.9115 91.5407 49.9107 91.5406 49.9104C91.5421 49.9094 91.5901 49.8945 93.0258 49.4614L91.5404 49.9095L91.0187 48.1802L92.8067 47.9254C92.8068 47.9254 92.807 47.9252 92.8074 47.9252C92.8082 47.9251 92.8097 47.925 92.8116 47.9247C92.8154 47.9242 92.8214 47.9231 92.8295 47.9219C92.8459 47.9195 92.8712 47.9159 92.9046 47.911C92.9714 47.9011 93.0715 47.8861 93.202 47.866C93.4633 47.8258 93.8465 47.7654 94.3294 47.6848C95.2955 47.5236 96.6586 47.2822 98.2413 46.9624C101.419 46.3204 105.432 45.3726 108.888 44.1396C112.024 43.021 116.732 41.0738 120.834 39.2668C122.882 38.3648 124.764 37.5041 126.209 36.8062C126.933 36.4568 127.537 36.1531 127.993 35.9087C128.141 35.8298 128.268 35.7588 128.377 35.6966C128.408 35.5985 128.443 35.4913 128.483 35.3768C128.675 34.8269 128.984 34.0801 129.452 33.3125C130.38 31.7927 132.074 29.9901 134.864 29.8085ZM139.278 36.9445C138.828 34.3266 137.064 32.7753 135.065 32.9052C133.689 32.9948 132.757 33.8546 132.101 34.9294C131.778 35.4591 131.555 35.9928 131.413 36.399C131.343 36.5997 131.295 36.7632 131.266 36.8717C131.251 36.9258 131.241 36.9658 131.235 36.9892C131.232 37.0009 131.231 37.0085 131.23 37.0116L131.23 37.0128L131.116 37.5433L130.69 37.8881C130.394 38.1269 129.926 38.3941 129.458 38.6443C128.949 38.9174 128.302 39.242 127.558 39.6008C126.07 40.3195 124.153 41.1958 122.085 42.1066C117.957 43.9251 113.17 45.9068 109.931 47.0624C106.27 48.3685 102.09 49.3509 98.8558 50.0044C97.3652 50.3055 96.0642 50.538 95.0922 50.7025C95.2278 51.0701 95.3869 51.4873 95.5696 51.9437C96.2834 53.7273 97.3456 56.0865 98.7446 58.4201C100.15 60.764 101.854 63.0134 103.829 64.638C105.79 66.2519 107.945 67.1943 110.321 67.1063C121.077 66.7079 126.78 61.9708 129.846 57.4471C131.4 55.1542 132.299 52.879 132.809 51.176C133.063 50.3265 133.218 49.6254 133.309 49.1444C133.354 48.9041 133.383 48.7193 133.401 48.5991C133.409 48.539 133.415 48.4952 133.418 48.4686C133.42 48.4553 133.421 48.4462 133.421 48.4418C133.422 48.4396 133.422 48.4385 133.422 48.4385L133.548 47.2464L134.725 47.072C134.723 47.0722 134.723 47.0722 134.724 47.072C134.727 47.0715 134.736 47.0701 134.751 47.0671C134.782 47.0611 134.837 47.0494 134.912 47.0305C135.062 46.9925 135.289 46.9258 135.564 46.8165C136.117 46.5965 136.835 46.2147 137.503 45.5705C138.76 44.3565 140.133 41.9251 139.278 36.9445Z" fill="var(--fill-0, #460001)"/>
<g id="Group 85">
<path id="Subtract" d="M125.621 5.60007C126.002 5.62348 126.401 5.65279 126.811 5.69075C129.63 5.95168 133.318 6.6155 135.877 8.39957C138.159 9.99138 139.587 12.5204 140.492 15.1975C141.403 17.8911 141.841 20.8992 142.032 23.6675C142.224 26.4458 142.17 29.0437 142.07 30.9422C142.02 31.8932 141.958 32.6735 141.908 33.2186C141.883 33.4912 141.861 33.7053 141.845 33.8529C141.837 33.9267 141.83 33.9839 141.826 34.0235C141.824 34.0433 141.822 34.0588 141.82 34.0697C141.82 34.075 141.819 34.0794 141.819 34.0825C141.819 34.0841 141.819 34.0855 141.818 34.0865C141.818 34.087 141.818 34.0876 141.818 34.0879L140.278 33.9004L141.818 34.0886L141.196 39.1784L138.893 34.6005C138.89 34.5949 138.885 34.5845 138.877 34.5697C138.858 34.5364 138.827 34.4814 138.783 34.4096C138.694 34.2651 138.558 34.0575 138.375 33.8249C138 33.3475 137.482 32.8282 136.849 32.4906C136.248 32.1699 135.527 32.0008 134.63 32.2103C133.698 32.4279 132.431 33.0882 130.849 34.7156C130.297 35.2832 129.626 35.4589 129.057 35.4852C128.987 35.6437 128.906 35.8 128.814 35.9521C128.007 37.2776 126.094 38.8341 122.397 40.8534C113.304 45.82 106.211 49.1026 94.9168 50.4834C88.5844 51.2576 84.8699 51.2576 78.5375 50.4834L78.4643 50.4746L78.3923 50.4587C76.9809 50.1482 75.7739 49.6419 74.9603 48.7929C74.0658 47.8593 73.8269 46.7054 74.0139 45.5766C74.187 44.5317 74.7191 43.499 75.3524 42.5446C75.9994 41.5697 76.8367 40.5528 77.754 39.5288C79.5489 37.5253 81.9098 35.2205 83.9118 33.0981C85.2963 31.6302 86.5498 30.209 87.5314 28.8682C87.8086 28.9883 88.1236 29.0293 88.4427 28.9675H88.4441C88.4453 28.9672 88.4476 28.9669 88.4506 28.9663C88.4566 28.9651 88.4661 28.9633 88.4788 28.9609C88.5043 28.9561 88.5432 28.9486 88.5946 28.939C88.6979 28.9198 88.852 28.8915 89.0518 28.856C89.4514 28.7851 90.0338 28.6855 90.7582 28.5714C92.2083 28.3431 94.2223 28.0583 96.4766 27.8319C101.047 27.3731 106.383 27.1805 110.051 28.0611C113.146 28.804 116.994 30.5845 120.144 32.2367C121.702 33.0538 123.059 33.8228 124.026 34.3874C124.509 34.6695 124.894 34.9 125.157 35.0593C125.288 35.1389 125.389 35.2008 125.456 35.2423C125.49 35.263 125.515 35.2786 125.532 35.2889C125.54 35.294 125.546 35.2977 125.55 35.3001C125.552 35.3013 125.554 35.3021 125.554 35.3026L125.555 35.3031L127.37 36.4363L127.883 34.3587L126.377 33.9869L127.883 34.3585V34.3583C127.883 34.358 127.883 34.3575 127.883 34.3571C127.884 34.3562 127.884 34.3547 127.884 34.3532C127.885 34.35 127.886 34.3455 127.888 34.3399C127.89 34.3285 127.894 34.3121 127.9 34.2909C127.91 34.2484 127.925 34.1863 127.944 34.1063C127.981 33.9461 128.036 33.7134 128.102 33.4186C128.234 32.8291 128.415 31.99 128.609 30.9858C128.998 28.9829 129.448 26.2974 129.681 23.6132C130.091 18.8902 128.93 14.1415 127.717 10.6419C127.106 8.87851 126.47 7.40079 125.985 6.36096C125.851 6.07313 125.728 5.81855 125.621 5.60007ZM117.093 0.000135717C118.32 0.00958473 119.304 0.635499 120.009 1.29603C120.722 1.96346 121.297 2.80116 121.735 3.55936C121.982 3.98582 122.197 4.40889 122.38 4.79628C122.184 5.22788 122.188 5.74327 122.436 6.18962C122.436 6.19005 122.436 6.1907 122.436 6.19148C122.438 6.19424 122.441 6.19912 122.445 6.20617C122.452 6.22041 122.465 6.24351 122.481 6.27471C122.515 6.33713 122.565 6.43272 122.63 6.55934C122.76 6.81277 122.948 7.1897 123.172 7.67131C123.622 8.63573 124.215 10.0142 124.785 11.6583C125.934 14.9738 126.945 19.2458 126.589 23.3451C126.369 25.8799 125.941 28.4485 125.563 30.3946C125.482 30.8138 125.402 31.2031 125.329 31.5555C124.355 30.9909 123.059 30.2609 121.586 29.4885C118.401 27.8186 114.267 25.8818 110.776 25.0436C106.553 24.0299 100.756 24.2833 96.1665 24.7441C93.8407 24.9776 91.7675 25.271 90.2757 25.5059C89.8713 25.5696 89.5091 25.6293 89.1959 25.6821C89.6657 24.1475 89.9702 22.5344 90.2549 20.8566C90.6181 18.7161 90.9577 16.4136 91.62 14.2935C92.294 12.1361 93.3314 10.0543 95.1636 8.32124C96.9887 6.59494 99.4911 5.31956 102.925 4.57086C105.305 3.94492 107.727 3.63698 109.537 3.4836C110.45 3.40627 111.217 3.3674 111.759 3.34793C111.792 3.34676 111.823 3.34592 111.854 3.3449C112.128 3.0043 112.511 2.55739 112.968 2.10565C113.441 1.6391 114.028 1.13262 114.686 0.735852C115.332 0.346647 116.164 -0.00701985 117.093 0.000135717ZM115.819 11.4676C115.851 11.3199 115.816 11.1301 115.269 11.2667C113.144 11.7981 102.378 16.3957 102.44 16.3584C102.418 16.3431 103.137 15.4072 103.261 15.301C103.48 15.1134 103.32 14.8174 103.025 14.9112C102.523 15.0707 101.625 16.6538 101.625 16.6538C101.625 16.6538 99.6931 17.2209 99.1733 17.593C99.0511 17.6806 99.1112 18.0145 99.2796 18.0417C99.6447 18.1006 101.084 17.7252 101.093 17.7228C101.091 17.7256 100.645 18.4913 101.016 18.8805C101.102 18.9703 101.4 18.9278 101.264 18.6679C101.166 18.4792 101.583 17.6699 101.701 17.6284C103.356 17.0496 116.359 17.8958 116.569 18.0891C116.777 18.2822 116.965 17.8473 116.392 17.6343C115.818 17.4212 107.42 16.8512 102.026 17.0494C102.848 16.8072 109.948 13.3634 115.293 11.6742C115.503 11.6077 115.795 11.5738 115.819 11.4676ZM110.704 17.9C110.58 17.8115 110.374 17.7937 110.224 17.8681C110.123 17.918 110.075 17.9826 110.04 18.0891C110.014 18.1963 110.026 18.3008 110.08 18.397C110.141 18.4882 110.233 18.5376 110.338 18.5616C110.461 18.5753 110.57 18.5597 110.671 18.4879C110.679 18.4809 110.686 18.474 110.693 18.4672C110.701 18.4953 110.708 18.5227 110.716 18.5499H110.823V18.1954H110.456V18.3017C110.533 18.3057 110.607 18.3097 110.681 18.3136C110.658 18.3587 110.618 18.387 110.573 18.408C110.458 18.4497 110.308 18.4684 110.22 18.3609C110.138 18.261 110.155 18.1246 110.22 18.0424C110.237 18.0214 110.273 17.9925 110.285 17.9886C110.371 17.9562 110.436 17.9513 110.527 17.9709C110.574 17.9848 110.602 18.0046 110.636 18.0424C110.658 18.0667 110.681 18.1128 110.681 18.1128H110.811C110.811 18.1128 110.805 18.0371 110.784 17.9947C110.763 17.9514 110.74 17.9253 110.704 17.9ZM109.203 18.5616H109.333C109.337 18.3849 109.341 18.2133 109.345 18.0417C109.366 18.0733 109.388 18.103 109.412 18.1327C109.46 18.1934 109.507 18.2546 109.552 18.318C109.574 18.3499 109.767 18.5582 109.77 18.5616H109.912C109.912 18.561 109.925 18.0892 109.923 17.8527H109.782C109.778 18.0236 109.77 18.3538 109.77 18.3606L109.599 18.1364C109.599 18.1364 109.511 18.0272 109.47 17.9695C109.456 17.9498 109.368 17.8527 109.368 17.8527H109.203V18.5616ZM103.193 17.8217C103.137 17.821 103.083 17.8214 103.029 17.8389C102.922 17.8848 102.851 17.954 102.803 18.0611C102.768 18.1591 102.781 18.266 102.824 18.3585C102.873 18.4522 102.943 18.5093 103.043 18.542C103.185 18.5691 103.34 18.566 103.462 18.4844C103.549 18.418 103.593 18.3298 103.608 18.2217C103.612 18.1191 103.584 18.025 103.52 17.9436C103.434 17.8562 103.35 17.8258 103.23 17.8221C103.217 17.822 103.205 17.8218 103.193 17.8217ZM102.349 17.8217C102.257 17.8206 102.185 17.8211 102.103 17.8762C102.035 17.9222 101.998 17.985 101.973 18.0417C101.936 18.1407 101.937 18.2678 101.979 18.3651C102.03 18.4506 102.111 18.5121 102.206 18.5422C102.343 18.568 102.493 18.5644 102.612 18.4851C102.692 18.4215 102.715 18.3533 102.729 18.2543H102.587C102.583 18.2704 102.579 18.2861 102.576 18.3017C102.532 18.3664 102.485 18.3989 102.41 18.4196C102.324 18.4317 102.247 18.4216 102.174 18.3725C102.127 18.3176 102.105 18.2617 102.1 18.19C102.106 18.1076 102.125 18.0523 102.186 17.9944C102.258 17.95 102.333 17.9464 102.422 17.959C102.48 17.9673 102.531 18.0066 102.552 18.0357C102.574 18.0667 102.579 18.0931 102.587 18.1243H102.729C102.729 18.0515 102.716 18.0033 102.671 17.9464C102.588 17.86 102.503 17.8257 102.384 17.8219C102.367 17.8218 102.367 17.8218 102.349 17.8217ZM107.273 17.8389C107.245 17.839 107.217 17.8391 107.189 17.8394C107.17 17.8396 107.151 17.8397 107.131 17.8399C107.074 17.8401 107.017 17.8407 106.96 17.8413C106.959 17.9236 106.959 18.006 106.959 18.0884C106.959 18.1303 106.959 18.1723 106.959 18.2142C106.959 18.2554 106.958 18.2966 106.958 18.3378C106.958 18.3537 106.958 18.369 106.958 18.3844C106.958 18.4001 106.958 18.4154 106.958 18.4306C106.958 18.4449 106.958 18.4589 106.958 18.4728C106.958 18.4945 106.958 18.5163 106.96 18.538C106.971 18.5499 106.971 18.55 107.005 18.5516H107.251C107.353 18.5515 107.459 18.5432 107.544 18.4814C107.628 18.4091 107.684 18.3267 107.695 18.214C107.696 18.11 107.665 18.0207 107.595 17.9431C107.513 17.8682 107.409 17.8384 107.299 17.8385C107.29 17.8386 107.282 17.8388 107.273 17.8389ZM104.382 18.0881C104.382 18.1301 104.382 18.1721 104.382 18.214C104.382 18.2551 104.382 18.2962 104.382 18.3373C104.382 18.3532 104.382 18.3687 104.382 18.3842C104.381 18.3998 104.381 18.4152 104.381 18.4303C104.381 18.4447 104.381 18.4586 104.381 18.4725C104.381 18.4943 104.382 18.5161 104.383 18.5378C104.394 18.5496 104.394 18.5498 104.421 18.5513C104.437 18.5513 104.437 18.5511 104.454 18.5511C104.473 18.5512 104.493 18.5509 104.513 18.5497C104.524 18.5379 104.524 18.5378 104.526 18.5115C104.526 18.4998 104.526 18.4885 104.526 18.4772C104.526 18.4659 104.525 18.4549 104.525 18.4439C104.525 18.3551 104.525 18.355 104.524 18.2662H104.95V18.1362H104.524V17.959H104.962V17.8408H104.383C104.382 17.9232 104.382 18.0057 104.382 18.0881ZM105.754 17.8413C105.754 17.8774 105.753 17.9138 105.757 17.9497C105.759 17.957 105.76 17.9642 105.762 17.9713C105.763 17.9797 105.765 17.9877 105.767 17.9958C105.792 18.122 105.795 18.2307 105.772 18.3574C105.769 18.3699 105.769 18.37 105.767 18.3823C105.765 18.3906 105.763 18.3987 105.762 18.4068C105.753 18.4491 105.753 18.4492 105.754 18.5499C105.825 18.5502 105.896 18.5505 105.968 18.5506C105.997 18.5507 106.026 18.5506 106.055 18.5506C106.097 18.5508 106.14 18.551 106.183 18.5511C106.197 18.5511 106.21 18.5511 106.224 18.5511C106.237 18.5512 106.25 18.5513 106.263 18.5513H106.332C106.357 18.5499 106.357 18.55 106.368 18.5383V18.4317C106.136 18.4258 106.136 18.4259 105.908 18.4201C105.916 18.3599 105.924 18.3014 105.931 18.2429H106.333V18.1247C106.196 18.1207 106.064 18.1167 105.931 18.1128C105.923 18.0606 105.916 18.0099 105.908 17.9592H106.357V17.8413H105.754ZM105.034 17.8408C105.074 18.0807 105.085 18.2343 105.043 18.4653C105.036 18.5004 105.029 18.5176 105.045 18.5497C105.117 18.55 105.188 18.55 105.259 18.5502C105.288 18.5502 105.317 18.5503 105.346 18.5504C105.389 18.5506 105.432 18.5508 105.474 18.5509C105.488 18.5509 105.502 18.5509 105.515 18.5509C105.528 18.5509 105.542 18.551 105.555 18.5511H105.624C105.648 18.5497 105.648 18.5496 105.66 18.5378V18.4315H105.199C105.207 18.3673 105.215 18.3048 105.223 18.2425H105.636C105.636 18.1362 105.636 18.1361 105.624 18.1243C105.603 18.1235 105.583 18.1231 105.562 18.1231C105.553 18.1232 105.544 18.123 105.535 18.1231C105.507 18.1232 105.48 18.1234 105.452 18.1236C105.432 18.1237 105.413 18.1237 105.394 18.1238C105.349 18.1239 105.304 18.1241 105.259 18.1243C105.241 18.1244 105.241 18.1242 105.223 18.1243C105.215 18.0681 105.207 18.0135 105.199 17.959H105.66V17.8408H105.034ZM108.919 18.0884C108.919 18.1303 108.919 18.1723 108.918 18.2142C108.918 18.2554 108.918 18.2966 108.918 18.3378C108.918 18.3537 108.918 18.3692 108.918 18.3847V18.4728C108.918 18.4855 108.918 18.498 108.918 18.5103C108.919 18.5382 108.919 18.5381 108.931 18.5499H109.061V17.8413H108.919C108.919 17.9236 108.919 18.006 108.919 18.0884ZM107.786 18.5497H107.928V17.8408H107.786V18.5497ZM108.069 18.5495H108.199C108.203 18.3727 108.207 18.2012 108.211 18.0296C108.232 18.0612 108.254 18.0908 108.278 18.1205C108.326 18.1813 108.373 18.2425 108.418 18.3059C108.441 18.3382 108.636 18.5495 108.636 18.5495H108.778C108.778 18.5495 108.791 18.0772 108.79 17.8406H108.648C108.644 18.0117 108.636 18.3423 108.636 18.3485L108.465 18.1243C108.465 18.1243 108.377 18.015 108.336 17.9574C108.322 17.9377 108.234 17.8406 108.234 17.8406H108.069V18.5495ZM103.697 18.5373H103.839V18.2658C103.84 18.2658 103.887 18.2657 103.927 18.2672C103.943 18.2672 103.959 18.2672 103.974 18.2672C103.991 18.2672 104.008 18.2674 104.025 18.2674C104.052 18.2673 104.078 18.2671 104.105 18.2672C104.123 18.2672 104.14 18.2674 104.158 18.2674C104.166 18.2674 104.174 18.2672 104.182 18.2672C104.212 18.2671 104.276 18.2674 104.276 18.2674C104.276 18.2674 104.276 18.1747 104.276 18.1357H103.839V17.9585H104.288V17.8287H103.697V18.5373ZM103.007 18.0063C103.125 17.9059 103.326 17.9297 103.414 18.0301C103.451 18.0724 103.459 18.1158 103.465 18.1651C103.467 18.2485 103.444 18.3031 103.388 18.3648C103.331 18.4166 103.269 18.4344 103.193 18.4362C103.093 18.4316 103.033 18.3987 102.965 18.3252C102.926 18.2608 102.919 18.198 102.93 18.1245C102.945 18.0783 102.956 18.0494 103.007 18.0063ZM107.214 17.9578C107.291 17.9564 107.358 17.9591 107.432 17.983C107.491 18.0157 107.525 18.0607 107.545 18.1245C107.559 18.188 107.558 18.2593 107.523 18.3152C107.516 18.3232 107.509 18.331 107.502 18.3387C107.496 18.3468 107.489 18.3547 107.483 18.3625C107.416 18.4174 107.347 18.4238 107.264 18.4231C107.251 18.4228 107.238 18.4225 107.225 18.4222C107.183 18.4214 107.142 18.4208 107.101 18.4201V17.9592C107.158 17.9585 107.158 17.9586 107.214 17.9578ZM106.646 18.1126C106.597 18.1127 106.557 18.1523 106.557 18.2012C106.557 18.2501 106.597 18.2897 106.646 18.2898C106.695 18.2898 106.734 18.2501 106.734 18.2012C106.734 18.1523 106.694 18.1126 106.646 18.1126ZM109.699 14.4385C109.823 14.3615 109.788 14.0015 109.457 14.1077C109.126 14.214 108.412 15.0057 107.91 15.7558C107.908 15.7545 107.823 15.6799 107.756 15.673C107.407 15.6376 106.528 15.6495 106.279 15.7204C105.887 15.8326 105.754 16.7658 106.279 16.7659C107.071 16.7658 106.941 16.06 106.941 16.057C107.237 15.9766 107.407 15.9798 107.715 16.0274C107.712 16.0307 107.502 16.2823 107.502 16.429C107.502 16.6483 107.603 16.7218 107.715 16.7125C107.998 16.6888 108.615 15.9316 108.766 16.0157C108.766 16.1516 108.744 16.4334 108.979 16.5649C109.324 16.7584 110.03 16.2091 110.036 16.2045C110.036 16.206 110.074 16.427 110.314 16.4883C110.842 16.6233 111.469 15.5296 111.796 15.0588C111.884 14.9327 111.7 14.6675 111.536 14.8401C111.192 15.2037 110.546 16.0988 110.449 16.1101C110.44 16.0907 110.785 15.4523 110.497 15.3896C110.136 15.3111 110.107 15.8089 110.107 15.8089C109.806 15.874 109.292 16.3168 109.185 16.2045C109.079 16.0923 109.201 15.8558 109.038 15.732C108.82 15.5668 108.328 15.8415 108.323 15.8444C108.815 15.1401 109.575 14.5154 109.699 14.4385ZM114.372 13.8062C114.011 13.78 114.089 14.1894 113.893 14.2375C113.58 14.3143 113.16 14.3496 112.883 14.4086C112.706 14.4464 112.697 14.7333 112.83 14.7455C113.155 14.775 113.722 14.6627 113.722 14.6627C113.513 15.0448 113.395 15.2592 113.202 15.6374C113.202 15.6374 112.05 16.1592 112.05 15.9798C112.05 15.8499 112.216 15.7022 112.263 15.6313C112.3 15.5746 112.264 15.4465 112.263 15.4425C112.266 15.4432 112.423 15.4769 112.458 15.3893C112.492 15.3008 112.743 15.1199 112.753 14.9877C112.772 14.7278 112.509 14.6447 112.304 14.8163C112.05 15.029 112.133 15.3539 112.133 15.3539C112.129 15.3538 112.025 15.3503 111.967 15.3775C111.702 15.5015 111.459 16.0626 111.731 16.3225C112.047 16.625 112.895 16.1512 112.895 16.1512C112.895 16.1512 112.647 16.535 112.676 16.6414C112.716 16.7835 112.93 16.8049 113.013 16.6829C113.314 16.2399 113.997 14.7995 114.218 14.6627C114.513 14.4796 115.204 14.5977 115.204 14.4501C115.204 14.3494 115.222 14.2857 115.133 14.2375C115.003 14.1667 114.431 14.2021 114.431 14.2021C114.431 14.2021 114.696 13.8299 114.372 13.8062ZM106.551 16.0153C106.586 16.008 106.616 16.0444 106.616 16.0803C106.616 16.1807 106.315 16.3992 106.315 16.3992C106.315 16.3992 106.409 16.0449 106.551 16.0153ZM115.929 15.2709C115.725 15.1616 114.86 15.1349 114.335 15.2471C114.063 15.3052 113.898 15.9443 114.051 16.1805C114.205 16.4166 114.714 16.3258 114.914 16.0269C115.007 15.887 114.997 15.6016 114.996 15.5956C114.997 15.578 115.545 15.4359 115.894 15.6311C116.101 15.7469 116.095 15.3596 115.929 15.2709ZM114.589 15.5611C114.624 15.5538 114.654 15.5903 114.654 15.6262C114.653 15.7259 114.357 15.9416 114.353 15.9451C114.353 15.9446 114.447 15.5907 114.589 15.5611Z" fill="var(--fill-0, #460001)"/>
</g>
<path id="Vector 117 (Stroke)" d="M105.647 51.7949L105.393 47.2688C105.345 46.4132 106 45.6769 106.855 45.6241C107.71 45.5714 108.442 46.2223 108.49 47.0778L108.744 51.6039C108.792 52.4595 108.138 53.1959 107.283 53.2486C106.427 53.3013 105.695 52.6505 105.647 51.7949Z" fill="var(--fill-0, #460001)"/>
<path id="Vector 118 (Stroke)" d="M107.68 55.0358C109.093 54.836 110.473 55.0971 112.07 55.7086C112.87 56.0151 113.27 56.9124 112.963 57.7127C112.657 58.5129 111.759 58.913 110.959 58.6064C109.647 58.1036 108.823 58.0081 108.114 58.1083C107.369 58.2137 106.567 58.5589 105.314 59.2944C104.575 59.7281 103.625 59.4807 103.191 58.7416C102.757 58.0026 103.005 57.052 103.744 56.6182C105.067 55.8416 106.304 55.2303 107.68 55.0358Z" fill="var(--fill-0, #460001)"/>
<path id="Vector 119 (Stroke)" d="M102.155 68.0261C102.269 67.1768 103.049 66.5804 103.899 66.6941C104.748 66.8078 105.344 67.5885 105.231 68.4378L103.321 82.7078C103.207 83.5572 102.427 84.1535 101.577 84.0399C100.728 83.9262 100.132 83.1455 100.245 82.2962L102.155 68.0261ZM132.972 53.5624C133.793 53.319 134.657 53.7877 134.9 54.6093L141.584 77.1676C141.827 77.9892 141.359 78.8527 140.537 79.0962C139.715 79.3396 138.852 78.8709 138.609 78.0492L131.925 55.491C131.681 54.6694 132.15 53.8059 132.972 53.5624Z" fill="var(--fill-0, #460001)"/>
</g>
<path id="Vector 120 (Stroke)" d="M192.176 181.313C192.177 181.314 192.179 181.316 192.181 181.317C192.437 181.51 192.799 181.791 193.236 182.156C194.108 182.883 195.286 183.946 196.513 185.294C198.948 187.97 201.675 191.875 202.482 196.597C203.159 200.554 201.75 204.007 199.38 206.544C197.03 209.06 193.709 210.718 190.393 211.192C187.077 211.665 183.598 210.97 181.131 208.533C178.648 206.08 177.454 202.127 178.163 196.649C178.179 196.529 178.176 196.23 178.095 195.692C178.019 195.18 177.886 194.535 177.698 193.768C177.323 192.236 176.748 190.286 176.03 188.057C174.597 183.603 172.622 178.109 170.622 172.753C168.622 167.401 166.603 162.2 165.082 158.336C164.322 156.405 163.687 154.808 163.242 153.694C163.019 153.138 162.845 152.702 162.725 152.405C162.666 152.257 162.62 152.144 162.589 152.067C162.574 152.029 162.562 152 162.554 151.981C162.551 151.971 162.548 151.964 162.546 151.959C162.545 151.957 162.544 151.955 162.544 151.954C162.543 151.953 162.543 151.953 162.543 151.952C162.543 151.952 162.561 151.945 163.76 151.46L162.543 151.952L161.962 150.514L163.476 150.178L163.479 150.178C163.482 150.177 163.486 150.176 163.491 150.175C163.501 150.173 163.517 150.169 163.538 150.164C163.581 150.155 163.645 150.14 163.727 150.121C163.893 150.083 164.135 150.026 164.437 149.952C165.041 149.804 165.882 149.59 166.831 149.324C168.748 148.787 171.024 148.06 172.662 147.27C174.271 146.495 176.225 145.198 177.814 144.059C178.601 143.496 179.282 142.984 179.766 142.612C180.008 142.426 180.201 142.276 180.332 142.173C180.397 142.122 180.447 142.082 180.481 142.055C180.498 142.042 180.51 142.032 180.519 142.025C180.523 142.022 180.526 142.02 180.528 142.018C180.528 142.017 180.529 142.017 180.529 142.017L182.132 140.731L192.176 181.313ZM180.559 145.304C180.196 145.575 179.786 145.877 179.344 146.194C177.732 147.348 175.626 148.757 173.802 149.636C171.944 150.531 169.484 151.308 167.539 151.853C166.79 152.063 166.105 152.241 165.545 152.382C165.588 152.489 165.633 152.602 165.68 152.72C166.127 153.837 166.763 155.438 167.525 157.375C169.049 161.247 171.075 166.463 173.082 171.834C175.087 177.203 177.078 182.741 178.53 187.253C179.255 189.506 179.852 191.523 180.249 193.144C180.447 193.953 180.6 194.683 180.692 195.303C180.781 195.898 180.832 196.492 180.768 196.987C180.124 201.958 181.267 204.976 182.976 206.665C184.701 208.369 187.269 208.985 190.021 208.592C192.772 208.199 195.539 206.811 197.461 204.752C199.363 202.715 200.411 200.064 199.894 197.039C199.207 193.021 196.848 189.563 194.571 187.061C193.442 185.82 192.356 184.841 191.555 184.172C191.154 183.839 190.827 183.584 190.602 183.415C190.49 183.331 190.404 183.268 190.347 183.227C190.319 183.207 190.298 183.192 190.285 183.183C190.279 183.179 190.274 183.176 190.272 183.174L190.27 183.173L189.861 182.891L180.559 145.304Z" fill="var(--fill-0, #460001)"/>
<path id="Subtract_2" d="M140.437 76.6265C140.437 75.3417 140.437 75.3141 140.437 75.3135H140.473C140.496 75.3136 140.53 75.3138 140.574 75.314C140.662 75.3144 140.791 75.3149 140.957 75.3163C141.29 75.3192 141.77 75.3249 142.365 75.3362C143.554 75.3587 145.203 75.4039 147.043 75.4942C150.693 75.6733 155.203 76.0344 158.347 76.7812C160.005 77.1751 161.671 78.3938 163.266 79.9654C164.893 81.5682 166.589 83.6831 168.293 86.1006C171.704 90.9389 175.244 97.1253 178.438 103.195C181.637 109.273 184.507 115.269 186.576 119.743C187.612 121.98 188.447 123.839 189.024 125.139C189.313 125.789 189.537 126.3 189.689 126.648C189.765 126.823 189.823 126.956 189.863 127.047C189.882 127.092 189.897 127.127 189.907 127.15C189.912 127.161 189.916 127.17 189.918 127.176C189.919 127.179 189.921 127.181 189.921 127.183C189.922 127.184 189.922 127.184 189.922 127.185C189.921 127.186 189.877 127.205 188.716 127.704L189.95 128.153L189.949 128.156C189.948 128.158 189.947 128.16 189.946 128.163C189.944 128.169 189.941 128.178 189.937 128.19C189.928 128.212 189.916 128.245 189.9 128.288C189.868 128.374 189.821 128.498 189.76 128.658C189.638 128.978 189.458 129.439 189.227 130.007C188.765 131.143 188.097 132.714 187.269 134.456C185.63 137.905 183.303 142.159 180.653 144.99C177.645 148.204 173.368 150.018 169.963 151.032C168.243 151.544 166.705 151.863 165.595 152.056C165.039 152.152 164.588 152.216 164.274 152.257C164.116 152.277 163.993 152.292 163.907 152.302C163.864 152.306 163.83 152.31 163.807 152.312C163.795 152.313 163.786 152.314 163.779 152.315L163.768 152.316C163.767 152.316 163.767 152.316 163.767 152.316L163.643 151.009L163.766 152.316L163.065 152.382L162.622 151.835L162.056 151.136C160.888 148.651 159.804 146.401 159.222 145.343C158.482 144 157.692 141.101 156.94 137.256C156.203 133.492 155.542 129.043 154.986 124.77C154.432 120.5 153.985 116.426 153.678 113.418C153.524 111.915 153.405 110.678 153.324 109.819C153.284 109.389 153.253 109.053 153.233 108.825C153.222 108.712 153.215 108.625 153.21 108.566C153.207 108.537 153.205 108.515 153.204 108.501C153.203 108.494 153.203 108.488 153.202 108.484C153.202 108.483 153.202 108.481 153.202 108.48C153.202 108.48 153.202 108.48 153.202 108.48C153.202 108.479 153.202 108.479 151.656 108.614C150.134 108.746 150.111 108.748 150.11 108.749C150.11 108.749 150.11 108.75 150.11 108.75C150.111 108.751 150.111 108.753 150.111 108.755C150.111 108.759 150.112 108.764 150.112 108.772C150.114 108.787 150.116 108.81 150.118 108.84C150.124 108.9 150.132 108.989 150.142 109.104C150.163 109.335 150.194 109.675 150.235 110.108C150.316 110.976 150.436 112.221 150.59 113.734C150.9 116.76 151.349 120.864 151.909 125.169C152.468 129.471 153.139 133.994 153.894 137.852C154.634 141.63 155.494 145.006 156.503 146.84C157.292 148.272 159.174 152.269 160.889 155.978C161.74 157.817 162.54 159.564 163.127 160.851C163.421 161.495 163.661 162.023 163.828 162.39C163.911 162.574 163.976 162.718 164.02 162.815C164.042 162.864 164.059 162.901 164.071 162.926C164.076 162.939 164.081 162.948 164.084 162.954C164.085 162.957 164.086 162.96 164.087 162.961C164.087 162.962 164.087 162.963 164.087 162.963L164.088 162.964C164.088 162.964 164.088 162.963 164.475 162.788L166.127 174.888L166.281 176.014L165.189 176.328L154.195 179.485L154.157 179.496L154.119 179.505L153.832 178.223C154.119 179.503 154.119 179.505 154.118 179.505C154.118 179.505 154.118 179.505 154.118 179.505C154.117 179.505 154.116 179.505 154.115 179.506C154.113 179.506 154.11 179.507 154.107 179.507C154.1 179.509 154.089 179.511 154.075 179.514C154.048 179.52 154.007 179.529 153.954 179.541C153.848 179.563 153.692 179.597 153.487 179.639C153.076 179.724 152.47 179.846 151.681 179.996C150.104 180.294 147.796 180.703 144.862 181.144C138.995 182.026 130.62 183.039 120.573 183.568C110.45 184.1 101.165 183.08 94.4166 181.929C91.0398 181.353 88.2918 180.744 86.3841 180.277C85.4301 180.044 84.6859 179.846 84.1776 179.706C83.9235 179.635 83.7282 179.58 83.5953 179.541C83.5288 179.522 83.478 179.507 83.4431 179.496C83.4256 179.491 83.4121 179.487 83.4027 179.485C83.398 179.483 83.3942 179.482 83.3915 179.481C83.3902 179.481 83.3891 179.48 83.3883 179.48C83.3879 179.48 83.3876 179.48 83.3873 179.48C83.387 179.48 83.3866 179.48 83.7683 178.223L83.3866 179.48L83.3435 179.466L83.3013 179.451L83.7683 178.223C83.3012 179.45 83.3009 179.45 83.3006 179.45C83.3005 179.45 83.3002 179.45 83.2999 179.45C83.2993 179.45 83.2985 179.449 83.2976 179.449C83.2958 179.448 83.2935 179.447 83.2906 179.446C83.2847 179.444 83.2764 179.441 83.2659 179.437C83.2449 179.429 83.2147 179.417 83.1761 179.402C83.0991 179.371 82.9879 179.327 82.8468 179.268C82.5644 179.152 82.1613 178.982 81.6704 178.761C80.6903 178.319 79.3514 177.672 77.9194 176.851C75.1254 175.249 71.7054 172.836 70.1251 169.81C68.6981 167.077 67.8375 165.322 67.852 162.909C67.8656 160.644 68.6578 157.825 70.0239 152.913C71.5655 147.37 73.5145 139.275 75.0816 132.549C75.3272 131.495 75.5627 130.475 75.7861 129.505C75.9646 129.199 76.1591 128.861 76.3617 128.5C77.2072 126.996 78.2407 125.031 78.8686 123.364C80.2443 119.712 80.6632 114.866 80.762 111.062C80.8121 109.134 80.7805 107.425 80.7366 106.198C80.7146 105.583 80.6895 105.088 80.6697 104.744C80.6598 104.572 80.6511 104.438 80.645 104.346C80.6419 104.3 80.6395 104.265 80.6377 104.24C80.6369 104.228 80.6361 104.218 80.6356 104.212C80.6354 104.208 80.6351 104.206 80.6349 104.204C80.6349 104.203 80.6348 104.202 80.6347 104.201C80.6347 104.201 80.6347 104.201 80.6347 104.2C80.6333 104.2 80.5874 104.204 79.0875 104.317L80.6347 104.2C80.5701 103.345 79.825 102.705 78.9705 102.77C78.1427 102.832 77.5159 103.534 77.5364 104.354L77.5403 104.434C77.5403 104.434 77.5403 104.434 77.5403 104.435C77.5404 104.436 77.5406 104.437 77.5408 104.439C77.5411 104.444 77.5417 104.451 77.5424 104.462C77.5439 104.482 77.5459 104.513 77.5487 104.554C77.5543 104.637 77.5622 104.761 77.5716 104.923C77.5902 105.246 77.6143 105.719 77.6354 106.309C77.6777 107.489 77.7079 109.132 77.6599 110.981C77.5625 114.73 77.1458 119.134 75.9644 122.27C75.4238 123.705 74.488 125.5 73.6564 126.98C73.6464 126.998 73.6362 127.015 73.6263 127.033L59.7973 138.488L58.9332 139.204L58.0916 138.462C52.105 133.185 47.8896 129.096 44.72 123.903C41.5458 118.703 39.4741 112.488 37.5771 103.023L37.3839 102.059L38.2543 101.603L64.8511 87.6485C64.8554 87.646 64.8603 87.6432 64.8658 87.6401C64.8895 87.6266 64.9243 87.6069 64.9697 87.5813C65.0606 87.53 65.1942 87.4549 65.3672 87.3589C65.7132 87.1669 66.2171 86.8905 66.8526 86.5509C68.1231 85.8719 69.9222 84.9389 72.0404 83.9202C76.2631 81.8893 81.8095 79.491 86.9836 78.1035C89.6298 77.3939 93.053 77.0605 95.753 76.8997C97.1157 76.8185 98.3184 76.78 99.1808 76.7619C99.6122 76.7528 99.9593 76.7487 100.199 76.747C100.32 76.7461 100.413 76.7459 100.477 76.7458H100.577C100.578 76.7463 100.578 76.7702 100.572 78.0587L100.578 76.7458L102.62 76.7542L101.765 78.6068C101.765 78.6069 101.765 78.6071 101.765 78.607C101.765 78.6067 101.766 78.6057 101.766 78.6052C101.767 78.604 101.767 78.6028 101.767 78.6019L101.769 78.5989C101.767 78.6034 101.762 78.6155 101.755 78.6345C101.74 78.6729 101.716 78.7388 101.689 78.8278C101.634 79.0073 101.571 79.2721 101.542 79.591C101.485 80.2239 101.565 81.0414 102.102 81.8667C103.185 83.5282 106.544 85.7952 116.546 85.7952C129.718 85.7952 135.246 83.1801 137.523 80.9328C138.64 79.8298 139.019 78.7762 139.142 78.0454C139.205 77.6719 139.204 77.3688 139.19 77.1713C139.183 77.0727 139.172 77.0015 139.166 76.9624C139.163 76.9471 139.161 76.9368 139.16 76.9318L138.751 75.3135H140.437V76.6265ZM190.128 127.664L189.95 128.153L188.716 127.704L189.922 127.186L190.128 127.664ZM153.202 108.479C153.128 107.626 152.375 106.994 151.522 107.068C150.668 107.142 150.036 107.895 150.11 108.748L153.202 108.479Z" fill="var(--fill-0, #460001)"/>
</g>
</g>
</svg>
