<svg preserveAspectRatio="none" width="100%" height="100%" overflow="visible" style="display: block;" viewBox="0 0 343.429 874.999" fill="none" xmlns="http://www.w3.org/2000/svg">
<path id="Union" d="M42.1193 808.272C42.9793 809.075 43.9226 809.946 44.9425 810.875C50.464 815.906 58.2562 822.658 67.3361 829.534C85.3081 843.145 109.016 857.787 130.335 859.756C151.581 861.719 164.421 854.862 171.911 847.058C175.115 843.719 177.266 840.285 178.676 837.465C180.986 840.318 181.144 844.18 180.385 847.584C179.482 851.631 177.147 855.989 173.838 859.952C167.205 867.896 156.019 874.999 142.154 874.999C109.044 874.999 84.9295 862.88 69.1105 850.74C61.2121 844.679 55.3798 838.613 51.5109 834.046C49.5754 831.761 48.1273 829.847 47.1544 828.49C46.6681 827.811 46.3001 827.271 46.049 826.893C45.9237 826.704 45.8273 826.556 45.7599 826.45C45.7265 826.398 45.7 826.356 45.6808 826.325C45.6713 826.31 45.6624 826.298 45.6564 826.288C45.6535 826.284 45.6516 826.279 45.6496 826.276C45.6486 826.274 45.6473 826.272 45.6466 826.271C45.6523 826.265 45.7904 826.177 48.674 824.392L45.6437 826.268L45.3292 825.758L45.1974 825.172L45.1964 825.169C45.196 825.167 45.1952 825.164 45.1945 825.16C45.1929 825.153 45.1905 825.143 45.1876 825.13C45.1817 825.104 45.1733 825.064 45.1623 825.014C45.1402 824.914 45.1077 824.767 45.0666 824.575C44.9841 824.192 44.8651 823.63 44.7169 822.906C44.4206 821.46 44.007 819.364 43.5353 816.754C43.0982 814.336 42.6109 811.473 42.1193 808.272ZM197.716 790.779C199.034 792.463 200.719 794.563 202.731 796.96C208.033 803.279 215.633 811.702 224.815 820.096C242.986 836.708 268.143 853.944 294.334 853.257C319.538 852.596 332.098 845.954 338.176 838.478C340.713 835.358 341.998 832.232 342.622 829.625C343.103 830.884 343.369 832.241 343.42 833.648C343.555 837.362 342.219 841.354 339.684 845.149C334.599 852.762 324.334 860.178 308.374 864.459C291.459 868.996 270.421 864.945 250.514 854.1C230.531 843.214 211.31 825.296 197.926 801.444L197.444 800.585L197.716 790.779ZM152.319 14.4446C151.21 16.8511 149.753 20.2717 148.353 24.3528C145.574 32.452 142.916 43.442 143.855 54.3723C144.388 60.5842 145.419 66.7994 146.309 71.4348C146.755 73.7588 147.169 75.7004 147.472 77.0647C147.623 77.747 147.747 78.2859 147.834 78.6565C147.877 78.8418 147.911 78.9859 147.935 79.0842C147.946 79.1331 147.956 79.1713 147.962 79.1975C147.965 79.2104 147.968 79.2206 147.97 79.2278C147.971 79.2312 147.971 79.2344 147.972 79.2366L147.973 79.2405L148.877 82.9417C149.237 83.1191 149.618 83.305 150.019 83.4983L153.307 81.4251C153.309 81.4239 153.312 81.4219 153.317 81.4192C153.325 81.4137 153.34 81.4056 153.359 81.3938C153.396 81.3701 153.454 81.3333 153.531 81.2854C153.686 81.1895 153.917 81.0458 154.218 80.8616C154.82 80.493 155.702 79.9595 156.808 79.3069C159.022 78.0003 162.13 76.2203 165.699 74.3293C172.916 70.5058 181.73 66.3856 188.819 64.6663C197.221 62.6282 209.445 63.0741 219.914 64.136C225.078 64.6597 229.691 65.3185 233.013 65.8469C234.672 66.1109 236.007 66.342 236.922 66.5061C237.379 66.5881 237.733 66.6531 237.969 66.6975C238.087 66.7197 238.176 66.7371 238.235 66.7483C238.264 66.7539 238.285 66.7583 238.299 66.761C238.306 66.7623 238.311 66.7633 238.314 66.7639H238.318C238.909 66.8796 239.494 66.8388 240.032 66.6721C242.295 69.8156 245.205 73.1517 248.423 76.5989C253.009 81.511 258.417 86.8458 262.528 91.4827C264.63 93.8525 266.548 96.2058 268.03 98.4622C269.481 100.671 270.699 103.061 271.096 105.479C271.524 108.091 270.977 110.761 268.928 112.922C267.064 114.887 264.299 116.059 261.067 116.778L260.902 116.815L260.735 116.835C248.896 118.298 241.051 118.565 230.681 117.64C230.3 118.666 229.837 119.876 229.287 121.222C227.534 125.511 224.899 131.254 221.385 136.993C217.885 142.71 213.418 148.581 207.944 152.991C207.413 153.42 206.87 153.834 206.317 154.236C206.529 154.616 206.676 155.041 206.737 155.499L208.527 168.902L210.58 169.304L210.583 169.305C210.585 169.305 210.587 169.305 210.59 169.306C210.596 169.307 210.605 169.309 210.616 169.311C210.64 169.315 210.675 169.323 210.722 169.332C210.815 169.351 210.952 169.377 211.132 169.412C211.492 169.483 212.022 169.588 212.698 169.722C214.052 169.99 215.997 170.377 218.366 170.853C223.105 171.805 229.542 173.113 236.332 174.537C249.794 177.362 264.998 180.715 270.858 182.65C279.15 185.388 286.243 192.142 291.987 199.844C297.785 207.616 302.513 216.766 305.955 224.948C314.386 244.987 318.981 259.651 322.714 272.441C326.453 285.25 329.263 295.932 334.182 308.351C334.947 310.282 334.635 312.262 333.44 313.825C332.441 315.131 330.998 315.931 329.777 316.451C327.271 317.52 323.859 318.162 320.552 318.603C320.005 318.676 319.452 318.742 318.896 318.806L323.465 360.732C324.676 363.092 325.075 365.876 325.222 368.39C325.374 371.002 325.273 373.899 325.191 376.565L325.314 377.689L325.156 377.71C325.155 377.76 325.154 377.809 325.152 377.859C325.068 381.006 325.075 383.731 325.458 385.908C326.591 392.339 327.268 399.395 326.864 405.62C326.475 411.616 325.028 417.826 320.956 421.46C319.303 422.936 317.296 424.96 315.166 426.529C315.16 426.582 315.155 426.637 315.149 426.693C315.052 427.527 314.91 428.671 314.729 429.898C314.549 431.118 314.324 432.461 314.059 433.679C313.813 434.808 313.47 436.139 312.97 437.155C311.75 439.631 309.42 441.456 307.228 442.771C304.952 444.135 302.342 445.233 299.961 446.083C297.561 446.94 295.279 447.585 293.606 448.015C293.016 448.166 292.497 448.29 292.071 448.39C292.202 449.197 292.33 449.996 292.454 450.788C293.772 459.22 294.693 466.87 295.026 473.181C295.35 479.332 295.153 484.725 293.894 488.316C293.27 490.094 292.262 491.582 290.826 492.695C289.657 493.601 288.349 494.142 287.04 494.473C287.215 496.098 287.412 497.948 287.626 499.999C288.5 508.354 289.673 520.038 290.874 533.355C293.274 559.965 295.793 593.187 296.233 619.406C296.699 647.202 296.673 680.294 296.048 707.706C295.736 721.408 295.273 733.725 294.645 743.264C294.331 748.03 293.973 752.142 293.567 755.405C293.175 758.547 292.701 761.246 292.046 762.955C291.013 765.652 289.656 767.852 287.857 769.449C286.007 771.091 283.884 771.923 281.659 772.154C281.512 772.169 281.365 772.181 281.217 772.191C280.816 775.434 280.256 778.536 279.488 781.007C279.044 782.437 278.574 783.515 278.114 784.248C277.639 785.007 277.357 785.112 277.408 785.091C275.424 785.907 270.991 786.763 265.674 787.372C260.488 787.967 254.966 788.273 251.074 788.165C249.394 788.119 246.929 786.852 243.83 783.846C240.872 780.976 237.902 777.081 235.22 773.053C235.001 772.724 234.786 772.393 234.571 772.064C234.43 772.263 234.287 772.465 234.143 772.67C233.168 774.053 232.095 775.582 230.888 777.03C230.601 777.374 230.303 777.714 229.995 778.052C232.641 781.933 235.675 785.865 238.867 788.962C242.208 792.202 246.36 795.164 250.876 795.289C255.204 795.41 261.08 795.073 266.485 794.453C271.759 793.849 277.112 792.92 280.121 791.681C281.979 790.916 283.266 789.45 284.154 788.031C285.061 786.585 285.751 784.873 286.295 783.122C287.189 780.245 287.801 776.881 288.227 773.581C292.014 776.201 296.366 779.354 300.939 782.942C313.545 792.832 328.172 806.282 337.059 821.162C336.243 821.945 335.813 823.101 336.004 824.299C336.003 824.295 336.002 824.291 336.002 824.288L336.011 824.37C336.021 824.468 336.035 824.644 336.041 824.885C336.053 825.37 336.031 826.114 335.88 827.031C335.58 828.85 334.768 831.371 332.646 833.982C328.435 839.16 318.353 845.498 294.148 846.133C270.928 846.742 247.592 831.262 229.623 814.835C220.735 806.709 213.352 798.531 208.19 792.379C205.611 789.306 203.592 786.746 202.223 784.96C201.855 784.481 201.535 784.056 201.263 783.694C200.486 783.373 200.008 782.858 199.781 782.574C199.481 782.198 199.309 781.836 199.22 781.628C199.156 781.48 199.104 781.331 199.059 781.19C198.726 780.995 198.366 780.856 197.994 780.778L198.218 772.698C198.207 772.448 198.195 772.193 198.184 771.935C197.958 766.594 197.781 759.182 197.575 750.821C197.163 734.041 196.633 713.366 195.372 697.214C192.578 661.418 198.007 649.216 184.406 619.35C183.855 618.139 182.96 615.896 182.03 613.497C180.666 618.327 178.912 624.538 176.95 631.478C172.377 647.653 166.675 667.79 162.164 683.633C159.625 692.551 158.375 703.1 157.57 714.037C157.17 719.491 156.882 724.987 156.595 730.391C156.309 735.779 156.023 741.081 155.622 746.074C154.831 755.935 153.569 765.095 150.708 771.63C149.258 774.943 147.273 777.88 144.449 779.833C142.058 781.487 139.296 782.275 136.239 782.21C139.031 784.74 142.064 787.594 145.194 790.713C155.508 800.989 167.13 814.381 174.47 828.614C174.351 828.859 174.258 829.121 174.196 829.399L174.192 829.414C174.184 829.445 174.17 829.503 174.149 829.584C174.105 829.748 174.03 830.011 173.92 830.355C173.699 831.044 173.335 832.061 172.777 833.284C171.658 835.737 169.782 838.984 166.77 842.122C160.868 848.272 150.201 854.434 130.99 852.659C111.852 850.891 89.5565 837.42 71.6398 823.852C62.7754 817.139 55.1506 810.534 49.7423 805.607C47.0402 803.145 44.8952 801.105 43.4298 799.685C42.6975 798.975 42.135 798.42 41.758 798.045C41.5695 797.858 41.427 797.715 41.3332 797.62C41.2864 797.573 41.2512 797.538 41.2287 797.515C41.2176 797.504 41.2093 797.496 41.2042 797.49C41.2018 797.488 41.1994 797.485 41.1984 797.484L41.0666 797.357C40.916 797.218 40.7557 797.095 40.589 796.988C40.5491 796.647 40.5081 796.305 40.4689 795.961C39.9932 791.784 39.5102 784.757 39.1486 778.853C38.9668 775.884 38.8144 773.171 38.7072 771.2C38.6536 770.216 38.6111 769.416 38.5822 768.862C38.5678 768.585 38.5565 768.369 38.549 768.222C38.5452 768.149 38.5421 768.093 38.5402 768.055C38.5393 768.037 38.5387 768.022 38.5382 768.012C38.538 768.007 38.5383 768.003 38.5382 768C38.5382 767.999 38.5373 767.997 38.5373 767.996L38.1085 759.464C37.9084 757.941 37.7661 756.38 37.675 754.798C37.0237 743.486 38.7939 729.293 41.5451 714.462C44.3052 699.582 48.1054 683.795 51.6271 669.241C55.1652 654.621 58.4007 641.325 60.1056 631.219C63.5408 610.856 64.8251 595.69 66.1183 580.407C67.4132 565.106 68.7174 549.687 72.2052 529.012L72.63 526.495L75.1505 526.087C75.1522 526.087 75.1563 526.087 75.1593 526.086C75.1659 526.085 75.1761 526.083 75.1896 526.08C75.2016 526.078 75.2162 526.075 75.2335 526.073C74.2457 524.805 73.0141 523.212 71.6007 521.35C67.8018 516.344 62.6664 509.386 57.3263 501.578C51.9905 493.777 46.4234 485.089 41.7755 476.632C37.1548 468.224 33.3254 459.835 31.6173 452.673C26.6939 432.029 29.1878 408.835 32.7892 391.037C34.599 382.094 36.7093 374.415 38.3683 368.968C38.5235 368.458 38.6756 367.968 38.8224 367.498C36.777 367.421 34.42 367.373 31.8546 367.314C27.6412 367.217 22.96 367.088 18.6125 366.715C14.3293 366.347 10.0617 365.721 6.79214 364.51C3.79293 363.399 -0.125326 361.075 0.00307579 356.439C0.494944 338.7 3.53562 290.519 24.381 238.438C35.3846 210.946 49.7607 190.511 75.1535 182.63C79.59 181.253 90.6054 177.939 100.489 174.976C105.436 173.493 110.107 172.095 113.541 171.069C115.258 170.555 116.666 170.135 117.645 169.843C118.134 169.697 118.516 169.583 118.776 169.505C118.905 169.466 119.005 169.437 119.071 169.417C119.105 169.407 119.131 169.399 119.148 169.394C119.156 169.391 119.162 169.39 119.166 169.389L119.173 169.387L123.584 168.07L131.554 125.753C130.427 123.234 129.589 120.894 128.971 118.87C128.345 116.819 127.94 115.082 127.684 113.797C127.407 113.703 127.113 113.599 126.807 113.48C124.871 112.726 122.333 111.41 119.948 109.156C114.999 104.479 111.394 96.431 113.713 83.2053C114.067 81.1881 114.715 79.2283 115.628 77.4251C115.612 77.2561 115.592 77.0737 115.574 76.8782C115.46 75.6167 115.318 73.8106 115.203 71.6096C114.974 67.2158 114.851 61.2033 115.29 54.7737C115.728 48.367 116.731 41.4049 118.818 35.1711C120.891 28.9758 124.162 23.1226 129.39 19.4387C135.25 15.3098 143.698 13.7741 150.156 13.1702C151.147 13.0776 152.107 13.0068 153.025 12.9514C152.811 13.3939 152.574 13.8929 152.319 14.4446ZM81.1457 773.215C79.5266 773.742 77.9108 774.299 76.3039 774.871C75.6549 775.102 75.0052 775.337 74.3556 775.572C74.4853 775.832 74.6148 776.094 74.7472 776.356C77.0359 780.872 79.7898 785.599 82.8478 789.363C85.7823 792.974 89.5562 796.406 94.0255 797.064C98.3091 797.694 104.184 798.053 109.624 798.076C114.933 798.099 120.358 797.808 123.492 796.933C125.427 796.393 126.878 795.089 127.928 793.785C128.999 792.456 129.887 790.836 130.634 789.162C131.612 786.971 132.445 784.45 133.155 781.885C130.679 781.457 128.415 780.751 126.308 779.905C125.659 782.257 124.932 784.449 124.124 786.259C123.514 787.626 122.92 788.641 122.377 789.315C121.815 790.012 121.522 790.084 121.576 790.069C119.51 790.645 115.007 790.972 109.655 790.949C104.435 790.927 98.915 790.579 95.0636 790.012C93.4007 789.767 91.1023 788.219 88.38 784.868C85.7975 781.69 83.3234 777.503 81.1457 773.215ZM276.135 494.769C268.742 494.35 259.576 493.922 249.039 498.18C229.107 506.234 222.701 513.664 197.577 516.542L191.94 518.759C194.347 537.023 194.529 550.499 193.187 563.015C191.817 575.781 188.867 587.451 185.264 601.91C185.366 602.184 185.485 602.506 185.619 602.865C186.072 604.078 186.691 605.728 187.357 607.481C188.71 611.045 190.192 614.858 190.893 616.396C205.186 647.783 199.836 662.815 202.478 696.659C203.756 713.037 204.289 733.915 204.7 750.646C204.907 759.039 205.082 766.372 205.305 771.633C205.396 773.78 205.496 775.535 205.602 776.857C206.14 777.111 206.803 777.404 207.605 777.726C212.448 778.45 215.849 778.173 218.345 777.425C219.028 777.22 219.66 776.973 220.254 776.69C221.332 776.004 222.442 775.244 223.549 774.443C224.203 773.843 224.816 773.181 225.413 772.465C226.403 771.279 227.309 769.994 228.319 768.563C229.299 767.173 230.378 765.642 231.601 764.191C234.11 761.214 237.338 758.428 242.234 756.997C247.941 755.329 253.484 756.026 258.45 757.449C263.323 758.846 268.072 761.091 271.889 762.685C276.028 764.414 278.865 765.278 280.924 765.065C281.793 764.975 282.485 764.689 283.126 764.119C283.817 763.506 284.626 762.402 285.391 760.406C285.697 759.606 286.097 757.712 286.494 754.524C286.877 751.455 287.224 747.496 287.533 742.796C288.152 733.403 288.611 721.201 288.922 707.543C289.544 680.236 289.57 647.24 289.106 619.526C288.67 593.579 286.174 560.572 283.777 533.995C282.579 520.719 281.408 509.07 280.537 500.74C280.311 498.581 280.105 496.644 279.924 494.96C278.67 494.916 277.394 494.84 276.135 494.769ZM111.298 501.081C111.286 501.209 111.274 501.357 111.257 501.524C111.195 502.134 111.098 503 110.95 504.046C110.88 504.543 110.798 505.083 110.703 505.657L110.989 506.491L110.796 507.436V507.438C110.796 507.439 110.795 507.441 110.795 507.443C110.794 507.446 110.793 507.45 110.792 507.454C110.79 507.463 110.788 507.475 110.785 507.49C110.779 507.519 110.77 507.56 110.759 507.612C110.737 507.714 110.705 507.86 110.662 508.043C110.578 508.409 110.452 508.927 110.284 509.558C109.95 510.816 109.44 512.547 108.741 514.436C108.428 515.283 108.06 516.204 107.636 517.155C107.095 518.491 106.472 519.807 105.752 521.043C104.117 523.851 101.784 526.594 98.4601 527.965C95.1483 529.331 89.4643 530.623 84.9083 531.542C82.5679 532.014 80.417 532.408 78.8527 532.685C78.8418 532.687 78.8303 532.689 78.8195 532.691C75.6925 551.812 74.4608 566.357 73.2208 581.009C71.9259 596.311 70.6218 611.729 67.1339 632.405C65.3773 642.818 62.0671 656.403 58.5548 670.917C55.0261 685.499 51.2722 701.102 48.5529 715.762C45.8245 730.47 44.1903 743.968 44.7902 754.388C45.4089 765.134 48.2858 770.971 52.8029 772.935C54.3391 773.602 56.7975 773.592 60.7003 772.596C64.5201 771.621 68.8576 769.956 73.9132 768.156C76.0521 767.395 78.3032 766.614 80.6388 765.889C81.985 764.694 83.7732 764.319 84.9494 764.152C85.8421 764.025 86.8223 763.966 87.8507 763.956C94.1997 762.567 100.926 762.026 107.567 763.576C113.445 764.949 118.183 767.726 122.371 770.033C126.664 772.398 130.487 774.343 135.17 774.987C137.51 775.308 139.13 774.847 140.395 773.972C141.748 773.035 143.036 771.386 144.18 768.773C146.508 763.455 147.724 755.395 148.518 745.504C148.909 740.622 149.192 735.414 149.479 730.013C149.765 724.628 150.055 719.055 150.462 713.515C151.274 702.465 152.564 691.323 155.31 681.681C159.819 665.845 165.519 645.712 170.092 629.538C172.378 621.452 174.384 614.355 175.817 609.28C176.533 606.742 177.107 604.71 177.501 603.313C177.698 602.614 177.85 602.073 177.953 601.707C178.005 601.525 178.044 601.386 178.07 601.292C178.082 601.252 178.091 601.22 178.098 601.197C181.848 586.137 184.762 574.732 186.101 562.254C187.383 550.303 187.223 537.272 184.805 519.166L179.449 517.432C153.155 516.652 131.116 506.467 112.013 499.208L111.298 501.081ZM46.2033 368.174C45.9267 369.037 45.6273 369.991 45.3107 371.031C43.7025 376.311 41.6531 383.764 39.8976 392.44C36.3683 409.881 34.1048 431.877 38.673 451.031C40.1584 457.26 43.6237 464.985 48.1476 473.217C52.6446 481.4 58.0735 489.879 63.3341 497.571C68.5904 505.255 73.6532 512.116 77.4025 517.056C79.2761 519.525 80.8203 521.511 81.8937 522.878C82.1113 523.155 82.3107 523.406 82.4884 523.631C82.5632 523.63 82.641 523.63 82.7199 523.628C83.9234 523.599 85.579 523.514 87.3908 523.297C91.232 522.837 94.9495 521.866 96.9738 520.246C98.9133 518.694 100.624 515.486 101.898 512.068C102.104 511.424 102.296 510.77 102.473 510.114C102.814 508.85 103.092 507.606 103.32 506.446L82.1916 444.695L88.673 374.632C86.618 375.311 84.5278 375.802 82.4718 375.987C74.7014 376.685 68.1656 374.727 61.9777 372.653C56.7975 370.916 51.8733 369.108 46.2033 368.174ZM85.7394 244.468C86.9705 267.629 90.3899 288.234 92.9748 308.632C95.1806 326.039 96.8055 343.461 96.0929 362.707L97.0675 362.596L89.5519 443.838L96.5031 464.154C96.0475 458.249 95.5452 452.011 95.1837 448.303C93.4536 430.554 95.5015 413.948 98.006 398.993C99.5496 389.776 101.227 381.346 102.377 373.58L102.598 373.598C102.688 372.471 102.769 371.352 102.843 370.239C102.983 369.155 103.112 368.086 103.225 367.029C103.159 367.074 103.093 367.118 103.027 367.163C104.182 345.66 102.429 326.537 100.046 307.736C97.4198 287.011 94.0692 266.904 92.8566 244.089L85.7394 244.468ZM306.035 345.187C304.421 345.979 302.548 346.653 300.584 347.231C296.452 348.447 291.523 349.359 286.871 350.037C282.197 350.719 277.691 351.179 274.362 351.469C272.885 351.598 271.635 351.691 270.698 351.758C270.762 352.007 270.828 352.257 270.892 352.508C270.644 352.512 270.392 352.517 270.139 352.522C261.679 352.665 248.105 352.579 238.258 348.402C236.682 347.733 234.916 346.757 233.325 345.468C233.164 347.198 233.021 349.084 232.896 351.091C232.764 353.201 232.651 355.465 232.554 357.845C232.982 358.338 233.404 358.857 233.715 359.224C234.21 359.808 234.621 360.254 235.023 360.599C235.896 361.35 237.117 362.029 238.723 362.8C240.162 363.491 242.137 364.35 243.734 365.284C245.355 366.233 247.267 367.621 248.355 369.793C249.535 372.152 249.423 374.754 248.356 377.406C247.045 380.663 245.044 382.904 242.165 383.939C239.604 384.86 236.871 384.593 234.798 384.348C234.071 384.262 233.13 384.193 232.134 384.049C232.181 395.733 232.506 407.461 233.084 416.532C233.375 421.103 233.734 425.067 234.165 428.032C234.379 429.504 234.625 430.824 234.916 431.885C235.061 432.412 235.24 432.965 235.474 433.477C235.668 433.901 236.075 434.707 236.86 435.34C245.574 442.373 259.231 445.385 271.658 445.279C277.941 445.225 284.125 444.375 289.477 442.719C289.264 441.746 289.259 441.723 289.259 441.723C289.26 441.723 289.261 441.723 289.262 441.723C289.267 441.722 289.276 441.72 289.288 441.717C289.313 441.712 289.353 441.704 289.406 441.693C289.514 441.67 289.679 441.634 289.892 441.586C290.319 441.49 290.941 441.343 291.699 441.149C293.224 440.757 295.27 440.177 297.389 439.42C299.527 438.657 301.628 437.753 303.318 436.74C305.089 435.677 305.978 434.749 306.291 434.113C306.385 433.922 306.588 433.317 306.826 432.222C307 431.426 307.158 430.526 307.301 429.618C306.203 429.693 305.036 429.639 303.794 429.425C301.366 429.006 299.263 428.176 297.592 426.734C295.9 425.273 294.952 423.446 294.395 421.576C293.856 419.771 293.642 417.785 293.5 415.861C293.343 413.732 293.287 411.985 293.088 409.616C292.761 406.928 292.594 399.717 292.522 392.867C292.447 385.808 292.468 378.662 292.556 376.236C292.7 372.271 293.421 369.382 295.277 366.726C296.919 364.379 299.424 362.335 302.151 359.92C303.301 358.901 304.625 358.07 306.035 357.415V345.187ZM316.885 363.576C316.534 363.074 315.946 362.488 313.931 362.642C311.121 362.856 308.461 363.853 306.877 365.255C303.699 368.07 302.135 369.355 301.118 370.809C300.318 371.953 299.793 373.338 299.678 376.494C299.596 378.731 299.573 385.721 299.649 392.792C299.711 398.655 299.84 404.266 300.031 407.243C300.032 407.245 300.032 407.247 300.032 407.248C300.041 407.286 300.049 407.319 300.054 407.345C300.064 407.396 300.072 407.44 300.077 407.473C300.083 407.507 300.089 407.54 300.093 407.568C300.102 407.623 300.109 407.68 300.116 407.732C300.131 407.836 300.146 407.954 300.16 408.074C300.19 408.317 300.222 408.608 300.253 408.893C300.284 409.178 300.313 409.469 300.336 409.712C300.347 409.833 300.358 409.952 300.366 410.057C300.37 410.109 300.375 410.166 300.378 410.222C300.38 410.25 300.381 410.283 300.383 410.318C300.384 410.351 300.386 410.396 300.387 410.448C300.387 410.475 300.387 410.51 300.387 410.549C300.387 410.587 300.385 410.641 300.382 410.705C300.38 410.738 300.379 410.78 300.375 410.826C300.371 410.872 300.365 410.933 300.356 411.003C300.352 411.03 300.347 411.063 300.341 411.1C300.444 412.68 300.524 414.208 300.608 415.336C300.744 417.185 300.921 418.519 301.226 419.539C301.511 420.495 301.857 421 302.249 421.338C302.662 421.694 303.433 422.13 305.007 422.402C307.128 422.767 308.67 422.29 310.269 421.258C312.157 420.04 313.689 418.393 316.21 416.143C318.043 414.507 319.383 410.849 319.752 405.159C320.106 399.7 319.515 393.252 318.439 387.145C317.915 384.17 317.944 380.774 318.027 377.667C318.098 375.042 318.203 372.608 318.161 370.376L317.606 365.277C317.406 364.53 317.162 363.973 316.885 363.576ZM226.945 362.535C226.721 363.26 226.55 364.246 226.526 365.433C226.462 368.533 227.4 372.053 229.506 374.494C230.919 376.132 231.652 376.502 232.096 376.659C232.844 376.925 233.408 376.899 235.679 377.167C237.854 377.424 238.927 377.4 239.629 377.148C240.013 377.009 240.734 376.659 241.502 374.75C242.013 373.48 241.784 373.07 241.739 372.982C241.602 372.707 241.183 372.213 239.96 371.497C238.712 370.767 237.327 370.181 235.485 369.296C233.809 368.492 231.826 367.466 230.165 366.037C229.317 365.308 228.609 364.509 228.05 363.849C227.577 363.291 227.256 362.894 226.945 362.535ZM310.383 319.559C308.204 319.715 306.347 319.84 304.924 319.967C306.006 320.378 307.065 320.908 307.887 321.619C310.73 324.08 312.289 326.466 312.935 328.984C313.518 331.259 313.243 333.424 313.143 334.717V355.558C313.225 355.551 313.308 355.542 313.39 355.535C314.509 355.45 315.568 355.491 316.557 355.656L312.606 319.394C311.844 319.452 311.1 319.508 310.383 319.559ZM263.131 323.025C263.157 323.122 263.185 323.221 263.212 323.322C256.514 323.996 251.565 325.441 247.709 327.092C245.063 328.225 243.002 329.425 241.35 330.43C240.632 330.867 240.044 331.23 239.539 331.533L239.554 331.553C237.328 333.177 236.341 334.515 235.94 335.435C235.581 336.256 235.619 336.885 235.839 337.476C236.399 338.979 238.383 340.713 241.041 341.841C248.798 345.132 259.937 345.504 268.444 345.414C268.42 345.006 268.419 344.975 268.419 344.973C268.42 344.973 268.422 344.973 268.423 344.973C268.426 344.973 268.432 344.972 268.439 344.972C268.453 344.971 268.476 344.97 268.506 344.968C268.567 344.964 268.66 344.959 268.781 344.951C269.025 344.936 269.387 344.912 269.851 344.88C270.778 344.816 272.113 344.716 273.731 344.575C276.972 344.293 281.329 343.848 285.819 343.194C290.333 342.536 294.874 341.682 298.527 340.607C300.355 340.068 301.864 339.502 302.997 338.927C304.192 338.321 304.659 337.86 304.784 337.683C305.553 336.595 305.963 335.456 306.043 334.344C306.176 332.496 306.296 331.661 306.039 330.659C305.827 329.833 305.243 328.59 303.165 326.791C303.218 326.837 303.121 326.744 302.721 326.568C302.348 326.403 301.829 326.219 301.151 326.025C299.79 325.636 298.001 325.272 295.879 324.946C291.646 324.295 286.387 323.844 281.213 323.603C276.04 323.362 271.054 323.337 267.376 323.518C265.517 323.609 264.104 323.749 263.201 323.91C262.797 323.983 262.62 324.038 262.593 324.046C262.607 324.04 262.824 323.955 263.099 323.738C263.259 323.611 263.541 323.352 263.787 322.948C263.562 322.974 263.343 323 263.131 323.025ZM244.385 234.225C253.633 269.686 259.526 273.519 261.302 316.486L268.423 316.191C266.605 272.206 260.256 266.841 251.28 232.426L244.385 234.225ZM128.09 182.543C128.508 183.04 128.964 183.545 129.467 184.051C135.519 190.141 148.541 197.172 176.532 197.949C188.179 198.273 195.54 192.05 200.167 185.398C201.25 183.84 202.17 182.272 202.946 180.781L199.894 157.932C196.267 159.501 192.288 160.38 187.974 160.224C160.685 159.234 145.367 147.333 136.978 135.349L128.09 182.543ZM130.638 75.1965C128.256 75.0449 126.019 75.8996 124.26 77.5696C124.048 77.8083 123.85 78.0466 123.667 78.2815C123.249 78.8199 122.935 79.3006 122.733 79.635C122.632 79.801 122.56 79.9282 122.518 80.0051C122.499 80.0394 122.486 80.0636 122.48 80.0764L121.333 82.3772C121.126 83.0166 120.957 83.6928 120.832 84.4036C118.841 95.7561 122.036 101.298 124.964 104.066C126.518 105.534 128.189 106.405 129.477 106.906C130.116 107.156 130.647 107.307 130.996 107.394C131.17 107.437 131.298 107.464 131.369 107.478C131.405 107.485 131.426 107.488 131.432 107.489L134.171 107.886L134.464 110.604C134.464 110.605 134.465 110.607 134.465 110.611C134.466 110.621 134.468 110.642 134.472 110.672C134.48 110.733 134.494 110.833 134.514 110.97C134.554 111.244 134.622 111.665 134.728 112.212C134.939 113.309 135.3 114.907 135.892 116.843C137.077 120.725 139.17 125.911 142.787 131.138C149.925 141.449 163.201 152.247 188.241 153.156C193.772 153.356 198.788 151.208 203.354 147.53C207.95 143.826 211.918 138.698 215.19 133.356C218.446 128.037 220.919 122.659 222.58 118.593C222.832 117.977 223.063 117.391 223.277 116.842C223.256 116.84 223.235 116.838 223.215 116.835C214.221 115.724 206.391 114.08 199.126 111.926L198.548 122.24L191.435 121.801L192.116 109.634C185.409 107.236 179.046 104.37 172.492 101.054C168.583 99.4581 164.601 97.7866 160.854 96.1702C156.041 94.0942 151.579 92.0964 148.113 90.4583C146.384 89.6405 144.877 88.9009 143.691 88.2786C142.603 87.7082 141.512 87.0981 140.824 86.554L139.832 85.7688L139.568 84.5588L139.567 84.5559C139.565 84.5486 139.56 84.5312 139.554 84.5051C139.541 84.4517 139.518 84.3605 139.484 84.2376C139.415 83.9903 139.303 83.6176 139.14 83.1604C138.81 82.2346 138.292 81.0174 137.539 79.8098C136.012 77.3598 133.843 75.4007 130.638 75.1965ZM181.12 131.018C181.352 129.27 183.185 128.014 185.213 128.214L201.855 129.855C203.883 130.055 205.339 131.633 205.108 133.381C204.876 135.129 203.043 136.385 201.015 136.185L184.373 134.545C182.345 134.345 180.888 132.766 181.12 131.018ZM172.416 0.000247184C174.546 -0.0163127 176.45 0.80168 177.93 1.7024C179.439 2.62065 180.782 3.79356 181.864 4.87329C182.912 5.91873 183.791 6.95224 184.418 7.74048C184.488 7.74286 184.561 7.74561 184.635 7.74829C185.876 7.79336 187.634 7.88283 189.725 8.06177C193.872 8.41675 199.42 9.12977 204.872 10.5784C212.737 12.3111 218.469 15.2629 222.65 19.2581C226.846 23.269 229.223 28.0866 230.767 33.0793C232.284 37.986 233.062 43.315 233.894 48.2688C234.525 52.0276 235.197 55.6466 236.216 59.096C235.589 58.9903 234.887 58.8745 234.118 58.7522C230.701 58.2085 225.952 57.5299 220.624 56.9895C210.111 55.9231 196.832 55.3369 187.159 57.6829C179.162 59.6227 169.693 64.1045 162.399 67.969C159.025 69.7566 156.054 71.4464 153.823 72.7532C153.655 71.9376 153.474 71.0369 153.287 70.0667C152.423 65.5628 151.44 59.6183 150.937 53.7522C150.122 44.2651 152.437 34.3774 155.069 26.7043C156.375 22.8997 157.734 19.7097 158.763 17.4778C159.277 16.3632 159.707 15.4901 160.005 14.9036C160.154 14.6109 160.27 14.3898 160.346 14.2454C160.384 14.1732 160.413 14.1192 160.431 14.0862C160.439 14.0703 160.446 14.0593 160.449 14.053C160.45 14.0512 160.451 14.0491 160.451 14.0481C161.046 12.963 161.026 11.7018 160.507 10.6741C160.88 9.89747 161.307 9.07033 161.783 8.23755C162.788 6.48283 164.105 4.54392 165.736 2.99927C167.351 1.47065 169.607 0.0221918 172.416 0.000247184ZM213.352 26.5393C213.427 26.1976 213.345 25.7587 212.094 26.0745C207.258 27.2961 182.893 37.8027 182.705 37.8586C182.652 37.8262 184.3 35.6594 184.585 35.4114C185.086 34.9773 184.721 34.292 184.044 34.509C182.897 34.8778 180.849 38.5203 180.837 38.5413C180.787 38.556 176.407 39.8588 175.223 40.7151C174.943 40.9176 175.08 41.6912 175.466 41.7542C176.304 41.8907 179.612 41.0182 179.62 41.0159C179.612 41.0302 178.596 42.797 179.444 43.6956C179.641 43.9029 180.323 43.8042 180.013 43.2034C179.787 42.7668 180.743 40.8928 181.014 40.7971C184.805 39.4579 214.58 41.4159 215.069 41.8635C215.547 42.3104 215.977 41.3039 214.664 40.8108C213.351 40.3177 194.112 38.9987 181.757 39.4573C183.639 38.8973 199.903 30.9275 212.148 27.0178C212.629 26.8641 213.297 26.785 213.352 26.5393ZM201.636 41.426C201.352 41.2213 200.879 41.1799 200.535 41.3518C200.305 41.4673 200.195 41.6173 200.113 41.8635C200.054 42.1117 200.083 42.3539 200.206 42.5764C200.345 42.7871 200.556 42.9018 200.797 42.9573C201.077 42.9889 201.328 42.9526 201.561 42.7864C201.577 42.7703 201.593 42.7542 201.61 42.7385C201.628 42.8035 201.645 42.8669 201.663 42.9299H201.907V42.1096H201.069V42.3557C201.243 42.365 201.413 42.374 201.582 42.3831C201.531 42.4873 201.438 42.5533 201.336 42.6018C201.073 42.6984 200.729 42.7413 200.527 42.4924C200.339 42.2613 200.378 41.9453 200.527 41.7551C200.565 41.7063 200.649 41.6401 200.676 41.6311C200.873 41.5561 201.023 41.5448 201.231 41.5901C201.337 41.6223 201.402 41.6677 201.48 41.7551C201.529 41.8102 201.58 41.9144 201.582 41.9182H201.88C201.88 41.9122 201.866 41.7412 201.819 41.6448C201.77 41.5449 201.717 41.4845 201.636 41.426ZM198.196 42.9573H198.494C198.503 42.5483 198.513 42.1511 198.522 41.7542C198.57 41.8271 198.621 41.8955 198.675 41.9641C198.786 42.1048 198.894 42.2461 198.997 42.3928C199.048 42.4667 199.487 42.9485 199.495 42.9573H199.82C199.82 42.9573 199.851 41.8643 199.848 41.3167H199.523C199.513 41.7139 199.495 42.483 199.495 42.4924L199.104 41.9729C199.095 41.9617 198.9 41.7166 198.809 41.5862C198.777 41.5398 198.575 41.3167 198.575 41.3167H198.196V42.9573ZM184.431 41.2444C184.301 41.2429 184.179 41.2439 184.055 41.2844C183.81 41.3905 183.646 41.5505 183.536 41.7981C183.457 42.025 183.487 42.2734 183.585 42.4876C183.696 42.7042 183.858 42.8366 184.087 42.9124C184.411 42.975 184.767 42.9672 185.047 42.7786C185.246 42.6248 185.346 42.4203 185.38 42.1702C185.39 41.9328 185.326 41.7149 185.181 41.5266C184.983 41.3244 184.791 41.2539 184.515 41.2454C184.487 41.2451 184.458 41.2446 184.431 41.2444ZM182.498 41.2444C182.287 41.2418 182.12 41.2436 181.933 41.3713C181.777 41.4776 181.693 41.6222 181.636 41.7532C181.552 41.9822 181.553 42.2771 181.649 42.5022C181.766 42.7002 181.953 42.8425 182.169 42.9124C182.484 42.9718 182.826 42.9631 183.099 42.7795C183.281 42.6323 183.336 42.4743 183.367 42.2454H183.043C183.034 42.2824 183.025 42.3188 183.016 42.3547C182.917 42.5045 182.809 42.5811 182.637 42.6292C182.44 42.6572 182.263 42.6325 182.096 42.5188C181.989 42.3916 181.939 42.2627 181.927 42.0969C181.94 41.9063 181.985 41.7786 182.123 41.6448C182.288 41.5422 182.461 41.5337 182.664 41.5627C182.798 41.582 182.915 41.6732 182.962 41.7405C183.012 41.8122 183.025 41.8735 183.043 41.9456H183.367C183.367 41.7771 183.338 41.6652 183.235 41.5335C183.045 41.3335 182.849 41.2541 182.577 41.2454C182.537 41.245 182.537 41.2447 182.498 41.2444ZM190.297 41.2893C190.297 41.373 190.293 41.4582 190.304 41.5413C190.307 41.5581 190.311 41.5747 190.315 41.5911C190.318 41.6103 190.323 41.629 190.326 41.6477C190.384 41.9395 190.392 42.1906 190.338 42.4836C190.332 42.5129 190.332 42.5137 190.326 42.5422C190.323 42.5615 190.318 42.5802 190.315 42.5989C190.294 42.6967 190.294 42.697 190.297 42.9299C190.46 42.9305 190.623 42.9306 190.786 42.9309C190.853 42.931 190.919 42.9318 190.985 42.9319C191.083 42.9322 191.181 42.9327 191.279 42.9329C191.311 42.9329 191.342 42.9328 191.372 42.9329C191.403 42.933 191.433 42.9337 191.463 42.9338H191.621C191.677 42.9306 191.677 42.9299 191.704 42.9026V42.6565C191.171 42.6427 191.171 42.6427 190.649 42.6292C190.667 42.4898 190.685 42.3542 190.703 42.219H191.623V41.9465C191.311 41.9372 191.007 41.9272 190.703 41.9182C190.685 41.7975 190.666 41.6799 190.649 41.5627H191.677V41.2893H190.297ZM193.777 41.2844C193.713 41.2847 193.648 41.2847 193.584 41.2854C193.54 41.2859 193.495 41.2871 193.45 41.2874C193.32 41.288 193.189 41.288 193.059 41.2893C193.058 41.4798 193.057 41.671 193.057 41.8616C193.057 41.9586 193.056 42.0565 193.056 42.1536V42.5471C193.056 42.5832 193.055 42.6186 193.055 42.6536C193.055 42.6866 193.055 42.7192 193.055 42.7512C193.055 42.8015 193.056 42.8523 193.059 42.9026C193.086 42.9298 193.086 42.9303 193.163 42.9338H193.726C193.96 42.9336 194.202 42.9146 194.397 42.7717C194.588 42.6044 194.719 42.4134 194.742 42.1526C194.745 41.912 194.675 41.7051 194.514 41.5256C194.325 41.3522 194.087 41.2834 193.836 41.2835C193.816 41.2837 193.797 41.2842 193.777 41.2844ZM187.154 41.8606C187.154 41.9577 187.154 42.0555 187.153 42.1526C187.153 42.2477 187.153 42.3436 187.152 42.4387V42.7512C187.152 42.8015 187.153 42.8523 187.155 42.9026C187.182 42.9295 187.183 42.9293 187.243 42.9329C187.281 42.9328 187.281 42.933 187.318 42.9329C187.363 42.933 187.408 42.9326 187.453 42.9299C187.48 42.9026 187.479 42.9019 187.483 42.8411V42.6848C187.481 42.4791 187.481 42.4784 187.48 42.2727H188.454V41.9729H187.48V41.5627H188.481V41.2893H187.155C187.155 41.4797 187.155 41.6702 187.154 41.8606ZM188.647 41.2893C188.738 41.8444 188.764 42.2002 188.668 42.7346C188.653 42.8156 188.637 42.8558 188.674 42.9299C188.837 42.9305 189 42.9306 189.163 42.9309C189.229 42.931 189.296 42.9308 189.362 42.9309C189.46 42.9313 189.558 42.9317 189.656 42.9319C189.688 42.9319 189.719 42.9318 189.749 42.9319C189.78 42.932 189.81 42.9327 189.84 42.9329H189.998C190.054 42.9296 190.054 42.9299 190.081 42.9026V42.6565H189.026C189.044 42.5079 189.061 42.3632 189.079 42.219H190.027C190.027 41.973 190.026 41.9729 189.999 41.9456C189.952 41.9439 189.903 41.9416 189.856 41.9417C189.835 41.9418 189.816 41.9425 189.796 41.9426C189.732 41.9428 189.668 41.9423 189.605 41.9426C189.56 41.9429 189.515 41.9435 189.471 41.9436C189.368 41.9439 189.266 41.9441 189.163 41.9446C189.121 41.9448 189.121 41.9453 189.079 41.9456C189.061 41.8156 189.043 41.6889 189.026 41.5627H190.081V41.2893H188.647ZM194.95 42.9299H195.276V41.2893H194.95V42.9299ZM197.546 41.8616C197.546 41.9586 197.545 42.0565 197.545 42.1536C197.545 42.2486 197.544 42.3437 197.544 42.4387V42.8381C197.547 42.9024 197.547 42.9027 197.574 42.9299H197.871V41.2893H197.547C197.546 41.4798 197.546 41.671 197.546 41.8616ZM195.599 42.929H195.897C195.906 42.5201 195.915 42.1227 195.924 41.7258C195.972 41.7987 196.023 41.8672 196.077 41.9358C196.188 42.0763 196.296 42.218 196.399 42.3645C196.449 42.4386 196.899 42.929 196.899 42.929H197.223C197.223 42.9106 197.253 41.8313 197.25 41.2883H196.925C196.916 41.6858 196.899 42.4553 196.899 42.4641L196.507 41.9446C196.505 41.9418 196.304 41.6906 196.211 41.5579C196.179 41.5115 195.982 41.2927 195.978 41.2883H195.599V42.929ZM185.586 42.9016H185.91V42.2717C185.915 42.2717 186.02 42.2722 186.112 42.2756H186.911V41.9719H185.91V41.5618H186.939V41.26H185.586V42.9016ZM184.003 41.6721C184.274 41.4398 184.734 41.4945 184.937 41.7268C185.022 41.8246 185.038 41.9254 185.054 42.0393C185.057 42.2323 185.005 42.3591 184.877 42.5022C184.746 42.6215 184.605 42.6622 184.431 42.6663C184.201 42.6556 184.064 42.5803 183.908 42.4104C183.819 42.2614 183.803 42.1157 183.827 41.9456C183.862 41.8389 183.887 41.7717 184.003 41.6721ZM193.64 41.5598C193.817 41.5565 193.971 41.5622 194.141 41.6174C194.275 41.693 194.354 41.798 194.4 41.9456C194.43 42.0926 194.429 42.2576 194.348 42.387C194.332 42.4054 194.317 42.4237 194.302 42.4417C194.287 42.4602 194.272 42.4783 194.257 42.4963C194.104 42.6233 193.946 42.6386 193.755 42.637C193.725 42.6362 193.696 42.6358 193.667 42.635C193.571 42.6333 193.477 42.6308 193.383 42.6292V41.5627C193.513 41.561 193.513 41.5615 193.64 41.5598ZM192.339 41.9182C192.227 41.9182 192.136 42.0101 192.136 42.1233C192.136 42.2364 192.227 42.3283 192.339 42.3284C192.451 42.3284 192.542 42.2365 192.542 42.1233C192.542 42.01 192.451 41.9182 192.339 41.9182ZM199.334 33.4153C199.618 33.2374 199.536 32.4036 198.778 32.6497C198.02 32.8968 196.383 34.7288 195.234 36.4641C195.229 36.4601 195.035 36.2876 194.882 36.2717C194.083 36.1898 192.067 36.2181 191.499 36.3821C190.601 36.6427 190.296 38.8003 191.499 38.801C193.304 38.801 193.019 37.1818 193.015 37.1604C193.693 36.9744 194.083 36.982 194.787 37.092C194.776 37.106 194.3 37.6841 194.3 38.0217C194.3 38.5287 194.531 38.6993 194.787 38.678C195.437 38.6233 196.851 36.8709 197.196 37.0657C197.196 37.3803 197.145 38.0319 197.683 38.3362C198.471 38.7819 200.078 37.523 200.105 37.5022C200.107 37.5142 200.197 38.0176 200.74 38.1585C201.952 38.4714 203.387 35.9408 204.137 34.8508C204.338 34.559 203.916 33.9453 203.541 34.345C202.753 35.1868 201.274 37.2573 201.052 37.2835C201.035 37.2326 201.818 35.7616 201.16 35.6165C200.335 35.435 200.267 36.5872 200.267 36.5872C199.577 36.7383 198.4 37.7617 198.156 37.5022C197.913 37.2424 198.193 36.6949 197.819 36.4085C197.316 36.0242 196.181 36.6692 196.181 36.6692C197.309 35.0396 199.049 33.5937 199.334 33.4153ZM210.036 31.9514C209.211 31.891 209.389 32.8378 208.941 32.9495C208.223 33.1272 207.262 33.2092 206.626 33.346C206.221 33.4336 206.202 34.0972 206.505 34.1252C207.244 34.193 208.531 33.9373 208.548 33.9338C208.069 34.8179 207.798 35.3138 207.357 36.1887C207.326 36.2025 204.721 37.394 204.719 36.9827C204.719 36.6821 205.098 36.3401 205.206 36.176C205.292 36.0457 205.21 35.7515 205.206 35.7385C205.22 35.7415 205.575 35.8162 205.652 35.6155C205.732 35.4104 206.307 34.9918 206.329 34.6858C206.372 34.0845 205.77 33.8924 205.301 34.2893C204.724 34.7777 204.906 35.5221 204.908 35.5335C204.902 35.5332 204.663 35.5251 204.529 35.5881C203.921 35.8753 203.366 37.1742 203.988 37.7756C204.708 38.4695 206.624 37.3956 206.653 37.3792C206.64 37.4003 206.087 38.2691 206.152 38.5129C206.243 38.8419 206.734 38.8909 206.924 38.6086C207.614 37.5831 209.18 34.2503 209.685 33.9338C210.361 33.5103 211.943 33.783 211.944 33.4417C211.944 33.2088 211.984 33.061 211.781 32.9495C211.487 32.7874 210.2 32.8657 210.172 32.8674C210.184 32.8509 210.773 32.0058 210.036 31.9514ZM192.121 37.0637C192.202 37.0468 192.271 37.132 192.271 37.2151C192.269 37.4441 191.602 37.9368 191.581 37.9524C191.587 37.9304 191.801 37.1322 192.121 37.0637ZM213.606 35.3411C213.138 35.088 211.157 35.0268 209.952 35.2864C209.33 35.4207 208.95 36.8996 209.302 37.4465C209.654 37.9932 210.82 37.7829 211.278 37.0911C211.493 36.7671 211.467 36.1069 211.467 36.093C211.466 36.0526 212.724 35.7231 213.524 36.1751C213.998 36.4429 213.984 35.5465 213.606 35.3411ZM210.534 36.0129C210.615 35.9962 210.683 36.0804 210.683 36.1633C210.682 36.3955 209.994 36.9006 209.992 36.9016C209.995 36.8907 210.212 36.0809 210.534 36.0129Z" fill="var(--fill-0, white)" fill-opacity="0.5"/>
</svg>
