<svg preserveAspectRatio="none" width="100%" height="100%" overflow="visible" style="display: block;" viewBox="0 0 217.255 230" fill="none" xmlns="http://www.w3.org/2000/svg">
<g id="Group 195929324">
<path id="Vector 124 (Stroke)" fill-rule="evenodd" clip-rule="evenodd" d="M36.5096 20.8191C37.6402 21.1851 38.3029 22.1073 38.6854 22.9031C39.0924 23.7498 39.3412 24.7707 39.5021 25.8058C39.8263 27.8918 39.8576 30.4793 39.7723 32.9313C39.7109 34.6977 39.5863 36.4408 39.4529 37.9498C40.5417 37.0342 41.8108 36.0185 43.1476 35.0521C45.0774 33.6572 47.2424 32.2956 49.2609 31.5194C51.1317 30.8001 53.6353 30.2998 55.4899 31.892C56.3384 32.6206 56.8316 33.5571 56.9267 34.6096C57.0163 35.6009 56.7401 36.5408 56.3626 37.341C55.6191 38.9169 54.2372 40.4597 52.8888 41.742C51.5064 43.0567 50.0049 44.2402 48.8628 45.0873C48.7824 45.1469 48.7031 45.2044 48.6261 45.2608C49.0925 45.8009 49.6231 46.4596 50.1399 47.1997C50.8555 48.2246 51.5794 49.453 52.0589 50.7743C52.5362 52.0897 52.812 53.611 52.4797 55.1514C52.3044 55.9638 52.0603 56.8797 51.7372 57.7359C51.4419 58.5182 51.0312 59.3851 50.4521 60.0673C50.6267 60.5179 50.7213 61.0006 50.7533 61.4948C50.9202 64.0765 49.7583 65.9861 48.0695 67.2711C46.4671 68.4904 44.3957 69.1589 42.5092 69.5434C40.5912 69.9343 38.6839 70.0665 37.2749 70.1039C36.826 70.1158 36.4233 70.1177 36.0817 70.1153C35.9708 70.3459 35.8431 70.6127 35.7004 70.913C35.1431 72.0855 34.356 73.7684 33.4399 75.8037C31.6061 79.8781 29.2622 85.3495 27.208 90.9636C25.1454 96.6004 23.4106 102.286 22.7464 106.817C22.413 109.092 22.3694 110.951 22.6208 112.319C22.8721 113.687 23.3559 114.283 23.8383 114.543C25.8021 115.599 28.7752 116.213 32.3278 116.464C35.8344 116.711 39.7101 116.592 43.3457 116.317L52.3548 114.916L58.4588 118.489L64.8549 122.587L55.8373 144.129L54.2799 144.179L54.2772 144.179L54.2728 144.179L54.2587 144.179L54.2089 144.181C54.1665 144.182 54.1054 144.183 54.0262 144.184C53.8675 144.187 53.6357 144.189 53.3341 144.189C52.7309 144.188 51.8479 144.177 50.7103 144.134C48.435 144.05 45.1396 143.841 41.0244 143.346C32.7954 142.357 21.2781 140.222 8.07744 135.638C5.16555 134.627 3.06829 132.993 1.73993 130.795C0.431367 128.629 -0.0277741 126.087 0.00128816 123.421C0.0585991 118.165 2.03753 111.829 4.12796 105.547C6.95175 97.0603 10.8011 86.2887 13.9408 77.649C15.5115 73.327 16.9061 69.5345 17.908 66.8223C18.409 65.4662 18.8117 64.38 19.0894 63.6327L19.2035 63.3259C18.9073 62.7985 18.5631 62.0516 18.3192 61.1066C17.8133 59.1471 17.7646 56.4387 19.2776 53.2305C20.0209 51.6543 20.7048 49.9277 21.2068 48.5816C21.4517 47.9248 21.651 47.3647 21.7902 46.9655C21.6359 46.6069 21.4317 46.1183 21.2037 45.5337C20.7118 44.2728 20.0975 42.5404 19.6282 40.6896C19.1645 38.8609 18.8124 36.8041 18.9194 34.9309C19.0248 33.0842 19.6073 31.0392 21.4115 29.8051C22.3982 29.1303 23.5323 28.833 24.6952 29.1418C25.7765 29.429 26.585 30.1646 27.169 30.9079C27.706 31.5916 28.1702 32.4328 28.5722 33.3432C28.5802 33.2782 28.5879 33.2132 28.5961 33.1482C28.9808 30.114 29.5849 26.9658 30.5738 24.6475C31.0638 23.4987 31.7221 22.3732 32.6503 21.6015C33.6687 20.7547 34.9714 20.3805 36.3988 20.7855L36.5096 20.8191ZM50.5491 34.8698C52.2811 34.2039 52.9503 34.4427 53.1514 34.6154C53.3306 34.7692 53.3452 34.8611 53.3517 34.9325C53.3636 35.0652 53.3354 35.345 53.1162 35.8097C52.6661 36.7638 51.6857 37.9324 50.415 39.1409C49.1783 40.317 47.8036 41.4038 46.7244 42.2042C46.1879 42.6022 45.7312 42.9244 45.4104 43.1459C45.2501 43.2565 45.1241 43.3417 45.0395 43.3985L44.9445 43.462L44.9172 43.4799L43.0022 44.7325L44.674 46.2931L44.6813 46.3L44.7185 46.3356C44.7533 46.3691 44.8073 46.4215 44.8772 46.4914C45.0173 46.6314 45.221 46.8404 45.4646 47.106C45.9545 47.6402 46.5924 48.3889 47.197 49.2548C47.8064 50.1274 48.3482 51.0717 48.6846 51.9987C49.0231 52.9316 49.1132 53.7344 48.9709 54.3943C48.82 55.0938 48.6206 55.828 48.3788 56.4686C48.1921 56.9631 48.0086 57.324 47.8518 57.5612C47.7212 57.4234 47.5416 57.2052 47.3182 56.8635C46.9541 56.3066 46.6953 55.7951 46.4585 55.2906C46.2413 54.8277 45.9789 54.2222 45.6874 53.7067C45.3674 53.1409 44.9555 52.5677 44.3404 52.0494C43.7317 51.5366 42.9991 51.1407 42.1086 50.8231C39.7579 49.9847 37.2334 50.3546 35.3068 51.4895C33.3761 52.6268 31.8565 54.6678 31.9431 57.2408C31.9999 58.9299 32.3073 61.0959 34.5203 62.387C35.2834 62.8322 36.1284 62.9687 36.8776 62.9874C37.6356 63.0063 38.4277 62.9068 39.1831 62.7677C40.6336 62.5004 42.3733 61.9922 43.7012 61.6705C45.2033 61.3065 46.2372 61.1628 46.8557 61.268C47.0007 61.2927 47.0685 61.3236 47.0937 61.3379C47.1132 61.3757 47.1559 61.4856 47.1714 61.7265C47.2488 62.9235 46.7842 63.7384 45.8958 64.4144C44.9209 65.1562 43.4643 65.6854 41.7922 66.0263C40.1517 66.3606 38.47 66.4815 37.1796 66.5158C36.5391 66.5328 36.0058 66.5282 35.6358 66.5195C35.451 66.5152 35.3075 66.5098 35.2125 66.5057L35.1076 66.5007L35.0842 66.4995L35.0812 66.4992L33.8921 66.4273L33.3639 67.4952L34.8815 68.2458C33.396 67.5111 33.3626 67.4979 33.3626 67.4979L33.3593 67.5044L33.3473 67.529L33.3006 67.624C33.2598 67.7073 33.1996 67.8299 33.1221 67.9895C32.967 68.3089 32.7416 68.7763 32.4584 69.3721C31.8921 70.5635 31.0945 72.269 30.1667 74.3304C28.3127 78.4495 25.9315 84.0062 23.8371 89.7301C21.751 95.4312 19.9136 101.394 19.195 106.296C18.8371 108.738 18.7368 111.042 19.0906 112.968C19.4445 114.894 20.3151 116.723 22.1378 117.704C24.7842 119.127 28.3753 119.784 32.0755 120.045C35.8216 120.309 39.8874 120.179 43.6171 119.896C47.3536 119.613 50.7919 119.172 53.294 118.804C53.932 118.71 54.5099 118.62 55.0172 118.539L52.6121 140.593C52.1288 140.586 51.5373 140.573 50.8439 140.547C48.6585 140.466 45.4619 140.265 41.4531 139.783C33.4339 138.818 22.1733 136.733 9.25477 132.248C7.00672 131.467 5.64212 130.312 4.812 128.938C3.96207 127.532 3.56606 125.718 3.59068 123.46C3.64076 118.867 5.40438 113.08 7.53381 106.68C10.3413 98.2424 14.177 87.5089 17.3147 78.875C18.8827 74.5602 20.275 70.7738 21.2752 68.0661C21.7753 66.7123 22.1773 65.6283 22.4543 64.8829L22.7724 64.0276L22.8548 63.8064L22.8756 63.7504L22.8809 63.7363L22.8827 63.7316L23.2503 62.7468L22.5845 61.9601C22.5791 61.9532 22.5645 61.9344 22.5428 61.9039C22.4993 61.8426 22.4277 61.7355 22.3427 61.5857C22.1722 61.2852 21.9524 60.8201 21.7948 60.2094C21.4878 59.0204 21.3864 57.1747 22.5243 54.7617C23.3281 53.0574 24.0516 51.2266 24.5703 49.8357C24.8308 49.1372 25.0419 48.543 25.1885 48.1222C25.2618 47.9118 25.3189 47.7444 25.3581 47.6287L25.4031 47.4949L25.4153 47.4592L25.4184 47.4494L25.4198 47.445L25.6436 46.7682L25.3421 46.1224L25.3403 46.1185L25.3304 46.0967L25.2875 46.0027C25.2493 45.9181 25.1924 45.7906 25.1209 45.6255C24.9778 45.2951 24.7765 44.8156 24.5478 44.2293C24.0882 43.0513 23.5284 41.4671 23.1075 39.8073C22.681 38.1254 22.4266 36.4775 22.5032 35.1355C22.5813 33.7671 22.9725 33.0863 23.4381 32.7679C23.6104 32.6501 23.7118 32.6203 23.7456 32.613C23.7705 32.6076 23.774 32.6111 23.774 32.6111C23.8022 32.6186 24.0074 32.6944 24.3461 33.1255C25.0398 34.0084 25.7053 35.619 26.274 37.6001C26.8254 39.5208 27.2267 41.5708 27.4912 43.1576C27.6228 43.947 27.7192 44.6133 27.7823 45.0803C27.8139 45.3136 27.8371 45.4968 27.8523 45.6203L27.869 45.7596L27.8731 45.7933L27.874 45.8023L27.8805 45.8014L31.452 45.5895L31.4522 45.5867L31.4521 45.575L31.452 45.5254L31.4519 45.3254C31.4522 45.1489 31.4535 44.8881 31.4574 44.5557C31.4652 43.8906 31.4835 42.9397 31.5253 41.8035C31.6089 39.5255 31.786 36.5267 32.1571 33.5997C32.5331 30.634 33.0907 27.8961 33.8757 26.0558C34.2726 25.1254 34.6542 24.6036 34.9453 24.3616C35.1011 24.232 35.1938 24.1998 35.3102 24.2151C35.3417 24.2581 35.3905 24.3333 35.4505 24.4581C35.6382 24.8487 35.8183 25.4759 35.9552 26.3571C36.2267 28.1037 36.2679 30.4217 36.185 32.8068C36.1028 35.1705 35.9025 37.5115 35.7215 39.268C35.6312 40.1444 35.5462 40.8713 35.4839 41.3777C35.4527 41.6308 35.4273 41.8287 35.4098 41.9623L35.3898 42.1133L35.3846 42.1505L35.3832 42.1613L34.6687 47.3322L38.4129 43.6929L38.4183 43.6877L38.4434 43.6635L38.5467 43.5646C38.6387 43.4769 38.776 43.3469 38.9531 43.1819C39.3076 42.8517 39.8208 42.3815 40.4502 41.8273C41.7126 40.7154 43.4253 39.2805 45.2505 37.9612C47.0968 36.6266 48.9647 35.479 50.5491 34.8698ZM40.9029 54.2041C41.4893 54.4132 41.8196 54.6191 42.0278 54.7945C42.2297 54.9646 42.389 55.1664 42.5627 55.4736C42.7085 55.7314 42.8292 55.9936 42.9939 56.3516C43.0577 56.4902 43.1281 56.6432 43.2091 56.8157C43.3727 57.1642 43.562 57.55 43.7949 57.9677C43.4727 58.0356 43.1578 58.1088 42.8559 58.182C42.2813 58.3212 41.7362 58.4642 41.2119 58.6018C40.2685 58.8493 39.3923 59.0792 38.5327 59.2375C37.8941 59.3552 37.3745 59.409 36.9669 59.3989C36.5507 59.3885 36.3761 59.3139 36.3292 59.2866C36.013 59.1021 35.8638 58.9021 35.7592 58.6387C35.6301 58.3134 35.555 57.8478 35.5305 57.1202C35.4981 56.1559 36.0511 55.2173 37.1288 54.5825C38.2105 53.9452 39.6302 53.7502 40.9029 54.2041Z" fill="var(--fill-0, #460001)"/>
<g id="Group 68">
<path id="Vector 116 (Stroke)" d="M142.474 32.0168C146.843 31.7325 149.826 35.1946 150.5 39.1169C151.57 45.3488 149.906 49.1408 147.623 51.3447C146.522 52.4066 145.351 53.0265 144.458 53.3819C144.317 53.4381 144.181 53.4874 144.053 53.5316C143.935 54.1368 143.749 54.9556 143.46 55.922C142.841 57.9909 141.748 60.7632 139.844 63.5725C135.99 69.258 128.912 74.9385 116.236 75.408C112.647 75.5409 109.561 74.0896 107.022 72C104.496 69.9219 102.435 67.1553 100.82 64.4617C99.1989 61.757 97.9832 59.0511 97.1743 57.03C96.7689 56.0169 96.4631 55.1695 96.2577 54.5719C96.1549 54.273 96.0771 54.0361 96.0243 53.8719C95.998 53.7898 95.9779 53.7257 95.964 53.6811C95.957 53.6588 95.9515 53.6412 95.9477 53.6287C95.9458 53.6226 95.9443 53.6176 95.9432 53.614C95.9427 53.6122 95.9423 53.6107 95.9419 53.6095C95.9418 53.6089 95.9415 53.608 95.9414 53.6077C95.943 53.6066 95.9946 53.5906 97.5367 53.1255L95.9412 53.6067L95.3808 51.7494L97.3013 51.4757C97.3014 51.4757 97.3017 51.4755 97.302 51.4754C97.3029 51.4753 97.3045 51.4752 97.3065 51.4749C97.3106 51.4743 97.3171 51.4732 97.3258 51.4719C97.3435 51.4694 97.3706 51.4655 97.4065 51.4602C97.4782 51.4495 97.5857 51.4334 97.7259 51.4118C98.0066 51.3687 98.4182 51.3038 98.9368 51.2173C99.9745 51.0441 101.439 50.7848 103.139 50.4413C106.552 49.7518 110.862 48.7338 114.574 47.4094C117.942 46.2079 122.999 44.1165 127.405 42.1756C129.604 41.2068 131.626 40.2824 133.178 39.5328C133.956 39.1575 134.604 38.8313 135.094 38.5688C135.253 38.4841 135.39 38.4078 135.507 38.341C135.54 38.2356 135.578 38.1205 135.62 37.9975C135.826 37.4068 136.158 36.6047 136.661 35.7803C137.658 34.1479 139.477 32.2117 142.474 32.0168ZM147.215 39.6813C146.732 36.8695 144.837 35.2033 142.69 35.3429C141.212 35.4391 140.211 36.3625 139.506 37.517C139.159 38.086 138.92 38.6591 138.768 39.0954C138.693 39.311 138.641 39.4866 138.609 39.6032C138.593 39.6612 138.583 39.7042 138.577 39.7294C138.573 39.7419 138.572 39.7501 138.571 39.7534L138.571 39.7547L138.448 40.3245L137.99 40.6949C137.673 40.9513 137.17 41.2383 136.668 41.5071C136.12 41.8004 135.425 42.149 134.627 42.5344C133.028 43.3063 130.97 44.2476 128.749 45.2258C124.315 47.1791 119.173 49.3075 115.694 50.5488C111.762 51.9516 107.273 53.0068 103.799 53.7086C102.197 54.0321 100.8 54.2818 99.7561 54.4585C99.9018 54.8533 100.073 55.3014 100.269 55.7916C101.036 57.7073 102.176 60.2413 103.679 62.7478C105.188 65.2653 107.019 67.6813 109.14 69.4263C111.246 71.1597 113.561 72.1719 116.113 72.0774C127.666 71.6494 133.792 66.5614 137.085 61.7027C138.754 59.2399 139.719 56.7962 140.266 54.9671C140.539 54.0546 140.706 53.3016 140.803 52.7849C140.852 52.5268 140.884 52.3284 140.902 52.1993C140.912 52.1348 140.918 52.0876 140.921 52.0591C140.923 52.0448 140.924 52.0351 140.925 52.0303C140.925 52.028 140.925 52.0268 140.925 52.0268L141.06 50.7463L142.324 50.559C142.323 50.5592 142.323 50.5592 142.324 50.559C142.327 50.5585 142.337 50.557 142.353 50.5538C142.386 50.5473 142.445 50.5348 142.525 50.5145C142.686 50.4737 142.931 50.402 143.226 50.2846C143.82 50.0483 144.591 49.6383 145.308 48.9463C146.659 47.6424 148.133 45.0309 147.215 39.6813Z" fill="var(--fill-0, #460001)"/>
<g id="Group 85">
<path id="Subtract" d="M132.547 6.01486C132.957 6.04001 133.384 6.0715 133.825 6.11226C136.853 6.39253 140.814 7.10553 143.562 9.02174C146.014 10.7315 147.547 13.4478 148.52 16.3232C149.498 19.2164 149.968 22.4473 150.174 25.4207C150.379 28.4048 150.322 31.1951 150.214 33.2342C150.16 34.2557 150.094 35.0938 150.04 35.6792C150.013 35.972 149.99 36.202 149.972 36.3605C149.964 36.4397 149.957 36.5013 149.952 36.5438C149.95 36.565 149.948 36.5817 149.946 36.5934C149.945 36.5991 149.945 36.6038 149.945 36.6072C149.944 36.6088 149.944 36.6104 149.944 36.6114C149.944 36.6119 149.944 36.6127 149.944 36.6129L148.29 36.4116L149.944 36.6137L149.276 42.0806L146.802 37.1635C146.799 37.1576 146.793 37.1464 146.784 37.1305C146.765 37.0947 146.731 37.0356 146.684 36.9585C146.589 36.8032 146.442 36.5804 146.246 36.3305C145.843 35.8177 145.286 35.26 144.606 34.8973C143.961 34.5529 143.187 34.3713 142.223 34.5963C141.222 34.83 139.861 35.5393 138.162 37.2872C137.57 37.8967 136.848 38.0855 136.237 38.1137C136.163 38.284 136.075 38.4519 135.976 38.6153C135.109 40.0389 133.055 41.7108 129.084 43.8796C119.318 49.2141 111.699 52.7398 99.5682 54.223C92.7668 55.0545 88.777 55.0545 81.9756 54.223L81.897 54.2135L81.8196 54.1965C80.3037 53.8629 79.0073 53.3191 78.1334 52.4072C77.1727 51.4045 76.9161 50.1651 77.1169 48.9527C77.3028 47.8305 77.8744 46.7212 78.5546 45.6961C79.2495 44.649 80.1488 43.5567 81.1341 42.4569C83.0619 40.305 85.5977 37.8295 87.748 35.5498C89.235 33.9733 90.5814 32.4468 91.6357 31.0066C91.9334 31.1357 92.2718 31.1796 92.6145 31.1132H92.616C92.6173 31.113 92.6198 31.1126 92.623 31.112C92.6294 31.1107 92.6397 31.1088 92.6533 31.1062C92.6807 31.101 92.7224 31.093 92.7777 31.0827C92.8886 31.062 93.0542 31.0316 93.2687 30.9935C93.698 30.9174 94.3235 30.8103 95.1015 30.6878C96.6591 30.4426 98.8223 30.1367 101.243 29.8936C106.153 29.4007 111.884 29.1939 115.824 30.1397C119.148 30.9376 123.28 32.8501 126.664 34.6246C128.338 35.5022 129.795 36.3282 130.834 36.9347C131.353 37.2377 131.766 37.4852 132.048 37.6563C132.189 37.7418 132.298 37.8083 132.37 37.8528C132.406 37.8751 132.433 37.8919 132.451 37.9029C132.46 37.9084 132.467 37.9124 132.471 37.9149C132.473 37.9162 132.474 37.9171 132.475 37.9177L132.476 37.9182L134.426 39.1353L134.976 36.9039L133.358 36.5045L134.977 36.9036V36.9034C134.977 36.9031 134.977 36.9025 134.977 36.9021C134.977 36.9011 134.977 36.8995 134.978 36.8979C134.979 36.8945 134.98 36.8896 134.981 36.8836C134.984 36.8714 134.989 36.8537 134.994 36.831C135.005 36.7854 135.021 36.7187 135.041 36.6327C135.082 36.4607 135.14 36.2107 135.211 35.8941C135.353 35.2609 135.547 34.3596 135.757 33.281C136.174 31.1298 136.658 28.2453 136.908 25.3624C137.348 20.2895 136.101 15.189 134.798 11.4302C134.142 9.53619 133.459 7.94898 132.938 6.83212C132.794 6.52303 132.662 6.2495 132.547 6.01486ZM123.387 0.000113748C124.705 0.0102563 125.762 0.68254 126.52 1.392C127.285 2.10888 127.902 3.00862 128.373 3.82299C128.638 4.28116 128.87 4.73562 129.066 5.15179C128.856 5.6153 128.86 6.16877 129.125 6.64809C129.126 6.64855 129.126 6.64928 129.126 6.65009C129.128 6.65306 129.131 6.65833 129.135 6.66587C129.143 6.68117 129.157 6.706 129.175 6.73948C129.211 6.80652 129.265 6.90923 129.335 7.0452C129.474 7.3174 129.676 7.72229 129.917 8.23954C130.399 9.2754 131.037 10.756 131.649 12.5219C132.883 16.0829 133.969 20.6715 133.587 25.0744C133.351 27.7969 132.89 30.5558 132.485 32.6461C132.397 33.0963 132.312 33.5145 132.233 33.893C131.187 33.2865 129.795 32.5025 128.212 31.6728C124.792 29.8793 120.352 27.799 116.602 26.8987C112.067 25.81 105.84 26.0821 100.91 26.577C98.4123 26.8278 96.1856 27.1429 94.5832 27.3952C94.1489 27.4636 93.76 27.5277 93.4235 27.5845C93.9281 25.9362 94.2552 24.2036 94.561 22.4016C94.9511 20.1025 95.3158 17.6294 96.0272 15.3522C96.7511 13.0351 97.8655 10.7991 99.8333 8.93761C101.794 7.08344 104.481 5.71358 108.169 4.90941C110.726 4.23712 113.327 3.90637 115.272 3.74162C116.252 3.65857 117.076 3.61681 117.658 3.59589C117.693 3.59465 117.727 3.59374 117.76 3.59264C118.054 3.22683 118.466 2.74677 118.957 2.26159C119.464 1.76051 120.095 1.21649 120.802 0.790329C121.496 0.372303 122.389 -0.00754095 123.387 0.000113748ZM122.019 12.3168C122.054 12.1582 122.015 11.9543 121.429 12.101C119.144 12.6721 107.573 17.6141 107.649 17.5699C107.624 17.5541 108.397 16.5488 108.53 16.4344C108.765 16.2329 108.594 15.9147 108.277 16.0155C107.738 16.1866 106.777 17.8803 106.773 17.8871C106.763 17.8901 104.697 18.4972 104.14 18.8959C104.009 18.9899 104.073 19.349 104.254 19.3782C104.648 19.4416 106.202 19.0356 106.202 19.0356C106.197 19.0438 105.722 19.8624 106.119 20.2791C106.212 20.3755 106.532 20.3298 106.386 20.0507C106.28 19.8481 106.729 18.9784 106.856 18.934C108.633 18.3123 122.601 19.2215 122.824 19.429C123.048 19.6362 123.25 19.1691 122.634 18.9402C122.018 18.7114 112.998 18.0995 107.204 18.3123C108.087 18.0524 115.712 14.3534 121.454 12.5389C121.68 12.4675 121.993 12.431 122.019 12.3168ZM116.525 19.2259C116.392 19.1308 116.17 19.1118 116.009 19.1916C115.901 19.2452 115.85 19.3145 115.811 19.4287C115.784 19.5439 115.797 19.6562 115.854 19.7595C115.92 19.8575 116.019 19.9108 116.132 19.9365C116.264 19.9512 116.38 19.9343 116.49 19.8572C116.498 19.8496 116.505 19.8422 116.513 19.8349C116.521 19.8651 116.53 19.8944 116.538 19.9238H116.652V19.5432H116.259V19.6573C116.341 19.6617 116.421 19.6659 116.5 19.6701C116.476 19.7185 116.433 19.749 116.385 19.7715C116.261 19.8164 116.1 19.8362 116.005 19.7207C115.917 19.6134 115.935 19.4669 116.005 19.3787C116.023 19.356 116.062 19.3253 116.075 19.3211C116.167 19.2862 116.238 19.281 116.335 19.302C116.385 19.317 116.416 19.338 116.452 19.3787C116.475 19.4047 116.5 19.4543 116.5 19.4543H116.64C116.64 19.453 116.633 19.3725 116.611 19.3273C116.588 19.2809 116.564 19.2531 116.525 19.2259ZM114.913 19.9363H115.052C115.057 19.7465 115.061 19.5623 115.065 19.3782C115.088 19.412 115.112 19.4437 115.137 19.4756C115.189 19.5409 115.24 19.6065 115.288 19.6746C115.312 19.7088 115.518 19.9323 115.522 19.9363H115.674C115.674 19.9277 115.688 19.4271 115.687 19.1751H115.534C115.53 19.3606 115.522 19.7207 115.522 19.7207L115.338 19.4796C115.337 19.4787 115.243 19.362 115.2 19.3003C115.185 19.2793 115.092 19.1773 115.09 19.1751C115.09 19.1751 114.971 19.1751 114.913 19.1751V19.9363ZM108.458 19.1418C108.397 19.1411 108.34 19.1415 108.282 19.1603C108.167 19.2096 108.09 19.2837 108.038 19.3987C108.001 19.5039 108.015 19.6188 108.061 19.7182C108.113 19.8188 108.189 19.8803 108.297 19.9155C108.448 19.9446 108.616 19.941 108.747 19.8534C108.84 19.7821 108.887 19.6875 108.903 19.5715C108.908 19.4612 108.877 19.36 108.809 19.2725C108.716 19.1786 108.627 19.146 108.497 19.1421C108.484 19.1419 108.471 19.1419 108.458 19.1418ZM107.552 19.1416C107.453 19.1404 107.375 19.1411 107.287 19.2004C107.214 19.2498 107.174 19.317 107.147 19.3779C107.108 19.4842 107.109 19.6207 107.154 19.7252C107.209 19.8171 107.296 19.8833 107.397 19.9157C107.545 19.9434 107.705 19.9394 107.833 19.8541C107.919 19.7858 107.945 19.7125 107.959 19.6063H107.807C107.803 19.6235 107.799 19.6403 107.794 19.6571C107.748 19.7266 107.698 19.7618 107.617 19.784C107.524 19.7971 107.441 19.786 107.363 19.7332C107.313 19.6742 107.289 19.6144 107.284 19.5374C107.29 19.4488 107.311 19.3893 107.376 19.3271C107.453 19.2795 107.534 19.2756 107.629 19.289C107.692 19.2979 107.747 19.3404 107.769 19.3717C107.793 19.405 107.799 19.4333 107.807 19.4668H107.959C107.959 19.3886 107.946 19.3367 107.897 19.2755C107.808 19.1827 107.716 19.1459 107.589 19.1418C107.57 19.1416 107.57 19.1417 107.552 19.1416ZM112.84 19.1601C112.81 19.1602 112.78 19.1603 112.75 19.1606C112.729 19.1608 112.708 19.161 112.687 19.1611C112.626 19.1614 112.565 19.162 112.503 19.1626C112.503 19.2511 112.503 19.3395 112.503 19.428C112.502 19.473 112.502 19.5182 112.502 19.5632C112.502 19.6074 112.502 19.6517 112.502 19.6959C112.502 19.713 112.502 19.7296 112.502 19.7462C112.502 19.763 112.502 19.7793 112.502 19.7956C112.502 19.811 112.502 19.8261 112.502 19.8411C112.502 19.8645 112.502 19.8879 112.503 19.9112C112.516 19.9239 112.516 19.9239 112.552 19.9255C112.569 19.9255 112.585 19.9255 112.6 19.9255C112.618 19.9255 112.636 19.9258 112.653 19.9258C112.681 19.9257 112.708 19.9254 112.736 19.9255H112.816C112.926 19.9254 113.04 19.9168 113.131 19.8504C113.221 19.7727 113.282 19.684 113.293 19.563C113.294 19.4513 113.261 19.3556 113.186 19.2723C113.097 19.1917 112.986 19.1598 112.868 19.1598C112.859 19.16 112.849 19.16 112.84 19.1601ZM111.208 19.1626C111.208 19.2014 111.207 19.2405 111.212 19.279C111.213 19.2869 111.215 19.2946 111.217 19.3023C111.219 19.3113 111.22 19.3201 111.222 19.3288C111.249 19.4644 111.253 19.5808 111.227 19.7169C111.225 19.7305 111.225 19.7306 111.222 19.744C111.22 19.7529 111.219 19.7616 111.217 19.7703C111.207 19.8157 111.207 19.8158 111.208 19.924C111.285 19.9243 111.361 19.9244 111.438 19.9245C111.469 19.9246 111.5 19.9247 111.531 19.9248C111.577 19.9249 111.623 19.9249 111.669 19.925C111.684 19.925 111.699 19.9252 111.713 19.9253H111.795C111.807 19.9253 111.818 19.9255 111.83 19.9255C111.856 19.924 111.856 19.9239 111.868 19.9112V19.7971C111.618 19.7907 111.618 19.7906 111.373 19.7843C111.382 19.7196 111.39 19.6568 111.399 19.594H111.83V19.4671C111.683 19.4627 111.541 19.4587 111.399 19.4545C111.39 19.3985 111.382 19.344 111.373 19.2895H111.856V19.1626H111.208ZM109.735 19.4277C109.735 19.4728 109.735 19.5179 109.735 19.563C109.734 19.6072 109.734 19.6515 109.734 19.6957C109.734 19.7127 109.734 19.7294 109.734 19.746C109.734 19.7628 109.734 19.779 109.734 19.7953C109.734 19.8107 109.734 19.8257 109.734 19.8406C109.734 19.864 109.734 19.8876 109.735 19.911C109.748 19.9236 109.748 19.9236 109.777 19.9253C109.794 19.9252 109.794 19.9253 109.811 19.9253C109.833 19.9253 109.854 19.9248 109.875 19.9235C109.888 19.9109 109.888 19.9108 109.889 19.8827C109.889 19.8702 109.889 19.858 109.889 19.8459C109.889 19.8337 109.889 19.8219 109.889 19.8101C109.888 19.7146 109.888 19.7145 109.888 19.619H110.344V19.4796H109.888V19.289H110.357V19.1623H109.735C109.735 19.2508 109.735 19.3393 109.735 19.4277ZM110.435 19.1623C110.478 19.42 110.49 19.5851 110.445 19.8331C110.438 19.8707 110.43 19.8891 110.447 19.9235C110.524 19.9238 110.6 19.9241 110.677 19.9243C110.708 19.9243 110.739 19.9242 110.77 19.9243C110.816 19.9244 110.862 19.9247 110.908 19.9248C110.923 19.9248 110.937 19.9247 110.952 19.9248C110.966 19.9248 110.98 19.9249 110.994 19.925H111.068C111.094 19.9235 111.094 19.9237 111.107 19.911V19.7968H110.612C110.621 19.7278 110.629 19.6607 110.638 19.5937H111.082C111.082 19.4797 111.082 19.4794 111.069 19.4668C111.047 19.466 111.024 19.4653 111.002 19.4653C110.992 19.4654 110.983 19.4655 110.973 19.4656C110.944 19.4656 110.914 19.4656 110.884 19.4658C110.863 19.4659 110.842 19.466 110.821 19.4661C110.773 19.4662 110.725 19.4663 110.677 19.4666C110.657 19.4667 110.657 19.4667 110.638 19.4668C110.629 19.4064 110.621 19.3477 110.612 19.289H111.107V19.1623H110.435ZM114.607 19.428C114.607 19.473 114.607 19.5182 114.607 19.5632C114.607 19.6074 114.607 19.6517 114.607 19.6959C114.607 19.713 114.607 19.7296 114.607 19.7462C114.607 19.763 114.607 19.7793 114.607 19.7956V19.8812C114.608 19.9111 114.608 19.9113 114.621 19.924H114.76V19.1626H114.608C114.608 19.2511 114.607 19.3395 114.607 19.428ZM113.391 19.9235H113.543V19.1623H113.391V19.9235ZM113.695 19.9233H113.834C113.839 19.7335 113.843 19.5493 113.847 19.3651C113.869 19.399 113.894 19.4307 113.919 19.4625C113.971 19.5278 114.022 19.5935 114.07 19.6616C114.094 19.696 114.304 19.9233 114.304 19.9233H114.456C114.456 19.9156 114.47 19.4143 114.469 19.1621H114.316C114.312 19.3476 114.304 19.7077 114.304 19.7077L114.12 19.4666C114.117 19.4632 114.025 19.3483 113.982 19.2873C113.967 19.2665 113.876 19.1655 113.872 19.1621C113.872 19.1621 113.753 19.1621 113.695 19.1621V19.9233ZM108.999 19.9105H109.151V19.6185C109.151 19.6185 109.202 19.6186 109.247 19.6203H109.621V19.4791H109.151V19.2888H109.634V19.1491H108.999V19.9105ZM108.257 19.3401C108.384 19.2323 108.6 19.2575 108.695 19.3654C108.735 19.4108 108.743 19.4575 108.75 19.5104C108.752 19.6 108.727 19.6588 108.667 19.7252C108.606 19.7807 108.54 19.7997 108.458 19.8016C108.35 19.7966 108.286 19.7616 108.213 19.6826C108.171 19.6134 108.164 19.5458 108.175 19.4668C108.191 19.4173 108.203 19.3863 108.257 19.3401ZM112.776 19.2878C112.859 19.2862 112.931 19.2892 113.011 19.3148C113.074 19.3499 113.111 19.3984 113.132 19.4668C113.147 19.5351 113.146 19.6118 113.108 19.6719C113.1 19.6804 113.093 19.6888 113.086 19.6972C113.079 19.7058 113.072 19.7143 113.065 19.7227C112.993 19.7815 112.92 19.7886 112.83 19.7878C112.816 19.7874 112.802 19.7871 112.789 19.7868C112.743 19.786 112.699 19.7851 112.656 19.7843V19.2895C112.716 19.2887 112.716 19.2886 112.776 19.2878ZM112.166 19.4543C112.113 19.4543 112.071 19.4969 112.071 19.5494C112.071 19.602 112.114 19.6446 112.166 19.6446C112.219 19.6446 112.261 19.6019 112.261 19.5494C112.261 19.4969 112.219 19.4543 112.166 19.4543ZM115.446 15.508C115.579 15.4255 115.541 15.0386 115.186 15.1527C114.831 15.2669 114.063 16.117 113.524 16.9226C113.524 16.9226 113.431 16.8412 113.359 16.8338C112.984 16.7957 112.039 16.8085 111.772 16.8846C111.351 17.0052 111.208 18.0074 111.772 18.0076C112.624 18.0075 112.483 17.2471 112.483 17.2461C112.801 17.1598 112.984 17.1635 113.314 17.2146C113.312 17.217 113.086 17.4881 113.086 17.646C113.086 17.8814 113.194 17.9605 113.314 17.9505C113.619 17.9249 114.282 17.1113 114.444 17.2018C114.444 17.3477 114.42 17.6504 114.672 17.7917C115.045 18.0003 115.808 17.4049 115.808 17.4049C115.808 17.4098 115.85 17.644 116.106 17.7093C116.674 17.8544 117.347 16.6796 117.698 16.174C117.792 16.0385 117.595 15.754 117.419 15.9394C117.05 16.3298 116.356 17.2909 116.252 17.3032C116.242 17.2812 116.611 16.5967 116.302 16.5293C115.917 16.4453 115.884 16.9754 115.884 16.9797C115.56 17.0495 115.008 17.5252 114.894 17.4049C114.78 17.2843 114.911 17.0303 114.735 16.8974C114.501 16.7197 113.972 17.0154 113.968 17.0178C114.496 16.2615 115.312 15.5908 115.446 15.508ZM120.464 14.8287C120.077 14.8006 120.161 15.2402 119.95 15.2919C119.614 15.3744 119.164 15.4125 118.865 15.4759C118.675 15.5164 118.666 15.8245 118.808 15.8375C119.157 15.8692 119.766 15.7486 119.766 15.7486C119.542 16.159 119.415 16.3893 119.208 16.7954C119.2 16.7989 117.971 17.3555 117.971 17.1635C117.971 17.024 118.148 16.8653 118.199 16.7892C118.24 16.7273 118.199 16.5861 118.199 16.5861C118.199 16.5861 118.372 16.6242 118.409 16.529C118.446 16.4339 118.716 16.2397 118.726 16.0976C118.746 15.8185 118.464 15.7293 118.244 15.9136C117.971 16.142 118.06 16.491 118.06 16.491C118.06 16.491 117.946 16.4867 117.882 16.5163C117.597 16.6495 117.336 17.2522 117.628 17.5313C117.968 17.8562 118.878 17.3475 118.878 17.3475C118.876 17.3508 118.612 17.7604 118.643 17.8741C118.686 18.0268 118.916 18.0494 119.005 17.9184C119.328 17.4426 120.062 15.8956 120.299 15.7486C120.616 15.5519 121.359 15.6788 121.359 15.5202C121.359 15.4121 121.377 15.3437 121.283 15.2919C121.144 15.2163 120.536 15.2533 120.528 15.2538C120.531 15.2497 120.811 14.8539 120.464 14.8287ZM112.064 17.2013C112.102 17.1936 112.134 17.2327 112.134 17.2712C112.134 17.3785 111.814 17.6114 111.81 17.6137C111.812 17.6086 111.913 17.2328 112.064 17.2013ZM122.138 16.4018C121.918 16.2844 120.989 16.2558 120.424 16.3763C120.133 16.4387 119.955 17.1251 120.12 17.3788C120.285 17.6326 120.832 17.535 121.046 17.2138C121.148 17.0619 121.135 16.7506 121.135 16.7506C121.136 16.7316 121.725 16.579 122.1 16.7887C122.322 16.9131 122.315 16.4971 122.138 16.4018ZM120.698 16.7136C120.735 16.7058 120.767 16.7449 120.767 16.7834C120.767 16.8911 120.445 17.1251 120.444 17.126C120.445 17.1231 120.546 16.7452 120.698 16.7136Z" fill="var(--fill-0, #460001)"/>
</g>
<path id="Vector 117 (Stroke)" d="M111.093 55.6315L110.82 50.7702C110.769 49.8512 111.471 49.0603 112.39 49.0037C113.309 48.947 114.095 49.6461 114.147 50.565L114.42 55.4264C114.471 56.3454 113.768 57.1362 112.85 57.1929C111.931 57.2495 111.144 56.5505 111.093 55.6315Z" fill="var(--fill-0, #460001)"/>
<path id="Vector 118 (Stroke)" d="M116.779 59.8432C117.634 59.5027 118.603 59.9201 118.943 60.7752C119.284 61.6303 118.867 62.5995 118.012 62.94C116.434 63.5682 115.082 64.0246 113.721 64.2009C112.319 64.3825 111 64.2567 109.476 63.8632C108.585 63.6331 108.049 62.724 108.279 61.8328C108.509 60.9416 109.418 60.4058 110.309 60.636C111.519 60.9484 112.402 61.0107 113.293 60.8954C114.224 60.7748 115.257 60.4493 116.779 59.8432Z" fill="var(--fill-0, #460001)"/>
<path id="Vector 119 (Stroke)" d="M107.342 73.0653C107.464 72.153 108.303 71.5125 109.215 71.6346C110.127 71.7567 110.768 72.5952 110.646 73.5074L108.595 88.8345C108.473 89.7468 107.634 90.3873 106.722 90.2652C105.81 90.1431 105.169 89.3046 105.291 88.3923L107.342 73.0653ZM140.442 57.5301C141.324 57.2686 142.252 57.7721 142.513 58.6546L149.692 82.8839C149.954 83.7664 149.45 84.6938 148.568 84.9553C147.685 85.2168 146.758 84.7133 146.496 83.8308L139.317 59.6016C139.056 58.7191 139.559 57.7916 140.442 57.5301Z" fill="var(--fill-0, #460001)"/>
</g>
<path id="Vector 120 (Stroke)" d="M204.031 194.744C204.033 194.745 204.035 194.747 204.037 194.749C204.312 194.955 204.701 195.258 205.17 195.649C206.107 196.43 207.372 197.571 208.69 199.02C211.306 201.894 214.234 206.088 215.101 211.16C215.828 215.411 214.314 219.119 211.769 221.844C209.245 224.547 205.678 226.327 202.116 226.836C198.555 227.344 194.818 226.598 192.168 223.98C189.501 221.346 188.219 217.1 188.981 211.216C188.998 211.087 188.994 210.766 188.908 210.188C188.826 209.638 188.683 208.946 188.481 208.122C188.078 206.476 187.46 204.382 186.69 201.987C185.15 197.203 183.029 191.303 180.881 185.55C178.733 179.801 176.564 174.215 174.931 170.065C174.114 167.99 173.432 166.275 172.954 165.079C172.715 164.482 172.527 164.013 172.399 163.695C172.335 163.536 172.286 163.414 172.253 163.332C172.237 163.291 172.224 163.26 172.216 163.239C172.212 163.229 172.208 163.221 172.206 163.216C172.205 163.213 172.205 163.211 172.204 163.21C172.204 163.209 172.203 163.209 172.203 163.208C172.204 163.208 172.222 163.2 173.511 162.68L172.203 163.208L171.579 161.663L173.206 161.303L173.209 161.302C173.212 161.302 173.216 161.301 173.221 161.3C173.233 161.297 173.25 161.293 173.272 161.288C173.318 161.278 173.387 161.262 173.475 161.241C173.653 161.2 173.913 161.139 174.237 161.06C174.886 160.901 175.79 160.671 176.809 160.386C178.869 159.808 181.312 159.028 183.072 158.18C184.801 157.347 186.899 155.953 188.606 154.731C189.45 154.126 190.182 153.575 190.702 153.176C190.962 152.977 191.169 152.815 191.31 152.705C191.38 152.649 191.434 152.607 191.47 152.578C191.488 152.564 191.502 152.553 191.511 152.546C191.515 152.542 191.518 152.54 191.52 152.538C191.521 152.537 191.522 152.537 191.522 152.537L193.244 151.156L204.031 194.744ZM191.554 156.068C191.164 156.359 190.724 156.683 190.248 157.023C188.517 158.263 186.255 159.777 184.296 160.72C182.301 161.682 179.658 162.516 177.57 163.101C176.765 163.327 176.029 163.519 175.428 163.67C175.474 163.785 175.522 163.906 175.573 164.033C176.052 165.233 176.736 166.953 177.555 169.032C179.192 173.191 181.368 178.794 183.523 184.563C185.677 190.329 187.815 196.278 189.375 201.123C190.154 203.544 190.795 205.711 191.221 207.451C191.434 208.321 191.598 209.104 191.697 209.771C191.793 210.409 191.847 211.047 191.778 211.579C191.086 216.919 192.314 220.16 194.15 221.973C196.003 223.804 198.761 224.466 201.717 224.044C204.672 223.622 207.643 222.13 209.708 219.919C211.751 217.731 212.876 214.884 212.321 211.635C211.583 207.319 209.049 203.605 206.604 200.918C205.391 199.585 204.225 198.533 203.364 197.815C202.934 197.457 202.582 197.184 202.341 197.002C202.221 196.911 202.128 196.844 202.067 196.8C202.037 196.778 202.014 196.762 202.001 196.753C201.994 196.748 201.989 196.744 201.986 196.743L201.985 196.742L201.545 196.438L191.554 156.068Z" fill="var(--fill-0, #460001)"/>
<path id="Subtract_2" d="M148.459 82.3026C148.459 80.9227 148.459 80.893 148.46 80.8924H148.498C148.523 80.8924 148.559 80.8927 148.606 80.8929C148.701 80.8933 148.84 80.8939 149.018 80.8954C149.375 80.8984 149.891 80.9046 150.53 80.9167C151.807 80.9409 153.578 80.9894 155.555 81.0864C159.475 81.2788 164.319 81.6666 167.696 82.4688C169.477 82.8919 171.267 84.2008 172.98 85.8888C174.727 87.6104 176.548 89.882 178.379 92.4785C182.042 97.6752 185.844 104.32 189.276 110.84C192.711 117.368 195.794 123.808 198.017 128.613C199.128 131.016 200.026 133.013 200.646 134.409C200.956 135.107 201.196 135.656 201.36 136.03C201.441 136.217 201.504 136.361 201.546 136.458C201.567 136.506 201.583 136.544 201.594 136.569C201.599 136.581 201.603 136.59 201.606 136.597C201.607 136.6 201.608 136.602 201.609 136.604C201.609 136.605 201.61 136.606 201.61 136.606C201.608 136.607 201.562 136.628 200.315 137.164L201.64 137.646L201.639 137.649C201.638 137.651 201.637 137.654 201.636 137.657C201.633 137.664 201.63 137.673 201.626 137.685C201.617 137.71 201.603 137.745 201.586 137.791C201.552 137.883 201.502 138.017 201.436 138.189C201.304 138.532 201.112 139.027 200.863 139.637C200.368 140.857 199.65 142.545 198.76 144.416C197 148.12 194.501 152.689 191.655 155.73C188.423 159.183 183.829 161.131 180.173 162.219C178.326 162.769 176.673 163.113 175.481 163.319C174.884 163.422 174.4 163.492 174.062 163.535C173.893 163.557 173.76 163.573 173.668 163.583C173.622 163.588 173.586 163.592 173.56 163.595C173.548 163.596 173.537 163.597 173.53 163.598L173.518 163.599C173.518 163.599 173.517 163.599 173.517 163.599L173.384 162.195L173.516 163.599L172.763 163.67L172.288 163.083L171.68 162.332C170.425 159.663 169.261 157.246 168.636 156.11C167.841 154.667 166.993 151.553 166.185 147.424C165.394 143.38 164.683 138.602 164.086 134.012C163.49 129.426 163.011 125.05 162.681 121.82C162.516 120.205 162.388 118.877 162.301 117.954C162.258 117.492 162.225 117.131 162.203 116.887C162.192 116.764 162.183 116.671 162.178 116.609C162.175 116.577 162.173 116.554 162.172 116.538C162.171 116.53 162.171 116.524 162.17 116.52C162.17 116.519 162.17 116.517 162.17 116.516C162.17 116.516 162.17 116.515 162.17 116.515C162.17 116.515 162.17 116.515 160.509 116.659C158.874 116.802 158.849 116.804 158.849 116.804C158.849 116.805 158.849 116.805 158.849 116.806C158.849 116.807 158.849 116.809 158.85 116.811C158.85 116.815 158.851 116.821 158.851 116.829C158.853 116.846 158.855 116.87 158.858 116.903C158.864 116.967 158.872 117.062 158.883 117.186C158.906 117.435 158.939 117.799 158.983 118.265C159.07 119.196 159.199 120.533 159.365 122.159C159.697 125.409 160.18 129.817 160.781 134.441C161.382 139.062 162.103 143.92 162.914 148.064C163.708 152.122 164.632 155.747 165.716 157.717C166.562 159.255 168.584 163.548 170.427 167.532C171.34 169.508 172.199 171.384 172.83 172.766C173.145 173.457 173.403 174.025 173.583 174.419C173.672 174.617 173.742 174.771 173.79 174.876C173.813 174.928 173.831 174.968 173.844 174.995C173.85 175.008 173.854 175.018 173.857 175.025C173.859 175.029 173.86 175.031 173.861 175.033C173.861 175.034 173.861 175.034 173.862 175.035L173.862 175.035C173.862 175.035 173.862 175.035 174.278 174.847L176.053 187.843L176.218 189.051L175.047 189.389L163.304 192.78L163.262 192.792L163.219 192.802L162.913 191.425C163.213 192.776 163.219 192.801 163.219 192.802C163.219 192.802 163.218 192.802 163.218 192.802C163.217 192.802 163.216 192.803 163.215 192.803C163.213 192.803 163.21 192.804 163.206 192.805C163.198 192.806 163.187 192.809 163.172 192.812C163.142 192.819 163.099 192.828 163.042 192.84C162.928 192.865 162.759 192.901 162.537 192.946C162.095 193.038 161.441 193.169 160.591 193.329C158.891 193.65 156.404 194.088 153.245 194.562C146.927 195.509 137.915 196.597 127.124 197.165C116.251 197.738 106.278 196.641 99.0298 195.405C95.403 194.787 92.4513 194.132 90.4023 193.631C89.3777 193.38 88.5783 193.168 88.0324 193.017C87.7594 192.942 87.5497 192.882 87.4069 192.841C87.3356 192.82 87.2809 192.804 87.2434 192.793C87.2247 192.787 87.2102 192.783 87.2001 192.78C87.1951 192.778 87.191 192.777 87.1881 192.776C87.1867 192.776 87.1855 192.775 87.1846 192.775C87.1842 192.775 87.1838 192.775 87.1836 192.775C87.1832 192.775 87.1828 192.775 87.5927 191.425L87.1828 192.775L87.1075 192.752L87.0354 192.721L87.5927 191.425C87.0353 192.721 87.0349 192.721 87.0346 192.72C87.0344 192.72 87.0341 192.72 87.0339 192.72C87.0333 192.72 87.0327 192.719 87.0319 192.719C87.0302 192.718 87.0279 192.717 87.0253 192.716C87.0201 192.714 87.0128 192.711 87.0038 192.707C86.9858 192.699 86.9605 192.688 86.9279 192.673C86.8628 192.644 86.7691 192.602 86.6495 192.546C86.4104 192.435 86.0672 192.272 85.64 192.056C84.7859 191.625 83.5931 190.985 82.224 190.144C79.4962 188.467 76.0174 185.959 73.1287 182.666C71.7323 181.073 70.7411 179.762 70.1592 178.509C69.5444 177.185 69.405 175.97 69.6013 174.639C69.784 173.4 70.2652 172.044 70.8217 170.47C71.3928 168.856 72.0971 166.876 72.8303 164.24C74.486 158.287 76.5794 149.592 78.2626 142.368C78.5264 141.236 78.7793 140.14 79.0193 139.098C79.211 138.769 79.4199 138.406 79.6375 138.019C80.5457 136.403 81.6557 134.293 82.3301 132.502C83.8077 128.58 84.2576 123.374 84.3638 119.289C84.4175 117.219 84.3837 115.383 84.3365 114.064C84.3128 113.404 84.2859 112.872 84.2646 112.503C84.254 112.319 84.2447 112.175 84.2381 112.076C84.2347 112.026 84.2322 111.988 84.2303 111.962C84.2294 111.949 84.2286 111.938 84.228 111.931C84.2278 111.928 84.2274 111.925 84.2273 111.923C84.2272 111.922 84.2271 111.921 84.227 111.92C84.227 111.92 84.2271 111.919 84.227 111.919C84.2255 111.919 84.1763 111.922 82.5652 112.044L84.227 111.919C84.1576 111.001 83.3573 110.313 82.4395 110.382C81.5504 110.45 80.8772 111.203 80.8992 112.084L80.9034 112.17C80.9034 112.17 80.9034 112.17 80.9034 112.171C80.9035 112.172 80.9038 112.173 80.9039 112.176C80.9043 112.181 80.9049 112.189 80.9057 112.2C80.9072 112.221 80.9095 112.255 80.9124 112.299C80.9184 112.388 80.927 112.521 80.937 112.695C80.957 113.042 80.9829 113.55 81.0056 114.183C81.051 115.451 81.0835 117.216 81.0319 119.202C80.9273 123.229 80.4797 127.959 79.2108 131.327C78.6302 132.869 77.625 134.797 76.7318 136.386C76.7211 136.405 76.7101 136.424 76.6995 136.443L61.8461 148.747L60.9179 149.516L60.0141 148.719C53.5839 143.05 49.0564 138.659 45.652 133.082C42.2426 127.496 40.0174 120.82 37.9799 110.655L37.7723 109.62L38.7073 109.129L67.2742 94.141C67.2788 94.1384 67.2841 94.1354 67.29 94.132C67.3155 94.1175 67.3529 94.0964 67.4017 94.0689C67.4993 94.0138 67.6428 93.9332 67.8286 93.83C68.2002 93.6238 68.7415 93.327 69.424 92.9622C70.7887 92.2329 72.721 91.2308 74.9961 90.1366C79.5316 87.9553 85.4888 85.3793 91.0463 83.889C93.8885 83.1268 97.5653 82.7688 100.465 82.596C101.929 82.5088 103.221 82.4675 104.147 82.448C104.61 82.4383 104.983 82.4339 105.241 82.432C105.37 82.4311 105.47 82.4308 105.539 82.4308H105.647C105.647 82.4312 105.647 82.4569 105.641 83.8409L105.647 82.4308L107.841 82.4398L106.922 84.4296C106.923 84.4297 106.923 84.4299 106.923 84.4298C106.923 84.4295 106.923 84.4285 106.924 84.4278C106.924 84.4266 106.925 84.4253 106.925 84.4243L106.927 84.4211C106.925 84.4259 106.919 84.4389 106.911 84.4594C106.895 84.5006 106.87 84.5713 106.841 84.6669C106.782 84.8598 106.714 85.1442 106.683 85.4867C106.622 86.1665 106.707 87.0445 107.285 87.931C108.448 89.7156 112.056 92.1504 122.798 92.1505C136.947 92.1505 142.884 89.3416 145.329 86.9279C146.53 85.7432 146.936 84.6115 147.068 83.8267C147.136 83.4255 147.135 83.0999 147.12 82.8877C147.112 82.7819 147.101 82.7054 147.094 82.6634C147.091 82.6469 147.089 82.6359 147.088 82.6306L146.648 80.8924H148.459V82.3026ZM201.831 137.12L201.64 137.646L200.315 137.164L201.61 136.607L201.831 137.12ZM162.17 116.515C162.09 115.598 161.282 114.919 160.365 114.999C159.448 115.079 158.769 115.887 158.849 116.804L162.17 116.515Z" fill="var(--fill-0, #460001)"/>
</g>
</svg>
