<svg width="142" height="141" viewBox="0 0 142 141" fill="none" xmlns="http://www.w3.org/2000/svg">
<path d="M96.8434 14.0515C97.5906 14.0059 98.3741 13.9682 99.1839 13.9451C104.465 13.7948 111.445 14.1935 116.583 16.9132C121.166 19.3399 124.376 23.6882 126.651 28.4269C128.94 33.1948 130.423 38.6494 131.395 43.7166C132.371 48.802 132.852 53.6094 133.091 57.1363C133.21 58.903 133.269 60.3573 133.298 61.3746C133.313 61.8833 133.32 62.2836 133.324 62.5596C133.325 62.6975 133.326 62.8047 133.327 62.8788C133.327 62.9158 133.327 62.9449 133.327 62.9653C133.327 62.9753 133.327 62.9834 133.327 62.9892C133.327 62.9921 133.327 62.9948 133.327 62.9967C133.327 62.9976 133.327 62.9989 133.327 62.9993L130.432 62.9986L133.327 63.0006L133.312 72.5354L128.023 64.6012C128.016 64.5916 128.004 64.5736 127.985 64.5481C127.944 64.4908 127.873 64.3962 127.776 64.2735C127.58 64.0266 127.28 63.6742 126.89 63.2857C126.089 62.4884 125.013 61.6462 123.765 61.1647C122.579 60.7076 121.207 60.5569 119.591 61.1449C117.914 61.7553 115.714 63.2583 113.148 66.6169C112.252 67.788 111.047 68.2631 110 68.439C109.906 68.7473 109.79 69.0539 109.653 69.3555C108.455 71.9831 105.259 75.285 98.862 79.841C83.1276 91.0471 70.7211 98.6962 50.1071 103.777C38.5498 106.625 31.6688 107.458 19.7657 107.448L19.6281 107.448L19.4911 107.435C16.8073 107.178 14.4583 106.514 12.7616 105.13C10.896 103.607 10.1957 101.53 10.2899 99.4047C10.3772 97.4373 11.1323 95.4117 12.0923 93.5081C13.073 91.5634 14.3969 89.4986 15.8674 87.4029C18.7448 83.3022 22.6035 78.5187 25.8379 74.1521C28.1078 71.0876 30.1655 68.3978 31.6922 65.6691C32.1609 65.5519 32.5944 65.4684 33.0615 65.3181L33.0641 65.3178C33.0664 65.3171 33.0706 65.3159 33.0759 65.3142C33.0868 65.3107 33.1041 65.3053 33.127 65.298C33.1732 65.2833 33.2435 65.2608 33.3367 65.2316C33.5236 65.173 33.8029 65.0861 34.165 64.9759C34.8895 64.7554 35.946 64.4409 37.2625 64.068C39.8977 63.3215 43.5649 62.3443 47.6902 61.4213C56.0543 59.5498 65.8959 57.9982 72.8879 58.8015C78.7861 59.4791 86.3114 61.9033 92.5168 64.2468C95.5856 65.4058 98.271 66.5213 100.188 67.3467C101.146 67.7592 101.91 68.0983 102.433 68.3334C102.694 68.4509 102.895 68.5426 103.029 68.6041C103.096 68.6347 103.146 68.658 103.179 68.6732C103.195 68.6807 103.208 68.6862 103.215 68.6898C103.219 68.6915 103.222 68.6928 103.224 68.6936L103.225 68.6943L106.84 70.3791L107.326 66.4293L107.327 66.4284C107.327 66.4278 107.327 66.427 107.327 66.4262C107.327 66.4244 107.327 66.4216 107.328 66.4186C107.328 66.4126 107.329 66.4041 107.331 66.3934C107.333 66.3718 107.337 66.3406 107.342 66.3003C107.351 66.2196 107.365 66.1017 107.382 65.9497C107.417 65.6456 107.465 65.2038 107.522 64.6448C107.635 63.5269 107.782 61.9377 107.919 60.0403C108.191 56.256 108.425 51.198 108.257 46.1911C107.961 37.3811 104.75 28.8757 101.721 22.6877C100.195 19.5697 98.6872 16.9845 97.5576 15.1736C97.2986 14.7585 97.059 14.3835 96.8434 14.0515ZM79.9114 5.6191C82.1854 5.36163 84.1495 6.29625 85.6031 7.35749C87.0719 8.42982 89.0888 10.2624 90.1558 12.8292C90.5953 13.8864 90.3575 14.8458 90.9433 15.6531C90.9439 15.6538 90.9445 15.655 90.9455 15.6563C90.9489 15.661 90.9552 15.6694 90.9639 15.6816C90.9814 15.7061 91.0096 15.746 91.0474 15.7998C91.1231 15.9076 91.2383 16.0727 91.3869 16.2919C91.6844 16.7305 92.1161 17.3843 92.6393 18.2229C93.687 19.9024 95.0939 22.314 96.5168 25.2211C99.3864 31.0835 102.213 38.7427 102.47 46.3893C102.629 51.1175 102.408 55.9549 102.143 59.6319C102.086 60.424 102.026 61.1603 101.969 61.8273C100.039 61.0033 97.474 59.9464 94.5729 58.8508C88.3012 56.4823 80.2108 53.8337 73.556 53.0691C65.5075 52.1445 54.8254 53.9116 46.4261 55.7909C42.1698 56.7433 38.3949 57.7496 35.6839 58.5176C35.074 58.6904 34.5174 58.8513 34.0208 58.997C34.5116 56.146 34.7061 53.1936 34.8538 50.1338C35.0485 46.1014 35.1633 41.7749 35.9167 37.7129C36.6834 33.5796 38.1402 29.5043 41.147 25.8945C44.1422 22.2989 48.4929 19.3837 54.6859 17.2321C58.9557 15.5431 63.373 14.4318 66.6925 13.7429C68.366 13.3956 69.7789 13.1518 70.7784 12.9944C70.838 12.985 70.8964 12.9764 70.9531 12.9676C71.3844 12.2775 71.9944 11.3666 72.7409 10.4302C73.5118 9.46316 74.4855 8.39672 75.6171 7.51667C76.7272 6.6534 78.1877 5.8143 79.9114 5.6191ZM76.8331 27.7269C76.8652 27.4757 76.776 27.1652 75.8832 27.4768C72.4075 28.6902 55.0942 38.0149 55.1968 37.9402C55.1594 37.9154 56.2178 36.2472 56.4089 36.0511C56.7463 35.7047 56.4337 35.2358 55.9539 35.4377C55.1383 35.781 53.8782 38.5582 53.8782 38.5582C53.8555 38.5672 50.7305 39.8036 49.9207 40.5015C49.7297 40.6664 49.8815 41.2142 50.1674 41.2335C50.7894 41.2755 53.1526 40.4226 53.1526 40.4226C53.1485 40.4314 52.5213 41.7737 53.2013 42.3644C53.3585 42.5009 53.8507 42.3843 53.5837 41.9719C53.3899 41.6727 53.9642 40.2596 54.1558 40.1715C56.8358 38.9518 78.7231 38.3615 79.1015 38.6514C79.4797 38.9411 79.7268 38.1873 78.7352 37.9204C77.7435 37.6534 63.605 37.9959 54.6109 39.1564C55.9486 38.6265 67.2998 31.7918 75.9851 28.1526C76.3269 28.0094 76.81 27.9077 76.8331 27.7269ZM69.2588 39.2391C69.0378 39.1104 68.689 39.1126 68.4494 39.2597C68.2888 39.3584 68.219 39.4733 68.1754 39.6561C68.1487 39.8389 68.1851 40.0115 68.2898 40.1636C68.4052 40.3062 68.5672 40.3744 68.7471 40.3982C68.954 40.4021 69.1338 40.3593 69.293 40.2238C69.3041 40.211 69.315 40.1987 69.3257 40.1863C69.3434 40.2319 69.3607 40.2763 69.3779 40.3205C69.4384 40.315 69.4973 40.3096 69.556 40.3042C69.5376 40.1033 69.5194 39.9081 69.5015 39.7131C69.2932 39.7323 69.091 39.7507 68.8888 39.7693C68.8943 39.8296 68.8997 39.8883 68.905 39.9468C69.0333 39.9418 69.1582 39.937 69.2827 39.9321C69.2518 40.0107 69.1883 40.0641 69.1166 40.1059C68.9307 40.1932 68.6827 40.2475 68.5187 40.0818C68.3664 39.9278 68.3741 39.6976 68.4702 39.5506C68.4949 39.5129 68.5518 39.4594 68.5707 39.4511C68.7097 39.3839 68.8184 39.3659 68.9732 39.3845C69.0531 39.4006 69.1036 39.4287 69.1661 39.4865C69.2058 39.5232 69.251 39.5958 69.2518 39.5971L69.4693 39.5773C69.4693 39.5773 69.448 39.4515 69.4065 39.384C69.3642 39.3153 69.3219 39.2758 69.2588 39.2391ZM66.8496 40.5728C66.9235 40.566 66.9954 40.5596 67.0671 40.553C67.0468 40.2577 67.0273 39.9709 67.0076 39.6844C67.0476 39.7337 67.0898 39.7795 67.1338 39.8254C67.2239 39.9193 67.3121 40.014 67.3968 40.1127C67.4387 40.1625 67.7955 40.4827 67.7986 40.4854L68.0356 40.4637C68.0356 40.4637 67.9855 39.6747 67.9472 39.2803C67.8665 39.2877 67.788 39.2949 67.7097 39.3021C67.7294 39.5907 67.7677 40.1508 67.7677 40.1508L67.4474 39.8027C67.4425 39.7978 67.2821 39.6332 67.2063 39.5446C67.1807 39.5144 67.0223 39.3695 67.0181 39.3657C67.0181 39.3657 66.8325 39.3825 66.7412 39.3909C66.778 39.7927 66.8138 40.1828 66.8496 40.5728ZM66.3019 39.8274C66.3083 39.8973 66.3146 39.9674 66.3208 40.0373C66.3268 40.1058 66.3329 40.1744 66.3391 40.2429C66.3415 40.2694 66.344 40.2953 66.3463 40.3211C66.3486 40.3471 66.3508 40.3726 66.353 40.398C66.3552 40.4219 66.3577 40.4451 66.3598 40.4683C66.3617 40.4895 66.3633 40.5104 66.3652 40.531C66.3718 40.577 66.372 40.5769 66.3935 40.5948C66.4673 40.588 66.539 40.5816 66.6106 40.5751C66.5737 40.1733 66.538 39.7832 66.5022 39.3932C66.4216 39.4006 66.3434 39.4077 66.2652 39.4149C66.2774 39.5523 66.2895 39.69 66.3019 39.8274ZM64.9505 40.7275C65.0244 40.7207 65.0963 40.7143 65.168 40.7077C65.1477 40.4124 65.1278 40.1257 65.1081 39.8391C65.1481 39.8885 65.1903 39.9343 65.2342 39.9802C65.3244 40.0741 65.4129 40.1686 65.4977 40.2674C65.5392 40.3167 65.8892 40.6313 65.899 40.6402L66.1365 40.6185C66.1358 40.6079 66.0858 39.8267 66.0477 39.4351C65.9671 39.4425 65.8888 39.4496 65.8106 39.4568C65.8302 39.7441 65.8683 40.3008 65.8686 40.3055L65.5483 39.9579C65.5483 39.9579 65.3842 39.7892 65.3072 39.6993C65.2813 39.6687 65.1186 39.5204 65.1186 39.5204C65.1118 39.5211 64.9317 39.5378 64.8421 39.546C64.879 39.9477 64.9147 40.3376 64.9505 40.7275ZM64.476 40.7714C64.5566 40.7639 64.6352 40.7568 64.7135 40.7496C64.6766 40.3478 64.6409 39.9577 64.6051 39.5677C64.5244 39.5751 64.4459 39.5823 64.3676 39.5895C64.4045 39.9913 64.4402 40.3814 64.476 40.7714ZM63.0207 40.1288C63.027 40.1988 63.0334 40.2692 63.0396 40.3392C63.0456 40.4077 63.0521 40.4762 63.0583 40.5447C63.0607 40.5713 63.0628 40.5971 63.0651 40.6229C63.0674 40.649 63.0696 40.6745 63.0718 40.6998C63.074 40.7237 63.0765 40.747 63.0786 40.7702C63.0818 40.8064 63.0857 40.8427 63.0908 40.8787C63.1124 40.8966 63.1123 40.8968 63.169 40.8941C63.1945 40.8918 63.2195 40.8895 63.2444 40.8872C63.2716 40.8847 63.299 40.8824 63.3263 40.8799C63.3693 40.8758 63.4123 40.8716 63.4554 40.8678C63.4834 40.8653 63.5118 40.8628 63.5399 40.8602C63.5602 40.8583 63.5603 40.858 63.5802 40.8562C63.751 40.8403 63.9271 40.8103 64.0596 40.6942C64.1887 40.5608 64.2711 40.4146 64.271 40.2251C64.2571 40.0516 64.1927 39.9076 64.0632 39.7892C63.9139 39.6768 63.7353 39.6433 63.552 39.6602C63.5373 39.6618 63.523 39.6631 63.5087 39.6646C63.4618 39.6691 63.4149 39.6738 63.368 39.6786C63.3356 39.6819 63.303 39.685 63.2706 39.6882C63.175 39.6974 63.0795 39.707 62.984 39.7167C62.9962 39.8541 63.0083 39.9915 63.0207 40.1288ZM60.9681 39.9021C60.9736 39.9624 60.9769 40.0234 60.9899 40.0824C60.9936 40.0944 60.9972 40.1062 61.0008 40.1178C61.0048 40.1315 61.0088 40.145 61.0127 40.1583C61.0744 40.3648 61.0968 40.5451 61.0767 40.76C61.0744 40.7815 61.0741 40.7815 61.0718 40.8026C61.0703 40.8167 61.0691 40.8304 61.0676 40.8441C61.0593 40.916 61.0592 40.9162 61.0765 41.084C61.1957 41.0735 61.315 41.0628 61.4341 41.0521C61.4825 41.0477 61.5309 41.0433 61.5793 41.0389C61.651 41.0326 61.7231 41.0263 61.7948 41.0198C61.8177 41.0177 61.8401 41.0158 61.8624 41.0138C61.8849 41.0119 61.9068 41.0099 61.9287 41.008C61.9494 41.0061 61.9697 41.0042 61.9898 41.0023C62.0082 41.0007 62.0262 40.9991 62.044 40.9975C62.0843 40.9914 62.0846 40.9913 62.1024 40.9699C62.0969 40.9097 62.0916 40.8509 62.0862 40.7924C61.6961 40.8183 61.6961 40.8182 61.3138 40.8436C61.318 40.742 61.3218 40.6434 61.3258 40.5448C61.5543 40.5238 61.7762 40.5031 61.9979 40.4827C61.9918 40.4157 61.9857 40.3507 61.9798 40.2858C61.7508 40.3001 61.5285 40.3141 61.3062 40.328C61.2848 40.2422 61.264 40.1587 61.2432 40.0754C61.4985 40.0519 61.7464 40.0291 61.9942 40.0063C61.988 39.9394 61.982 39.8744 61.976 39.8094C61.6333 39.841 61.3007 39.8716 60.9681 39.9021ZM59.7621 40.0131C59.8657 40.4069 59.9086 40.6613 59.8739 41.0527C59.8681 41.1123 59.8587 41.142 59.8905 41.1931C60.0096 41.1825 60.1289 41.1719 60.2481 41.1611C60.2965 41.1568 60.3449 41.1523 60.3933 41.1479C60.465 41.1416 60.537 41.1353 60.6087 41.1288C60.6317 41.1268 60.654 41.1249 60.6763 41.1229C60.6989 41.1209 60.7208 41.1189 60.7427 41.117C60.7635 41.1151 60.784 41.1132 60.8042 41.1113C60.8225 41.1097 60.8402 41.1081 60.858 41.1065C60.8983 41.1005 60.8986 41.1003 60.9164 41.079C60.9109 41.0187 60.9055 40.96 60.9002 40.9015C60.6381 40.9256 60.3837 40.9491 60.1293 40.9725C60.1329 40.8641 60.1367 40.7589 60.1402 40.6537C60.3754 40.6321 60.6036 40.6111 60.8318 40.5901C60.8156 40.4129 60.8153 40.4127 60.7937 40.3948C60.7588 40.3968 60.7239 40.399 60.689 40.4022C60.674 40.4037 60.6595 40.4052 60.6449 40.4067C60.5984 40.411 60.5519 40.4156 60.5054 40.4201C60.473 40.4232 60.4404 40.4262 60.408 40.4292C60.3331 40.4363 60.258 40.4435 60.1832 40.4508C60.1524 40.4538 60.1523 40.4539 60.1221 40.4568C60.1001 40.3644 60.0786 40.2746 60.0572 40.1848C60.3193 40.1607 60.5737 40.1372 60.8281 40.1138C60.822 40.0469 60.8159 39.9819 60.81 39.9169C60.4538 39.9497 60.1078 39.9813 59.7621 40.0131ZM58.7121 40.5253C58.7184 40.5952 58.7247 40.6652 58.7309 40.7352C58.737 40.8038 58.743 40.8726 58.7493 40.9413C58.7517 40.9678 58.7542 40.9937 58.7565 41.0194C58.7588 41.0454 58.7609 41.0706 58.7632 41.0959C58.7654 41.1198 58.7674 41.1434 58.7695 41.1667C58.7728 41.203 58.7766 41.2392 58.7818 41.2753C58.8034 41.2931 58.8035 41.2931 58.8482 41.2917C58.8756 41.2891 58.8756 41.289 58.9023 41.2864C58.9353 41.2835 58.9686 41.2799 59.0013 41.2749C59.0192 41.2534 59.0192 41.2532 59.0174 41.2092C59.0155 41.1898 59.0137 41.171 59.0118 41.1522C59.0101 41.1333 59.0082 41.1149 59.0064 41.0966C58.9918 40.9486 58.992 40.9485 58.9776 40.8005C59.2195 40.7783 59.4543 40.7566 59.6891 40.735C59.6824 40.6613 59.6756 40.5897 59.669 40.5182C59.4272 40.5405 59.1923 40.5622 58.9575 40.5838C58.9483 40.4834 58.9395 40.3859 58.9305 40.2884C59.1792 40.2655 59.4206 40.2431 59.662 40.2209C59.6558 40.1539 59.6498 40.0889 59.6438 40.024C59.3146 40.0543 58.9949 40.0838 58.6754 40.1132C58.6876 40.2506 58.6997 40.3879 58.7121 40.5253ZM56.682 40.264C56.5873 40.2717 56.4984 40.2807 56.4104 40.3183C56.2385 40.4112 56.129 40.5374 56.0655 40.7233C56.0223 40.892 56.0605 41.0684 56.1466 41.216C56.2419 41.3647 56.3684 41.4491 56.541 41.4883C56.7816 41.5118 57.0415 41.4824 57.2336 41.3277C57.3689 41.2035 57.4283 41.0498 57.4368 40.8674C57.4285 40.6955 57.3666 40.5429 57.2482 40.4169C57.0901 40.2844 56.9453 40.2468 56.7428 40.2593C56.7222 40.261 56.702 40.2624 56.682 40.264ZM57.6356 41.3808C57.7086 41.374 57.8684 41.359 57.8726 41.3586L57.831 40.9057C57.831 40.9057 57.9103 40.8985 57.9795 40.8947C58.0061 40.8923 58.0321 40.8897 58.0579 40.8874C58.0862 40.8848 58.1146 40.8823 58.1429 40.8797C58.1874 40.8755 58.2322 40.8714 58.2768 40.8674C58.306 40.8648 58.3351 40.8622 58.3643 40.8595C58.3785 40.8581 58.3926 40.857 58.4064 40.8557C58.4566 40.851 58.5628 40.8411 58.5628 40.8411C58.5624 40.8367 58.5487 40.6858 58.5428 40.6218C58.2892 40.6451 57.8179 40.6887 57.8114 40.6893L57.7843 40.3935C57.7953 40.3925 58.2902 40.347 58.5353 40.3245C58.5285 40.2509 58.5218 40.1795 58.5153 40.1081C58.1793 40.139 57.8533 40.1689 57.5272 40.1989C57.5641 40.6007 57.5998 40.9908 57.6356 41.3808ZM63.4269 39.8723C63.5559 39.858 63.6691 39.852 63.7964 39.8804C63.8997 39.9258 63.9644 39.9957 64.0073 40.0989C64.0395 40.2028 64.049 40.3218 63.9985 40.4205C63.9882 40.4349 63.9781 40.449 63.9681 40.463C63.9582 40.4774 63.9487 40.4914 63.9391 40.5054C63.8355 40.6071 63.7218 40.6286 63.5821 40.6403C63.5602 40.6417 63.539 40.6431 63.5178 40.6445C63.4471 40.6498 63.3784 40.655 63.3098 40.6601C63.2858 40.3989 63.2624 40.1454 63.2391 39.8919C63.3339 39.882 63.3341 39.882 63.4269 39.8723ZM55.2702 40.3938C55.1161 40.4062 54.9944 40.4185 54.8661 40.5231C54.7593 40.6102 54.7069 40.7204 54.6736 40.8188C54.6273 40.9895 54.6482 41.2012 54.733 41.3569C54.8319 41.4917 54.9772 41.5819 55.1397 41.6177C55.3738 41.6394 55.6235 41.6103 55.8106 41.4597C55.9343 41.3414 55.9635 41.2239 55.9713 41.0569C55.8907 41.0643 55.8125 41.0714 55.7343 41.0786C55.73 41.106 55.7259 41.133 55.7217 41.1596C55.6594 41.2741 55.5857 41.3355 55.4629 41.3817C55.321 41.4152 55.1898 41.4103 55.0604 41.3396C54.974 41.2551 54.9286 41.1653 54.9089 41.0466C54.906 40.9083 54.9301 40.813 55.0225 40.7072C55.136 40.6222 55.2622 40.6047 55.4123 40.612C55.5112 40.6168 55.6026 40.6747 55.6414 40.72C55.6828 40.7685 55.6964 40.8115 55.7142 40.8623C55.7948 40.8549 55.8731 40.8478 55.9513 40.8406C55.9402 40.7192 55.9115 40.6406 55.8279 40.5525C55.6757 40.4212 55.5273 40.3771 55.3279 40.389C55.2988 40.3915 55.2987 40.3915 55.2702 40.3938ZM56.3981 40.6005C56.5804 40.4151 56.9201 40.4237 57.0836 40.5774C57.1524 40.6421 57.1707 40.7137 57.1897 40.7947C57.2047 40.9335 57.1756 41.028 57.0916 41.1397C57.004 41.2347 56.9031 41.2737 56.7762 41.2883C56.6075 41.2961 56.5022 41.2508 56.3773 41.1388C56.3025 41.0374 56.2813 40.9337 56.2875 40.8095C56.3055 40.7302 56.3199 40.6802 56.3981 40.6005ZM62.5022 40.2177C62.4203 40.2253 62.36 40.2978 62.3675 40.3794C62.375 40.461 62.4474 40.5211 62.5292 40.5136C62.611 40.506 62.6713 40.4334 62.6639 40.3519C62.6563 40.2704 62.5839 40.2103 62.5022 40.2177ZM74.7697 31.8497C74.163 31.8616 74.3559 32.5316 74.0352 32.642C73.5232 32.8182 72.8269 32.9418 72.3715 33.083C72.0809 33.1731 72.1105 33.6526 72.3339 33.6525C72.8782 33.6518 73.8008 33.3812 73.8136 33.3774C73.5223 34.0467 73.3581 34.4225 73.0932 35.0827C73.0791 35.0907 71.246 36.1287 71.2186 35.8308C71.1988 35.6142 71.4525 35.3425 71.5207 35.2171C71.5761 35.1152 71.4922 34.9018 71.4922 34.9018C71.4997 34.9027 71.7665 34.9343 71.81 34.7834C71.8541 34.6304 72.2469 34.2903 72.2427 34.0683C72.2344 33.6321 71.7822 33.5343 71.4655 33.8519C71.0731 34.2455 71.2612 34.7743 71.2612 34.7743C71.2612 34.7743 71.0825 34.7842 70.9878 34.8393C70.5622 35.0871 70.2431 36.0595 70.7372 36.451C71.3102 36.9048 72.647 35.9942 72.658 35.9867C72.6521 35.998 72.3024 36.6661 72.3675 36.8375C72.4553 37.0684 72.8168 37.0707 72.9369 36.8546C73.3732 36.0695 74.2957 33.5629 74.6438 33.301C75.11 32.9503 76.2842 33.041 76.2616 32.7948C76.2462 32.6269 76.2657 32.5179 76.1105 32.4511C75.8819 32.3531 74.929 32.5002 74.929 32.5002C74.929 32.5002 75.3168 31.8391 74.7697 31.8497ZM67.0501 33.6226C67.2457 33.4754 67.1312 32.8801 66.5943 33.1079C66.0572 33.3361 64.9822 34.766 64.257 36.0938C64.2528 36.0908 64.1002 35.9809 63.9873 35.9798C63.3988 35.9743 61.9281 36.1294 61.5238 36.2857C60.8843 36.5333 60.8045 38.1097 61.6839 38.0289C63.0111 37.9068 62.6822 36.745 62.6822 36.745C63.1654 36.5654 63.4509 36.5447 63.9724 36.5767C63.9724 36.5767 63.6558 37.0332 63.6784 37.2794C63.712 37.6448 63.8917 37.752 64.0773 37.7192C64.5481 37.636 65.4648 36.2782 65.7298 36.3954C65.7506 36.622 65.7565 37.0952 66.1696 37.2783C66.78 37.5487 67.8838 36.5151 67.8838 36.5151C67.8861 36.5236 67.9849 36.8806 68.3915 36.9453C69.2969 37.0889 70.1777 35.1689 70.6532 34.3336C70.7802 34.1098 70.432 33.6964 70.185 34.0091C69.6649 34.668 68.7213 36.2594 68.5607 36.2939C68.5438 36.2602 69.0198 35.1455 68.5293 35.0852C67.9158 35.0102 67.941 35.8414 67.9411 35.8445C67.4471 35.9994 66.6556 36.8164 66.4603 36.6463C66.2653 36.4756 66.4333 36.062 66.1412 35.8807C65.749 35.6375 64.9621 36.1779 64.9621 36.1779C65.6782 34.9279 66.8541 33.7699 67.0501 33.6226ZM76.4408 33.7764C75.9155 33.814 75.3186 33.9053 74.8654 34.0461C74.6791 34.104 74.5468 34.2513 74.4581 34.4023C74.3673 34.557 74.3054 34.7435 74.27 34.9298C74.2345 35.1167 74.2241 35.3147 74.2443 35.4957C74.264 35.6721 74.3152 35.8567 74.4248 35.9952C74.6541 36.2848 75.0544 36.3013 75.3702 36.2148C75.6979 36.1249 76.036 35.9031 76.2151 35.5751C76.3117 35.398 76.3284 35.1659 76.3294 35.0102C76.3297 34.9633 76.3278 34.9192 76.326 34.8801C76.4081 34.8546 76.5209 34.8253 76.6497 34.8038C76.9356 34.7561 77.2615 34.7514 77.5089 34.861C77.6461 34.9217 77.8206 34.9349 77.9509 34.8062C78.0577 34.7005 78.0743 34.5523 78.069 34.45C78.0631 34.3375 78.0289 34.2173 77.9713 34.1134C77.9146 34.0111 77.8233 33.9036 77.6903 33.8475C77.5606 33.7929 77.3668 33.7699 77.1659 33.7612C76.9554 33.752 76.7045 33.7576 76.4408 33.7764ZM62.0235 36.7365C62.0812 36.7189 62.1368 36.775 62.1423 36.8348C62.1573 37.0008 61.6952 37.406 61.6874 37.4129C61.6885 37.4062 61.7923 36.8074 62.0235 36.7365ZM75.4045 34.7423C75.4621 34.7248 75.5177 34.7808 75.5233 34.8406C75.5386 35.0068 75.0742 35.4132 75.0679 35.4187C75.0696 35.4091 75.1738 34.8129 75.4045 34.7423Z" fill="white"/>
<path d="M81.3153 109.246C82.9019 108.877 84.4878 109.8 84.8569 111.31C85.226 112.819 84.2389 114.342 82.6524 114.712L69.6348 117.745C68.0482 118.114 66.4627 117.19 66.0936 115.681C65.7246 114.172 66.7116 112.649 68.2981 112.279L81.3153 109.246Z" fill="white"/>
<path d="M68.3228 95.304C68.0431 93.7358 69.0864 92.2308 70.653 91.9425C72.2197 91.6541 73.7164 92.6917 73.996 94.2599L75.4755 102.556C75.7551 104.124 74.7118 105.629 73.1452 105.917C71.5786 106.205 70.0819 105.168 69.8022 103.6L68.3228 95.304Z" fill="white"/>
<path d="M118.666 56.9168C126.113 55.5227 131.954 60.8198 133.922 67.3835C137.05 77.8122 134.976 84.639 131.509 88.8805C129.838 90.9241 127.955 92.2271 126.494 93.0201C126.262 93.1457 126.04 93.258 125.829 93.3601C125.752 94.4191 125.601 95.8573 125.304 97.5691C124.669 101.234 123.364 106.199 120.674 111.397C115.23 121.915 104.244 133.095 82.5648 136.532C76.4264 137.506 70.8252 135.667 66.0306 132.623C61.2624 129.596 57.1494 125.296 53.8181 121.028C50.4731 116.743 47.8249 112.371 46.0173 109.084C45.1113 107.437 44.4108 106.053 43.9342 105.074C43.6959 104.584 43.5132 104.196 43.3885 103.926C43.3262 103.791 43.2785 103.686 43.2454 103.612C43.2289 103.576 43.2157 103.547 43.2066 103.526C43.2021 103.516 43.1985 103.508 43.1958 103.502C43.1945 103.499 43.1936 103.497 43.1927 103.495C43.1923 103.494 43.1917 103.492 43.1915 103.492C43.194 103.489 43.2794 103.451 45.8323 102.336L43.1909 103.49L41.8441 100.432L45.0867 99.565C45.0867 99.565 45.0873 99.5646 45.088 99.5645C45.0894 99.5641 45.0921 99.5636 45.0956 99.5627C45.1025 99.5608 45.1133 99.5575 45.1281 99.5535C45.1579 99.5455 45.2036 99.5332 45.2642 99.5167C45.3853 99.4836 45.5666 99.4336 45.803 99.3676C46.2762 99.2356 46.9699 99.0392 47.843 98.7834C49.5899 98.2717 52.0514 97.5241 54.9008 96.5838C60.6219 94.6957 67.8153 92.0599 73.919 89.0247C79.4566 86.271 87.7123 81.6453 94.88 77.4121C98.4577 75.2991 101.739 73.2989 104.251 71.6951C105.509 70.892 106.556 70.1996 107.344 69.6491C107.598 69.4715 107.818 69.3126 108.005 69.174C108.04 68.987 108.081 68.7824 108.129 68.5632C108.361 67.511 108.765 66.0711 109.459 64.5574C110.833 61.5603 113.559 57.8729 118.666 56.9168ZM128.396 69.031C126.985 64.3256 123.384 61.8718 119.726 62.5565C117.205 63.0284 115.678 64.8146 114.706 66.9342C114.227 67.9789 113.935 69.0082 113.763 69.7855C113.679 70.1696 113.626 70.4806 113.596 70.6864C113.581 70.7889 113.571 70.8645 113.566 70.9088C113.563 70.9309 113.562 70.9452 113.561 70.9511L113.561 70.9533L113.469 71.9527L112.759 72.6808C112.267 73.185 111.462 73.7802 110.655 74.3439C109.775 74.959 108.653 75.6994 107.361 76.524C104.774 78.1757 101.432 80.2124 97.8194 82.3459C90.6062 86.606 82.2128 91.3127 76.4924 94.1574C70.0271 97.3724 62.5337 100.109 56.7104 102.031C54.0268 102.916 51.6779 103.634 49.9208 104.153C50.2527 104.797 50.639 105.528 51.0774 106.325C52.7907 109.439 55.2748 113.533 58.3746 117.505C61.4881 121.494 65.133 125.242 69.1369 127.784C73.1144 130.309 77.3001 131.558 81.6644 130.866C101.424 127.733 110.895 117.763 115.547 108.774C117.906 104.218 119.059 99.8407 119.62 96.6008C119.9 94.9845 120.031 93.6629 120.092 92.7596C120.122 92.3083 120.135 91.9626 120.141 91.7381C120.143 91.6258 120.144 91.544 120.144 91.4945C120.144 91.4697 120.144 91.4529 120.144 91.4446C120.144 91.4406 120.144 91.4385 120.144 91.4385L120.111 89.2219L122.244 88.6391C122.242 88.6397 122.242 88.6397 122.244 88.6391C122.248 88.6377 122.265 88.633 122.292 88.6241C122.348 88.6062 122.446 88.5726 122.58 88.5211C122.849 88.4179 123.254 88.2446 123.737 87.9825C124.708 87.4553 125.948 86.5942 127.037 85.2624C129.088 82.7531 131.08 77.9833 128.396 69.031Z" fill="white"/>
</svg>
