<svg width="20" height="20" viewBox="0 0 20 20" fill="none" xmlns="http://www.w3.org/2000/svg">
<g clip-path="url(#clip0_321_2312)">
<path d="M11.032 -0.036287C11.032 -0.307225 10.9244 -0.567067 10.7328 -0.758649C10.5412 -0.950232 10.2813 -1.05786 10.0104 -1.05786C9.73947 -1.05786 9.47963 -0.950232 9.28804 -0.758649C9.09646 -0.567067 8.98883 -0.307225 8.98883 -0.036287V0.946467L8.32072 0.593003C8.20213 0.530285 8.07234 0.491541 7.93878 0.478981C7.80521 0.466421 7.67048 0.480292 7.54227 0.519802C7.41407 0.559312 7.2949 0.623687 7.19157 0.709252C7.08824 0.794817 7.00278 0.899895 6.94006 1.01849C6.87735 1.13708 6.8386 1.26687 6.82604 1.40043C6.81348 1.534 6.82735 1.66873 6.86686 1.79694C6.90637 1.92514 6.97075 2.04431 7.05631 2.14764C7.14188 2.25097 7.24696 2.33643 7.36555 2.39915L8.98883 3.25727V5.2003C8.2697 5.38641 7.61489 5.76502 7.09483 6.29543L5.41128 5.32289L5.47972 3.48814C5.48975 3.21734 5.39179 2.95365 5.20739 2.75507C5.02299 2.5565 4.76726 2.43931 4.49646 2.42928C4.22566 2.41926 3.96196 2.51722 3.76339 2.70162C3.56481 2.88602 3.44762 3.14175 3.4376 3.41255L3.41001 4.16749L2.55904 3.67714C2.44275 3.60519 2.3132 3.55732 2.17806 3.53638C2.04293 3.51543 1.90496 3.52183 1.77235 3.55519C1.63973 3.58855 1.51516 3.6482 1.40602 3.7306C1.29689 3.81299 1.2054 3.91647 1.137 4.03488C1.06859 4.15329 1.02466 4.28422 1.0078 4.41993C0.990934 4.55563 1.00149 4.69334 1.03884 4.82489C1.07618 4.95644 1.13956 5.07916 1.22521 5.18576C1.31087 5.29236 1.41705 5.38068 1.53747 5.44548L2.38844 5.93686L1.74791 6.33936C1.5245 6.48619 1.36755 6.71474 1.31074 6.97598C1.25393 7.23721 1.30179 7.5103 1.44404 7.73665C1.5863 7.963 1.81161 8.12457 2.07164 8.18668C2.33166 8.2488 2.60567 8.2065 2.83487 8.06888L4.3897 7.09226L6.07224 8.06378C5.87331 8.77962 5.87331 9.53615 6.07224 10.252L4.3897 11.2225L2.83487 10.2469C2.60567 10.1093 2.33166 10.067 2.07164 10.1291C1.81161 10.1912 1.5863 10.3528 1.44404 10.5791C1.30179 10.8055 1.25393 11.0786 1.31074 11.3398C1.36755 11.601 1.5245 11.8296 1.74791 11.9764L2.38844 12.3789L1.53747 12.8693C1.42122 12.9363 1.31933 13.0257 1.2376 13.1321C1.15587 13.2386 1.09591 13.3601 1.06115 13.4897C1.02638 13.6193 1.01749 13.7545 1.03497 13.8876C1.05246 14.0207 1.09598 14.149 1.16306 14.2652C1.23014 14.3815 1.31946 14.4834 1.42591 14.5651C1.53237 14.6468 1.65388 14.7068 1.78351 14.7416C1.91314 14.7763 2.04835 14.7852 2.18141 14.7677C2.31448 14.7503 2.4428 14.7067 2.55904 14.6396L3.40899 14.1483L3.4376 14.9042C3.44263 15.0383 3.47402 15.1701 3.52998 15.2921C3.58594 15.414 3.66538 15.5238 3.76375 15.615C3.86212 15.7063 3.9775 15.7773 4.10331 15.8239C4.22912 15.8706 4.36288 15.892 4.49697 15.887C4.63106 15.882 4.76284 15.8506 4.8848 15.7946C5.00675 15.7386 5.11649 15.6592 5.20775 15.5608C5.29901 15.4625 5.37 15.3471 5.41666 15.2213C5.46333 15.0955 5.48476 14.9617 5.47972 14.8276L5.41128 12.9929L7.09483 12.0203C7.61489 12.5507 8.2697 12.9294 8.98883 13.1155V15.0585L7.36555 15.9166C7.12604 16.0433 6.94666 16.2599 6.86686 16.5188C6.78707 16.7778 6.8134 17.0578 6.94006 17.2973C7.06673 17.5368 7.28335 17.7162 7.54227 17.796C7.8012 17.8758 8.08121 17.8494 8.32072 17.7228L8.98883 17.3693V18.3521C8.98883 18.623 9.09646 18.8828 9.28804 19.0744C9.47963 19.266 9.73947 19.3736 10.0104 19.3736C10.2813 19.3736 10.5412 19.266 10.7328 19.0744C10.9244 18.8828 11.032 18.623 11.032 18.3521V17.3693L11.7001 17.7228C11.9396 17.8494 12.2196 17.8758 12.4785 17.796C12.7375 17.7162 12.9541 17.5368 13.0807 17.2973C13.2074 17.0578 13.2337 16.7778 13.1539 16.5188C13.0742 16.2599 12.8948 16.0433 12.6553 15.9166L11.032 15.0585V13.1155C11.751 12.9296 12.4058 12.5514 12.926 12.0214L14.6095 12.9929L14.5411 14.8276C14.5361 14.9617 14.5575 15.0955 14.6042 15.2213C14.6508 15.3471 14.7218 15.4625 14.8131 15.5608C14.9043 15.6592 15.0141 15.7386 15.136 15.7946C15.258 15.8506 15.3898 15.882 15.5238 15.887C15.6579 15.892 15.7917 15.8706 15.9175 15.8239C16.0433 15.7773 16.1587 15.7063 16.2571 15.615C16.3554 15.5238 16.4349 15.414 16.4908 15.2921C16.5468 15.1701 16.5782 15.0383 16.5832 14.9042L16.6108 14.1483L17.4618 14.6396C17.578 14.7078 17.7066 14.7523 17.84 14.7705C17.9735 14.7888 18.1093 14.7804 18.2395 14.746C18.3698 14.7116 18.4919 14.6517 18.599 14.5699C18.706 14.488 18.7958 14.3858 18.8631 14.2692C18.9305 14.1525 18.9741 14.0236 18.9915 13.89C19.0088 13.7564 18.9996 13.6207 18.9643 13.4907C18.929 13.3607 18.8683 13.2389 18.7858 13.1324C18.7033 13.026 18.6005 12.9369 18.4833 12.8703L17.6334 12.3799L18.2729 11.9774C18.5024 11.8333 18.6652 11.6039 18.7256 11.3397C18.7859 11.0755 18.7388 10.7982 18.5947 10.5687C18.4506 10.3392 18.2212 10.1764 17.957 10.116C17.6928 10.0557 17.4154 10.1027 17.1859 10.2469L15.6311 11.2235L13.9486 10.253C14.1477 9.53685 14.1477 8.77994 13.9486 8.06378L15.6311 7.09226L17.1859 8.06888C17.4154 8.21302 17.6928 8.2601 17.957 8.19975C18.2212 8.1394 18.4506 7.97657 18.5947 7.74709C18.7388 7.5176 18.7859 7.24026 18.7256 6.97607C18.6652 6.71187 18.5024 6.48248 18.2729 6.33834L17.6324 5.93686L18.4833 5.44548C18.6005 5.37889 18.7033 5.28979 18.7858 5.18332C18.8683 5.07684 18.929 4.95509 18.9643 4.82507C18.9996 4.69505 19.0088 4.55934 18.9915 4.42573C18.9741 4.29213 18.9305 4.16329 18.8631 4.04661C18.7958 3.92994 18.706 3.82774 18.599 3.7459C18.4919 3.66407 18.3698 3.60421 18.2395 3.56977C18.1093 3.53533 17.9735 3.527 17.84 3.54525C17.7066 3.5635 17.578 3.60798 17.4618 3.67611L16.6108 4.16647L16.5832 3.41153C16.5782 3.27744 16.5468 3.14565 16.4908 3.0237C16.4349 2.90174 16.3554 2.792 16.2571 2.70075C16.1587 2.60949 16.0433 2.5385 15.9175 2.49184C15.7917 2.44517 15.6579 2.42374 15.5238 2.42877C15.3898 2.4338 15.258 2.4652 15.136 2.52116C15.0141 2.57712 14.9043 2.65655 14.8131 2.75492C14.7218 2.85329 14.6508 2.96868 14.6042 3.09448C14.5575 3.22029 14.5361 3.35406 14.5411 3.48814L14.6095 5.32289L12.926 6.29441C12.4058 5.76437 11.751 5.38612 11.032 5.2003V3.25727L12.6553 2.39915C12.8948 2.27248 13.0742 2.05586 13.1539 1.79694C13.2337 1.53801 13.2074 1.258 13.0807 1.01849C12.9541 0.778979 12.7375 0.599596 12.4785 0.519802C12.2196 0.440008 11.9396 0.466339 11.7001 0.593003L11.032 0.946467V-0.036287Z" fill="white"/>
</g>
<defs>
<clipPath id="clip0_321_2312">
<rect width="20" height="20" fill="white"/>
</clipPath>
</defs>
</svg>
