<svg width="30" height="30" viewBox="0 0 30 30" fill="none" xmlns="http://www.w3.org/2000/svg">
<path d="M13.0236 10.6649C14.0502 7.17225 18.2081 5.72648 21.1793 7.82941C23.7494 9.64705 24.1805 13.2898 22.1062 15.6575L20.1565 17.8838C16.9058 21.5956 12.8004 24.4604 8.19483 26.2307L5.97853 27.0835C5.65367 27.208 5.29498 27.2122 4.96731 27.0953C4.63965 26.9783 4.36463 26.748 4.19201 26.446C4.01938 26.1439 3.96054 25.79 4.02612 25.4484C4.09171 25.1067 4.27738 24.7998 4.54958 24.5831L6.28126 23.2077C8.87557 21.1468 10.7695 18.3343 11.7037 15.1554L13.0236 10.6649Z" stroke="white" stroke-width="2"/>
<path d="M18.4268 6.9835C18.5763 6.52948 18.8298 6.11663 19.167 5.77782C19.5043 5.43901 19.9159 5.18358 20.3692 5.03186C20.8225 4.88014 21.305 4.83632 21.7782 4.90388C22.2514 4.97145 22.7024 5.14853 23.0951 5.42104C23.4878 5.69356 23.8116 6.05397 24.0405 6.47362C24.2694 6.89326 24.3972 7.36054 24.4138 7.83828C24.4303 8.31602 24.3351 8.79103 24.1358 9.22551C23.9365 9.65998 23.6384 10.0419 23.2655 10.341" stroke="white" stroke-width="2"/>
<path d="M25.9999 2.81999L23.5083 5.31162" stroke="white" stroke-width="2" stroke-linecap="round"/>
</svg>
