<svg width="20" height="20" viewBox="0 0 20 20" fill="none" xmlns="http://www.w3.org/2000/svg">
<path d="M8.56262 6.84717C9.3092 4.30707 12.3331 3.2556 14.4941 4.785C16.3632 6.10693 16.6767 8.75621 15.1682 10.4781L13.7502 12.0973C11.386 14.7968 8.40028 16.8803 5.05078 18.1678L3.43893 18.788C3.20267 18.8785 2.94181 18.8816 2.7035 18.7965C2.4652 18.7115 2.26519 18.544 2.13964 18.3243C2.0141 18.1046 1.9713 17.8473 2.019 17.5988C2.0667 17.3503 2.20173 17.1271 2.39969 16.9695L3.6591 15.9692C5.54587 14.4704 6.92325 12.4249 7.60266 10.113L8.56262 6.84717Z" stroke="#460001"/>
<path d="M12.4922 4.16976C12.601 3.83956 12.7853 3.53931 13.0306 3.2929C13.2758 3.04649 13.5752 2.86073 13.9049 2.75039C14.2346 2.64005 14.5854 2.60818 14.9296 2.65731C15.2738 2.70645 15.6017 2.83524 15.8873 3.03343C16.173 3.23162 16.4084 3.49374 16.5749 3.79894C16.7414 4.10413 16.8344 4.44398 16.8464 4.79142C16.8584 5.13887 16.7892 5.48433 16.6442 5.80031C16.4992 6.1163 16.2825 6.39408 16.0113 6.61156" stroke="#460001"/>
<path d="M17.9998 1.14178L16.1877 2.95388" stroke="#460001" stroke-linecap="round"/>
</svg>
