<svg width="36" height="36" viewBox="0 0 36 36" fill="none" xmlns="http://www.w3.org/2000/svg">
<path d="M4.5 21C5.745 21.963 7.6155 22.5255 9.75 22.5C11.8845 22.5255 13.755 21.963 15 21C16.245 20.037 18.1155 19.4745 20.25 19.5C22.3845 19.4745 24.255 20.037 25.5 21M12 4.5C11.5253 4.84076 11.1406 5.29196 10.8793 5.81464C10.6179 6.33731 10.4878 6.91576 10.5 7.5C10.4878 8.08424 10.6179 8.66269 10.8793 9.18536C11.1406 9.70804 11.5253 10.1592 12 10.5M18 4.5C17.5253 4.84076 17.1406 5.29196 16.8793 5.81464C16.6179 6.33731 16.4878 6.91576 16.5 7.5C16.4878 8.08424 16.6179 8.66269 16.8793 9.18536C17.1406 9.70804 17.5253 10.1592 18 10.5" stroke="white" stroke-width="2" stroke-linecap="round" stroke-linejoin="round"/>
<path d="M4.5 15H25.5V22.5C25.5 24.8869 24.5518 27.1761 22.864 28.864C21.1761 30.5518 18.8869 31.5 16.5 31.5H13.5C11.1131 31.5 8.82387 30.5518 7.13604 28.864C5.44821 27.1761 4.5 24.8869 4.5 22.5V15Z" stroke="white" stroke-width="2" stroke-linecap="round" stroke-linejoin="round"/>
<path d="M25.119 25.089C25.7889 25.3965 26.5241 25.5348 27.2599 25.4916C27.9958 25.4485 28.7098 25.2252 29.3391 24.8415C29.9684 24.4577 30.4939 23.9253 30.8693 23.2909C31.2446 22.6565 31.4584 21.9396 31.4918 21.2033C31.5252 20.4669 31.3772 19.7336 31.0608 19.0679C30.7445 18.4021 30.2694 17.8243 29.6774 17.3851C29.0853 16.946 28.3945 16.659 27.6656 16.5494C26.9367 16.4398 26.192 16.5109 25.497 16.7565" stroke="white" stroke-width="2" stroke-linecap="round" stroke-linejoin="round"/>
</svg>
