<svg width="29" height="30" viewBox="0 0 29 30" fill="none" xmlns="http://www.w3.org/2000/svg">
<path d="M16.032 4.87927C16.032 4.60833 15.9244 4.34849 15.7328 4.15691C15.5412 3.96533 15.2813 3.8577 15.0104 3.8577C14.7395 3.8577 14.4796 3.96533 14.288 4.15691C14.0965 4.34849 13.9888 4.60833 13.9888 4.87927V5.86203L13.3207 5.50856C13.2021 5.44584 13.0723 5.4071 12.9388 5.39454C12.8052 5.38198 12.6705 5.39585 12.5423 5.43536C12.4141 5.47487 12.2949 5.53925 12.1916 5.62481C12.0882 5.71037 12.0028 5.81545 11.9401 5.93405C11.8773 6.05264 11.8386 6.18242 11.826 6.31599C11.8135 6.44956 11.8274 6.58429 11.8669 6.7125C11.9064 6.8407 11.9707 6.95987 12.0563 7.0632C12.1419 7.16652 12.247 7.25199 12.3656 7.3147L13.9888 8.17283V10.1159C13.2697 10.302 12.6149 10.6806 12.0948 11.211L10.4113 10.2385L10.4797 8.4037C10.4897 8.1329 10.3918 7.86921 10.2074 7.67063C10.023 7.47206 9.76726 7.35487 9.49646 7.34484C9.22566 7.33482 8.96196 7.43278 8.76339 7.61718C8.56481 7.80157 8.44762 8.0573 8.4376 8.32811L8.41001 9.08305L7.55904 8.59269C7.44275 8.52075 7.3132 8.47288 7.17806 8.45194C7.04293 8.43099 6.90496 8.43738 6.77235 8.47075C6.63973 8.50411 6.51516 8.56376 6.40602 8.64615C6.29689 8.72855 6.2054 8.83202 6.137 8.95043C6.06859 9.06884 6.02466 9.19978 6.0078 9.33549C5.99093 9.47119 6.00149 9.6089 6.03884 9.74045C6.07618 9.872 6.13956 9.99471 6.22521 10.1013C6.31087 10.2079 6.41705 10.2962 6.53747 10.361L7.38844 10.8524L6.74791 11.2549C6.5245 11.4017 6.36755 11.6303 6.31074 11.8915C6.25393 12.1528 6.30179 12.4259 6.44404 12.6522C6.5863 12.8786 6.81161 13.0401 7.07164 13.1022C7.33166 13.1644 7.60567 13.1221 7.83487 12.9844L9.3897 12.0078L11.0722 12.9793C10.8733 13.6952 10.8733 14.4517 11.0722 15.1675L9.3897 16.138L7.83487 15.1624C7.60567 15.0248 7.33166 14.9825 7.07164 15.0446C6.81161 15.1068 6.5863 15.2683 6.44404 15.4947C6.30179 15.721 6.25393 15.9941 6.31074 16.2553C6.36755 16.5166 6.5245 16.7451 6.74791 16.892L7.38844 17.2945L6.53747 17.7848C6.42122 17.8519 6.31933 17.9412 6.2376 18.0477C6.15587 18.1541 6.09591 18.2756 6.06115 18.4053C6.02638 18.5349 6.01749 18.6701 6.03497 18.8032C6.05246 18.9362 6.09598 19.0646 6.16306 19.1808C6.23014 19.297 6.31946 19.3989 6.42591 19.4807C6.53237 19.5624 6.65388 19.6224 6.78351 19.6571C6.91314 19.6919 7.04835 19.7008 7.18141 19.6833C7.31448 19.6658 7.4428 19.6223 7.55904 19.5552L8.40899 19.0638L8.4376 19.8198C8.44263 19.9539 8.47402 20.0857 8.52998 20.2076C8.58594 20.3296 8.66538 20.4393 8.76375 20.5306C8.86212 20.6218 8.9775 20.6928 9.10331 20.7395C9.22912 20.7862 9.36288 20.8076 9.49697 20.8026C9.63106 20.7975 9.76284 20.7661 9.8848 20.7102C10.0068 20.6542 10.1165 20.5748 10.2078 20.4764C10.299 20.378 10.37 20.2626 10.4167 20.1368C10.4633 20.011 10.4848 19.8773 10.4797 19.7432L10.4113 17.9084L12.0948 16.9359C12.6149 17.4663 13.2697 17.8449 13.9888 18.031V19.9741L12.3656 20.8322C12.126 20.9588 11.9467 21.1755 11.8669 21.4344C11.7871 21.6933 11.8134 21.9733 11.9401 22.2128C12.0667 22.4523 12.2833 22.6317 12.5423 22.7115C12.8012 22.7913 13.0812 22.765 13.3207 22.6383L13.9888 22.2849V23.2676C13.9888 23.5385 14.0965 23.7984 14.288 23.99C14.4796 24.1816 14.7395 24.2892 15.0104 24.2892C15.2813 24.2892 15.5412 24.1816 15.7328 23.99C15.9244 23.7984 16.032 23.5385 16.032 23.2676V22.2849L16.7001 22.6383C16.9396 22.765 17.2196 22.7913 17.4785 22.7115C17.7375 22.6317 17.9541 22.4523 18.0807 22.2128C18.2074 21.9733 18.2337 21.6933 18.1539 21.4344C18.0742 21.1755 17.8948 20.9588 17.6553 20.8322L16.032 19.9741V18.031C16.751 17.8452 17.4058 17.4669 17.926 16.9369L19.6095 17.9084L19.5411 19.7432C19.5361 19.8773 19.5575 20.011 19.6042 20.1368C19.6508 20.2626 19.7218 20.378 19.8131 20.4764C19.9043 20.5748 20.0141 20.6542 20.136 20.7102C20.258 20.7661 20.3898 20.7975 20.5238 20.8026C20.6579 20.8076 20.7917 20.7862 20.9175 20.7395C21.0433 20.6928 21.1587 20.6218 21.2571 20.5306C21.3554 20.4393 21.4349 20.3296 21.4908 20.2076C21.5468 20.0857 21.5782 19.9539 21.5832 19.8198L21.6108 19.0638L22.4618 19.5552C22.578 19.6233 22.7066 19.6678 22.84 19.6861C22.9735 19.7043 23.1093 19.696 23.2395 19.6616C23.3698 19.6271 23.4919 19.5673 23.599 19.4854C23.706 19.4036 23.7958 19.3014 23.8631 19.1847C23.9305 19.068 23.9741 18.9392 23.9915 18.8056C24.0088 18.672 23.9996 18.5363 23.9643 18.4063C23.929 18.2762 23.8683 18.1545 23.7858 18.048C23.7033 17.9415 23.6005 17.8524 23.4833 17.7858L22.6334 17.2955L23.2729 16.893C23.5024 16.7488 23.6652 16.5194 23.7256 16.2553C23.7859 15.9911 23.7388 15.7137 23.5947 15.4842C23.4506 15.2547 23.2212 15.0919 22.957 15.0316C22.6928 14.9712 22.4154 15.0183 22.1859 15.1624L20.6311 16.1391L18.9486 15.1686C19.1477 14.4524 19.1477 13.6955 18.9486 12.9793L20.6311 12.0078L22.1859 12.9844C22.4154 13.1286 22.6928 13.1757 22.957 13.1153C23.2212 13.055 23.4506 12.8921 23.5947 12.6626C23.7388 12.4332 23.7859 12.1558 23.7256 11.8916C23.6652 11.6274 23.5024 11.398 23.2729 11.2539L22.6324 10.8524L23.4833 10.361C23.6005 10.2945 23.7033 10.2054 23.7858 10.0989C23.8683 9.9924 23.929 9.87065 23.9643 9.74063C23.9996 9.61061 24.0088 9.47489 23.9915 9.34129C23.9741 9.20769 23.9305 9.07884 23.8631 8.96217C23.7958 8.84549 23.706 8.7433 23.599 8.66146C23.4919 8.57962 23.3698 8.51976 23.2395 8.48533C23.1093 8.45089 22.9735 8.44256 22.84 8.46081C22.7066 8.47906 22.578 8.52354 22.4618 8.59167L21.6108 9.08203L21.5832 8.32708C21.5782 8.193 21.5468 8.06121 21.4908 7.93926C21.4349 7.8173 21.3554 7.70756 21.2571 7.6163C21.1587 7.52505 21.0433 7.45406 20.9175 7.40739C20.7917 7.36073 20.6579 7.3393 20.5238 7.34433C20.3898 7.34936 20.258 7.38075 20.136 7.43671C20.0141 7.49268 19.9043 7.57211 19.8131 7.67048C19.7218 7.76885 19.6508 7.88424 19.6042 8.01004C19.5575 8.13585 19.5361 8.26961 19.5411 8.4037L19.6095 10.2385L17.926 11.21C17.4058 10.6799 16.751 10.3017 16.032 10.1159V8.17283L17.6553 7.3147C17.8948 7.18804 18.0742 6.97142 18.1539 6.7125C18.2337 6.45357 18.2074 6.17356 18.0807 5.93405C17.9541 5.69454 17.7375 5.51515 17.4785 5.43536C17.2196 5.35557 16.9396 5.3819 16.7001 5.50856L16.032 5.86203V4.87927Z" fill="white"/>
</svg>
