<svg width="32" height="33" viewBox="0 0 32 33" fill="none" xmlns="http://www.w3.org/2000/svg">
<path d="M0.801185 2.26693C1.17333 0.855079 2.46756 0.00184111 3.82815 0.00184111C4.66726 0.00184111 5.43052 0.315324 6.01126 0.826795C6.65155 0.292728 7.46057 0 8.2963 0C9.13202 0 9.94104 0.292728 10.5813 0.826795C11.1822 0.294068 11.9594 0.000347639 12.7644 0.00184111C14.125 0.00184111 15.4193 0.855079 15.7914 2.26693C16.147 3.61514 16.5926 5.7883 16.5926 8.25138C16.5925 9.62683 16.2466 10.9804 15.5863 12.189C14.926 13.3977 13.9723 14.4229 12.8119 15.1716C12.1695 15.5888 11.8519 16.1262 11.8519 16.5858V17.5191C11.8519 17.5726 11.855 17.6244 11.8613 17.6747C11.9419 18.2592 12.2335 20.4301 12.5061 22.681C12.7739 24.8895 13.037 27.2984 13.037 28.286C13.037 29.5362 12.5376 30.7352 11.6485 31.6193C10.7594 32.5033 9.55362 33 8.2963 33C7.03897 33 5.83315 32.5033 4.94409 31.6193C4.05502 30.7352 3.55556 29.5362 3.55556 28.286C3.55556 27.296 3.81867 24.8919 4.08652 22.681C4.35911 20.4301 4.65067 18.2592 4.73126 17.6747L4.74074 17.5191V16.5858C4.74074 16.1262 4.42311 15.5888 3.78074 15.1716C2.62034 14.4229 1.6666 13.3977 1.00629 12.189C0.345979 10.9804 5.91601e-05 9.62683 0 8.25138C0 5.7883 0.44563 3.61514 0.801185 2.26693ZM11.8519 9.42989C11.8519 9.74245 11.727 10.0422 11.5047 10.2632C11.2825 10.4842 10.981 10.6084 10.6667 10.6084C10.3523 10.6084 10.0509 10.4842 9.82861 10.2632C9.60635 10.0422 9.48148 9.74245 9.48148 9.42989V3.53736C9.48148 3.2248 9.35661 2.92504 9.13435 2.70403C8.91208 2.48302 8.61063 2.35885 8.2963 2.35885C7.98197 2.35885 7.68051 2.48302 7.45824 2.70403C7.23598 2.92504 7.11111 3.2248 7.11111 3.53736V9.42989C7.11111 9.74245 6.98624 10.0422 6.76398 10.2632C6.54171 10.4842 6.24026 10.6084 5.92593 10.6084C5.6116 10.6084 5.31014 10.4842 5.08787 10.2632C4.86561 10.0422 4.74074 9.74245 4.74074 9.42989V3.2663C4.74074 3.02563 4.64459 2.79482 4.47345 2.62464C4.3023 2.45446 4.07018 2.35885 3.82815 2.35885C3.43467 2.35885 3.16444 2.5922 3.09333 2.86561C2.62621 4.62362 2.38331 6.43308 2.37037 8.25138C2.37026 9.23434 2.61744 10.2017 3.08941 11.0654C3.56137 11.9291 4.24313 12.6617 5.07259 13.1964C6.11319 13.8681 7.11111 15.049 7.11111 16.5858V17.5191C7.11111 17.6763 7.10084 17.8334 7.0803 17.9906C6.9997 18.5704 6.71052 20.727 6.4403 22.9638C6.16533 25.2384 5.92593 27.4752 5.92593 28.286C5.92593 28.9111 6.17566 29.5106 6.62019 29.9526C7.06472 30.3947 7.66763 30.643 8.2963 30.643C8.92496 30.643 9.52787 30.3947 9.9724 29.9526C10.4169 29.5106 10.6667 28.9111 10.6667 28.286C10.6667 27.4752 10.4296 25.2384 10.1523 22.9615C9.88207 20.727 9.59289 18.5704 9.5123 17.9882C9.49427 17.8332 9.48398 17.6775 9.48148 17.5215V16.5881C9.48148 15.0514 10.4794 13.8705 11.52 13.1987C12.3498 12.6638 13.0318 11.9309 13.5038 11.0667C13.9757 10.2026 14.2227 9.23474 14.2222 8.25138C14.2222 6.05465 13.824 4.09361 13.4993 2.86561C13.4281 2.59455 13.1556 2.35885 12.7644 2.35885C12.5224 2.35885 12.2903 2.45446 12.1191 2.62464C11.948 2.79482 11.8519 3.02563 11.8519 3.2663V9.42989ZM18.963 10.6084C18.963 7.79536 20.0868 5.09754 22.0872 3.10843C24.0875 1.11931 26.8007 0.00184111 29.6296 0.00184111C29.944 0.00184111 30.2454 0.126005 30.4677 0.347017C30.6899 0.56803 30.8148 0.867788 30.8148 1.18035V15.2588L30.8599 15.676C31.0484 17.4351 31.2294 19.195 31.4027 20.9557C31.6942 23.9161 32 27.2347 32 28.286C32 29.5362 31.5005 30.7352 30.6115 31.6193C29.7224 32.5033 28.5166 33 27.2593 33C26.0019 33 24.7961 32.5033 23.907 31.6193C23.018 30.7352 22.5185 29.5362 22.5185 28.286C22.5185 27.2347 22.8243 23.9161 23.1159 20.9557C23.2652 19.4543 23.4145 18.0165 23.5259 16.9511L23.5733 16.5009H21.3333C20.7047 16.5009 20.1018 16.2526 19.6572 15.8106C19.2127 15.3685 18.963 14.769 18.963 14.1439V10.6084ZM26.067 15.4473L26.0172 15.9235C25.8319 17.6773 25.6518 19.4317 25.4767 21.1867C25.1757 24.2201 24.8889 27.3856 24.8889 28.286C24.8889 28.9111 25.1386 29.5106 25.5832 29.9526C26.0277 30.3947 26.6306 30.643 27.2593 30.643C27.8879 30.643 28.4908 30.3947 28.9354 29.9526C29.3799 29.5106 29.6296 28.9111 29.6296 28.286C29.6296 27.3832 29.3428 24.2201 29.0418 21.1867C28.8679 19.4316 28.6878 17.6772 28.5013 15.9235L28.4516 15.4497L28.4444 15.3224V2.44135C26.4696 2.72479 24.6636 3.70648 23.3575 5.20648C22.0515 6.70648 21.3328 8.6243 21.3333 10.6084V14.1439H24.8889C25.0551 14.144 25.2194 14.1788 25.3712 14.2461C25.523 14.3134 25.6589 14.4117 25.77 14.5346C25.881 14.6576 25.9649 14.8023 26.0161 14.9596C26.0672 15.1168 26.0846 15.283 26.067 15.4473Z" fill="white"/>
</svg>
