<svg width="20" height="21" viewBox="0 0 20 21" fill="none" xmlns="http://www.w3.org/2000/svg">
<path d="M16.4799 9.36971C16.2171 9.02692 15.8972 8.72983 15.6001 8.43274C14.8345 7.74715 13.9661 7.25581 13.2348 6.53595C11.5323 4.86768 11.1552 2.1139 12.2407 0C11.1552 0.262809 10.2068 0.856986 9.39551 1.5083C6.43605 3.885 5.27055 8.07852 6.66458 11.6779C6.71029 11.7921 6.75599 11.9064 6.75599 12.0549C6.75599 12.3063 6.5846 12.5348 6.35607 12.6263C6.09326 12.7405 5.81902 12.672 5.60192 12.4891C5.53707 12.4348 5.48283 12.369 5.44195 12.2949C4.15076 10.6609 3.94508 8.31848 4.81349 6.44453C2.90527 7.99854 1.86546 10.6266 2.01401 13.1062C2.08256 13.6775 2.15112 14.2488 2.34537 14.8201C2.50534 15.5057 2.81386 16.1913 3.15665 16.7969C4.39071 18.7737 6.52746 20.1906 8.82419 20.4762C11.2695 20.7848 13.8861 20.3391 15.7601 18.648C17.8511 16.7512 18.5824 13.7118 17.5083 11.1065L17.3598 10.8094C17.1198 10.2838 16.4799 9.36971 16.4799 9.36971ZM12.8692 16.5684C12.5492 16.8426 12.0236 17.1397 11.6122 17.254C10.3325 17.711 9.05272 17.0712 8.29857 16.317C9.65832 15.9971 10.4696 14.9915 10.7096 13.9746C10.9038 13.0605 10.5382 12.3063 10.3896 11.4265C10.2525 10.5809 10.2753 9.86105 10.5839 9.07262C10.801 9.50683 11.0295 9.94104 11.3037 10.2838C12.1836 11.4265 13.5662 11.9292 13.8633 13.4832C13.909 13.6432 13.9318 13.8032 13.9318 13.9746C13.9661 14.9116 13.5547 15.9399 12.8692 16.5684Z" fill="white"/>
</svg>
