<svg width="20" height="23" viewBox="0 0 20 23" fill="none" xmlns="http://www.w3.org/2000/svg">
<path d="M17.2899 10.4781C16.9943 10.0947 16.6343 9.7625 16.3001 9.43027C15.4388 8.66358 14.4619 8.11412 13.6392 7.3091C11.7238 5.44349 11.2996 2.36396 12.5208 0C11.2996 0.293897 10.2326 0.958361 9.31995 1.68672C5.99056 4.34457 4.67937 9.03415 6.24765 13.0593C6.29907 13.187 6.35049 13.3148 6.35049 13.4809C6.35049 13.7621 6.15767 14.0176 5.90058 14.1198C5.60492 14.2476 5.2964 14.171 5.05216 13.9665C4.9792 13.9058 4.91818 13.8321 4.87219 13.7493C3.4196 11.922 3.18821 9.30249 4.16518 7.20687C2.01843 8.9447 0.848644 11.8837 1.01576 14.6565C1.09288 15.2954 1.17001 15.9343 1.38854 16.5732C1.56851 17.3399 1.91559 18.1066 2.30123 18.7839C3.68955 20.9945 6.0934 22.579 8.67721 22.8984C11.4281 23.2434 14.3719 22.7451 16.4801 20.8539C18.8325 18.7328 19.6552 15.3338 18.4468 12.4204L18.2797 12.0881C18.0098 11.5003 17.2899 10.4781 17.2899 10.4781ZM13.2278 18.5283C12.8679 18.835 12.2766 19.1672 11.8138 19.295C10.374 19.8061 8.93431 19.0905 8.08589 18.2472C9.61561 17.8894 10.5283 16.7649 10.7982 15.6277C11.0168 14.6054 10.6054 13.7621 10.4383 12.7781C10.2841 11.8326 10.3098 11.0275 10.6568 10.1458C10.9011 10.6314 11.1582 11.117 11.4667 11.5003C12.4565 12.7781 14.0119 13.3404 14.3462 15.0782C14.3976 15.2571 14.4233 15.436 14.4233 15.6277C14.4619 16.6755 13.9991 17.8255 13.2278 18.5283Z" fill="#460001"/>
</svg>
