<svg width="30" height="30" viewBox="0 0 30 30" fill="none" xmlns="http://www.w3.org/2000/svg">
<path d="M22.2899 13.9781C21.9943 13.5947 21.6343 13.2625 21.3001 12.9303C20.4388 12.1636 19.4619 11.6141 18.6392 10.8091C16.7238 8.94349 16.2996 5.86396 17.5208 3.5C16.2996 3.7939 15.2326 4.45836 14.3199 5.18672C10.9906 7.84457 9.67937 12.5341 11.2477 16.5593C11.2991 16.687 11.3505 16.8148 11.3505 16.9809C11.3505 17.2621 11.1577 17.5176 10.9006 17.6198C10.6049 17.7476 10.2964 17.671 10.0522 17.4665C9.9792 17.4058 9.91818 17.3321 9.87219 17.2493C8.4196 15.422 8.18821 12.8025 9.16518 10.7069C7.01843 12.4447 5.84864 15.3837 6.01576 18.1565C6.09288 18.7954 6.17001 19.4343 6.38854 20.0732C6.56851 20.8399 6.91559 21.6066 7.30123 22.2839C8.68955 24.4945 11.0934 26.079 13.6772 26.3984C16.4281 26.7434 19.3719 26.2451 21.4801 24.3539C23.8325 22.2328 24.6552 18.8338 23.4468 15.9204L23.2797 15.5881C23.0098 15.0003 22.2899 13.9781 22.2899 13.9781ZM18.2278 22.0283C17.8679 22.335 17.2766 22.6672 16.8138 22.795C15.374 23.3061 13.9343 22.5905 13.0859 21.7472C14.6156 21.3894 15.5283 20.2649 15.7982 19.1277C16.0168 18.1054 15.6054 17.2621 15.4383 16.2781C15.2841 15.3326 15.3098 14.5275 15.6568 13.6458C15.9011 14.1314 16.1582 14.617 16.4667 15.0003C17.4565 16.2781 19.0119 16.8404 19.3462 18.5782C19.3976 18.7571 19.4233 18.936 19.4233 19.1277C19.4619 20.1755 18.9991 21.3255 18.2278 22.0283Z" fill="white"/>
</svg>
