<svg width="30" height="30" viewBox="0 0 30 30" fill="none" xmlns="http://www.w3.org/2000/svg">
<path d="M4 3.625H6.63889L7.16667 6.26389M7.16667 6.26389H27.75L22.4722 16.8194H9.27778M7.16667 6.26389L9.27778 16.8194M9.27778 16.8194L6.25229 19.8449C5.42104 20.6762 6.00951 22.0972 7.18514 22.0972H22.4722M22.4722 22.0972C21.7723 22.0972 21.1011 22.3752 20.6062 22.8701C20.1114 23.365 19.8333 24.0362 19.8333 24.7361C19.8333 25.436 20.1114 26.1072 20.6062 26.6021C21.1011 27.097 21.7723 27.375 22.4722 27.375C23.1721 27.375 23.8433 27.097 24.3382 26.6021C24.8331 26.1072 25.1111 25.436 25.1111 24.7361C25.1111 24.0362 24.8331 23.365 24.3382 22.8701C23.8433 22.3752 23.1721 22.0972 22.4722 22.0972ZM11.9167 24.7361C11.9167 25.436 11.6386 26.1072 11.1438 26.6021C10.6489 27.097 9.97765 27.375 9.27778 27.375C8.5779 27.375 7.90669 27.097 7.4118 26.6021C6.91691 26.1072 6.63889 25.436 6.63889 24.7361C6.63889 24.0362 6.91691 23.365 7.4118 22.8701C7.90669 22.3752 8.5779 22.0972 9.27778 22.0972C9.97765 22.0972 10.6489 22.3752 11.1438 22.8701C11.6386 23.365 11.9167 24.0362 11.9167 24.7361Z" stroke="white" stroke-width="2" stroke-linecap="round" stroke-linejoin="round"/>
</svg>
