<svg width="59" height="61" viewBox="0 0 59 61" fill="none" xmlns="http://www.w3.org/2000/svg">
<path d="M50 0H10.6381C5.07194 0 0.808086 5.03839 2.25815 10.4124C11.5219 44.7441 34.382 57.0785 50.405 59.8695C55.1597 60.6977 59 56.6898 59 51.8635V9C59 4.02944 54.9706 0 50 0Z" fill="#460001"/>
<path d="M37.032 15.8793C37.032 15.6083 36.9244 15.3485 36.7328 15.1569C36.5412 14.9653 36.2813 14.8577 36.0104 14.8577C35.7395 14.8577 35.4796 14.9653 35.288 15.1569C35.0965 15.3485 34.9888 15.6083 34.9888 15.8793V16.862L34.3207 16.5086C34.2021 16.4458 34.0723 16.4071 33.9388 16.3945C33.8052 16.382 33.6705 16.3958 33.5423 16.4354C33.4141 16.4749 33.2949 16.5392 33.1916 16.6248C33.0882 16.7104 33.0028 16.8155 32.9401 16.934C32.8773 17.0526 32.8386 17.1824 32.826 17.316C32.8135 17.4496 32.8274 17.5843 32.8669 17.7125C32.9064 17.8407 32.9707 17.9599 33.0563 18.0632C33.1419 18.1665 33.247 18.252 33.3656 18.3147L34.9888 19.1728V21.1159C34.2697 21.302 33.6149 21.6806 33.0948 22.211L31.4113 21.2385L31.4797 19.4037C31.4897 19.1329 31.3918 18.8692 31.2074 18.6706C31.023 18.4721 30.7673 18.3549 30.4965 18.3448C30.2257 18.3348 29.962 18.4328 29.7634 18.6172C29.5648 18.8016 29.4476 19.0573 29.4376 19.3281L29.41 20.083L28.559 19.5927C28.4427 19.5207 28.3132 19.4729 28.1781 19.4519C28.0429 19.431 27.905 19.4374 27.7723 19.4707C27.6397 19.5041 27.5152 19.5638 27.406 19.6462C27.2969 19.7286 27.2054 19.832 27.137 19.9504C27.0686 20.0688 27.0247 20.1998 27.0078 20.3355C26.9909 20.4712 27.0015 20.6089 27.0388 20.7405C27.0762 20.872 27.1396 20.9947 27.2252 21.1013C27.3109 21.2079 27.417 21.2962 27.5375 21.361L28.3884 21.8524L27.7479 22.2549C27.5245 22.4017 27.3676 22.6303 27.3107 22.8915C27.2539 23.1528 27.3018 23.4259 27.444 23.6522C27.5863 23.8786 27.8116 24.0401 28.0716 24.1022C28.3317 24.1644 28.6057 24.1221 28.8349 23.9844L30.3897 23.0078L32.0722 23.9793C31.8733 24.6952 31.8733 25.4517 32.0722 26.1675L30.3897 27.138L28.8349 26.1624C28.6057 26.0248 28.3317 25.9825 28.0716 26.0446C27.8116 26.1068 27.5863 26.2683 27.444 26.4947C27.3018 26.721 27.2539 26.9941 27.3107 27.2553C27.3676 27.5166 27.5245 27.7451 27.7479 27.892L28.3884 28.2945L27.5375 28.7848C27.4212 28.8519 27.3193 28.9412 27.2376 29.0477C27.1559 29.1541 27.0959 29.2756 27.0611 29.4053C27.0264 29.5349 27.0175 29.6701 27.035 29.8032C27.0525 29.9362 27.096 30.0646 27.1631 30.1808C27.2301 30.297 27.3195 30.3989 27.4259 30.4807C27.5324 30.5624 27.6539 30.6224 27.7835 30.6571C27.9131 30.6919 28.0483 30.7008 28.1814 30.6833C28.3145 30.6658 28.4428 30.6223 28.559 30.5552L29.409 30.0638L29.4376 30.8198C29.4426 30.9539 29.474 31.0857 29.53 31.2076C29.5859 31.3296 29.6654 31.4393 29.7637 31.5306C29.8621 31.6218 29.9775 31.6928 30.1033 31.7395C30.2291 31.7862 30.3629 31.8076 30.497 31.8026C30.6311 31.7975 30.7628 31.7661 30.8848 31.7102C31.0068 31.6542 31.1165 31.5748 31.2078 31.4764C31.299 31.378 31.37 31.2626 31.4167 31.1368C31.4633 31.011 31.4848 30.8773 31.4797 30.7432L31.4113 28.9084L33.0948 27.9359C33.6149 28.4663 34.2697 28.8449 34.9888 29.031V30.9741L33.3656 31.8322C33.126 31.9588 32.9467 32.1755 32.8669 32.4344C32.7871 32.6933 32.8134 32.9733 32.9401 33.2128C33.0667 33.4523 33.2833 33.6317 33.5423 33.7115C33.8012 33.7913 34.0812 33.765 34.3207 33.6383L34.9888 33.2849V34.2676C34.9888 34.5385 35.0965 34.7984 35.288 34.99C35.4796 35.1816 35.7395 35.2892 36.0104 35.2892C36.2813 35.2892 36.5412 35.1816 36.7328 34.99C36.9244 34.7984 37.032 34.5385 37.032 34.2676V33.2849L37.7001 33.6383C37.9396 33.765 38.2196 33.7913 38.4785 33.7115C38.7375 33.6317 38.9541 33.4523 39.0807 33.2128C39.2074 32.9733 39.2337 32.6933 39.1539 32.4344C39.0742 32.1755 38.8948 31.9588 38.6553 31.8322L37.032 30.9741V29.031C37.751 28.8452 38.4058 28.4669 38.926 27.9369L40.6095 28.9084L40.5411 30.7432C40.5361 30.8773 40.5575 31.011 40.6042 31.1368C40.6508 31.2626 40.7218 31.378 40.8131 31.4764C40.9043 31.5748 41.0141 31.6542 41.136 31.7102C41.258 31.7661 41.3898 31.7975 41.5238 31.8026C41.6579 31.8076 41.7917 31.7862 41.9175 31.7395C42.0433 31.6928 42.1587 31.6218 42.2571 31.5306C42.3554 31.4393 42.4349 31.3296 42.4908 31.2076C42.5468 31.0857 42.5782 30.9539 42.5832 30.8198L42.6108 30.0638L43.4618 30.5552C43.578 30.6233 43.7066 30.6678 43.84 30.6861C43.9735 30.7043 44.1093 30.696 44.2395 30.6616C44.3698 30.6271 44.4919 30.5673 44.599 30.4854C44.706 30.4036 44.7958 30.3014 44.8631 30.1847C44.9305 30.068 44.9741 29.9392 44.9915 29.8056C45.0088 29.672 44.9996 29.5363 44.9643 29.4063C44.929 29.2762 44.8683 29.1545 44.7858 29.048C44.7033 28.9415 44.6005 28.8524 44.4833 28.7858L43.6334 28.2955L44.2729 27.893C44.5024 27.7488 44.6652 27.5194 44.7256 27.2553C44.7859 26.9911 44.7388 26.7137 44.5947 26.4842C44.4506 26.2547 44.2212 26.0919 43.957 26.0316C43.6928 25.9712 43.4154 26.0183 43.1859 26.1624L41.6311 27.1391L39.9486 26.1686C40.1477 25.4524 40.1477 24.6955 39.9486 23.9793L41.6311 23.0078L43.1859 23.9844C43.4154 24.1286 43.6928 24.1757 43.957 24.1153C44.2212 24.055 44.4506 23.8921 44.5947 23.6626C44.7388 23.4332 44.7859 23.1558 44.7256 22.8916C44.6652 22.6274 44.5024 22.398 44.2729 22.2539L43.6324 21.8524L44.4833 21.361C44.6005 21.2945 44.7033 21.2054 44.7858 21.0989C44.8683 20.9924 44.929 20.8706 44.9643 20.7406C44.9996 20.6106 45.0088 20.4749 44.9915 20.3413C44.9741 20.2077 44.9305 20.0788 44.8631 19.9622C44.7958 19.8455 44.706 19.7433 44.599 19.6615C44.4919 19.5796 44.3698 19.5198 44.2395 19.4853C44.1093 19.4509 43.9735 19.4426 43.84 19.4608C43.7066 19.4791 43.578 19.5235 43.4618 19.5917L42.6108 20.082L42.5832 19.3271C42.5782 19.193 42.5468 19.0612 42.4908 18.9393C42.4349 18.8173 42.3554 18.7076 42.2571 18.6163C42.1587 18.525 42.0433 18.4541 41.9175 18.4074C41.7917 18.3607 41.6579 18.3393 41.5238 18.3443C41.3898 18.3494 41.258 18.3808 41.136 18.4367C41.0141 18.4927 40.9043 18.5721 40.8131 18.6705C40.7218 18.7689 40.6508 18.8842 40.6042 19.01C40.5575 19.1358 40.5361 19.2696 40.5411 19.4037L40.6095 21.2385L38.926 22.21C38.4058 21.6799 37.751 21.3017 37.032 21.1159V19.1728L38.6553 18.3147C38.8948 18.188 39.0742 17.9714 39.1539 17.7125C39.2337 17.4536 39.2074 17.1736 39.0807 16.934C38.9541 16.6945 38.7375 16.5152 38.4785 16.4354C38.2196 16.3556 37.9396 16.3819 37.7001 16.5086L37.032 16.862V15.8793Z" fill="white"/>
</svg>
