<svg width="59" height="61" viewBox="0 0 59 61" fill="none" xmlns="http://www.w3.org/2000/svg">
<path d="M50 0H10.6381C5.07194 0 0.808086 5.03839 2.25815 10.4124C11.5219 44.7441 34.382 57.0785 50.405 59.8695C55.1597 60.6977 59 56.6898 59 51.8635V9C59 4.02944 54.9706 0 50 0Z" fill="#460001"/>
<path d="M32.2899 14.4505C31.9943 14.0671 31.6343 13.7349 31.3001 13.4027C30.4388 12.636 29.4619 12.0865 28.6392 11.2815C26.7238 9.4159 26.2996 6.33637 27.5208 3.97241C26.2996 4.26631 25.2326 4.93077 24.3199 5.65913C20.9906 8.31698 19.6794 13.0066 21.2477 17.0317C21.2991 17.1595 21.3505 17.2872 21.3505 17.4534C21.3505 17.7345 21.1577 17.99 20.9006 18.0923C20.6049 18.22 20.2964 18.1434 20.0522 17.9389C19.9792 17.8782 19.9182 17.8045 19.8722 17.7217C18.4196 15.8944 18.1882 13.2749 19.1652 11.1793C17.0184 12.9171 15.8486 15.8561 16.0158 18.6289C16.0929 19.2678 16.17 19.9068 16.3885 20.5457C16.5685 21.3124 16.9156 22.079 17.3012 22.7563C18.6896 24.9669 21.0934 26.5514 23.6772 26.8708C26.4281 27.2159 29.3719 26.7175 31.4801 24.8263C33.8325 22.7052 34.6552 19.3062 33.4468 16.3928L33.2797 16.0605C33.0098 15.4727 32.2899 14.4505 32.2899 14.4505ZM28.2278 22.5007C27.8679 22.8074 27.2766 23.1396 26.8138 23.2674C25.374 23.7785 23.9343 23.063 23.0859 22.2196C24.6156 21.8618 25.5283 20.7373 25.7982 19.6001C26.0168 18.5778 25.6054 17.7345 25.4383 16.7506C25.2841 15.805 25.3098 14.9999 25.6568 14.1183C25.9011 14.6038 26.1582 15.0894 26.4667 15.4727C27.4565 16.7506 29.0119 17.3128 29.3462 19.0506C29.3976 19.2295 29.4233 19.4084 29.4233 19.6001C29.4619 20.6479 28.9991 21.7979 28.2278 22.5007Z" fill="white"/>
<path d="M46.032 28.3517C46.032 28.0807 45.9244 27.8209 45.7328 27.6293C45.5412 27.4377 45.2813 27.3301 45.0104 27.3301C44.7395 27.3301 44.4796 27.4377 44.288 27.6293C44.0965 27.8209 43.9888 28.0807 43.9888 28.3517V29.3344L43.3207 28.981C43.2021 28.9183 43.0723 28.8795 42.9388 28.867C42.8052 28.8544 42.6705 28.8683 42.5423 28.9078C42.4141 28.9473 42.2949 29.0117 42.1916 29.0972C42.0882 29.1828 42.0028 29.2879 41.9401 29.4065C41.8773 29.5251 41.8386 29.6548 41.826 29.7884C41.8135 29.922 41.8274 30.0567 41.8669 30.1849C41.9064 30.3131 41.9707 30.4323 42.0563 30.5356C42.1419 30.6389 42.247 30.7244 42.3656 30.7871L43.9888 31.6452V33.5883C43.2697 33.7744 42.6149 34.153 42.0948 34.6834L40.4113 33.7109L40.4797 31.8761C40.4897 31.6053 40.3918 31.3416 40.2074 31.143C40.023 30.9445 39.7673 30.8273 39.4965 30.8173C39.2257 30.8072 38.962 30.9052 38.7634 31.0896C38.5648 31.274 38.4476 31.5297 38.4376 31.8005L38.41 32.5555L37.559 32.0651C37.4427 31.9932 37.3132 31.9453 37.1781 31.9243C37.0429 31.9034 36.905 31.9098 36.7723 31.9432C36.6397 31.9765 36.5152 32.0362 36.406 32.1186C36.2969 32.201 36.2054 32.3044 36.137 32.4228C36.0686 32.5413 36.0247 32.6722 36.0078 32.8079C35.9909 32.9436 36.0015 33.0813 36.0388 33.2129C36.0762 33.3444 36.1396 33.4671 36.2252 33.5737C36.3109 33.6803 36.417 33.7686 36.5375 33.8335L37.3884 34.3248L36.7479 34.7273C36.5245 34.8742 36.3676 35.1027 36.3107 35.3639C36.2539 35.6252 36.3018 35.8983 36.444 36.1246C36.5863 36.351 36.8116 36.5125 37.0716 36.5747C37.3317 36.6368 37.6057 36.5945 37.8349 36.4569L39.3897 35.4802L41.0722 36.4517C40.8733 37.1676 40.8733 37.9241 41.0722 38.64L39.3897 39.6105L37.8349 38.6349C37.6057 38.4972 37.3317 38.4549 37.0716 38.5171C36.8116 38.5792 36.5863 38.7407 36.444 38.9671C36.3018 39.1934 36.2539 39.4665 36.3107 39.7278C36.3676 39.989 36.5245 40.2175 36.7479 40.3644L37.3884 40.7669L36.5375 41.2572C36.4212 41.3243 36.3193 41.4136 36.2376 41.5201C36.1559 41.6265 36.0959 41.7481 36.0611 41.8777C36.0264 42.0073 36.0175 42.1425 36.035 42.2756C36.0525 42.4086 36.096 42.537 36.1631 42.6532C36.2301 42.7695 36.3195 42.8714 36.4259 42.9531C36.5324 43.0348 36.6539 43.0948 36.7835 43.1295C36.9131 43.1643 37.0483 43.1732 37.1814 43.1557C37.3145 43.1382 37.4428 43.0947 37.559 43.0276L38.409 42.5362L38.4376 43.2922C38.4426 43.4263 38.474 43.5581 38.53 43.68C38.5859 43.802 38.6654 43.9117 38.7637 44.003C38.8621 44.0942 38.9775 44.1652 39.1033 44.2119C39.2291 44.2586 39.3629 44.28 39.497 44.275C39.6311 44.2699 39.7628 44.2385 39.8848 44.1826C40.0068 44.1266 40.1165 44.0472 40.2078 43.9488C40.299 43.8504 40.37 43.7351 40.4167 43.6093C40.4633 43.4834 40.4848 43.3497 40.4797 43.2156L40.4113 41.3808L42.0948 40.4083C42.6149 40.9387 43.2697 41.3173 43.9888 41.5034V43.4465L42.3656 44.3046C42.126 44.4313 41.9467 44.6479 41.8669 44.9068C41.7871 45.1657 41.8134 45.4457 41.9401 45.6852C42.0667 45.9248 42.2833 46.1041 42.5423 46.1839C42.8012 46.2637 43.0812 46.2374 43.3207 46.1107L43.9888 45.7573V46.74C43.9888 47.011 44.0965 47.2708 44.288 47.4624C44.4796 47.654 44.7395 47.7616 45.0104 47.7616C45.2813 47.7616 45.5412 47.654 45.7328 47.4624C45.9244 47.2708 46.032 47.011 46.032 46.74V45.7573L46.7001 46.1107C46.9396 46.2374 47.2196 46.2637 47.4785 46.1839C47.7375 46.1041 47.9541 45.9248 48.0807 45.6852C48.2074 45.4457 48.2337 45.1657 48.1539 44.9068C48.0742 44.6479 47.8948 44.4313 47.6553 44.3046L46.032 43.4465V41.5034C46.751 41.3176 47.4058 40.9394 47.926 40.4093L49.6095 41.3808L49.5411 43.2156C49.5361 43.3497 49.5575 43.4834 49.6042 43.6093C49.6508 43.7351 49.7218 43.8504 49.8131 43.9488C49.9043 44.0472 50.0141 44.1266 50.136 44.1826C50.258 44.2385 50.3898 44.2699 50.5238 44.275C50.6579 44.28 50.7917 44.2586 50.9175 44.2119C51.0433 44.1652 51.1587 44.0942 51.2571 44.003C51.3554 43.9117 51.4349 43.802 51.4908 43.68C51.5468 43.5581 51.5782 43.4263 51.5832 43.2922L51.6108 42.5362L52.4618 43.0276C52.578 43.0958 52.7066 43.1402 52.84 43.1585C52.9735 43.1767 53.1093 43.1684 53.2395 43.134C53.3698 43.0995 53.4919 43.0397 53.599 42.9578C53.706 42.876 53.7958 42.7738 53.8631 42.6571C53.9305 42.5405 53.9741 42.4116 53.9915 42.278C54.0088 42.1444 53.9996 42.0087 53.9643 41.8787C53.929 41.7486 53.8683 41.6269 53.7858 41.5204C53.7033 41.4139 53.6005 41.3248 53.4833 41.2583L52.6334 40.7679L53.2729 40.3654C53.5024 40.2213 53.6652 39.9919 53.7256 39.7277C53.7859 39.4635 53.7388 39.1861 53.5947 38.9566C53.4506 38.7272 53.2212 38.5643 52.957 38.504C52.6928 38.4436 52.4154 38.4907 52.1859 38.6349L50.6311 39.6115L48.9486 38.641C49.1477 37.9248 49.1477 37.1679 48.9486 36.4517L50.6311 35.4802L52.1859 36.4569C52.4154 36.601 52.6928 36.6481 52.957 36.5877C53.2212 36.5274 53.4506 36.3645 53.5947 36.1351C53.7388 35.9056 53.7859 35.6282 53.7256 35.364C53.6652 35.0998 53.5024 34.8704 53.2729 34.7263L52.6324 34.3248L53.4833 33.8335C53.6005 33.7669 53.7033 33.6778 53.7858 33.5713C53.8683 33.4648 53.929 33.3431 53.9643 33.213C53.9996 33.083 54.0088 32.9473 53.9915 32.8137C53.9741 32.6801 53.9305 32.5513 53.8631 32.4346C53.7958 32.3179 53.706 32.2157 53.599 32.1339C53.4919 32.052 53.3698 31.9922 53.2395 31.9577C53.1093 31.9233 52.9735 31.915 52.84 31.9332C52.7066 31.9515 52.578 31.9959 52.4618 32.0641L51.6108 32.5544L51.5832 31.7995C51.5782 31.6654 51.5468 31.5336 51.4908 31.4117C51.4349 31.2897 51.3554 31.18 51.2571 31.0887C51.1587 30.9975 51.0433 30.9265 50.9175 30.8798C50.7917 30.8331 50.6579 30.8117 50.5238 30.8167C50.3898 30.8218 50.258 30.8532 50.136 30.9091C50.0141 30.9651 49.9043 31.0445 49.8131 31.1429C49.7218 31.2413 49.6508 31.3566 49.6042 31.4825C49.5575 31.6083 49.5361 31.742 49.5411 31.8761L49.6095 33.7109L47.926 34.6824C47.4058 34.1523 46.751 33.7741 46.032 33.5883V31.6452L47.6553 30.7871C47.8948 30.6605 48.0742 30.4438 48.1539 30.1849C48.2337 29.926 48.2074 29.646 48.0807 29.4065C47.9541 29.1669 47.7375 28.9876 47.4785 28.9078C47.2196 28.828 46.9396 28.8543 46.7001 28.981L46.032 29.3344V28.3517Z" fill="white"/>
</svg>
