<svg width="59" height="61" viewBox="0 0 59 61" fill="none" xmlns="http://www.w3.org/2000/svg">
<path d="M50 0H10.6381C5.07194 0 0.808086 5.03839 2.25815 10.4124C11.5219 44.7441 34.382 57.0785 50.405 59.8695C55.1597 60.6977 59 56.6898 59 51.8635V9C59 4.02944 54.9706 0 50 0Z" fill="#460001"/>
<path d="M36.0236 20.6649C37.0502 17.1722 41.2081 15.7265 44.1793 17.8294C46.7494 19.6471 47.1805 23.2898 45.1062 25.6575L43.1565 27.8838C39.9058 31.5956 35.8004 34.4604 31.1948 36.2307L28.9785 37.0835C28.6537 37.208 28.295 37.2122 27.9673 37.0953C27.6396 36.9783 27.3646 36.748 27.192 36.446C27.0194 36.1439 26.9605 35.79 27.0261 35.4484C27.0917 35.1067 27.2774 34.7998 27.5496 34.5831L29.2813 33.2077C31.8756 31.1468 33.7695 28.3343 34.7037 25.1554L36.0236 20.6649Z" stroke="white" stroke-width="2"/>
<path d="M41.4268 16.9835C41.5763 16.5295 41.8298 16.1166 42.167 15.7778C42.5043 15.439 42.9159 15.1836 43.3692 15.0319C43.8225 14.8801 44.305 14.8363 44.7782 14.9039C45.2514 14.9714 45.7024 15.1485 46.0951 15.421C46.4878 15.6936 46.8116 16.054 47.0405 16.4736C47.2694 16.8933 47.3972 17.3605 47.4138 17.8383C47.4303 18.316 47.3351 18.791 47.1358 19.2255C46.9365 19.66 46.6384 20.0419 46.2655 20.341" stroke="white" stroke-width="2"/>
<path d="M48.9999 12.82L46.5083 15.3116" stroke="white" stroke-width="2" stroke-linecap="round"/>
</svg>
