<svg width="59" height="61" viewBox="0 0 59 61" fill="none" xmlns="http://www.w3.org/2000/svg">
<path d="M50 0H10.6381C5.07194 0 0.808086 5.03839 2.25815 10.4124C11.5219 44.7441 34.382 57.0785 50.405 59.8695C55.1597 60.6977 59 56.6898 59 51.8635V9C59 4.02944 54.9706 0 50 0Z" fill="#460001"/>
<path d="M43.2899 21.9781C42.9943 21.5947 42.6343 21.2625 42.3001 20.9303C41.4388 20.1636 40.4619 19.6141 39.6392 18.8091C37.7238 16.9435 37.2996 13.864 38.5208 11.5C37.2996 11.7939 36.2326 12.4584 35.3199 13.1867C31.9906 15.8446 30.6794 20.5341 32.2477 24.5593C32.2991 24.687 32.3505 24.8148 32.3505 24.9809C32.3505 25.2621 32.1577 25.5176 31.9006 25.6198C31.6049 25.7476 31.2964 25.671 31.0522 25.4665C30.9792 25.4058 30.9182 25.3321 30.8722 25.2493C29.4196 23.422 29.1882 20.8025 30.1652 18.7069C28.0184 20.4447 26.8486 23.3837 27.0158 26.1565C27.0929 26.7954 27.17 27.4343 27.3885 28.0732C27.5685 28.8399 27.9156 29.6066 28.3012 30.2839C29.6896 32.4945 32.0934 34.079 34.6772 34.3984C37.4281 34.7434 40.3719 34.2451 42.4801 32.3539C44.8325 30.2328 45.6552 26.8338 44.4468 23.9204L44.2797 23.5881C44.0098 23.0003 43.2899 21.9781 43.2899 21.9781ZM39.2278 30.0283C38.8679 30.335 38.2766 30.6672 37.8138 30.795C36.374 31.3061 34.9343 30.5905 34.0859 29.7472C35.6156 29.3894 36.5283 28.2649 36.7982 27.1277C37.0168 26.1054 36.6054 25.2621 36.4383 24.2781C36.2841 23.3326 36.3098 22.5275 36.6568 21.6458C36.9011 22.1314 37.1582 22.617 37.4667 23.0003C38.4565 24.2781 40.0119 24.8404 40.3462 26.5782C40.3976 26.7571 40.4233 26.936 40.4233 27.1277C40.4619 28.1755 39.9991 29.3255 39.2278 30.0283Z" fill="white"/>
</svg>
