<svg width="40" height="40" viewBox="0 0 40 40" fill="none" xmlns="http://www.w3.org/2000/svg">
<circle cx="20" cy="20" r="20" fill="#460001"/>
<path d="M23.4139 8.6931C23.556 8.68437 23.705 8.67714 23.8589 8.67272C24.8631 8.64391 26.1903 8.72031 27.1671 9.24155C28.0387 9.70663 28.649 10.54 29.0816 11.4481C29.5168 12.3619 29.7988 13.4073 29.9836 14.3784C30.1691 15.353 30.2607 16.2743 30.306 16.9503C30.3287 17.2889 30.34 17.5676 30.3455 17.7626C30.3483 17.8601 30.3496 17.9368 30.3503 17.9897C30.3506 18.0161 30.3508 18.0366 30.3509 18.0508C30.3509 18.0579 30.3509 18.0635 30.3509 18.0674C30.3509 18.0693 30.3509 18.0709 30.3509 18.072C30.3509 18.0726 30.3509 18.0731 30.3509 18.0734C30.3509 18.0736 30.3509 18.0738 30.3509 18.0739L29.8005 18.0738L30.3509 18.0742L30.348 19.9015L29.3425 18.3809C29.3412 18.3791 29.3387 18.3756 29.3352 18.3708C29.3274 18.3598 29.3139 18.3416 29.2954 18.3181C29.2581 18.2708 29.2012 18.2033 29.127 18.1288C28.9747 17.976 28.7701 17.8146 28.5327 17.7223C28.3074 17.6347 28.0465 17.6058 27.7392 17.7185C27.4203 17.8355 27.0021 18.1236 26.514 18.7672C26.3438 18.9917 26.1146 19.0827 25.9154 19.1164C25.8977 19.1755 25.8757 19.2343 25.8495 19.2921C25.6217 19.7957 25.014 20.4285 23.7977 21.3016C20.806 23.4493 18.447 24.9152 14.5274 25.8889C12.3299 26.4348 11.0215 26.5944 8.75826 26.5926L8.7321 26.5926L8.70606 26.5901C8.19576 26.5408 7.74911 26.4136 7.4265 26.1482C7.07177 25.8563 6.93862 25.4584 6.95654 25.051C6.97313 24.674 7.11671 24.2858 7.29924 23.9209C7.48572 23.5482 7.73744 23.1525 8.01705 22.7509C8.56415 21.965 9.29785 21.0482 9.91285 20.2113C10.3445 19.624 10.7357 19.1086 11.026 18.5856C11.1151 18.5631 11.1975 18.5471 11.2864 18.5183L11.2868 18.5183C11.2873 18.5181 11.2881 18.5179 11.2891 18.5176C11.2912 18.5169 11.2944 18.5159 11.2988 18.5145C11.3076 18.5117 11.321 18.5073 11.3387 18.5017C11.3742 18.4905 11.4273 18.4739 11.4962 18.4527C11.6339 18.4105 11.8348 18.3502 12.0851 18.2787C12.5862 18.1357 13.2835 17.9484 14.0679 17.7715C15.6582 17.4128 17.5295 17.1155 18.859 17.2694C19.9805 17.3993 21.4113 17.8639 22.5912 18.313C23.1747 18.5351 23.6854 18.7489 24.0499 18.9071C24.232 18.9861 24.3774 19.0512 24.4767 19.0962C24.5264 19.1187 24.5645 19.1363 24.59 19.1481C24.6027 19.1539 24.6123 19.1584 24.6186 19.1613C24.6217 19.1628 24.624 19.1638 24.6255 19.1645C24.6262 19.1648 24.6267 19.1651 24.627 19.1652L24.6273 19.1654L25.3147 19.4883L25.4071 18.7313L25.4072 18.7311C25.4072 18.731 25.4072 18.7308 25.4072 18.7307C25.4073 18.7303 25.4073 18.7298 25.4074 18.7292C25.4075 18.7281 25.4077 18.7265 25.408 18.7244C25.4085 18.7203 25.4092 18.7143 25.4101 18.7066C25.4119 18.6911 25.4145 18.6685 25.4178 18.6394C25.4243 18.5811 25.4335 18.4964 25.4443 18.3893C25.4658 18.175 25.4938 17.8705 25.5197 17.5068C25.5715 16.7816 25.6161 15.8122 25.5841 14.8526C25.5278 13.1642 24.9173 11.5342 24.3414 10.3482C24.0512 9.75065 23.7645 9.2552 23.5497 8.90816C23.5005 8.82859 23.4549 8.75673 23.4139 8.6931ZM20.1944 7.07704C20.6268 7.02769 21.0003 7.20681 21.2767 7.4102C21.5559 7.61571 21.9394 7.96692 22.1423 8.45885C22.2259 8.66145 22.1807 8.84532 22.2921 9.00004C22.2922 9.00018 22.2923 9.00041 22.2925 9.00066C22.2931 9.00157 22.2943 9.00318 22.296 9.00551C22.2993 9.01021 22.3047 9.01785 22.3119 9.02817C22.3262 9.04882 22.3482 9.08047 22.3764 9.12247C22.433 9.20653 22.5151 9.33182 22.6145 9.49256C22.8138 9.81443 23.0813 10.2766 23.3518 10.8337C23.8974 11.9573 24.4348 13.4252 24.4837 14.8906C24.5139 15.7968 24.472 16.7239 24.4216 17.4286C24.4108 17.5804 24.3994 17.7215 24.3885 17.8493C24.0215 17.6914 23.5338 17.4888 22.9822 17.2789C21.7897 16.8249 20.2514 16.3173 18.986 16.1708C17.4557 15.9936 15.4246 16.3323 13.8275 16.6924C13.0182 16.875 12.3004 17.0678 11.785 17.215C11.669 17.2481 11.5632 17.279 11.4687 17.3069C11.5621 16.7605 11.5991 16.1947 11.6271 15.6083C11.6642 14.8354 11.686 14.0063 11.8292 13.2278C11.975 12.4357 12.252 11.6546 12.8237 10.9628C13.3932 10.2737 14.2205 9.71503 15.398 9.30266C16.2099 8.97897 17.0498 8.766 17.681 8.63396C17.9992 8.5674 18.2678 8.52068 18.4579 8.49051C18.4692 8.48871 18.4803 8.48705 18.4911 8.48537C18.5731 8.35311 18.6891 8.17855 18.831 7.99909C18.9776 7.81375 19.1627 7.60937 19.3779 7.44071C19.589 7.27526 19.8667 7.11445 20.1944 7.07704ZM19.6091 11.314C19.6152 11.2658 19.5983 11.2063 19.4285 11.2661C18.7676 11.4986 15.4757 13.2857 15.4952 13.2714C15.4881 13.2666 15.6893 12.9469 15.7256 12.9093C15.7898 12.8429 15.7304 12.7531 15.6391 12.7918C15.4841 12.8576 15.2445 13.3898 15.2445 13.3898C15.2401 13.3915 14.6459 13.6285 14.492 13.7622C14.4557 13.7938 14.4845 13.8988 14.5389 13.9025C14.6572 13.9106 15.1065 13.7471 15.1065 13.7471C15.1057 13.7488 14.9865 14.006 15.1158 14.1193C15.1456 14.1454 15.2392 14.1231 15.1885 14.044C15.1516 13.9867 15.2608 13.7159 15.2972 13.699C15.8068 13.4652 19.9685 13.3521 20.0404 13.4077C20.1124 13.4632 20.1593 13.3187 19.9708 13.2676C19.7822 13.2164 17.0939 13.282 15.3838 13.5044C15.6381 13.4029 17.7965 12.093 19.4479 11.3956C19.5129 11.3681 19.6047 11.3486 19.6091 11.314ZM18.169 13.5203C18.1269 13.4956 18.0606 13.4961 18.0151 13.5242C17.9845 13.5431 17.9712 13.5652 17.9629 13.6002C17.9579 13.6353 17.9648 13.6683 17.9847 13.6975C18.0066 13.7248 18.0375 13.7379 18.0717 13.7424C18.111 13.7432 18.1452 13.735 18.1754 13.709C18.1776 13.7066 18.1796 13.7042 18.1817 13.7018C18.185 13.7106 18.1883 13.7191 18.1916 13.7276C18.2031 13.7265 18.2143 13.7255 18.2255 13.7244C18.2219 13.6859 18.2185 13.6485 18.2151 13.6111C18.1755 13.6148 18.137 13.6183 18.0986 13.6219C18.0996 13.6335 18.1007 13.6447 18.1017 13.6559C18.1261 13.655 18.1498 13.6541 18.1735 13.6531C18.1676 13.6682 18.1555 13.6784 18.1419 13.6864C18.1066 13.7031 18.0594 13.7136 18.0282 13.6818C17.9993 13.6523 18.0007 13.6082 18.019 13.58C18.0237 13.5728 18.0345 13.5625 18.0381 13.5609C18.0645 13.548 18.0852 13.5446 18.1146 13.5482C18.1298 13.5512 18.1394 13.5566 18.1513 13.5677C18.1589 13.5747 18.1675 13.5887 18.1676 13.5889L18.209 13.5851C18.209 13.5851 18.2049 13.561 18.197 13.5481C18.189 13.5349 18.1809 13.5273 18.169 13.5203ZM17.7108 13.7759C17.7249 13.7746 17.7386 13.7734 17.7522 13.7721C17.7484 13.7155 17.7446 13.6606 17.7409 13.6056C17.7485 13.6151 17.7565 13.6239 17.7649 13.6327C17.782 13.6507 17.7988 13.6688 17.8149 13.6877C17.8229 13.6973 17.8907 13.7586 17.8913 13.7592L17.9364 13.755C17.9364 13.755 17.9268 13.6038 17.9196 13.5282C17.9042 13.5296 17.8893 13.531 17.8744 13.5324C17.8781 13.5877 17.8854 13.695 17.8854 13.695L17.8245 13.6283C17.8236 13.6274 17.7931 13.5958 17.7787 13.5788C17.7738 13.5731 17.7437 13.5453 17.7429 13.5446C17.7429 13.5446 17.7076 13.5478 17.6902 13.5494C17.6973 13.6264 17.704 13.7012 17.7108 13.7759ZM17.6067 13.633C17.6079 13.6464 17.6091 13.6599 17.6103 13.6733C17.6115 13.6864 17.6126 13.6995 17.6138 13.7127C17.6142 13.7178 17.6147 13.7227 17.6152 13.7276C17.6156 13.7327 17.616 13.7375 17.6164 13.7424C17.6169 13.747 17.6173 13.7514 17.6177 13.7559C17.6181 13.7599 17.6184 13.7639 17.6187 13.7679C17.62 13.7767 17.62 13.7767 17.6241 13.7801C17.6382 13.7788 17.6518 13.7776 17.6654 13.7763C17.6584 13.6993 17.6516 13.6246 17.6448 13.5498C17.6295 13.5512 17.6146 13.5526 17.5997 13.554C17.6021 13.5803 17.6044 13.6067 17.6067 13.633ZM17.3498 13.8055C17.3638 13.8042 17.3775 13.803 17.3911 13.8017C17.3873 13.7452 17.3835 13.6902 17.3797 13.6353C17.3873 13.6447 17.3954 13.6535 17.4037 13.6623C17.4209 13.6803 17.4377 13.6984 17.4538 13.7174C17.4617 13.7268 17.5282 13.7871 17.5301 13.7888L17.5753 13.7846C17.5751 13.7826 17.5656 13.6329 17.5584 13.5579C17.543 13.5593 17.5282 13.5606 17.5133 13.562C17.517 13.6171 17.5243 13.7238 17.5243 13.7247L17.4634 13.658C17.4634 13.658 17.4322 13.6257 17.4176 13.6085C17.4127 13.6026 17.3817 13.5742 17.3817 13.5742C17.3804 13.5743 17.3462 13.5775 17.3292 13.5791C17.3362 13.6561 17.343 13.7308 17.3498 13.8055ZM17.2595 13.8139C17.2749 13.8125 17.2898 13.8112 17.3047 13.8098C17.2977 13.7328 17.2909 13.658 17.2841 13.5833C17.2687 13.5847 17.2538 13.5861 17.2389 13.5874C17.2459 13.6644 17.2527 13.7392 17.2595 13.8139ZM16.9828 13.6908C16.984 13.7042 16.9852 13.7177 16.9864 13.7311C16.9876 13.7443 16.9888 13.7574 16.99 13.7705C16.9904 13.7756 16.9908 13.7806 16.9913 13.7855C16.9917 13.7905 16.9921 13.7954 16.9925 13.8002C16.993 13.8048 16.9934 13.8093 16.9938 13.8137C16.9944 13.8207 16.9952 13.8276 16.9962 13.8345C17.0003 13.8379 17.0002 13.838 17.011 13.8375C17.0159 13.837 17.0206 13.8366 17.0253 13.8362C17.0305 13.8357 17.0357 13.8352 17.0409 13.8348C17.0491 13.834 17.0573 13.8332 17.0655 13.8324C17.0708 13.832 17.0762 13.8315 17.0815 13.831C17.0854 13.8306 17.0854 13.8306 17.0892 13.8302C17.1217 13.8272 17.1552 13.8214 17.1804 13.7992C17.2049 13.7736 17.2206 13.7456 17.2206 13.7093C17.2179 13.676 17.2057 13.6484 17.181 13.6257C17.1527 13.6042 17.1187 13.5978 17.0838 13.601C17.081 13.6013 17.0783 13.6015 17.0756 13.6018C17.0667 13.6027 17.0578 13.6036 17.0489 13.6045C17.0427 13.6052 17.0365 13.6057 17.0303 13.6064C17.0122 13.6081 16.994 13.61 16.9758 13.6118C16.9782 13.6382 16.9805 13.6645 16.9828 13.6908ZM16.5925 13.6474C16.5936 13.6589 16.5942 13.6706 16.5967 13.6819C16.5974 13.6842 16.5981 13.6865 16.5988 13.6887C16.5995 13.6913 16.6003 13.6939 16.601 13.6965C16.6128 13.736 16.617 13.7706 16.6132 13.8118C16.6127 13.8159 16.6127 13.8159 16.6123 13.8199C16.612 13.8226 16.6117 13.8253 16.6115 13.8279C16.6099 13.8417 16.6099 13.8417 16.6132 13.8739C16.6358 13.8719 16.6585 13.8698 16.6812 13.8678C16.6904 13.8669 16.6996 13.8661 16.7088 13.8652C16.7224 13.864 16.7361 13.8628 16.7497 13.8616C16.7541 13.8612 16.7583 13.8608 16.7626 13.8604C16.7669 13.86 16.771 13.8597 16.7752 13.8593C16.7791 13.8589 16.783 13.8586 16.7868 13.8582C16.7903 13.8579 16.7937 13.8576 16.7971 13.8573C16.8048 13.8561 16.8048 13.8561 16.8082 13.852C16.8072 13.8405 16.8062 13.8292 16.8051 13.818C16.731 13.8229 16.731 13.8229 16.6583 13.8278C16.6591 13.8083 16.6598 13.7894 16.6606 13.7705C16.704 13.7665 16.7462 13.7625 16.7884 13.7586C16.7872 13.7458 16.786 13.7333 16.7849 13.7209C16.7414 13.7236 16.6991 13.7263 16.6568 13.729C16.6528 13.7125 16.6488 13.6965 16.6448 13.6806C16.6934 13.6761 16.7405 13.6717 16.7876 13.6673C16.7865 13.6545 16.7853 13.642 16.7842 13.6296C16.719 13.6356 16.6558 13.6415 16.5925 13.6474ZM16.3632 13.6686C16.3829 13.7441 16.3911 13.7929 16.3845 13.8679C16.3834 13.8793 16.3816 13.885 16.3876 13.8948C16.4103 13.8927 16.433 13.8907 16.4556 13.8887C16.4648 13.8878 16.474 13.887 16.4832 13.8861C16.4969 13.8849 16.5106 13.8837 16.5242 13.8825C16.5286 13.8821 16.5328 13.8817 16.5371 13.8813C16.5414 13.8809 16.5455 13.8806 16.5497 13.8802C16.5536 13.8798 16.5575 13.8795 16.5614 13.8791C16.5649 13.8788 16.5682 13.8785 16.5716 13.8782C16.5793 13.877 16.5793 13.877 16.5827 13.8729C16.5817 13.8613 16.5806 13.8501 16.5796 13.8389C16.5298 13.8435 16.4814 13.848 16.4331 13.8525C16.4337 13.8317 16.4345 13.8116 16.4351 13.7914C16.4798 13.7873 16.5232 13.7832 16.5666 13.7792C16.5635 13.7452 16.5635 13.7452 16.5594 13.7418C16.5527 13.7422 16.5461 13.7426 16.5395 13.7432C16.5366 13.7435 16.5339 13.7438 16.5311 13.7441C16.5222 13.7449 16.5134 13.7458 16.5046 13.7466C16.4984 13.7472 16.4922 13.7478 16.486 13.7484C16.4718 13.7497 16.4575 13.7511 16.4433 13.7525C16.4374 13.7531 16.4374 13.7531 16.4317 13.7537C16.4275 13.736 16.4234 13.7187 16.4193 13.7015C16.4692 13.6969 16.5176 13.6924 16.5659 13.6879C16.5648 13.6751 16.5636 13.6626 16.5625 13.6502C16.4948 13.6565 16.429 13.6625 16.3632 13.6686ZM16.1636 13.7668C16.1648 13.7802 16.166 13.7936 16.1672 13.807C16.1683 13.8202 16.1695 13.8334 16.1706 13.8465C16.1711 13.8516 16.1716 13.8566 16.172 13.8615C16.1725 13.8665 16.1729 13.8713 16.1733 13.8761C16.1737 13.8807 16.1741 13.8853 16.1745 13.8897C16.1751 13.8967 16.1759 13.9036 16.1768 13.9105C16.1809 13.9139 16.181 13.9139 16.1895 13.9137C16.1947 13.9132 16.1947 13.9131 16.1998 13.9127C16.206 13.9121 16.2123 13.9114 16.2186 13.9105C16.222 13.9063 16.222 13.9063 16.2216 13.8979C16.2213 13.8941 16.2209 13.8905 16.2206 13.8869C16.2202 13.8833 16.2199 13.8798 16.2195 13.8763C16.2168 13.8479 16.2168 13.8479 16.2141 13.8195C16.2601 13.8153 16.3047 13.8111 16.3494 13.807C16.3481 13.7929 16.3468 13.7791 16.3455 13.7654C16.2995 13.7697 16.2549 13.7739 16.2102 13.778C16.2085 13.7588 16.2068 13.7401 16.2051 13.7214C16.2524 13.717 16.2983 13.7127 16.3442 13.7084C16.343 13.6956 16.3419 13.6832 16.3407 13.6707C16.2781 13.6765 16.2174 13.6822 16.1566 13.6878C16.1589 13.7141 16.1612 13.7405 16.1636 13.7668ZM15.7776 13.7167C15.7596 13.7182 15.7427 13.7199 15.7259 13.7271C15.6932 13.7449 15.6724 13.7691 15.6604 13.8047C15.6521 13.8371 15.6594 13.8709 15.6758 13.8992C15.6939 13.9277 15.7179 13.9438 15.7508 13.9514C15.7965 13.9558 15.8459 13.9502 15.8825 13.9206C15.9082 13.8968 15.9195 13.8673 15.9211 13.8323C15.9195 13.7994 15.9077 13.7702 15.8852 13.746C15.8552 13.7206 15.8276 13.7134 15.7891 13.7158C15.7852 13.7161 15.7814 13.7164 15.7776 13.7167ZM15.9589 13.9307C15.9728 13.9295 16.0032 13.9266 16.004 13.9265L15.996 13.8397C15.996 13.8397 16.0111 13.8383 16.0243 13.8376C16.0293 13.8371 16.0343 13.8366 16.0392 13.8362C16.0446 13.8357 16.05 13.8352 16.0553 13.8347C16.0638 13.8339 16.0723 13.8331 16.0808 13.8324C16.0864 13.8319 16.0919 13.8314 16.0975 13.8308C16.1002 13.8306 16.1028 13.8304 16.1054 13.8301C16.115 13.8292 16.1352 13.8273 16.1352 13.8273C16.1351 13.8265 16.1325 13.7976 16.1314 13.7853C16.0832 13.7897 15.9936 13.7981 15.9923 13.7982L15.9872 13.7415C15.9893 13.7413 16.0834 13.7326 16.13 13.7283C16.1287 13.7142 16.1274 13.7005 16.1262 13.6868C16.0623 13.6928 16.0003 13.6985 15.9383 13.7042C15.9453 13.7812 15.9521 13.856 15.9589 13.9307ZM17.0601 13.6416C17.0846 13.6389 17.1061 13.6378 17.1303 13.6432C17.15 13.6519 17.1623 13.6653 17.1704 13.6851C17.1765 13.705 17.1783 13.7278 17.1687 13.7467C17.1668 13.7495 17.1649 13.7522 17.163 13.7549C17.1611 13.7576 17.1593 13.7603 17.1574 13.763C17.1378 13.7825 17.1161 13.7866 17.0896 13.7888C17.0854 13.7891 17.0814 13.7894 17.0773 13.7896C17.0639 13.7907 17.0508 13.7917 17.0378 13.7926C17.0332 13.7426 17.0288 13.694 17.0244 13.6454C17.0424 13.6435 17.0424 13.6435 17.0601 13.6416ZM15.5091 13.7416C15.4798 13.744 15.4567 13.7463 15.4323 13.7664C15.412 13.7831 15.402 13.8042 15.3957 13.823C15.3869 13.8557 15.3909 13.8963 15.407 13.9262C15.4258 13.952 15.4534 13.9693 15.4843 13.9762C15.5288 13.9803 15.5763 13.9747 15.6119 13.9459C15.6354 13.9232 15.641 13.9007 15.6425 13.8687C15.6271 13.8701 15.6123 13.8715 15.5974 13.8728C15.5966 13.8781 15.5958 13.8833 15.595 13.8884C15.5831 13.9103 15.5691 13.9221 15.5458 13.9309C15.5188 13.9373 15.4938 13.9364 15.4693 13.9229C15.4528 13.9067 15.4442 13.8895 15.4404 13.8667C15.4399 13.8402 15.4445 13.8219 15.462 13.8016C15.4836 13.7854 15.5076 13.782 15.5362 13.7834C15.555 13.7843 15.5723 13.7954 15.5797 13.8041C15.5876 13.8134 15.5902 13.8216 15.5936 13.8314C15.6089 13.83 15.6238 13.8286 15.6386 13.8272C15.6365 13.804 15.6311 13.7889 15.6152 13.772C15.5862 13.7468 15.558 13.7384 15.5201 13.7407C15.5146 13.7411 15.5146 13.7411 15.5091 13.7416ZM15.7236 13.7812C15.7583 13.7457 15.8228 13.7473 15.8539 13.7768C15.867 13.7892 15.8705 13.8029 15.8741 13.8184C15.877 13.845 15.8714 13.8631 15.8555 13.8845C15.8388 13.9027 15.8196 13.9102 15.7955 13.913C15.7634 13.9145 15.7434 13.9058 15.7196 13.8844C15.7054 13.8649 15.7014 13.8451 15.7026 13.8213C15.706 13.8061 15.7087 13.7965 15.7236 13.7812ZM16.8842 13.7079C16.8687 13.7093 16.8572 13.7232 16.8586 13.7388C16.8601 13.7545 16.8738 13.766 16.8894 13.7645C16.9049 13.7631 16.9164 13.7492 16.915 13.7336C16.9135 13.7179 16.8998 13.7064 16.8842 13.7079ZM19.2168 12.1041C19.1014 12.1064 19.1381 12.2348 19.0771 12.256C18.9798 12.2897 18.8474 12.3134 18.7608 12.3405C18.7055 12.3578 18.7112 12.4496 18.7536 12.4496C18.8571 12.4495 19.0326 12.3976 19.035 12.3969C18.9796 12.5252 18.9484 12.5972 18.898 12.7237C18.8953 12.7253 18.5468 12.9242 18.5416 12.8671C18.5378 12.8256 18.5861 12.7735 18.599 12.7495C18.6096 12.7299 18.5936 12.689 18.5936 12.689C18.595 12.6892 18.6458 12.6953 18.654 12.6664C18.6624 12.637 18.7371 12.5719 18.7363 12.5293C18.7347 12.4457 18.6487 12.427 18.5885 12.4878C18.5139 12.5633 18.5497 12.6646 18.5497 12.6646C18.5497 12.6646 18.5157 12.6665 18.4977 12.6771C18.4168 12.7246 18.3561 12.9109 18.45 12.986C18.559 13.0729 18.8132 12.8984 18.8153 12.897C18.8141 12.8991 18.7477 13.0272 18.76 13.06C18.7767 13.1043 18.8455 13.1047 18.8683 13.0633C18.9513 12.9128 19.1267 12.4325 19.1929 12.3823C19.2815 12.315 19.5048 12.3324 19.5005 12.2852C19.4975 12.2531 19.5013 12.2322 19.4717 12.2194C19.4283 12.2006 19.2471 12.2288 19.2471 12.2288C19.2471 12.2288 19.3208 12.1021 19.2168 12.1041ZM17.749 12.4439C17.7862 12.4157 17.7644 12.3016 17.6623 12.3453C17.5602 12.389 17.3558 12.663 17.2179 12.9175C17.2171 12.9169 17.1881 12.8959 17.1666 12.8956C17.0547 12.8946 16.7751 12.9243 16.6982 12.9543C16.5766 13.0017 16.5614 13.3038 16.7286 13.2884C16.981 13.265 16.9185 13.0423 16.9185 13.0423C17.0103 13.0079 17.0646 13.0039 17.1638 13.01C17.1638 13.01 17.1036 13.0975 17.1079 13.1447C17.1143 13.2148 17.1484 13.2353 17.1837 13.229C17.2732 13.2131 17.4475 12.9528 17.4979 12.9753C17.5019 13.0187 17.503 13.1094 17.5816 13.1445C17.6976 13.1963 17.9075 12.9982 17.9075 12.9982C17.9079 12.9999 17.9267 13.0683 18.004 13.0807C18.1762 13.1082 18.3437 12.7402 18.4341 12.5801C18.4582 12.5373 18.392 12.458 18.345 12.518C18.2462 12.6442 18.0668 12.9492 18.0362 12.9558C18.033 12.9494 18.1235 12.7358 18.0302 12.7242C17.9136 12.7098 17.9184 12.8691 17.9184 12.8697C17.8245 12.8994 17.674 13.056 17.6368 13.0234C17.5998 12.9907 17.6317 12.9114 17.5762 12.8767C17.5016 12.83 17.352 12.9336 17.352 12.9336C17.4881 12.6941 17.7117 12.4721 17.749 12.4439ZM19.5345 12.4734C19.4347 12.4806 19.3212 12.4981 19.235 12.5251C19.1996 12.5362 19.1744 12.5644 19.1575 12.5933C19.1403 12.623 19.1285 12.6587 19.1218 12.6944C19.115 12.7302 19.113 12.7682 19.1169 12.8029C19.1206 12.8367 19.1304 12.8721 19.1512 12.8986C19.1948 12.9541 19.2709 12.9573 19.331 12.9407C19.3933 12.9235 19.4576 12.881 19.4916 12.8181C19.51 12.7841 19.5132 12.7397 19.5134 12.7098C19.5134 12.7008 19.513 12.6924 19.5127 12.6849C19.5283 12.68 19.5498 12.6744 19.5743 12.6703C19.6286 12.6611 19.6906 12.6602 19.7376 12.6812C19.7637 12.6929 19.7969 12.6954 19.8217 12.6707C19.842 12.6505 19.8451 12.6221 19.8441 12.6025C19.843 12.5809 19.8365 12.5579 19.8256 12.538C19.8148 12.5183 19.7974 12.4977 19.7721 12.487C19.7475 12.4765 19.7106 12.4721 19.6724 12.4705C19.6324 12.4687 19.5847 12.4698 19.5345 12.4734ZM16.7932 13.0407C16.8042 13.0373 16.8148 13.048 16.8158 13.0595C16.8186 13.0913 16.7308 13.169 16.7293 13.1703C16.7295 13.169 16.7493 13.0543 16.7932 13.0407ZM19.3375 12.6585C19.3484 12.6551 19.359 12.6659 19.3601 12.6773C19.363 12.7092 19.2747 12.7871 19.2735 12.7881C19.2738 12.7863 19.2936 12.672 19.3375 12.6585Z" fill="#FFFAFA"/>
<path d="M20.4613 26.9372C20.763 26.8663 21.0646 27.0434 21.1348 27.3326C21.2049 27.6219 21.0173 27.9138 20.7156 27.9846L18.2404 28.5659C17.9387 28.6367 17.6373 28.4596 17.5671 28.1704C17.4969 27.8812 17.6846 27.5892 17.9863 27.5184L20.4613 26.9372Z" fill="#FFFAFA"/>
<path d="M17.9903 24.2609C17.9375 23.9625 18.1362 23.6759 18.4341 23.6207C18.732 23.5654 19.0162 23.7624 19.069 24.0608L19.3517 25.6587C19.4045 25.957 19.2058 26.2436 18.9079 26.2989C18.6101 26.3541 18.3258 26.1571 18.273 25.8588L17.9903 24.2609Z" fill="#FFFAFA"/>
<path d="M27.5632 16.908C28.9792 16.6408 30.0898 17.656 30.464 18.9139C31.0587 20.9126 30.6644 22.2209 30.0051 23.0338C29.6875 23.4255 29.3293 23.6752 29.0515 23.8272C29.0075 23.8512 28.9652 23.8728 28.9252 23.8923C28.9104 24.0953 28.8817 24.3709 28.8253 24.699C28.7046 25.4013 28.4565 26.353 27.945 27.349C26.9098 29.3648 24.821 31.5075 20.6988 32.1663C19.5317 32.3528 18.4667 32.0004 17.555 31.4171C16.6484 30.837 15.8663 30.0129 15.2329 29.1949C14.5969 28.3736 14.0934 27.5357 13.7497 26.9059C13.5774 26.5902 13.4442 26.3249 13.3536 26.1373C13.3083 26.0435 13.2735 25.969 13.2498 25.9173C13.238 25.8914 13.2289 25.8712 13.2226 25.8572C13.2195 25.8502 13.217 25.8446 13.2152 25.8407C13.2144 25.8387 13.2137 25.8372 13.2132 25.836C13.2129 25.8355 13.2128 25.835 13.2126 25.8346C13.2125 25.8344 13.2124 25.8341 13.2124 25.834C13.2128 25.8336 13.2291 25.8263 13.7145 25.6125L13.2122 25.8337L12.9562 25.2477L13.5727 25.0815C13.5727 25.0815 13.5728 25.0814 13.573 25.0814C13.5732 25.0813 13.5737 25.0812 13.5744 25.0811C13.5757 25.0807 13.5778 25.0801 13.5806 25.0793C13.5862 25.0778 13.5949 25.0754 13.6065 25.0722C13.6295 25.0659 13.664 25.0563 13.7089 25.0437C13.7989 25.0184 13.9308 24.9807 14.0968 24.9317C14.429 24.8336 14.897 24.6904 15.4388 24.5102C16.5266 24.1483 17.8944 23.6432 19.0549 23.0615C20.1078 22.5337 21.6776 21.6472 23.0405 20.8359C23.7207 20.431 24.3447 20.0476 24.8223 19.7402C25.0615 19.5863 25.2606 19.4537 25.4104 19.3482C25.4587 19.3141 25.5005 19.2836 25.5361 19.2571C25.5428 19.2213 25.5506 19.182 25.5597 19.14C25.6038 18.9384 25.6806 18.6624 25.8125 18.3723C26.0738 17.7979 26.592 17.0912 27.5632 16.908ZM29.4132 19.2297C29.1449 18.3279 28.4603 17.8576 27.7647 17.9889C27.2854 18.0793 26.995 18.4216 26.8102 18.8278C26.7191 19.028 26.6635 19.2253 26.631 19.3743C26.6149 19.4479 26.6049 19.5075 26.5991 19.5469C26.5962 19.5666 26.5944 19.5811 26.5934 19.5896C26.5929 19.5938 26.5926 19.5965 26.5925 19.5977L26.5925 19.5981L26.575 19.7896L26.4399 19.9292C26.3464 20.0258 26.1933 20.1399 26.0399 20.2479C25.8726 20.3658 25.6593 20.5077 25.4137 20.6657C24.9218 20.9823 24.2863 21.3726 23.5994 21.7815C22.2278 22.5979 20.6319 23.5 19.5442 24.0451C18.3149 24.6613 16.8901 25.1858 15.7829 25.5541C15.2726 25.7238 14.826 25.8613 14.4919 25.9608C14.555 26.0843 14.6284 26.2242 14.7118 26.377C15.0376 26.9739 15.5099 27.7585 16.0993 28.5197C16.6913 29.2841 17.3843 30.0026 18.1457 30.4897C18.9019 30.9736 19.6978 31.2129 20.5276 31.0803C24.2847 30.4798 26.0856 28.5692 26.9702 26.8464C27.4186 25.9733 27.6379 25.1343 27.7446 24.5134C27.7979 24.2037 27.8227 23.9504 27.8343 23.7773C27.84 23.6908 27.8425 23.6245 27.8435 23.5815C27.844 23.56 27.8442 23.5443 27.8442 23.5348C27.8442 23.5301 27.8442 23.5268 27.8442 23.5252C27.8442 23.5245 27.8442 23.5241 27.8442 23.5241L27.838 23.0993L28.2435 22.9876C28.2431 22.9877 28.2431 22.9877 28.2434 22.9876C28.2443 22.9873 28.2475 22.9864 28.2527 22.9847C28.2632 22.9813 28.2819 22.9748 28.3073 22.965C28.3584 22.9452 28.4355 22.912 28.5273 22.8617C28.7121 22.7607 28.9478 22.5957 29.1548 22.3404C29.5448 21.8595 29.9236 20.9454 29.4132 19.2297Z" fill="#FFFAFA"/>
</svg>
