<svg width="20" height="20" viewBox="0 0 20 20" fill="none" xmlns="http://www.w3.org/2000/svg">
<path d="M14.7142 13.8808L11.1783 17.4167C11.0237 17.5715 10.8401 17.6942 10.638 17.778C10.4359 17.8618 10.2192 17.9049 10.0004 17.9049C9.78163 17.9049 9.56498 17.8618 9.36287 17.778C9.16075 17.6942 8.97713 17.5715 8.8225 17.4167L5.28583 13.8808C4.35352 12.9485 3.71861 11.7606 3.46141 10.4674C3.2042 9.17419 3.33624 7.83376 3.84084 6.61561C4.34543 5.39745 5.19991 4.35628 6.29623 3.62376C7.39255 2.89123 8.68147 2.50024 10 2.50024C11.3185 2.50024 12.6074 2.89123 13.7038 3.62376C14.8001 4.35628 15.6546 5.39745 16.1592 6.61561C16.6638 7.83376 16.7958 9.17419 16.5386 10.4674C16.2814 11.7606 15.6465 12.9485 14.7142 13.8808V13.8808Z" stroke="white" stroke-width="1.5" stroke-linecap="round" stroke-linejoin="round"/>
<path d="M11.7678 10.9344C12.2366 10.4656 12.5 9.82967 12.5 9.16663C12.5 8.50358 12.2366 7.8677 11.7678 7.39886C11.2989 6.93002 10.663 6.66663 10 6.66663C9.33696 6.66663 8.70107 6.93002 8.23223 7.39886C7.76339 7.8677 7.5 8.50358 7.5 9.16663C7.5 9.82967 7.76339 10.4656 8.23223 10.9344C8.70107 11.4032 9.33696 11.6666 10 11.6666C10.663 11.6666 11.2989 11.4032 11.7678 10.9344Z" stroke="white" stroke-width="1.5" stroke-linecap="round" stroke-linejoin="round"/>
</svg>
