<svg width="36" height="36" viewBox="0 0 36 36" fill="none" xmlns="http://www.w3.org/2000/svg">
<path d="M25.5 12L31.5 18L25.5 24M31.5 18H10.5M19.5 24V25.5C19.5 26.6935 19.0259 27.8381 18.182 28.682C17.3381 29.5259 16.1935 30 15 30H9C7.80653 30 6.66193 29.5259 5.81802 28.682C4.97411 27.8381 4.5 26.6935 4.5 25.5V10.5C4.5 9.30653 4.97411 8.16193 5.81802 7.31802C6.66193 6.47411 7.80653 6 9 6H15C16.1935 6 17.3381 6.47411 18.182 7.31802C19.0259 8.16193 19.5 9.30653 19.5 10.5V12" stroke="white" stroke-width="2" stroke-linecap="round" stroke-linejoin="round"/>
</svg>
