<svg width="32" height="32" viewBox="0 0 32 32" fill="none" xmlns="http://www.w3.org/2000/svg">
<path d="M21.8239 3.19168C21.9923 3.18133 22.1688 3.17276 22.3513 3.16752C23.5414 3.13338 25.1144 3.22393 26.2721 3.84169C27.3051 4.3929 28.0285 5.38056 28.5412 6.4569C29.057 7.53989 29.3912 8.77884 29.6103 9.92981C29.8301 11.0849 29.9386 12.1769 29.9923 12.978C30.0192 13.3793 30.0326 13.7096 30.0391 13.9407C30.0424 14.0562 30.044 14.1471 30.0448 14.2098C30.0452 14.2411 30.0454 14.2655 30.0455 14.2823C30.0455 14.2907 30.0455 14.2973 30.0455 14.302C30.0455 14.3042 30.0455 14.3061 30.0455 14.3074C30.0455 14.3081 30.0456 14.3087 30.0456 14.3091C30.0455 14.3093 30.0455 14.3096 30.0455 14.3097L29.3931 14.3095L30.0456 14.31L30.0421 16.4757L28.8503 14.6735C28.8488 14.6714 28.8459 14.6673 28.8418 14.6615C28.8324 14.6485 28.8165 14.627 28.7946 14.5991C28.7504 14.543 28.6829 14.463 28.5949 14.3747C28.4144 14.1937 28.1719 14.0023 27.8907 13.893C27.6236 13.7891 27.3144 13.7549 26.9502 13.8885C26.5722 14.0271 26.0765 14.3685 25.4981 15.1314C25.2964 15.3974 25.0247 15.5053 24.7887 15.5453C24.7676 15.6153 24.7416 15.6849 24.7106 15.7534C24.4405 16.3503 23.7203 17.1003 22.2788 18.1351C18.733 20.6805 15.9372 22.4179 11.2918 23.5719C8.68729 24.2189 7.13665 24.408 4.45424 24.4058L4.42323 24.4059L4.39237 24.4029C3.78757 24.3445 3.25821 24.1937 2.87585 23.8792C2.45543 23.5333 2.29763 23.0616 2.31886 22.5788C2.33852 22.1319 2.50869 21.6719 2.72503 21.2395C2.94604 20.7977 3.24437 20.3288 3.57576 19.8527C4.22418 18.9213 5.09375 17.8348 5.82264 16.8429C6.33417 16.1469 6.79788 15.5359 7.14192 14.9161C7.24753 14.8895 7.34523 14.8705 7.45049 14.8364L7.45108 14.8363C7.4516 14.8362 7.45253 14.8359 7.45374 14.8355C7.45619 14.8347 7.46008 14.8335 7.46525 14.8318C7.47566 14.8285 7.4915 14.8234 7.51251 14.8167C7.55463 14.8034 7.61756 14.7837 7.69917 14.7587C7.86243 14.7086 8.10053 14.6371 8.39719 14.5524C8.99104 14.3829 9.81745 14.1609 10.7471 13.9513C12.632 13.5262 14.8498 13.1737 16.4255 13.3562C17.7546 13.5101 19.4505 14.0608 20.8489 14.5931C21.5404 14.8563 22.1456 15.1097 22.5776 15.2972C22.7935 15.3908 22.9658 15.4679 23.0835 15.5213C23.1423 15.548 23.1876 15.5688 23.2178 15.5828C23.2328 15.5897 23.2442 15.595 23.2516 15.5985C23.2553 15.6002 23.2581 15.6014 23.2598 15.6022C23.2606 15.6026 23.2613 15.6029 23.2617 15.6031L23.262 15.6032L24.0767 15.9859L24.1862 15.0888L24.1863 15.0886C24.1863 15.0884 24.1863 15.0882 24.1864 15.0881C24.1864 15.0877 24.1865 15.087 24.1865 15.0864C24.1867 15.085 24.1869 15.0831 24.1872 15.0806C24.1878 15.0757 24.1887 15.0686 24.1897 15.0595C24.1919 15.0411 24.195 15.0144 24.1988 14.9798C24.2066 14.9108 24.2175 14.8104 24.2303 14.6834C24.2558 14.4295 24.2889 14.0686 24.3197 13.6376C24.3811 12.778 24.4339 11.6291 24.396 10.4919C24.3292 8.49078 23.6057 6.55885 22.9232 5.15331C22.5792 4.44508 22.2394 3.85787 21.9848 3.44656C21.9265 3.35226 21.8725 3.2671 21.8239 3.19168ZM18.0082 1.27634C18.5207 1.21786 18.9633 1.43015 19.2909 1.6712C19.6219 1.91477 20.0764 2.33102 20.3168 2.91405C20.4159 3.15417 20.3623 3.37209 20.4943 3.55546C20.4944 3.55563 20.4946 3.5559 20.4948 3.5562C20.4956 3.55727 20.497 3.55918 20.4989 3.56194C20.5029 3.56751 20.5092 3.57657 20.5178 3.5888C20.5348 3.61327 20.5608 3.65078 20.5943 3.70056C20.6613 3.80019 20.7586 3.94868 20.8765 4.13918C21.1126 4.52067 21.4296 5.06843 21.7503 5.72874C22.397 7.06033 23.0339 8.80005 23.0918 10.5369C23.1276 11.6109 23.0779 12.7096 23.0182 13.5448C23.0054 13.7247 22.9919 13.892 22.979 14.0435C22.5441 13.8563 21.966 13.6163 21.3122 13.3674C19.8989 12.8294 18.0757 12.2278 16.576 12.0542C14.7623 11.8441 12.355 12.2455 10.4622 12.6724C9.50306 12.8887 8.65237 13.1173 8.04144 13.2917C7.90401 13.331 7.77859 13.3675 7.66667 13.4006C7.77728 12.753 7.8211 12.0824 7.8544 11.3874C7.89828 10.4715 7.92413 9.48878 8.09392 8.56614C8.26669 7.6273 8.59498 6.70164 9.27259 5.88171C9.94755 5.06499 10.928 4.40285 12.3236 3.91412C13.2858 3.53048 14.2813 3.27807 15.0293 3.12159C15.4064 3.0427 15.7248 2.98732 15.9501 2.95157C15.9635 2.94943 15.9767 2.94747 15.9894 2.94548C16.0867 2.78873 16.2241 2.58184 16.3923 2.36914C16.5661 2.14948 16.7855 1.90725 17.0405 1.70736C17.2907 1.51127 17.6198 1.32068 18.0082 1.27634ZM17.3145 6.29791C17.3218 6.24084 17.3017 6.17032 17.1005 6.24111C16.3172 6.51672 12.4156 8.63473 12.4387 8.61777C12.4303 8.61213 12.6688 8.23322 12.7119 8.18867C12.7879 8.10998 12.7175 8.00348 12.6093 8.04934C12.4256 8.12732 12.1416 8.75814 12.1416 8.75814C12.1365 8.76018 11.4322 9.04102 11.2497 9.19954C11.2067 9.23699 11.2409 9.36141 11.3053 9.36581C11.4455 9.37535 11.9781 9.18162 11.9781 9.18162C11.9771 9.18362 11.8358 9.4885 11.9891 9.62268C12.0245 9.65368 12.1354 9.62719 12.0752 9.53353C12.0315 9.46556 12.161 9.14458 12.2041 9.12459C12.8081 8.84753 17.7404 8.71345 17.8257 8.77932C17.911 8.84511 17.9666 8.67389 17.7432 8.61326C17.5197 8.55261 14.3335 8.63042 12.3067 8.894C12.6081 8.77365 15.1662 7.22121 17.1234 6.39461C17.2004 6.36208 17.3093 6.33899 17.3145 6.29791ZM15.6076 8.91278C15.5578 8.88357 15.4792 8.88406 15.4252 8.91748C15.3891 8.93988 15.3733 8.96598 15.3635 9.00752C15.3575 9.04904 15.3657 9.08824 15.3893 9.12279C15.4153 9.15518 15.4518 9.17067 15.4923 9.17607C15.539 9.17696 15.5795 9.16723 15.6153 9.13647C15.6178 9.13356 15.6203 9.13076 15.6227 9.12793C15.6267 9.1383 15.6306 9.14838 15.6345 9.15843C15.6481 9.15717 15.6614 9.15596 15.6746 9.15473C15.6705 9.1091 15.6664 9.06475 15.6623 9.02046C15.6154 9.02481 15.5698 9.02901 15.5243 9.03323C15.5255 9.04692 15.5267 9.06026 15.5279 9.07355C15.5568 9.0724 15.585 9.07132 15.613 9.07021C15.6061 9.08807 15.5917 9.10018 15.5756 9.10968C15.5337 9.12951 15.4778 9.14185 15.4409 9.1042C15.4065 9.06923 15.4083 9.01694 15.4299 8.98355C15.4355 8.97498 15.4483 8.96284 15.4526 8.96095C15.4839 8.94568 15.5084 8.94159 15.5433 8.94582C15.5613 8.94947 15.5727 8.95586 15.5867 8.96899C15.5957 8.97733 15.6059 8.99381 15.6061 8.9941L15.6551 8.98961C15.6551 8.98961 15.6503 8.96104 15.6409 8.94572C15.6314 8.9301 15.6219 8.92112 15.6076 8.91278ZM15.0647 9.21573C15.0814 9.21418 15.0976 9.21273 15.1137 9.21123C15.1092 9.14417 15.1048 9.07903 15.1003 9.01393C15.1093 9.02514 15.1189 9.03555 15.1288 9.04597C15.1491 9.06729 15.1689 9.0888 15.188 9.11123C15.1975 9.12254 15.2779 9.19527 15.2786 9.19589L15.332 9.19096C15.332 9.19096 15.3207 9.01174 15.3121 8.92216C15.2939 8.92384 15.2762 8.92546 15.2585 8.9271C15.263 8.99265 15.2716 9.11988 15.2716 9.11988L15.1994 9.04082C15.1983 9.03969 15.1622 9.00231 15.1451 8.98219C15.1393 8.97532 15.1036 8.94241 15.1027 8.94155C15.1027 8.94155 15.0609 8.94537 15.0403 8.94727C15.0486 9.03853 15.0566 9.12715 15.0647 9.21573ZM14.9413 9.04642C14.9427 9.0623 14.9441 9.07822 14.9455 9.0941C14.9469 9.10967 14.9483 9.12523 14.9497 9.1408C14.9502 9.14683 14.9508 9.1527 14.9513 9.15855C14.9518 9.16448 14.9523 9.17027 14.9528 9.17602C14.9533 9.18145 14.9539 9.18672 14.9543 9.192C14.9548 9.19682 14.9551 9.20155 14.9556 9.20623C14.957 9.2167 14.9571 9.21667 14.9619 9.22073C14.9786 9.21918 14.9947 9.21774 15.0109 9.21624C15.0026 9.12498 14.9945 9.03637 14.9864 8.94779C14.9683 8.94948 14.9506 8.95109 14.933 8.95272C14.9358 8.98393 14.9385 9.01521 14.9413 9.04642ZM14.6367 9.25086C14.6534 9.24932 14.6696 9.24787 14.6858 9.24637C14.6812 9.1793 14.6767 9.11418 14.6723 9.04908C14.6813 9.06029 14.6908 9.07071 14.7007 9.08112C14.721 9.10245 14.741 9.12393 14.7601 9.14637C14.7694 9.15756 14.8483 9.22903 14.8505 9.23104L14.904 9.2261C14.9039 9.22371 14.8926 9.04627 14.884 8.95731C14.8658 8.95899 14.8482 8.9606 14.8306 8.96224C14.835 9.02751 14.8436 9.15395 14.8437 9.15502L14.7715 9.07606C14.7715 9.07606 14.7345 9.03776 14.7171 9.01733C14.7113 9.01037 14.6746 8.9767 14.6746 8.9767C14.6731 8.97684 14.6325 8.98064 14.6123 8.98251C14.6206 9.07375 14.6287 9.16231 14.6367 9.25086ZM14.5298 9.26083C14.548 9.25915 14.5657 9.25753 14.5833 9.25589C14.575 9.16463 14.567 9.07602 14.5589 8.98744C14.5407 8.98912 14.523 8.99074 14.5054 8.99238C14.5137 9.08364 14.5218 9.17225 14.5298 9.26083ZM14.2019 9.11488C14.2033 9.13078 14.2047 9.14677 14.2061 9.16266C14.2075 9.17823 14.2089 9.19379 14.2103 9.20935C14.2109 9.21538 14.2114 9.22126 14.2119 9.22711C14.2124 9.23304 14.2129 9.23883 14.2134 9.24458C14.2139 9.25002 14.2144 9.25529 14.2149 9.26056C14.2156 9.2688 14.2165 9.27703 14.2177 9.28522C14.2225 9.28927 14.2225 9.28933 14.2353 9.28872C14.241 9.28819 14.2467 9.28766 14.2523 9.28715C14.2584 9.28659 14.2646 9.28606 14.2707 9.28549C14.2804 9.28456 14.2901 9.28361 14.2998 9.28273C14.3061 9.28217 14.3125 9.2816 14.3189 9.28101C14.3234 9.28058 14.3235 9.28052 14.3279 9.2801C14.3665 9.27649 14.4061 9.26969 14.436 9.24332C14.4651 9.21301 14.4836 9.1798 14.4836 9.13675C14.4805 9.09735 14.466 9.06464 14.4368 9.03774C14.4032 9.01221 14.3629 9.00461 14.3216 9.00845C14.3183 9.0088 14.3151 9.0091 14.3118 9.00944C14.3013 9.01046 14.2907 9.01152 14.2801 9.01261C14.2728 9.01337 14.2655 9.01407 14.2582 9.01479C14.2366 9.0169 14.2151 9.01906 14.1936 9.02128C14.1963 9.05248 14.1991 9.08369 14.2019 9.11488ZM13.7393 9.0634C13.7406 9.07709 13.7413 9.09093 13.7442 9.10435C13.7451 9.10707 13.7459 9.10975 13.7467 9.11239C13.7476 9.11549 13.7485 9.11856 13.7494 9.12158C13.7633 9.16848 13.7683 9.20945 13.7638 9.25826C13.7633 9.26314 13.7632 9.26314 13.7627 9.26792C13.7623 9.27112 13.7621 9.27425 13.7617 9.27736C13.7599 9.29369 13.7598 9.29372 13.7637 9.33185C13.7906 9.32946 13.8175 9.32704 13.8443 9.3246C13.8552 9.32361 13.8661 9.32259 13.877 9.3216C13.8932 9.32016 13.9094 9.31874 13.9256 9.31727C13.9308 9.3168 13.9358 9.31637 13.9408 9.31591C13.9459 9.31546 13.9509 9.31501 13.9558 9.31458C13.9605 9.31415 13.965 9.31372 13.9696 9.3133C13.9737 9.31292 13.9778 9.31257 13.9818 9.3122C13.9909 9.31082 13.9909 9.31079 13.9949 9.30594C13.9937 9.29225 13.9925 9.27891 13.9913 9.26562C13.9034 9.2715 13.9034 9.27148 13.8172 9.27723C13.8182 9.25416 13.819 9.23176 13.8199 9.20937C13.8714 9.20459 13.9214 9.19989 13.9714 9.19526C13.97 9.18006 13.9686 9.16529 13.9673 9.15053C13.9157 9.15379 13.8656 9.15697 13.8155 9.16012C13.8107 9.14063 13.806 9.12167 13.8013 9.10275C13.8588 9.09741 13.9147 9.09224 13.9705 9.08707C13.9692 9.07187 13.9678 9.0571 13.9665 9.04234C13.8892 9.0495 13.8143 9.05645 13.7393 9.0634ZM13.4675 9.08861C13.4909 9.17806 13.5006 9.23583 13.4927 9.32474C13.4914 9.33826 13.4893 9.34503 13.4965 9.35662C13.5233 9.35422 13.5502 9.35181 13.5771 9.34937C13.588 9.34837 13.5989 9.34736 13.6098 9.34637C13.6259 9.34493 13.6422 9.34351 13.6583 9.34203C13.6635 9.34156 13.6685 9.34113 13.6736 9.34067C13.6786 9.34022 13.6836 9.33978 13.6885 9.33934C13.6932 9.33891 13.6978 9.33847 13.7024 9.33805C13.7065 9.33768 13.7105 9.33733 13.7145 9.33697C13.7236 9.33558 13.7236 9.33556 13.7277 9.3307C13.7264 9.31701 13.7252 9.30367 13.724 9.29039C13.6649 9.29586 13.6076 9.3012 13.5503 9.30652C13.5511 9.2819 13.552 9.25801 13.5527 9.23412C13.6057 9.22921 13.6572 9.22444 13.7086 9.21967C13.7049 9.17941 13.7049 9.17936 13.7 9.1753C13.6921 9.17575 13.6843 9.17626 13.6764 9.17699C13.673 9.17732 13.6698 9.17767 13.6665 9.178C13.656 9.17899 13.6455 9.18002 13.635 9.18104C13.6277 9.18176 13.6204 9.18242 13.6131 9.18312C13.5962 9.18473 13.5793 9.18637 13.5624 9.18801C13.5555 9.18869 13.5555 9.18873 13.5487 9.18939C13.5437 9.1684 13.5389 9.14799 13.534 9.12761C13.5931 9.12213 13.6504 9.11679 13.7078 9.11148C13.7064 9.09628 13.705 9.08151 13.7037 9.06676C13.6234 9.0742 13.5454 9.08139 13.4675 9.08861ZM13.2309 9.20494C13.2323 9.22083 13.2338 9.23673 13.2352 9.25262C13.2365 9.26821 13.2379 9.28384 13.2393 9.29942C13.2398 9.30545 13.2404 9.31133 13.2409 9.31717C13.2414 9.32308 13.2419 9.32881 13.2424 9.33455C13.2429 9.33999 13.2434 9.34535 13.2439 9.35063C13.2446 9.35887 13.2455 9.3671 13.2466 9.37529C13.2515 9.37935 13.2515 9.37935 13.2616 9.37902C13.2678 9.37843 13.2678 9.3784 13.2738 9.37783C13.2812 9.37716 13.2887 9.37633 13.2961 9.37521C13.3001 9.37033 13.3001 9.37027 13.2997 9.36028C13.2993 9.35588 13.2989 9.35162 13.2985 9.34735C13.2981 9.34305 13.2976 9.33887 13.2972 9.3347C13.294 9.30108 13.294 9.30106 13.2907 9.26746C13.3453 9.26241 13.3982 9.25747 13.4511 9.25257C13.4496 9.23584 13.448 9.21957 13.4466 9.20333C13.3921 9.20839 13.3391 9.21332 13.2862 9.21823C13.2841 9.19542 13.2822 9.17327 13.2801 9.15114C13.3362 9.14594 13.3906 9.14084 13.445 9.13579C13.4436 9.12059 13.4422 9.10583 13.4409 9.09107C13.3667 9.09795 13.2947 9.10467 13.2226 9.11134C13.2254 9.14254 13.2281 9.17375 13.2309 9.20494ZM12.7734 9.1456C12.7521 9.14734 12.732 9.14939 12.7122 9.15793C12.6735 9.17902 12.6488 9.20769 12.6345 9.24992C12.6248 9.28825 12.6334 9.3283 12.6528 9.36183C12.6742 9.3956 12.7028 9.41479 12.7417 9.42369C12.7959 9.42901 12.8545 9.42234 12.8977 9.3872C12.9282 9.359 12.9416 9.32408 12.9435 9.28264C12.9416 9.2436 12.9277 9.20894 12.901 9.18032C12.8654 9.15023 12.8328 9.14169 12.7871 9.14453C12.7825 9.14492 12.7779 9.14522 12.7734 9.1456ZM12.9883 9.39925C13.0048 9.39773 13.0408 9.39431 13.0417 9.39423L13.0323 9.29134C13.0323 9.29134 13.0502 9.28971 13.0658 9.28885C13.0718 9.28829 13.0777 9.28772 13.0835 9.28719C13.0899 9.2866 13.0963 9.28603 13.1026 9.28545C13.1127 9.28449 13.1228 9.28357 13.1328 9.28266C13.1394 9.28207 13.146 9.28146 13.1525 9.28085C13.1557 9.28055 13.1589 9.28028 13.162 9.27999C13.1733 9.27893 13.1973 9.27668 13.1973 9.27668C13.1972 9.27567 13.1941 9.2414 13.1928 9.22685C13.1356 9.23215 13.0294 9.24206 13.0279 9.2422L13.0218 9.17501C13.0243 9.17478 13.1358 9.16444 13.1911 9.15932C13.1896 9.14262 13.188 9.1264 13.1866 9.11019C13.1109 9.11721 13.0374 9.12399 12.9639 9.1308C12.9722 9.22206 12.9803 9.31067 12.9883 9.39925ZM14.2934 9.05661C14.3225 9.05337 14.348 9.05201 14.3767 9.05846C14.4 9.06877 14.4145 9.08465 14.4242 9.1081C14.4315 9.13169 14.4336 9.15872 14.4222 9.18113C14.4199 9.1844 14.4176 9.18762 14.4154 9.19079C14.4131 9.19406 14.411 9.19724 14.4088 9.20042C14.3855 9.22353 14.3599 9.22841 14.3284 9.23106C14.3234 9.23139 14.3187 9.23171 14.3139 9.23203C14.298 9.23322 14.2825 9.23441 14.267 9.23556C14.2616 9.17624 14.2563 9.11866 14.2511 9.06108C14.2724 9.05882 14.2725 9.05883 14.2934 9.05661ZM12.4553 9.17508C12.4205 9.17788 12.3931 9.18069 12.3642 9.20444C12.3401 9.22423 12.3283 9.24926 12.3208 9.27161C12.3104 9.31037 12.3151 9.35846 12.3342 9.39384C12.3565 9.42446 12.3892 9.44495 12.4259 9.45308C12.4786 9.45801 12.5349 9.45139 12.5771 9.41718C12.6049 9.39031 12.6115 9.36362 12.6133 9.32569C12.5951 9.32738 12.5775 9.32899 12.5599 9.33062C12.5589 9.33685 12.558 9.34297 12.557 9.34902C12.543 9.37503 12.5264 9.38898 12.4987 9.39947C12.4667 9.40707 12.4372 9.40597 12.408 9.3899C12.3885 9.37071 12.3783 9.35032 12.3738 9.32336C12.3732 9.29193 12.3786 9.27029 12.3994 9.24625C12.425 9.22695 12.4535 9.22297 12.4873 9.22463C12.5096 9.22573 12.5302 9.23888 12.5389 9.24918C12.5482 9.26018 12.5513 9.26995 12.5553 9.28149C12.5735 9.2798 12.5911 9.27819 12.6088 9.27656C12.6062 9.24899 12.5998 9.23112 12.581 9.21112C12.5467 9.1813 12.5132 9.17127 12.4683 9.17399C12.4617 9.17454 12.4617 9.17454 12.4553 9.17508ZM12.7094 9.22203C12.7505 9.17991 12.8271 9.18186 12.8639 9.21678C12.8794 9.23148 12.8836 9.24773 12.8878 9.26613C12.8912 9.29767 12.8847 9.31913 12.8657 9.34449C12.846 9.36607 12.8233 9.37493 12.7947 9.37825C12.7566 9.38001 12.7329 9.36974 12.7048 9.34429C12.6879 9.32126 12.6831 9.29771 12.6845 9.2695C12.6886 9.2515 12.6918 9.24012 12.7094 9.22203ZM14.085 9.13509C14.0666 9.1368 14.053 9.15328 14.0547 9.17181C14.0564 9.19033 14.0727 9.20399 14.0911 9.20228C14.1095 9.20056 14.1231 9.18408 14.1215 9.16555C14.1197 9.14705 14.1034 9.1334 14.085 9.13509ZM16.8495 7.23438C16.7128 7.23707 16.7563 7.38926 16.684 7.41433C16.5686 7.45436 16.4117 7.48243 16.3091 7.5145C16.2436 7.53497 16.2503 7.64387 16.3006 7.64386C16.4233 7.64369 16.6312 7.58223 16.6341 7.58138C16.5684 7.73338 16.5314 7.81876 16.4717 7.9687C16.4685 7.97052 16.0554 8.2063 16.0493 8.13864C16.0448 8.08943 16.102 8.02772 16.1174 7.99923C16.1299 7.97608 16.1109 7.92762 16.1109 7.92762C16.1126 7.92782 16.1728 7.935 16.1826 7.90074C16.1925 7.86598 16.281 7.78872 16.2801 7.7383C16.2782 7.63922 16.1763 7.617 16.1049 7.68915C16.0165 7.77856 16.0589 7.89866 16.0589 7.89866C16.0589 7.89866 16.0186 7.9009 15.9973 7.91342C15.9014 7.96972 15.8294 8.19058 15.9408 8.2795C16.0699 8.38258 16.3712 8.17575 16.3737 8.17405C16.3723 8.17662 16.2935 8.32837 16.3082 8.36729C16.328 8.41974 16.4094 8.42027 16.4365 8.37117C16.5348 8.19285 16.7427 7.6235 16.8212 7.56401C16.9262 7.48435 17.1908 7.50496 17.1857 7.44904C17.1823 7.41091 17.1867 7.38614 17.1517 7.37098C17.1002 7.34872 16.8854 7.38213 16.8854 7.38213C16.8854 7.38213 16.9728 7.23197 16.8495 7.23438ZM15.1099 7.63706C15.154 7.60363 15.1282 7.46842 15.0072 7.52016C14.8861 7.57199 14.6439 7.89678 14.4805 8.19838C14.4795 8.19768 14.4451 8.17272 14.4197 8.17247C14.2871 8.17123 13.9556 8.20645 13.8645 8.24196C13.7204 8.29821 13.7024 8.65627 13.9006 8.63792C14.1997 8.61017 14.1256 8.34629 14.1256 8.34629C14.2345 8.30549 14.2988 8.30078 14.4163 8.30805C14.4163 8.30805 14.345 8.41174 14.3501 8.46766C14.3577 8.55068 14.3981 8.57501 14.44 8.56757C14.5461 8.54868 14.7526 8.24025 14.8124 8.26689C14.8171 8.31835 14.8184 8.42582 14.9115 8.46742C15.049 8.52883 15.2978 8.29406 15.2978 8.29406C15.2983 8.29601 15.3206 8.37708 15.4122 8.39177C15.6162 8.42441 15.8147 7.98828 15.9219 7.79855C15.9505 7.74773 15.872 7.65383 15.8163 7.72484C15.6992 7.87451 15.4865 8.23599 15.4503 8.24382C15.4465 8.23618 15.5538 7.98297 15.4432 7.96929C15.305 7.95223 15.3107 8.14104 15.3107 8.14175C15.1994 8.17694 15.021 8.36251 14.977 8.32386C14.933 8.28508 14.9709 8.19115 14.9051 8.14996C14.8167 8.09472 14.6394 8.21748 14.6394 8.21748C14.8007 7.93356 15.0657 7.67052 15.1099 7.63706ZM17.2261 7.672C17.1078 7.68054 16.9732 7.70127 16.8711 7.73326C16.8291 7.74641 16.7993 7.77987 16.7793 7.81417C16.7589 7.8493 16.7449 7.89167 16.7369 7.93398C16.7289 7.97644 16.7266 8.0214 16.7311 8.06252C16.7356 8.10258 16.7471 8.14452 16.7718 8.17597C16.8235 8.24175 16.9137 8.2455 16.9848 8.22585C17.0587 8.20544 17.1349 8.15507 17.1752 8.08055C17.197 8.04033 17.2008 7.98762 17.201 7.95225C17.2011 7.94159 17.2007 7.93157 17.2002 7.92269C17.2188 7.9169 17.2442 7.91025 17.2732 7.90537C17.3376 7.89453 17.4111 7.89345 17.4668 7.91835C17.4977 7.93214 17.5371 7.93514 17.5664 7.9059C17.5905 7.88189 17.5942 7.84824 17.593 7.825C17.5917 7.79944 17.584 7.77214 17.571 7.74855C17.5582 7.7253 17.5377 7.70088 17.5077 7.68814C17.4785 7.67574 17.4348 7.67053 17.3895 7.66854C17.3421 7.66646 17.2855 7.66772 17.2261 7.672ZM13.9771 8.34436C13.9901 8.34036 14.0027 8.35309 14.0039 8.36668C14.0073 8.4044 13.9032 8.49644 13.9014 8.49799C13.9017 8.49646 13.925 8.36047 13.9771 8.34436ZM16.9926 7.89139C17.0056 7.88742 17.0181 7.90014 17.0194 7.91371C17.0228 7.95148 16.9182 8.04379 16.9167 8.04504C16.9171 8.04285 16.9406 7.90742 16.9926 7.89139Z" fill="white"/>
<path d="M18.3241 24.8142C18.6817 24.7302 19.0391 24.9401 19.1223 25.2829C19.2054 25.6257 18.983 25.9716 18.6255 26.0556L15.6919 26.7445C15.3344 26.8285 14.9771 26.6186 14.8939 26.2758C14.8107 25.933 15.0331 25.587 15.3907 25.5031L18.3241 24.8142Z" fill="white"/>
<path d="M15.3955 21.6426C15.3329 21.289 15.5684 20.9493 15.9215 20.8838C16.2745 20.8183 16.6114 21.0519 16.674 21.4054L17.0091 23.2992C17.0716 23.6528 16.8361 23.9925 16.4831 24.058C16.13 24.1235 15.7931 23.89 15.7306 23.5364L15.3955 21.6426Z" fill="white"/>
<path d="M26.7412 12.9281C28.4195 12.6114 29.7357 13.8146 30.1793 15.3055C30.884 17.6743 30.4168 19.2249 29.6354 20.1883C29.2589 20.6525 28.8345 20.9485 28.5052 21.1286C28.453 21.1571 28.4029 21.1826 28.3555 21.2058C28.338 21.4464 28.3039 21.773 28.2371 22.1618C28.094 22.9942 27.7999 24.1221 27.1937 25.3026C25.9669 27.6917 23.4913 30.2312 18.6057 31.012C17.2224 31.233 15.9602 30.8153 14.8797 30.124C13.8052 29.4365 12.8783 28.4598 12.1276 27.4904C11.3738 26.5169 10.777 25.5239 10.3697 24.7774C10.1655 24.4033 10.0076 24.0888 9.90022 23.8665C9.8465 23.7553 9.80533 23.667 9.77725 23.6057C9.76321 23.5751 9.75244 23.5512 9.74499 23.5345C9.74127 23.5262 9.73831 23.5196 9.73625 23.515C9.73523 23.5127 9.73442 23.5108 9.73382 23.5094C9.73352 23.5088 9.73332 23.5082 9.73312 23.5077C9.73303 23.5075 9.7329 23.5072 9.73285 23.5071C9.73341 23.5066 9.75264 23.4979 10.3279 23.2446L9.73271 23.5067L9.4292 22.8121L10.1599 22.6152C10.1599 22.6152 10.1601 22.6151 10.1602 22.6151C10.1605 22.615 10.1612 22.6149 10.1619 22.6147C10.1635 22.6142 10.1659 22.6135 10.1693 22.6126C10.176 22.6108 10.1863 22.608 10.1999 22.6042C10.2272 22.5967 10.2681 22.5854 10.3214 22.5704C10.428 22.5404 10.5843 22.4958 10.7811 22.4377C11.1747 22.3214 11.7295 22.1516 12.3716 21.938C13.6608 21.5092 15.2819 20.9105 16.6574 20.2211C17.9053 19.5956 19.7657 18.5449 21.381 17.5834C22.1872 17.1034 22.9267 16.6491 23.4928 16.2848C23.7763 16.1024 24.0122 15.9451 24.1897 15.8201C24.247 15.7797 24.2966 15.7436 24.3388 15.7122C24.3467 15.6697 24.3559 15.6232 24.3668 15.5734C24.419 15.3344 24.51 15.0074 24.6664 14.6636C24.9761 13.9828 25.5902 13.1452 26.7412 12.9281ZM28.9338 15.6797C28.6158 14.6109 27.8045 14.0536 26.9801 14.2091C26.4121 14.3163 26.0678 14.722 25.8488 15.2034C25.7409 15.4407 25.675 15.6745 25.6364 15.8511C25.6173 15.9383 25.6055 16.009 25.5986 16.0557C25.5952 16.079 25.5931 16.0962 25.5919 16.1062C25.5913 16.1112 25.5909 16.1145 25.5908 16.1158L25.5907 16.1163L25.57 16.3433L25.41 16.5087C25.2992 16.6232 25.1177 16.7584 24.9359 16.8865C24.7376 17.0262 24.4848 17.1943 24.1937 17.3817C23.6107 17.7568 22.8575 18.2194 22.0434 18.704C20.4179 19.6717 18.5264 20.7408 17.2373 21.3869C15.7803 22.1172 14.0917 22.7388 12.7794 23.1753C12.1746 23.3764 11.6453 23.5394 11.2493 23.6573C11.3241 23.8037 11.4112 23.9695 11.51 24.1506C11.896 24.8581 12.4558 25.7879 13.1544 26.69C13.856 27.5961 14.6774 28.4476 15.5797 29.0249C16.476 29.5984 17.4193 29.882 18.4028 29.7248C22.8556 29.0132 24.99 26.7487 26.0384 24.707C26.5699 23.6721 26.8298 22.6778 26.9563 21.9419C27.0194 21.5748 27.0488 21.2746 27.0625 21.0694C27.0693 20.9669 27.0723 20.8884 27.0735 20.8374C27.0741 20.8119 27.0743 20.7933 27.0743 20.7821C27.0743 20.7764 27.0742 20.7726 27.0742 20.7707C27.0742 20.7698 27.0743 20.7693 27.0743 20.7693L27.0669 20.2659L27.5475 20.1335C27.547 20.1336 27.547 20.1336 27.5474 20.1335C27.5485 20.1332 27.5522 20.1321 27.5584 20.1301C27.5709 20.126 27.593 20.1184 27.6232 20.1067C27.6838 20.0832 27.7751 20.0439 27.8839 19.9844C28.1028 19.8646 28.3822 19.669 28.6275 19.3665C29.0898 18.7965 29.5388 17.7131 28.9338 15.6797Z" fill="white"/>
</svg>
