<svg width="19" height="19" viewBox="0 0 19 19" fill="none" xmlns="http://www.w3.org/2000/svg">
<path d="M3.16699 3.77053V7.97577H3.65654M3.65654 7.97577C4.21493 6.59488 5.21576 5.43825 6.50216 4.68716C7.78856 3.93606 9.28784 3.63295 10.765 3.82532C12.2422 4.01769 13.6138 4.69467 14.6649 5.75017C15.716 6.80567 16.3872 8.18003 16.5732 9.65786M3.65654 7.97577H7.37272M16.6253 17.2273V13.022H16.1366M16.1366 13.022C15.5774 14.4021 14.5763 15.5578 13.29 16.3083C12.0038 17.0587 10.5049 17.3614 9.02818 17.1691C7.55143 16.9768 6.18014 16.3003 5.12899 15.2455C4.07784 14.1908 3.40618 12.8172 3.21914 11.34M16.1366 13.022H12.4196" stroke="white" stroke-width="2" stroke-linecap="round" stroke-linejoin="round"/>
</svg>
