<svg width="36" height="36" viewBox="0 0 36 36" fill="none" xmlns="http://www.w3.org/2000/svg">
<path d="M25 21.5V22H12.5V21.5H25ZM19 12.5V13.2725L19.4443 13.3223C22.4076 13.6515 24.7413 16.026 24.9785 19H12.5215C12.7587 16.026 15.0924 13.6515 18.0557 13.3223L18.5 13.2725V12.5H19Z" fill="#460001" stroke="white"/>
<path d="M28.5 3H7.5C6.675 3 6 3.675 6 4.5V10.5H3V13.5H6V16.5H3V19.5H6V22.5H3V25.5H6V31.5C6 32.325 6.675 33 7.5 33H28.5C30.15 33 31.5 31.65 31.5 30V6C31.5 4.35 30.15 3 28.5 3ZM30 31.5H7.5V4.5H30V31.5Z" fill="white"/>
</svg>
