<svg width="30" height="35" viewBox="0 0 30 35" fill="none" xmlns="http://www.w3.org/2000/svg">
<path d="M15.415 18.6006C15.0414 19.099 14.72 19.6316 14.4551 20.1904H8.90527V18.6006H15.415ZM16.6357 9.05957V9.93359C19.4152 10.2512 21.6992 12.2346 22.5059 14.8926C20.4605 14.9666 18.5021 15.7137 16.9316 17.0107H8.90527C8.90527 13.3373 11.6112 10.3312 15.0898 9.93359V9.05957H16.6357Z" fill="white"/>
<path d="M22.6932 21.3833V24.125L24.7495 26.1813M28.8621 24.125C28.8621 24.9351 28.7025 25.7373 28.3925 26.4857C28.0825 27.2342 27.6281 27.9142 27.0553 28.487C26.4824 29.0599 25.8024 29.5143 25.0539 29.8243C24.3055 30.1343 23.5033 30.2938 22.6932 30.2938C21.8831 30.2938 21.081 30.1343 20.3325 29.8243C19.5841 29.5143 18.904 29.0599 18.3312 28.487C17.7584 27.9142 17.304 27.2342 16.994 26.4857C16.684 25.7373 16.5244 24.9351 16.5244 24.125C16.5244 22.4889 17.1743 20.9199 18.3312 19.763C19.4881 18.6061 21.0572 17.9562 22.6932 17.9562C24.3293 17.9562 25.8984 18.6061 27.0553 19.763C28.2121 20.9199 28.8621 22.4889 28.8621 24.125Z" stroke="white" stroke-width="2" stroke-linecap="round" stroke-linejoin="round"/>
<path d="M24.5547 2.54488C26.0698 2.54489 27.3095 3.7816 27.3096 5.29292V16.0332C26.8674 15.7902 26.4069 15.5829 25.9316 15.415V3.9189H5.27051V28.6513H14.7178C14.9852 29.1358 15.2942 29.5961 15.6436 30.0253H5.27051C4.5129 30.0253 3.89258 29.407 3.89258 28.6513V23.1552H1.1377V20.4072H3.89258V17.6591H1.1377V14.9111H3.89258V12.163H1.1377V9.41499H3.89258V3.9189C3.89269 3.16328 4.51297 2.54488 5.27051 2.54488H24.5547Z" fill="white"/>
</svg>
