<svg width="46" height="46" viewBox="0 0 46 46" fill="none" xmlns="http://www.w3.org/2000/svg">
<path d="M17.6111 22.4166L21.4815 26.287L29.2222 18.5463M40.8333 22.4166C40.8333 24.7038 40.3828 26.9686 39.5076 29.0817C38.6323 31.1948 37.3494 33.1148 35.7321 34.7321C34.1148 36.3494 32.1948 37.6323 30.0817 38.5075C27.9686 39.3828 25.7039 39.8333 23.4167 39.8333C21.1295 39.8333 18.8647 39.3828 16.7516 38.5075C14.6385 37.6323 12.7185 36.3494 11.1012 34.7321C9.48394 33.1148 8.20103 31.1948 7.32576 29.0817C6.4505 26.9686 6 24.7038 6 22.4166C6 17.7974 7.83496 13.3674 11.1012 10.1012C14.3675 6.83493 18.7975 4.99996 23.4167 4.99996C28.0359 4.99996 32.4658 6.83493 35.7321 10.1012C38.9984 13.3674 40.8333 17.7974 40.8333 22.4166Z" stroke="#CCCCCC" stroke-width="2" stroke-linecap="round" stroke-linejoin="round"/>
</svg>
