<svg width="22" height="22" viewBox="0 0 22 22" fill="none" xmlns="http://www.w3.org/2000/svg">
<g clip-path="url(#clip0_1562_15755)">
<path d="M1.83301 11H20.1663M18.333 11V18.3333C18.333 18.8196 18.1399 19.2859 17.796 19.6297C17.4522 19.9735 16.9859 20.1667 16.4997 20.1667H5.49967C5.01344 20.1667 4.54713 19.9735 4.20331 19.6297C3.8595 19.2859 3.66634 18.8196 3.66634 18.3333V11M3.66634 7.33333L18.333 3.66666M8.12134 6.21499L7.70884 4.55583C7.64974 4.32229 7.63724 4.07939 7.67207 3.84103C7.70689 3.60266 7.78835 3.37349 7.91179 3.16662C8.03523 2.95975 8.19823 2.77923 8.39148 2.6354C8.58472 2.49156 8.80442 2.38721 9.03801 2.32833L10.8163 1.88833C11.0505 1.82937 11.294 1.81725 11.5328 1.85266C11.7717 1.88807 12.0012 1.97032 12.2082 2.09467C12.4151 2.21903 12.5955 2.38305 12.7389 2.57731C12.8823 2.77157 12.986 2.99224 13.0438 3.22666L13.4563 4.87666" stroke="#CCCCCC" stroke-width="2" stroke-linecap="round" stroke-linejoin="round"/>
</g>
<defs>
<clipPath id="clip0_1562_15755">
<rect width="22" height="22" fill="white"/>
</clipPath>
</defs>
</svg>
