<svg width="30" height="30" viewBox="0 0 30 30" fill="none" xmlns="http://www.w3.org/2000/svg">
<path d="M11.3571 6.26389H8.67857C7.96817 6.26389 7.28686 6.54191 6.78454 7.0368C6.28221 7.53169 6 8.2029 6 8.90278V24.7361C6 25.436 6.28221 26.1072 6.78454 26.6021C7.28686 27.097 7.96817 27.375 8.67857 27.375H22.0714C22.7818 27.375 23.4631 27.097 23.9655 26.6021C24.4678 26.1072 24.75 25.436 24.75 24.7361V8.90278C24.75 8.2029 24.4678 7.53169 23.9655 7.0368C23.4631 6.54191 22.7818 6.26389 22.0714 6.26389H19.3929M11.3571 6.26389C11.3571 6.96377 11.6393 7.63498 12.1417 8.12987C12.644 8.62475 13.3253 8.90278 14.0357 8.90278H16.7143C17.4247 8.90278 18.106 8.62475 18.6083 8.12987C19.1107 7.63498 19.3929 6.96377 19.3929 6.26389M11.3571 6.26389C11.3571 5.56401 11.6393 4.8928 12.1417 4.39791C12.644 3.90302 13.3253 3.625 14.0357 3.625H16.7143C17.4247 3.625 18.106 3.90302 18.6083 4.39791C19.1107 4.8928 19.3929 5.56401 19.3929 6.26389M15.375 15.5H19.3929M15.375 20.7778H19.3929M11.3571 15.5H11.3705M11.3571 20.7778H11.3705" stroke="white" stroke-width="2" stroke-linecap="round" stroke-linejoin="round"/>
</svg>
