<svg width="24" height="24" viewBox="0 0 24 24" fill="none" xmlns="http://www.w3.org/2000/svg">
<path d="M9.0857 5.11111H6.94284C6.37452 5.11111 5.82948 5.33353 5.42762 5.72944C5.02575 6.12535 4.79999 6.66232 4.79999 7.22222V19.8889C4.79999 20.4488 5.02575 20.9858 5.42762 21.3817C5.82948 21.7776 6.37452 22 6.94284 22H17.6571C18.2255 22 18.7705 21.7776 19.1724 21.3817C19.5742 20.9858 19.8 20.4488 19.8 19.8889V7.22222C19.8 6.66232 19.5742 6.12535 19.1724 5.72944C18.7705 5.33353 18.2255 5.11111 17.6571 5.11111H15.5143M9.0857 5.11111C9.0857 5.67101 9.31147 6.20798 9.71333 6.60389C10.1152 6.9998 10.6602 7.22222 11.2286 7.22222H13.3714C13.9397 7.22222 14.4848 6.9998 14.8866 6.60389C15.2885 6.20798 15.5143 5.67101 15.5143 5.11111M9.0857 5.11111C9.0857 4.55121 9.31147 4.01424 9.71333 3.61833C10.1152 3.22242 10.6602 3 11.2286 3H13.3714C13.9397 3 14.4848 3.22242 14.8866 3.61833C15.2885 4.01424 15.5143 4.55121 15.5143 5.11111M12.3 12.5H15.5143M12.3 16.7222H15.5143M9.0857 12.5H9.09642M9.0857 16.7222H9.09642" stroke="white" stroke-width="2" stroke-linecap="round" stroke-linejoin="round"/>
</svg>
