<svg width="125" height="125" viewBox="0 0 125 125" fill="none" xmlns="http://www.w3.org/2000/svg">
<path d="M50.5987 86.4364C54.7226 82.3137 60.315 79.9978 66.1462 79.9978C71.9773 79.9978 77.5697 82.3137 81.6936 86.4364M49.6531 52.5046H49.7081M82.6392 52.5046H82.6942M115.625 63.5C115.625 69.9977 114.346 76.4318 111.859 82.4349C109.372 88.438 105.728 93.8925 101.133 98.4871C96.5386 103.082 91.0841 106.726 85.081 109.213C79.0779 111.699 72.6439 112.979 66.1462 112.979C59.6485 112.979 53.2144 111.699 47.2113 109.213C41.2082 106.726 35.7537 103.082 31.1591 98.4871C26.5645 93.8925 22.9199 88.438 20.4334 82.4349C17.9468 76.4318 16.667 69.9977 16.667 63.5C16.667 50.3773 21.88 37.7921 31.1591 28.513C40.4382 19.2338 53.0235 14.0208 66.1462 14.0208C79.2689 14.0208 91.8541 19.2338 101.133 28.513C110.412 37.7921 115.625 50.3773 115.625 63.5Z" stroke="#CCCCCC" stroke-width="7" stroke-linecap="round" stroke-linejoin="round"/>
</svg>
