<svg width="30" height="30" viewBox="0 0 30 30" fill="none" xmlns="http://www.w3.org/2000/svg">
<path d="M27.5 27.375L19.5833 19.4583M22.2222 12.8611C22.2222 14.074 21.9833 15.275 21.5192 16.3956C21.055 17.5162 20.3747 18.5344 19.517 19.392C18.6594 20.2497 17.6412 20.93 16.5206 21.3942C15.4 21.8583 14.199 22.0972 12.9861 22.0972C11.7732 22.0972 10.5722 21.8583 9.4516 21.3942C8.33103 20.93 7.31285 20.2497 6.45519 19.392C5.59754 18.5344 4.91722 17.5162 4.45306 16.3956C3.9889 15.275 3.75 14.074 3.75 12.8611C3.75 10.4115 4.72309 8.0623 6.45519 6.33019C8.1873 4.59809 10.5365 3.625 12.9861 3.625C15.4357 3.625 17.7849 4.59809 19.517 6.33019C21.2491 8.0623 22.2222 10.4115 22.2222 12.8611Z" stroke="#808080" stroke-width="2" stroke-linecap="round" stroke-linejoin="round"/>
</svg>
