<svg width="14" height="14" viewBox="0 0 14 14" fill="none" xmlns="http://www.w3.org/2000/svg">
<path d="M1.75 1.75H2.91667L3.15 2.91667M3.15 2.91667H12.25L9.91667 7.58333H4.08333M3.15 2.91667L4.08333 7.58333M4.08333 7.58333L2.74575 8.92092C2.37825 9.28842 2.63842 9.91667 3.15817 9.91667H9.91667M9.91667 9.91667C9.60725 9.91667 9.3105 10.0396 9.09171 10.2584C8.87292 10.4772 8.75 10.7739 8.75 11.0833C8.75 11.3928 8.87292 11.6895 9.09171 11.9083C9.3105 12.1271 9.60725 12.25 9.91667 12.25C10.2261 12.25 10.5228 12.1271 10.7416 11.9083C10.9604 11.6895 11.0833 11.3928 11.0833 11.0833C11.0833 10.7739 10.9604 10.4772 10.7416 10.2584C10.5228 10.0396 10.2261 9.91667 9.91667 9.91667ZM5.25 11.0833C5.25 11.3928 5.12708 11.6895 4.90829 11.9083C4.6895 12.1271 4.39275 12.25 4.08333 12.25C3.77391 12.25 3.47717 12.1271 3.25838 11.9083C3.03958 11.6895 2.91667 11.3928 2.91667 11.0833C2.91667 10.7739 3.03958 10.4772 3.25838 10.2584C3.47717 10.0396 3.77391 9.91667 4.08333 9.91667C4.39275 9.91667 4.6895 10.0396 4.90829 10.2584C5.12708 10.4772 5.25 10.7739 5.25 11.0833Z" stroke="#681F1F" stroke-linecap="round" stroke-linejoin="round"/>
</svg>
