<svg width="18" height="19" viewBox="0 0 18 19" fill="none" xmlns="http://www.w3.org/2000/svg">
<path d="M0.450667 1.28597C0.66 0.485063 1.388 0.00104441 2.15333 0.00104441C2.62533 0.00104441 3.05467 0.178875 3.38133 0.469018C3.7415 0.166057 4.19657 0 4.66667 0C5.13676 0 5.59184 0.166057 5.952 0.469018C6.28997 0.166817 6.72719 0.000197206 7.18 0.00104441C7.94533 0.00104441 8.67333 0.485063 8.88267 1.28597C9.08267 2.05077 9.33333 3.28355 9.33333 4.68078C9.3333 5.46104 9.13872 6.2289 8.7673 6.91452C8.39587 7.60013 7.85939 8.18174 7.20667 8.60642C6.84533 8.84308 6.66667 9.14793 6.66667 9.40866V9.93814C6.66667 9.96844 6.66845 9.99786 6.672 10.0264C6.71733 10.358 6.88133 11.5894 7.03467 12.8663C7.18533 14.1191 7.33333 15.4856 7.33333 16.0459C7.33333 16.7551 7.05238 17.4353 6.55229 17.9368C6.05219 18.4383 5.37391 18.72 4.66667 18.72C3.95942 18.72 3.28115 18.4383 2.78105 17.9368C2.28095 17.4353 2 16.7551 2 16.0459C2 15.4843 2.148 14.1205 2.29867 12.8663C2.452 11.5894 2.616 10.358 2.66133 10.0264L2.66667 9.93814V9.40866C2.66667 9.14793 2.488 8.84308 2.12667 8.60642C1.47394 8.18174 0.937461 7.60013 0.566037 6.91452C0.194613 6.2289 3.32775e-05 5.46104 0 4.68078C0 3.28355 0.250667 2.05077 0.450667 1.28597ZM6.66667 5.34932C6.66667 5.52662 6.59643 5.69667 6.47141 5.82204C6.34638 5.94742 6.17681 6.01785 6 6.01785C5.82319 6.01785 5.65362 5.94742 5.5286 5.82204C5.40357 5.69667 5.33333 5.52662 5.33333 5.34932V2.00665C5.33333 1.82934 5.2631 1.6593 5.13807 1.53392C5.01305 1.40855 4.84348 1.33811 4.66667 1.33811C4.48986 1.33811 4.32029 1.40855 4.19526 1.53392C4.07024 1.6593 4 1.82934 4 2.00665V5.34932C4 5.52662 3.92976 5.69667 3.80474 5.82204C3.67971 5.94742 3.51014 6.01785 3.33333 6.01785C3.15652 6.01785 2.98695 5.94742 2.86193 5.82204C2.7369 5.69667 2.66667 5.52662 2.66667 5.34932V1.85288C2.66667 1.71636 2.61258 1.58542 2.51631 1.48889C2.42005 1.39235 2.28948 1.33811 2.15333 1.33811C1.932 1.33811 1.78 1.47048 1.74 1.62558C1.47724 2.62286 1.34061 3.64931 1.33333 4.68078C1.33327 5.23839 1.47231 5.78715 1.73779 6.2771C2.00327 6.76705 2.38676 7.18262 2.85333 7.48595C3.43867 7.86702 4 8.53689 4 9.40866V9.93814C4 10.0273 3.99422 10.1164 3.98267 10.2056C3.93733 10.5345 3.77467 11.7579 3.62267 13.0268C3.468 14.317 3.33333 15.5859 3.33333 16.0459C3.33333 16.4005 3.47381 16.7406 3.72386 16.9913C3.97391 17.2421 4.31305 17.3829 4.66667 17.3829C5.02029 17.3829 5.35943 17.2421 5.60948 16.9913C5.85952 16.7406 6 16.4005 6 16.0459C6 15.5859 5.86667 14.317 5.71067 13.0254C5.55867 11.7579 5.396 10.5345 5.35067 10.2042C5.34052 10.1163 5.33474 10.028 5.33333 9.93947V9.40999C5.33333 8.53823 5.89467 7.86835 6.48 7.48729C6.94676 7.18383 7.33037 6.76805 7.59586 6.27785C7.86135 5.78765 8.00029 5.23862 8 4.68078C8 3.43464 7.776 2.3222 7.59333 1.62558C7.55333 1.47182 7.4 1.33811 7.18 1.33811C7.04386 1.33811 6.91329 1.39235 6.81702 1.48889C6.72075 1.58542 6.66667 1.71636 6.66667 1.85288V5.34932ZM10.6667 6.01785C10.6667 4.4221 11.2988 2.8917 12.424 1.76333C13.5492 0.634956 15.0754 0.00104441 16.6667 0.00104441C16.8435 0.00104441 17.013 0.071479 17.1381 0.196854C17.2631 0.322228 17.3333 0.492272 17.3333 0.669579V8.65589L17.3587 8.89255C17.4647 9.89045 17.5665 10.8888 17.664 11.8876C17.828 13.5669 18 15.4495 18 16.0459C18 16.7551 17.719 17.4353 17.219 17.9368C16.7189 18.4383 16.0406 18.72 15.3333 18.72C14.6261 18.72 13.9478 18.4383 13.4477 17.9368C12.9476 17.4353 12.6667 16.7551 12.6667 16.0459C12.6667 15.4495 12.8387 13.5669 13.0027 11.8876C13.0867 11.0359 13.1707 10.2203 13.2333 9.6159L13.26 9.36052H12C11.6464 9.36052 11.3072 9.21965 11.0572 8.9689C10.8071 8.71815 10.6667 8.37807 10.6667 8.02345V6.01785ZM14.6627 8.76285L14.6347 9.03294C14.5304 10.0279 14.4291 11.0231 14.3307 12.0186C14.1613 13.7394 14 15.5351 14 16.0459C14 16.4005 14.1405 16.7406 14.3905 16.9913C14.6406 17.2421 14.9797 17.3829 15.3333 17.3829C15.687 17.3829 16.0261 17.2421 16.2761 16.9913C16.5262 16.7406 16.6667 16.4005 16.6667 16.0459C16.6667 15.5338 16.5053 13.7394 16.336 12.0186C16.2382 11.023 16.1369 10.0278 16.032 9.03294L16.004 8.76419L16 8.69199V1.38491C14.8891 1.5457 13.8733 2.10259 13.1386 2.9535C12.4039 3.80441 11.9997 4.89233 12 6.01785V8.02345H14C14.0935 8.02349 14.1859 8.04324 14.2713 8.08143C14.3567 8.11961 14.4331 8.17538 14.4956 8.24511C14.5581 8.31484 14.6053 8.39697 14.634 8.48616C14.6628 8.57536 14.6726 8.66963 14.6627 8.76285Z" fill="#CCCCCC"/>
</svg>
