<svg width="36" height="36" viewBox="0 0 36 36" fill="none" xmlns="http://www.w3.org/2000/svg">
<path d="M6.43934 6.43934C6.15804 6.72064 6 7.10218 6 7.5V10.5C6 10.8978 6.15804 11.2794 6.43934 11.5607C6.72064 11.842 7.10218 12 7.5 12H28.5C28.8978 12 29.2794 11.842 29.5607 11.5607C29.842 11.2794 30 10.8978 30 10.5V7.5C30 7.10218 29.842 6.72064 29.5607 6.43934C29.2794 6.15804 28.8978 6 28.5 6H7.5C7.10218 6 6.72064 6.15804 6.43934 6.43934Z" stroke="#460001" stroke-width="2" stroke-linecap="round" stroke-linejoin="round"/>
<path d="M6.43934 18.4393C6.15804 18.7206 6 19.1022 6 19.5V28.5C6 28.8978 6.15804 29.2794 6.43934 29.5607C6.72064 29.842 7.10218 30 7.5 30H16.5C16.8978 30 17.2794 29.842 17.5607 29.5607C17.842 29.2794 18 28.8978 18 28.5V19.5C18 19.1022 17.842 18.7206 17.5607 18.4393C17.2794 18.158 16.8978 18 16.5 18H7.5C7.10218 18 6.72064 18.158 6.43934 18.4393Z" stroke="#460001" stroke-width="2" stroke-linecap="round" stroke-linejoin="round"/>
<path d="M24.4393 18.4393C24.158 18.7206 24 19.1022 24 19.5V28.5C24 28.8978 24.158 29.2794 24.4393 29.5607C24.7206 29.842 25.1022 30 25.5 30H28.5C28.8978 30 29.2794 29.842 29.5607 29.5607C29.842 29.2794 30 28.8978 30 28.5V19.5C30 19.1022 29.842 18.7206 29.5607 18.4393C29.2794 18.158 28.8978 18 28.5 18H25.5C25.1022 18 24.7206 18.158 24.4393 18.4393Z" stroke="#460001" stroke-width="2" stroke-linecap="round" stroke-linejoin="round"/>
</svg>
