<svg width="14" height="16" viewBox="0 0 14 16" fill="none" xmlns="http://www.w3.org/2000/svg">
<path d="M10.894 7.41569C10.8239 7.38266 10.7527 7.35087 10.6806 7.32043C10.555 5.04485 9.29039 3.74208 7.16696 3.72875C7.15734 3.72869 7.14777 3.72869 7.13815 3.72869C5.86806 3.72869 4.81175 4.26174 4.16159 5.23173L5.32941 6.0194C5.8151 5.29486 6.57735 5.1404 7.13871 5.1404C7.14519 5.1404 7.1517 5.1404 7.15812 5.14046C7.85729 5.14484 8.38488 5.34472 8.72635 5.7345C8.97485 6.01828 9.14105 6.41042 9.22335 6.90532C8.60346 6.80173 7.93306 6.76988 7.21638 6.81028C5.19751 6.92462 3.89962 8.08232 3.98679 9.691C4.03103 10.507 4.44447 11.209 5.15092 11.6676C5.74822 12.0553 6.5175 12.2448 7.317 12.2019C8.37284 12.145 9.20115 11.7489 9.779 11.0247C10.2179 10.4747 10.4954 9.76192 10.618 8.86383C11.1212 9.16242 11.4941 9.55533 11.7 10.0277C12.0502 10.8306 12.0707 12.15 10.9757 13.2257C10.0164 14.168 8.86323 14.5757 7.12048 14.5883C5.1873 14.5742 3.72526 13.9646 2.77468 12.7764C1.88455 11.6638 1.42452 10.0568 1.40736 8C1.42452 5.94315 1.88455 4.33613 2.77468 3.22356C3.72526 2.03541 5.18727 1.42583 7.12045 1.41171C9.06766 1.42594 10.5552 2.03845 11.5421 3.23233C12.0261 3.8178 12.3909 4.55407 12.6315 5.41253L14 5.05352C13.7084 3.99685 13.2497 3.08631 12.6254 2.33117C11.3601 0.800557 9.50957 0.0162623 7.12522 0H7.11568C4.73619 0.0162058 2.90639 0.803483 1.67714 2.33994C0.583268 3.7072 0.0190188 5.60964 5.93275e-05 7.99438L0 8L5.93275e-05 8.00562C0.0190188 10.3903 0.583268 12.2928 1.67714 13.6601C2.90639 15.1965 4.73619 15.9838 7.11568 16H7.12522C9.24073 15.9856 10.7319 15.441 11.9603 14.2343C13.5675 12.6555 13.5191 10.6766 12.9894 9.46175C12.6094 8.59058 11.8848 7.88302 10.894 7.41569ZM7.24142 10.7923C6.35659 10.8413 5.43734 10.4508 5.39201 9.61433C5.35842 8.99417 5.84089 8.30217 7.29572 8.21973C7.46233 8.21028 7.62582 8.20567 7.78643 8.20567C8.31487 8.20567 8.80924 8.25614 9.25869 8.35275C9.09105 10.4113 8.10773 10.7455 7.24142 10.7923Z" fill="white"/>
</svg>
