<svg width="137" height="150" viewBox="0 0 137 150" fill="none" xmlns="http://www.w3.org/2000/svg">
<mask id="mask0_1465_24069" style="mask-type:alpha" maskUnits="userSpaceOnUse" x="0" y="0" width="137" height="150">
<path d="M0 0H137V149.491H0V0Z" fill="#D9D9D9"/>
</mask>
<g mask="url(#mask0_1465_24069)">
<path d="M82.0768 56.5388C82.8522 56.6208 83.5844 56.8727 84.2117 57.3541C85.1119 58.045 85.62 59.073 85.8243 60.2624C86.4435 63.8684 85.5596 66.0428 84.0926 67.2372C83.4543 67.7569 82.7819 68.0229 82.2555 68.1604C82.1828 68.495 82.0828 68.9032 81.9461 69.366C81.5699 70.6404 80.9122 72.3508 79.7825 74.0858C77.4918 77.604 73.3052 81.1372 65.9089 81.4111C63.9585 81.4834 62.2981 81.118 60.8851 80.3778C59.4764 79.6398 58.3853 78.5669 57.5131 77.3289C55.8059 74.9056 54.8442 71.6938 53.9676 68.7869C53.1653 66.1265 53.1766 63.288 53.367 61.1693C53.4631 60.0995 53.6072 59.189 53.7279 58.5433C53.7883 58.22 53.8432 57.9618 53.8836 57.7818C53.9037 57.6917 53.9204 57.6212 53.9323 57.5717C53.9383 57.547 53.943 57.5274 53.9465 57.5134C53.9482 57.5064 53.9497 57.5008 53.9507 57.4966C53.9513 57.4945 53.9517 57.4926 53.9521 57.4912C53.9523 57.4905 53.9524 57.4899 53.9525 57.4894C53.9525 57.4892 53.9526 57.4888 53.9527 57.4886C53.9528 57.4883 53.9529 57.488 55.2013 57.8077L53.9529 57.4881L54.1918 56.5556L55.1537 56.52C55.1538 56.52 55.1543 56.5198 55.1546 56.5198C55.1553 56.5198 55.1564 56.5198 55.1577 56.5198C55.1605 56.5197 55.1647 56.5194 55.1703 56.5192C55.1817 56.5188 55.1988 56.5181 55.2213 56.5173C55.2661 56.5156 55.3327 56.5131 55.4191 56.5097C55.5922 56.5029 55.8451 56.4927 56.163 56.4793C56.7989 56.4526 57.6949 56.4132 58.7348 56.362C60.8174 56.2595 63.4666 56.1106 65.7571 55.9248C68.4831 55.7037 71.9688 55.0739 74.8069 54.4893C76.2187 54.1985 77.4569 53.9218 78.3418 53.7178C78.784 53.6158 79.1377 53.5322 79.3801 53.4742C79.5014 53.4452 79.5948 53.4225 79.6576 53.4072C79.6889 53.3996 79.7126 53.3938 79.7283 53.39C79.7361 53.388 79.7421 53.3866 79.7459 53.3857C79.7477 53.3853 79.7491 53.3848 79.75 53.3845C79.7504 53.3844 79.7507 53.3844 79.7509 53.3844L80.8954 53.1019L82.0768 56.5388ZM78.9207 56.2294C78.021 56.4368 76.7627 56.718 75.327 57.0137C72.47 57.6021 68.8563 58.2593 65.9654 58.4937C63.6344 58.6827 60.9536 58.8331 58.8616 58.9361C57.8144 58.9877 56.912 59.0275 56.2712 59.0544C56.2657 59.0546 56.2601 59.0548 56.2546 59.055C56.1472 59.6347 56.0195 60.4478 55.934 61.3999C55.7572 63.3669 55.7685 65.832 56.4352 68.0427C57.344 71.0561 58.1999 73.8288 59.62 75.8447C60.3115 76.8262 61.1117 77.5868 62.0813 78.0947C63.0466 78.6003 64.2517 78.8935 65.8136 78.8356C72.2752 78.5963 75.7333 75.5814 77.6227 72.6796C78.583 71.2047 79.1491 69.7372 79.4742 68.6361C79.6363 68.0875 79.7369 67.6352 79.7962 67.3259C79.8259 67.1715 79.845 67.0532 79.8564 66.977C79.8622 66.9389 79.8659 66.9113 79.8681 66.8951C79.8691 66.887 79.8699 66.8818 79.8702 66.8794L79.87 66.8802L80.0022 65.7185L81.1603 65.7381C81.1708 65.7377 81.1946 65.7367 81.2294 65.7336C81.3 65.7273 81.4112 65.7132 81.5463 65.6813C81.821 65.6166 82.159 65.4877 82.4652 65.2383C82.9845 64.8155 83.8023 63.7167 83.284 60.6986C83.1576 59.9622 82.8956 59.5932 82.6424 59.3989C82.3835 59.2002 81.9548 59.0468 81.234 59.0937C80.9085 59.1149 80.7328 59.2242 80.609 59.3477C80.461 59.4955 80.3292 59.7276 80.2299 60.0422C80.1323 60.3517 80.087 60.6757 80.0685 60.9344C80.0594 61.0605 80.0573 61.1633 80.0572 61.2309C80.0572 61.2643 80.0576 61.2886 80.058 61.3021C80.0582 61.3074 80.0581 61.3111 80.0582 61.313C80.0582 61.3125 80.0582 61.312 80.0582 61.3114L80.0599 61.3745C80.0615 62.0563 79.528 62.6269 78.8396 62.6634C78.1288 62.7012 77.522 62.1555 77.4843 61.4448L78.7712 61.3765L77.4843 61.4438C77.4842 61.4437 77.4843 61.443 77.4843 61.4427C77.4842 61.442 77.4841 61.4412 77.4841 61.4404C77.484 61.4387 77.484 61.4367 77.4839 61.4345C77.4837 61.4303 77.4833 61.4253 77.4831 61.4194C77.4826 61.4076 77.4821 61.3924 77.4815 61.3741C77.4805 61.3378 77.4798 61.2888 77.4798 61.2291C77.4799 61.1099 77.4836 60.9456 77.4976 60.7501C77.5252 60.3658 77.5946 59.8288 77.7718 59.267C77.9473 58.7103 78.2503 58.0605 78.7883 57.5235C78.9984 57.3137 79.2366 57.1294 79.5021 56.9777L79.2208 56.1593C79.1258 56.1814 79.0257 56.2051 78.9207 56.2294ZM80.0584 61.3133C80.0584 61.3136 80.0584 61.3138 80.0584 61.3139C80.0584 61.3137 80.0582 61.3134 80.0582 61.313L80.0584 61.3133Z" fill="#CCCCCC"/>
<path d="M58.444 15.1504C60.1536 14.8755 61.9803 14.9603 63.4851 15.5479C64.9929 16.1368 66.1804 17.2329 66.5909 18.9743C66.6577 19.258 66.6921 19.5745 66.7022 19.9114L66.6896 19.9211V19.9703C66.6896 20.994 66.3971 21.8947 65.9874 23.0593C65.5781 24.2224 65.0559 25.6396 64.6102 27.6815L64.7984 27.7407L68.2273 19.5289C68.9655 18.8376 69.9319 18.0778 70.8611 17.7939C72.8177 17.1959 74.6654 17.6332 76.2165 18.6963C77.7656 19.7581 79.0203 21.4445 79.8035 23.3524C80.745 25.6462 79.8762 28.0546 78.7924 29.8722C78.249 30.7835 77.648 31.5527 77.183 32.0938C76.9505 32.3644 76.7517 32.5784 76.6109 32.7248C76.5814 32.7555 76.5538 32.7828 76.5296 32.8075C76.0079 33.0491 75.4342 33.2754 74.896 33.4706C74.3341 33.6744 73.8119 33.8442 73.4304 33.9632C73.2397 34.0226 73.0841 34.0694 72.9763 34.1012C72.9225 34.1171 72.8805 34.1292 72.852 34.1374L72.8116 34.149C72.8107 34.1493 72.8099 34.1495 72.8094 34.1496L72.809 34.1498H72.8087L72.8588 34.3417L72.859 34.3415C72.8591 34.3415 72.8594 34.3415 72.8596 34.3415C72.8601 34.3414 72.8609 34.3412 72.8619 34.3409C72.864 34.3404 72.8673 34.3396 72.8716 34.3386C72.8801 34.3366 72.8928 34.3337 72.9093 34.3299C72.9425 34.3223 72.9912 34.3112 73.0534 34.2975C73.178 34.2702 73.3566 34.2325 73.5717 34.1909C74.0022 34.1075 74.5785 34.0088 75.1632 33.9473C75.6991 33.8909 76.2368 33.8663 76.6744 33.9109L82.5584 57.7379L82.584 57.8415L82.4788 57.8595H82.4787L82.4783 57.8597C82.4779 57.8598 82.4774 57.8598 82.4767 57.8599C82.4754 57.8601 82.4734 57.8606 82.4707 57.8611C82.4652 57.862 82.4569 57.8633 82.4461 57.8651C82.4245 57.8689 82.3921 57.8743 82.3499 57.8816C82.2654 57.8961 82.1408 57.9176 81.9807 57.9453C81.6602 58.0008 81.1969 58.0814 80.6263 58.1817C79.4852 58.3824 77.9144 58.6623 76.1954 58.979C72.7562 59.6126 68.7274 60.3929 66.3595 60.9818C64.0072 61.5667 60.9252 61.5659 58.4384 61.4205C57.1937 61.3477 56.0953 61.2385 55.308 61.1475C54.9144 61.102 54.5984 61.0611 54.3808 61.0315C54.272 61.0168 54.1878 61.0048 54.1307 60.9965C54.1021 60.9924 54.0803 60.989 54.0656 60.9868C54.0583 60.9857 54.0527 60.9851 54.049 60.9845C54.0472 60.9842 54.0458 60.9839 54.0449 60.9837C54.0444 60.9837 54.044 60.9836 54.0437 60.9835L54.0435 60.9837L54.0433 60.9835L53.9659 60.9717L53.9595 60.8939L52.3047 40.7957L52.3426 40.8166L52.3943 40.749L56.2604 35.6933L56.1152 35.5595C54.5639 36.9629 54.0379 37.7383 53.5467 38.3279C53.2631 38.6682 52.9887 38.9488 52.5211 39.263L52.5234 39.2543C52.4656 39.297 52.3967 39.3422 52.3138 39.3881C51.9093 39.6119 51.1759 39.862 49.8471 39.9945C47.0767 40.2707 44.8903 39.1777 42.9965 37.1058C40.3525 34.213 40.4695 30.3353 42.5543 27.0667C44.2497 24.4087 46.5587 22.3502 49.6573 23.1532C50.8096 23.4518 51.7281 24.4811 52.4237 25.6284C52.4935 25.8646 52.5622 26.1121 52.6332 26.3734C52.9566 27.5633 53.331 29.0267 54.1233 30.9608L54.3121 30.9025L52.9426 24.4185C52.8433 23.1929 52.8576 21.9573 53.1117 20.9537C53.5507 19.2189 53.9965 17.9067 54.7797 16.9592C55.5674 16.0062 56.6864 15.4331 58.444 15.1504ZM70.0607 48.1679C70.0808 48.0771 70.0587 47.9606 69.7232 48.0445C68.417 48.3711 61.8018 51.1962 61.8416 51.1724C61.8292 51.1616 62.2701 50.5882 62.3462 50.523C62.4806 50.4078 62.3824 50.2259 62.201 50.2835C61.8939 50.3811 61.3456 51.3457 61.3409 51.3538C61.3409 51.3538 60.1543 51.7022 59.835 51.9308C59.7599 51.9846 59.7969 52.19 59.9004 52.2067C60.1244 52.2427 61.0051 52.0132 61.0143 52.0108C61.0103 52.0177 60.7404 52.4842 60.9673 52.7219C61.02 52.777 61.2031 52.7508 61.1196 52.5912C61.0591 52.4753 61.3156 51.9781 61.3882 51.9527C62.4049 51.5971 70.3932 52.1171 70.5215 52.2357C70.6495 52.3544 70.7648 52.0872 70.4127 51.9563C70.0605 51.8255 64.9012 51.4753 61.5876 51.597C62.0924 51.4484 66.4538 49.3326 69.7377 48.2949C69.8669 48.254 70.0462 48.2332 70.0607 48.1679ZM66.9188 52.1196C66.8426 52.0652 66.7157 52.0543 66.6236 52.1C66.5618 52.1306 66.5325 52.1702 66.5105 52.2355C66.4947 52.3014 66.502 52.3658 66.5351 52.4249C66.5724 52.4809 66.6292 52.5112 66.6939 52.526C66.7691 52.5344 66.836 52.5248 66.8985 52.4807C66.903 52.4763 66.9073 52.4721 66.9117 52.4679C66.9166 52.4852 66.9214 52.502 66.9262 52.5188H66.9914V52.301H66.7665V52.3662C66.8133 52.3687 66.8588 52.3712 66.9043 52.3736C66.8905 52.4013 66.8658 52.4188 66.8383 52.4317C66.7677 52.4573 66.6754 52.4687 66.6213 52.4026C66.571 52.3413 66.5813 52.2574 66.6213 52.2069C66.6315 52.1939 66.6542 52.1764 66.6613 52.174C66.7142 52.1541 66.7543 52.1511 66.81 52.1631C66.8386 52.1717 66.856 52.1837 66.8768 52.2069C66.8902 52.2218 66.9043 52.2503 66.9043 52.2503H66.9843C66.9843 52.2503 66.9807 52.2037 66.9678 52.1777C66.9547 52.1511 66.9406 52.1351 66.9188 52.1196ZM65.9965 52.526H66.0762C66.0787 52.4174 66.0812 52.312 66.0836 52.2067C66.0965 52.226 66.1102 52.2442 66.1246 52.2625C66.1543 52.2998 66.1834 52.3373 66.211 52.3763C66.2247 52.3961 66.3448 52.526 66.3448 52.526H66.4319C66.4319 52.526 66.4398 52.2359 66.4391 52.0905H66.3519C66.3495 52.1966 66.3448 52.4026 66.3448 52.4026L66.2398 52.2648C66.2398 52.2648 66.1857 52.1976 66.1606 52.1622C66.1523 52.1501 66.0979 52.0905 66.0979 52.0905H65.9965V52.526ZM62.3048 52.0714C62.27 52.071 62.2372 52.0712 62.2039 52.082C62.1382 52.1102 62.094 52.1527 62.0647 52.2185C62.0433 52.2787 62.0515 52.3445 62.0778 52.4013C62.1076 52.4588 62.1509 52.4939 62.2124 52.514C62.2992 52.5306 62.3948 52.5286 62.4699 52.4785C62.5233 52.4377 62.55 52.3836 62.5592 52.3172C62.5619 52.2542 62.5444 52.1963 62.5055 52.1463C62.4524 52.0926 62.4011 52.0738 62.327 52.0715C62.3195 52.0715 62.3121 52.0714 62.3048 52.0714ZM61.7863 52.0714C61.7297 52.0707 61.685 52.071 61.6348 52.1049C61.593 52.1331 61.5705 52.1717 61.5551 52.2065C61.5325 52.2673 61.5329 52.3454 61.5586 52.4052C61.59 52.4577 61.64 52.4954 61.698 52.514C61.7825 52.5298 61.8742 52.5276 61.9473 52.4789C61.9963 52.4399 62.0109 52.3979 62.0194 52.3372H61.9324C61.93 52.347 61.9275 52.3565 61.9251 52.366C61.8986 52.4058 61.8697 52.4259 61.8234 52.4386C61.7707 52.4461 61.7231 52.4398 61.6784 52.4096C61.6498 52.3758 61.6361 52.3417 61.6329 52.2977C61.6365 52.247 61.6484 52.213 61.6856 52.1775C61.7298 52.1502 61.7764 52.1479 61.8308 52.1556C61.8666 52.1607 61.8979 52.1849 61.9106 52.2028C61.924 52.2219 61.9277 52.2381 61.9324 52.2572H62.0194C62.0194 52.2126 62.0116 52.183 61.9841 52.148C61.9331 52.0949 61.8805 52.0739 61.8076 52.0715C61.7969 52.0715 61.7967 52.0714 61.7863 52.0714ZM63.8777 52.0834C63.8777 52.1056 63.8771 52.1279 63.8798 52.15C63.8808 52.1545 63.8816 52.1589 63.8825 52.1633C63.8836 52.1684 63.8845 52.1735 63.8855 52.1784C63.901 52.2559 63.9032 52.3227 63.8887 52.4005C63.8872 52.4083 63.887 52.4084 63.8855 52.416C63.8844 52.4211 63.8835 52.426 63.8825 52.4309C63.8771 52.4569 63.877 52.4569 63.8777 52.5188C63.9214 52.519 63.9652 52.5191 64.009 52.5192C64.0268 52.5192 64.0446 52.5193 64.0624 52.5194C64.0887 52.5195 64.1151 52.5195 64.1414 52.5196C64.1498 52.5196 64.158 52.5196 64.1662 52.5196C64.1745 52.5196 64.1826 52.5197 64.1906 52.5198H64.233C64.2479 52.5189 64.248 52.5189 64.2553 52.5116V52.4462C64.1123 52.4425 64.1122 52.4426 63.9722 52.439C63.9771 52.402 63.9819 52.3661 63.9867 52.3302H64.2334V52.2576C64.1495 52.2551 64.0681 52.2527 63.9867 52.2503C63.9818 52.2182 63.977 52.1871 63.9722 52.156H64.2479V52.0834H63.8777ZM64.8109 52.082C64.7938 52.0821 64.7766 52.082 64.7594 52.0822C64.7475 52.0823 64.7355 52.0825 64.7236 52.0826C64.6885 52.0828 64.6534 52.083 64.6183 52.0834C64.6181 52.134 64.618 52.1846 64.6179 52.2352C64.6179 52.2609 64.6178 52.2868 64.6177 52.3126C64.6176 52.3378 64.6175 52.3631 64.6175 52.3883V52.4714C64.6175 52.4847 64.6176 52.4981 64.6183 52.5114C64.6255 52.5187 64.6256 52.5188 64.6464 52.5198H64.7972C64.8599 52.5197 64.9251 52.5146 64.9773 52.4766C65.0287 52.4322 65.0635 52.3816 65.0698 52.3124C65.0705 52.2485 65.0519 52.1937 65.0086 52.1461C64.958 52.1 64.8943 52.0816 64.827 52.0816C64.8216 52.0817 64.8162 52.0819 64.8109 52.082ZM63.0349 52.2352C63.0349 52.2609 63.0348 52.2867 63.0347 52.3124C63.0346 52.3377 63.0345 52.363 63.0345 52.3883C63.0345 52.398 63.0345 52.4075 63.0345 52.417C63.0345 52.4265 63.0343 52.4359 63.0343 52.4452C63.0343 52.4541 63.0343 52.4628 63.0343 52.4714C63.0343 52.4847 63.0346 52.4981 63.0353 52.5114C63.0425 52.5186 63.0425 52.5186 63.0587 52.5196C63.0688 52.5195 63.069 52.5196 63.0788 52.5196C63.0909 52.5196 63.103 52.5193 63.115 52.5186C63.1223 52.5114 63.1224 52.5113 63.1232 52.4952C63.1231 52.4881 63.123 52.4812 63.123 52.4743C63.123 52.4673 63.123 52.4605 63.123 52.4537C63.1226 52.3992 63.1225 52.3991 63.1222 52.3445H63.3836V52.2646H63.1222V52.1558H63.3908V52.0832H63.0353C63.0351 52.1338 63.035 52.1845 63.0349 52.2352ZM63.4351 52.0832C63.4597 52.2305 63.4668 52.325 63.4411 52.4669C63.437 52.4885 63.4326 52.4989 63.4425 52.5186C63.4861 52.5188 63.5298 52.5189 63.5735 52.519C63.5913 52.519 63.6092 52.5192 63.627 52.5192C63.6533 52.5193 63.6796 52.5193 63.706 52.5194C63.7144 52.5194 63.7226 52.5194 63.7308 52.5194C63.7391 52.5194 63.7473 52.5195 63.7553 52.5196H63.7975C63.8125 52.5187 63.8126 52.5187 63.8198 52.5114V52.4462H63.5367L63.5513 52.33H63.8053C63.8053 52.2647 63.8052 52.2647 63.7979 52.2574C63.7852 52.257 63.7724 52.2566 63.7596 52.2566C63.7541 52.2567 63.7487 52.2566 63.7433 52.2566C63.7262 52.2567 63.7091 52.2568 63.692 52.2568C63.6801 52.2569 63.6681 52.257 63.6562 52.257C63.6287 52.2571 63.6012 52.2571 63.5737 52.2572C63.5624 52.2573 63.5624 52.2574 63.5513 52.2574L63.5367 52.1558H63.8198V52.0832H63.4351ZM65.8218 52.2353C65.8218 52.2611 65.8217 52.2868 65.8216 52.3126C65.8215 52.3379 65.8215 52.3632 65.8214 52.3885V52.4716C65.8214 52.4793 65.8212 52.4869 65.8212 52.4944C65.8221 52.5115 65.8222 52.5116 65.8294 52.5188H65.9093V52.0834H65.8222C65.822 52.134 65.8219 52.1847 65.8218 52.2353ZM65.126 52.5186H65.2131V52.0832H65.126V52.5186ZM65.2998 52.5184H65.3796C65.3821 52.4099 65.3846 52.3045 65.3869 52.1991C65.3999 52.2185 65.4137 52.2367 65.4282 52.2549C65.4579 52.2922 65.4868 52.3298 65.5143 52.3687C65.5279 52.3882 65.646 52.5161 65.6481 52.5184H65.7353C65.7354 52.5133 65.7432 52.227 65.7424 52.083H65.6553C65.6528 52.1884 65.6482 52.3924 65.6481 52.3951L65.5432 52.2572C65.5432 52.2572 65.489 52.19 65.464 52.1546C65.4556 52.1425 65.4023 52.0839 65.4015 52.083C65.4015 52.083 65.3334 52.083 65.2998 52.083V52.5184ZM62.6142 52.5111H62.7013V52.3442C62.7022 52.3442 62.7308 52.344 62.7557 52.3449C62.7654 52.3449 62.7749 52.3451 62.7844 52.3451H62.9698C62.9698 52.3451 62.9698 52.2881 62.9698 52.2642H62.7013V52.1554H62.977V52.0756H62.6142V52.5111ZM62.1899 52.1848C62.2625 52.1232 62.3859 52.1377 62.4403 52.1993C62.4632 52.2253 62.4677 52.252 62.4719 52.2822C62.4727 52.3335 62.4588 52.3672 62.4244 52.4052C62.3894 52.4369 62.3514 52.4478 62.3048 52.4489C62.2431 52.4461 62.2063 52.4259 62.1646 52.3808C62.1407 52.3412 62.1363 52.3026 62.1427 52.2574C62.1519 52.2291 62.1588 52.2113 62.1899 52.1848ZM64.7743 52.155C64.8218 52.1541 64.8631 52.1558 64.9085 52.1705C64.9446 52.1906 64.9658 52.2182 64.978 52.2574C64.9863 52.2964 64.9858 52.3402 64.9641 52.3746C64.9599 52.3795 64.9558 52.3843 64.9517 52.3891C64.9476 52.394 64.9435 52.3988 64.9395 52.4036C64.8984 52.4373 64.8564 52.4414 64.8051 52.441C64.7971 52.4408 64.7893 52.4406 64.7815 52.4404C64.7556 52.4399 64.7305 52.4395 64.7054 52.439V52.156C64.7402 52.1555 64.7402 52.1554 64.7743 52.155ZM64.4254 52.2503C64.3954 52.2503 64.371 52.2746 64.371 52.3047C64.3711 52.3347 64.3954 52.3591 64.4254 52.3591C64.4555 52.3591 64.4798 52.3347 64.4799 52.3047C64.4799 52.2746 64.4555 52.2503 64.4254 52.2503ZM66.3014 49.9931C66.3776 49.9459 66.3558 49.7246 66.1527 49.7898C65.9495 49.8551 65.5103 50.3414 65.2019 50.8022C65.2002 50.8008 65.1485 50.7556 65.1076 50.7515C64.8935 50.7297 64.353 50.737 64.2005 50.7805C63.9593 50.8494 63.8775 51.4227 64.2005 51.4227C64.6858 51.4227 64.6075 50.9907 64.6069 50.9873C64.7888 50.9379 64.8934 50.9399 65.0822 50.9691C65.0822 50.9691 64.9515 51.1252 64.9515 51.216C64.9515 51.3506 65.0135 51.3957 65.0822 51.39C65.2564 51.3754 65.6355 50.9102 65.7281 50.9619C65.7281 51.0454 65.7143 51.2186 65.8586 51.2994C66.0702 51.4178 66.5017 51.0831 66.5082 51.0781C66.5089 51.082 66.5333 51.2149 66.6788 51.2522C67.0036 51.3352 67.3885 50.6634 67.5895 50.3741C67.6434 50.2967 67.5304 50.1338 67.43 50.2397C67.2186 50.4631 66.8217 51.0131 66.7622 51.02C66.7563 51.0086 66.9682 50.6158 66.7913 50.5772C66.5699 50.529 66.5517 50.8349 66.5517 50.8349C66.3667 50.8749 66.0509 51.147 65.9856 51.0781C65.9203 51.0092 65.9954 50.8637 65.895 50.7877C65.7603 50.6856 65.4559 50.8566 65.4559 50.8566C65.7584 50.4239 66.2252 50.0403 66.3014 49.9931ZM69.1716 49.6045C68.9502 49.5884 68.9981 49.84 68.8777 49.8695C68.6854 49.9167 68.4277 49.9384 68.2571 49.9747C68.1483 49.9978 68.143 50.174 68.2244 50.1815C68.4228 50.1995 68.7682 50.1315 68.7723 50.1307C68.6439 50.3654 68.5716 50.4971 68.4531 50.7294C68.4531 50.7294 67.7454 51.05 67.7454 50.9399C67.7454 50.8601 67.847 50.7695 67.8761 50.7259C67.8994 50.691 67.8766 50.6116 67.8761 50.6097C67.8772 50.61 67.9747 50.6311 67.9957 50.577C68.0169 50.5226 68.1714 50.4116 68.1774 50.3304C68.1889 50.1707 68.0274 50.1196 67.9014 50.225C67.7454 50.3557 67.7963 50.5553 67.7963 50.5553C67.7963 50.5553 67.731 50.5529 67.6947 50.5699C67.5314 50.6461 67.3826 50.9906 67.5495 51.1503C67.7424 51.3349 68.2575 51.049 68.2643 51.0452C68.2616 51.0494 68.1123 51.2814 68.1301 51.3463C68.1544 51.4336 68.2859 51.4467 68.3369 51.3718C68.5219 51.0997 68.9415 50.215 69.0771 50.1307C69.2585 50.0182 69.6831 50.0908 69.6831 50C69.6831 49.9382 69.6938 49.8992 69.6395 49.8695C69.5597 49.826 69.2078 49.8477 69.2078 49.8477C69.2078 49.8477 69.3711 49.619 69.1716 49.6045ZM69.7151 50.3468C69.5217 50.3429 69.2997 50.3563 69.1282 50.3929C69.0524 50.4091 68.996 50.4625 68.9574 50.5164C68.9178 50.5719 68.8881 50.6399 68.8686 50.7081C68.849 50.7767 68.8384 50.8505 68.8397 50.9193C68.841 50.986 68.8538 51.059 68.8916 51.1172C68.9712 51.2397 69.1259 51.2583 69.2465 51.2369C69.3726 51.2144 69.5077 51.1426 69.5871 51.0239C69.6308 50.9585 69.6448 50.8706 69.6504 50.8134C69.6516 50.8013 69.6523 50.7896 69.6529 50.7788C69.6813 50.7733 69.7176 50.7676 69.7578 50.7646C69.8623 50.7569 69.9767 50.7663 70.0585 50.8121C70.11 50.8409 70.1819 50.8545 70.2415 50.8053C70.2897 50.7654 70.3011 50.7054 70.3027 50.6659C70.3044 50.6219 70.2954 50.5743 70.2769 50.5321C70.2587 50.4905 70.2267 50.4443 70.1755 50.4169C70.127 50.391 70.0544 50.3757 69.9815 50.3658C69.9043 50.3553 69.8121 50.3488 69.7151 50.3468ZM69.305 50.6827C69.3265 50.6782 69.3448 50.7006 69.3449 50.7226C69.3449 50.7836 69.1643 50.9154 69.16 50.9186C69.1613 50.9137 69.2189 50.7008 69.305 50.6827Z" fill="#CCCCCC"/>
<path d="M62.9694 68.8771L62.8134 66.0965C62.7827 65.5499 63.2008 65.0794 63.7473 65.0457C64.2937 65.0121 64.7616 65.4279 64.7922 65.9745L64.9483 68.7551C64.9789 69.3017 64.5608 69.7722 64.0144 69.8059C63.468 69.8396 63.0001 69.4237 62.9694 68.8771Z" fill="#CCCCCC"/>
<path d="M64.2443 72.0153C65.4002 71.8819 66.327 72.6467 65.8896 73.3729C65.4689 74.0715 64.0857 74.2207 63.3564 73.6462C62.6077 73.0564 63.1027 72.147 64.2443 72.0153ZM64.881 72.7846C64.6452 72.5989 64.2047 72.6398 64.0497 72.8545L64.0355 72.8758C63.8896 73.1182 64.199 73.3734 64.5848 73.3289C64.9658 73.2849 65.1309 72.9814 64.881 72.7846Z" fill="#CCCCCC"/>
<path d="M64.881 72.7846C64.6452 72.5989 64.2047 72.6398 64.0497 72.8545L64.0355 72.8758C63.8896 73.1182 64.199 73.3734 64.5848 73.3289C64.9658 73.2849 65.1309 72.9814 64.881 72.7846Z" fill="#CCCCCC"/>
<path d="M60.4776 79.691C60.5721 78.9856 61.2205 78.4903 61.9259 78.5847C62.6313 78.6791 63.1266 79.3275 63.0322 80.0329L61.8591 88.7993C61.7647 89.5048 61.1163 90 60.4108 89.9056C59.7054 89.8112 59.2101 89.1628 59.3045 88.4574L60.4776 79.691ZM79.7549 70.5014C80.4522 70.3592 81.1327 70.8093 81.275 71.5066L83.6046 82.9277C83.7468 83.6251 83.2967 84.3057 82.5993 84.448C81.9019 84.5902 81.2213 84.1401 81.079 83.4427L78.7496 72.0217C78.6074 71.3243 79.0575 70.6436 79.7549 70.5014Z" fill="#CCCCCC"/>
<path d="M95.2775 139.855C95.2099 139.936 95.1401 140.019 95.0677 140.103C94.1643 141.145 92.8418 142.379 91.2604 142.929C90.3981 143.228 89.255 143.247 88.0941 143.145C86.9148 143.041 85.6398 142.804 84.4725 142.539C83.3029 142.273 82.2285 141.975 81.4474 141.743C81.0565 141.628 80.7382 141.528 80.5171 141.458C80.471 141.443 80.4291 141.429 80.3916 141.417C80.2715 141.471 80.099 141.548 79.872 141.648C79.3788 141.867 78.6284 142.199 77.5993 142.651C75.5413 143.556 72.3681 144.945 67.9063 146.878C66.4588 147.505 59.575 150.991 51.7817 153.557L51.3131 172.221L50.8403 172.209C55.4799 174.294 57.5152 176.171 65.2871 176.704C70.0433 177.03 75.7033 175.738 80.869 174.151C86.0148 172.57 90.9711 170.593 94.0589 169.539L95.4657 169.059L94.7909 167.734L94.7907 167.734C94.7906 167.734 94.7904 167.733 94.7903 167.733C94.7899 167.732 94.7893 167.731 94.7884 167.729C94.7866 167.726 94.7839 167.72 94.7802 167.713C94.7728 167.698 94.7616 167.676 94.7468 167.647C94.7173 167.588 94.6737 167.502 94.618 167.39C94.5068 167.166 94.3474 166.843 94.1568 166.447C93.7751 165.656 93.2699 164.579 92.7729 163.434C92.2739 162.285 91.7926 161.088 91.4521 160.051C91.2817 159.532 91.1531 159.073 91.0742 158.693C90.9912 158.292 90.9812 158.061 90.9906 157.964C91.4276 153.482 92.9377 148.215 94.3641 143.152C94.6781 142.038 94.987 140.933 95.2775 139.855ZM50.5822 153.942C49.6216 154.243 48.651 154.527 47.6784 154.787C44.3736 155.672 41.0099 156.297 37.9196 156.375C37.7901 157.117 37.669 157.842 37.5592 158.545C37.206 160.805 36.9575 162.864 36.8677 164.569C36.7809 166.215 36.8282 167.717 37.1889 168.745C37.3743 169.274 37.6791 169.729 38.1203 170.071C38.5488 170.403 39.0301 170.571 39.4818 170.658C40.3205 170.82 41.3488 170.748 42.2745 170.696C44.2467 170.584 46.6331 170.475 49.3775 171.584C49.6369 171.689 49.8879 171.793 50.1315 171.898L50.5822 153.942ZM41.7846 138.432C41.3957 140.033 41.0012 141.691 40.6138 143.369C39.6955 147.346 38.8137 151.448 38.1329 155.178C41.0162 155.079 44.1884 154.49 47.3709 153.638C48.4586 153.347 49.5433 153.026 50.6137 152.685L50.9925 137.595L41.7846 138.432ZM92.551 125.52C92.5001 125.527 92.424 125.538 92.3254 125.552C92.1282 125.581 91.8408 125.626 91.484 125.689C91.0877 125.758 90.6066 125.85 90.0684 125.965C89.4348 127.526 87.6187 127.728 86.4958 126.927C84.8934 127.463 83.2971 128.165 82.1042 129.063C80.8319 130.021 79.4028 131.519 78.2762 132.801C77.7167 133.437 77.2387 134.013 76.9008 134.429C76.732 134.637 76.5984 134.805 76.5072 134.92C76.4616 134.978 76.4265 135.023 76.4031 135.053C76.3915 135.068 76.3828 135.079 76.377 135.086C76.3741 135.09 76.3716 135.093 76.3702 135.095C76.3696 135.095 76.3692 135.096 76.3689 135.097L76.3686 135.097C76.2675 135.228 76.1162 135.311 75.9513 135.326L52.185 137.487L51.8134 152.294C59.3453 149.775 65.9315 146.437 67.4334 145.787C71.8933 143.854 75.0646 142.467 77.1205 141.562C78.1484 141.11 78.8977 140.779 79.3897 140.561C79.6356 140.452 79.8173 140.371 79.9375 140.318C79.9975 140.291 80.0423 140.271 80.072 140.258C80.0867 140.251 80.0977 140.246 80.1051 140.243C80.1087 140.241 80.1115 140.24 80.1133 140.239L80.1156 140.238L80.1158 140.238C80.2523 140.177 80.4069 140.17 80.5487 140.217L80.5495 140.218C80.5502 140.218 80.5515 140.218 80.5532 140.219C80.5565 140.22 80.5618 140.222 80.5688 140.224C80.5828 140.229 80.6042 140.236 80.6321 140.245C80.6881 140.263 80.7712 140.29 80.8782 140.325C81.0925 140.393 81.4032 140.49 81.7852 140.603C82.55 140.829 83.5984 141.12 84.736 141.379C85.876 141.638 87.0933 141.862 88.1983 141.96C89.3216 142.059 90.2552 142.019 90.8698 141.805C92.1557 141.358 93.3112 140.313 94.169 139.324C94.5916 138.836 94.9288 138.378 95.16 138.042C95.1718 138.025 95.1829 138.008 95.1942 137.991L93.3269 136.824C93.1382 136.706 93.0312 136.493 93.0495 136.271C93.0679 136.049 93.2085 135.856 93.4141 135.771L93.4145 135.77C93.4151 135.77 93.4162 135.77 93.4177 135.769C93.4208 135.768 93.426 135.766 93.4327 135.763C93.4461 135.757 93.4663 135.748 93.4926 135.737C93.5454 135.714 93.6221 135.68 93.7156 135.636C93.9035 135.549 94.1557 135.427 94.4159 135.284C94.6785 135.139 94.9366 134.98 95.1426 134.822C95.3656 134.651 95.4591 134.532 95.4816 134.484C95.5124 134.417 95.5276 134.303 95.4266 134.087C95.3245 133.869 95.1362 133.625 94.9008 133.383C94.6703 133.146 94.4205 132.937 94.2252 132.785C94.1285 132.71 94.0469 132.65 93.9905 132.61C93.9623 132.59 93.9403 132.575 93.9261 132.565C93.919 132.561 93.9138 132.557 93.9107 132.555C93.9092 132.554 93.908 132.553 93.9075 132.553L93.9073 132.553L93.9075 132.553C93.7278 132.433 93.6267 132.226 93.6437 132.01C93.6597 131.809 93.7773 131.63 93.9538 131.534L93.9893 131.517L93.9891 131.517C93.9893 131.516 93.9899 131.516 93.9907 131.516C93.9924 131.515 93.9956 131.514 94 131.511C94.0092 131.507 94.0238 131.5 94.043 131.491C94.0816 131.472 94.1388 131.442 94.2084 131.405C94.3487 131.328 94.5349 131.218 94.723 131.084C94.9134 130.949 95.0908 130.799 95.2239 130.645C95.3602 130.487 95.4195 130.361 95.4349 130.271C95.448 130.195 95.4409 130.095 95.2284 129.934C95.0028 129.762 94.6448 129.611 94.2191 129.488C93.8044 129.369 93.3752 129.292 93.0449 129.244C92.881 129.22 92.744 129.204 92.649 129.194C92.6016 129.189 92.5648 129.186 92.5404 129.184C92.5283 129.183 92.5191 129.182 92.5134 129.181C92.5107 129.181 92.5085 129.181 92.5074 129.181L92.5062 129.181L92.5064 129.181L92.5066 129.181C92.2033 129.158 91.9661 128.909 91.957 128.605C91.9479 128.301 92.1697 128.039 92.4711 127.998L92.4712 127.998C92.4721 127.998 92.4736 127.998 92.4759 127.998C92.4805 127.997 92.4882 127.996 92.4985 127.994C92.519 127.991 92.5505 127.986 92.5912 127.979C92.6728 127.965 92.7917 127.944 92.9355 127.913C93.2251 127.851 93.6082 127.755 93.9933 127.615C94.3834 127.474 94.7463 127.299 95.015 127.093C95.2846 126.887 95.4056 126.691 95.4336 126.513C95.4593 126.349 95.414 126.23 95.2318 126.092C95.0196 125.93 94.6756 125.796 94.254 125.699C93.8448 125.605 93.4193 125.558 93.0902 125.536C92.9273 125.524 92.7913 125.519 92.6969 125.516C92.6498 125.515 92.6131 125.515 92.589 125.515C92.5785 125.516 92.5657 125.518 92.551 125.52ZM96.4051 135.242C96.2509 135.449 96.0498 135.626 95.8665 135.766C95.5942 135.975 95.279 136.167 94.9899 136.326C94.9509 136.347 94.9118 136.368 94.8735 136.388L95.9893 137.085C96.0805 136.707 96.1676 136.333 96.2493 135.966C96.3034 135.723 96.3553 135.481 96.4051 135.242ZM80.9088 78.2555C79.2263 80.5301 77.5992 81.7673 74.3095 83.8459L73.6289 84.2733L73.1518 84.5717L73.0461 85.1243L72.033 90.4261C71.7988 90.4512 71.5593 90.4743 71.3146 90.4955L70.1311 87.3286L69.9537 86.8535L69.5001 86.6269C65.7877 84.771 64.1318 83.771 62.4232 81.6767L61.4333 80.4633L60.433 81.6685L59.2748 83.0643C59.2382 83.0715 59.1995 83.0792 59.1588 83.0872C58.7965 83.159 58.2756 83.2627 57.6415 83.3901C56.3735 83.6448 54.6508 83.9948 52.8332 84.3761C49.2412 85.1297 45.1519 86.0309 43.5621 86.5558C41.2478 87.3201 39.2992 89.191 37.7464 91.2728C36.1746 93.3802 34.8975 95.8538 33.9701 98.0583C31.7085 103.434 30.4755 107.369 29.4747 110.798C28.4719 114.233 27.7255 117.07 26.4172 120.374C26.2226 120.865 26.2829 121.383 26.5404 121.806C26.7565 122.16 27.0666 122.376 27.2881 122.504C27.7384 122.764 28.3238 122.935 28.881 123.061C30.0378 123.322 31.5906 123.495 33.0975 123.614C34.6202 123.734 36.1575 123.802 37.31 123.84C37.8872 123.859 38.3702 123.87 38.7095 123.877C38.8792 123.881 39.0132 123.883 39.105 123.884C39.1303 123.885 39.1525 123.885 39.1713 123.885L41.9455 124.246C42.9979 124.295 43.9819 124.392 44.7638 124.549C45.1837 124.633 45.5685 124.739 45.8816 124.876C46.1719 125.003 46.5081 125.202 46.6837 125.534C46.7634 125.685 46.7744 125.863 46.7139 126.023C46.0113 127.877 45.2639 129.597 44.5228 131.303C43.7802 133.012 43.0437 134.707 42.3526 136.531C42.3205 136.616 42.2695 136.692 42.2035 136.754L42.1931 136.764C42.1565 136.912 42.12 137.061 42.0833 137.211L51.0224 136.398L51.9442 99.6668C51.9872 97.9565 53.4537 96.6412 55.1444 96.7258C58.1687 96.8771 63.4432 97.0221 68.309 96.5706C69.777 96.4344 71.9762 95.8794 74.2033 94.9511C76.4322 94.022 78.6285 92.7441 80.1304 91.1973C81.3294 89.9625 82.4363 88.0495 83.2545 86.4033C83.6598 85.5879 83.9874 84.8522 84.2135 84.3206C84.3266 84.0549 84.4141 83.8405 84.4731 83.6934C84.5026 83.6199 84.5251 83.5631 84.5399 83.5251C84.5473 83.5062 84.5527 83.4918 84.5563 83.4824C84.5581 83.4778 84.5595 83.4743 84.5603 83.4721L84.5614 83.4691L85.6729 83.893L85.673 83.8932C85.6729 83.8935 85.6727 83.8938 85.6726 83.8942C85.6723 83.895 85.6717 83.8963 85.6711 83.8977C85.67 83.9007 85.6683 83.9049 85.6663 83.9103C85.6621 83.9212 85.656 83.9371 85.648 83.9577C85.6319 83.9989 85.6081 84.0591 85.5772 84.1361C85.5155 84.2902 85.4246 84.5122 85.3081 84.7862C85.075 85.334 84.7379 86.0918 84.3198 86.9328C83.4913 88.5998 82.3178 90.6521 80.984 92.0259C79.3264 93.7329 76.9678 95.0874 74.6609 96.049C72.3523 97.0113 70.0347 97.6053 68.419 97.7553C63.4689 98.2146 58.1281 98.0662 55.085 97.914C54.044 97.8619 53.1593 98.6727 53.1335 99.6967L52.2151 136.29L75.5876 134.165C75.6812 134.046 75.8133 133.881 75.9774 133.679C76.3226 133.254 76.8107 132.666 77.3825 132.015C78.5186 130.723 80.0141 129.147 81.3889 128.112C82.6094 127.194 84.1691 126.481 85.7196 125.936C85.5943 125.612 85.5383 125.239 85.5774 124.82L85.5906 124.709C85.6064 124.598 85.6303 124.488 85.6618 124.38L91.8896 103.115C91.959 102.878 91.9719 102.628 91.9276 102.385L90.2612 93.2328C90.1877 92.8289 90.1773 92.4159 90.2305 92.0088L91.1406 85.0426C90.5386 84.8617 89.9285 84.6787 89.3339 84.5004C88.0106 84.1037 86.7612 83.7298 85.8427 83.4552C85.4879 83.3492 85.1824 83.2578 84.9411 83.1857L83.1466 78.5561L82.3007 76.3739L80.9088 78.2555ZM107.128 96.7266C106.979 97.8898 106.324 98.9278 105.337 99.5613L96.4448 105.269C96.1209 105.477 95.8835 105.795 95.7771 106.165L90.4566 124.671C90.7579 124.611 91.034 124.56 91.2786 124.517C91.6469 124.452 91.9448 124.406 92.1513 124.375C92.2546 124.36 92.3352 124.349 92.3904 124.341C92.4179 124.338 92.4393 124.335 92.4539 124.333C92.4611 124.332 92.4667 124.331 92.4707 124.331C92.4726 124.33 92.4742 124.33 92.4753 124.33C92.4758 124.33 92.4763 124.33 92.4766 124.33L92.477 124.33C92.4772 124.33 92.4775 124.33 92.5398 124.826L92.4774 124.33C92.5005 124.327 92.5238 124.325 92.547 124.325L92.5517 124.92C92.5471 124.325 92.5472 124.325 92.5474 124.325L92.5621 124.325C92.5707 124.325 92.5829 124.325 92.5982 124.325C92.6287 124.326 92.6722 124.326 92.7266 124.327C92.8356 124.33 92.9895 124.336 93.1727 124.349C93.5362 124.374 94.0288 124.427 94.5205 124.54C94.9999 124.65 95.5399 124.831 95.953 125.146C96.3962 125.483 96.7176 126.004 96.609 126.697C96.516 127.29 96.1426 127.728 95.7389 128.037C95.5085 128.214 95.2505 128.363 94.9885 128.488C95.329 128.613 95.6687 128.774 95.9477 128.986C96.3614 129.3 96.7233 129.798 96.6073 130.473C96.5415 130.856 96.3374 131.176 96.1239 131.423C95.9073 131.674 95.6485 131.886 95.4131 132.053C95.3759 132.08 95.3388 132.105 95.3022 132.13C95.4476 132.256 95.6026 132.398 95.7536 132.554C96.0303 132.838 96.3212 133.192 96.5041 133.583C96.5624 133.707 96.6128 133.843 96.6472 133.986C96.808 133.074 96.9262 132.198 96.9843 131.376C99.7809 131.601 101.149 131.58 104.855 131.259C106.405 131.126 108.984 130.72 111.132 130.357C112.216 130.173 113.205 129.999 113.923 129.869C114.283 129.805 114.574 129.752 114.777 129.715C114.878 129.696 114.956 129.682 115.01 129.672C115.037 129.667 115.057 129.663 115.071 129.66C115.078 129.659 115.083 129.658 115.087 129.657C115.089 129.657 115.09 129.657 115.091 129.657C115.091 129.657 115.092 129.656 115.092 129.656L115.092 129.656L114.857 128.389C116.096 128.327 116.142 128.324 116.144 128.324L116.143 128.32C116.143 128.318 116.143 128.315 116.143 128.311C116.143 128.304 116.142 128.294 116.141 128.28C116.14 128.254 116.137 128.215 116.134 128.165C116.128 128.065 116.118 127.919 116.104 127.729C116.075 127.35 116.028 126.798 115.954 126.093C115.806 124.685 115.551 122.668 115.121 120.217C114.264 115.318 112.707 108.668 109.907 101.672C109.095 99.6452 108.213 97.7545 107.217 96.0329L107.128 96.7266ZM114.857 128.389L115.093 129.656L116.201 129.45L116.144 128.324L114.857 128.389ZM45.0068 125.828C44.7515 126.78 44.437 127.965 44.0816 129.326C44.5492 128.237 45.0098 127.137 45.4532 125.988C45.4382 125.981 45.4221 125.973 45.4047 125.966C45.2969 125.919 45.1641 125.872 45.0068 125.828ZM93.031 103.449L89.1109 116.835L93.0312 103.449C93.037 103.429 93.0424 103.409 93.0478 103.389C93.0424 103.409 93.0369 103.429 93.031 103.449Z" fill="#CCCCCC"/>
<path d="M107.671 166.216C113.302 152.821 113.369 131.264 113.369 131.264C111.086 132.04 108.35 133.025 105.24 133.247C102.453 133.445 98.4003 133.247 98.4003 133.247L91.7585 160.012L83.9062 180.959C83.9062 180.959 83.6536 185.278 84.8203 187.195C86.0297 189.182 89.524 189.836 89.524 189.836C89.524 189.836 103.883 175.229 107.671 166.216Z" fill="#CCCCCC"/>
<path d="M92.5341 84.2508C92.9455 81.1016 95.291 78.1592 98.4303 78.6403C100.561 78.9669 102.3 79.9753 104.217 81.4273C106.38 83.0659 107.381 85.8171 106.99 88.5024L106.138 94.3649C105.841 96.401 104.746 98.235 103.094 99.4611L95.7531 104.908C95.2144 105.308 94.8221 105.874 94.6367 106.518L89.0213 126.05C88.6338 127.397 86.6314 127.019 86.762 125.623C86.7688 125.55 86.7827 125.477 86.8034 125.406L92.7012 105.267C93.0395 104.112 93.1035 102.893 92.8878 101.709L91.5702 94.4737C91.4268 93.686 91.4067 92.8807 91.5104 92.0868L92.5341 84.2508ZM105.836 85.5625C105.836 85.5625 104.548 87.9633 103.212 89.4898C100.053 93.1006 98.1145 100.665 98.1122 100.674C98.1177 100.667 102.738 94.9492 104.901 90.8045C105.85 88.9855 105.836 85.5625 105.836 85.5625ZM102.175 83.3586C102.175 83.3586 100.111 85.7914 99.1302 87.5666C96.8128 91.7604 96.5217 99.5495 96.5206 99.5786C96.5322 99.5556 99.8268 92.9972 101.059 88.4929C101.601 86.5139 102.175 83.3586 102.175 83.3586ZM96.8147 81.7955C96.8147 81.7955 95.3148 84.6108 94.733 86.5538C93.3571 91.149 94.7308 98.8342 94.733 98.8462C94.7372 98.8303 96.5664 91.9139 96.8147 87.2478C96.9238 85.1989 96.8147 81.7955 96.8147 81.7955Z" fill="#CCCCCC"/>
<path d="M35.06 125.37C36.7432 125.123 39.4188 125.049 41.7549 125.186C42.922 125.254 43.9811 125.374 44.7755 125.544C45.1744 125.629 45.4849 125.723 45.7019 125.819C45.7201 125.827 45.737 125.835 45.7529 125.842L41.4147 135.932L36.7468 140.308C36.5177 140.523 36.4951 140.878 36.6949 141.12C36.8948 141.363 37.2485 141.408 37.5027 141.223L41.3353 138.444L76.0668 135.287C76.2317 135.272 76.383 135.189 76.4841 135.058L76.4844 135.057C76.4848 135.057 76.4852 135.056 76.4858 135.055C76.4872 135.054 76.4895 135.051 76.4924 135.047C76.4982 135.04 76.5071 135.028 76.5187 135.013C76.5421 134.983 76.5771 134.939 76.6227 134.881C76.7139 134.765 76.8475 134.597 77.0163 134.39C77.3542 133.974 77.8321 133.398 78.3916 132.762C79.5182 131.48 80.9474 129.981 82.2198 129.024C83.9626 127.712 86.5669 126.818 88.7927 126.251C89.8952 125.97 90.8853 125.775 91.5995 125.65C91.9563 125.587 92.2438 125.542 92.441 125.513C92.5395 125.498 92.6156 125.488 92.6665 125.481C92.6813 125.479 92.694 125.477 92.7045 125.476C92.7286 125.476 92.7652 125.476 92.8123 125.477C92.9067 125.48 93.0428 125.485 93.2058 125.496C93.5348 125.519 93.9603 125.566 94.3696 125.66C94.7911 125.757 95.1352 125.891 95.3474 126.052C95.5295 126.191 95.5748 126.31 95.5491 126.474C95.5211 126.652 95.4001 126.847 95.1305 127.054C94.8618 127.26 94.4989 127.435 94.1088 127.576C93.7237 127.716 93.3407 127.812 93.0511 127.874C92.9072 127.905 92.7883 127.926 92.7066 127.94C92.6659 127.947 92.6344 127.952 92.6139 127.955C92.6037 127.957 92.596 127.958 92.5914 127.959C92.5892 127.959 92.5876 127.959 92.5868 127.959H92.5866C92.2853 128 92.0635 128.262 92.0725 128.566C92.0817 128.87 92.3188 129.118 92.622 129.141V129.142H92.6218L92.623 129.142C92.6241 129.142 92.6262 129.142 92.629 129.142C92.6347 129.143 92.6438 129.143 92.6559 129.144C92.6803 129.147 92.7171 129.15 92.7645 129.155C92.8595 129.165 92.9965 129.181 93.1605 129.205C93.4908 129.253 93.92 129.33 94.3345 129.449C94.7602 129.571 95.1183 129.723 95.3439 129.894C95.5564 130.056 95.5635 130.156 95.5505 130.232C95.535 130.322 95.4757 130.448 95.3394 130.606C95.2063 130.76 95.0289 130.91 94.8385 131.045C94.6504 131.179 94.4642 131.289 94.3239 131.365C94.2543 131.403 94.1971 131.432 94.1585 131.451C94.1393 131.461 94.1247 131.468 94.1156 131.472C94.111 131.474 94.1078 131.476 94.1061 131.477C94.1053 131.477 94.1047 131.477 94.1045 131.477H94.1047L94.0693 131.495C93.8928 131.591 93.7753 131.769 93.7593 131.971C93.7423 132.186 93.8433 132.394 94.023 132.513H94.0228L94.023 132.514C94.0235 132.514 94.0247 132.515 94.0261 132.516C94.0292 132.518 94.0345 132.521 94.0416 132.526C94.0558 132.536 94.0777 132.551 94.1059 132.571C94.1623 132.611 94.244 132.671 94.3407 132.746C94.536 132.898 94.7858 133.107 95.0163 133.344C95.2517 133.586 95.4399 133.83 95.5421 134.048C95.6431 134.264 95.6279 134.378 95.5971 134.445C95.5746 134.493 95.4812 134.612 95.2581 134.783C95.0521 134.941 94.794 135.1 94.5315 135.245C94.2712 135.388 94.019 135.51 93.8311 135.597C93.7376 135.641 93.6609 135.675 93.6081 135.698C93.5818 135.709 93.5615 135.718 93.5481 135.724C93.5414 135.727 93.5363 135.729 93.5332 135.73C93.5316 135.731 93.5305 135.731 93.5299 135.731L93.5295 135.731C93.324 135.817 93.1833 136.01 93.1649 136.232C93.1466 136.454 93.2537 136.667 93.4424 136.785L95.3295 137.965C95.318 137.983 95.3067 138.002 95.2945 138.021C95.0822 138.356 94.7701 138.812 94.3731 139.298C93.5673 140.282 92.4635 141.322 91.1844 141.766C90.5701 141.979 89.6245 142.02 88.4809 141.92C87.3565 141.823 86.1138 141.598 84.9486 141.339C83.7856 141.08 82.7116 140.789 81.928 140.562C81.5366 140.449 81.2183 140.352 80.9984 140.284C80.8886 140.25 80.8032 140.223 80.7458 140.204C80.7171 140.195 80.6951 140.188 80.6807 140.184C80.6735 140.181 80.6681 140.179 80.6646 140.178C80.663 140.178 80.6617 140.177 80.661 140.177L80.66 140.177C80.5194 140.131 80.3664 140.138 80.2313 140.199H80.2311L80.2288 140.2C80.227 140.201 80.2241 140.202 80.2205 140.204C80.2132 140.207 80.2021 140.212 80.1874 140.219C80.1578 140.232 80.113 140.252 80.053 140.278C79.9329 140.332 79.7512 140.413 79.5053 140.522C79.0133 140.74 78.264 141.071 77.2361 141.523C75.1801 142.427 72.0088 143.815 67.5489 145.747C65.7566 146.524 56.7255 151.126 47.4863 153.599C42.864 154.836 38.2635 155.518 34.5384 154.954C30.8498 154.395 28.0826 152.633 26.9149 148.986C25.5636 144.767 26.1754 138.73 27.1693 133.657C27.6628 131.139 28.2437 128.891 28.7012 127.272C28.9299 126.462 29.1276 125.811 29.2678 125.363C29.2917 125.287 29.3141 125.216 29.3346 125.152C29.3707 125.157 29.4085 125.163 29.4478 125.169C29.8346 125.225 30.3755 125.296 30.9931 125.357C32.2153 125.476 33.7867 125.557 35.06 125.37Z" fill="#CCCCCC"/>
<path d="M92.4236 53.3596C92.6587 53.2117 92.9593 53.2181 93.1877 53.376C93.4162 53.534 93.5286 53.8129 93.4734 54.0851L92.5958 58.4049L94.7469 57.0512C95.0712 56.847 95.4996 56.9445 95.7038 57.2689C95.9079 57.5932 95.8104 58.0216 95.4861 58.2258L91.9623 60.4434C91.7273 60.5914 91.4266 60.5849 91.1982 60.427C90.9697 60.2691 90.8573 59.9901 90.9126 59.718L91.7901 55.3981L89.639 56.7519C89.3147 56.956 88.8863 56.8585 88.6821 56.5342C88.478 56.2098 88.5755 55.7814 88.8998 55.5773L92.4236 53.3596Z" fill="#CCCCCC"/>
<path d="M97.4998 43.4023C97.7757 43.4339 98.0062 43.627 98.0857 43.8931C98.1652 44.1592 98.0784 44.4472 97.8651 44.6249L94.4783 47.4465L97.0034 47.7358C97.3842 47.7794 97.6575 48.1234 97.6139 48.5041C97.5703 48.8849 97.2263 49.1582 96.8455 49.1146L92.709 48.6408C92.4331 48.6092 92.2026 48.4161 92.1231 48.15C92.0436 47.8839 92.1303 47.5959 92.3437 47.4182L95.7304 44.5966L93.2054 44.3073C92.8246 44.2637 92.5513 43.9197 92.5949 43.539C92.6385 43.1582 92.9825 42.8849 93.3633 42.9285L97.4998 43.4023Z" fill="#CCCCCC"/>
<path d="M90.7967 36.9017C90.9455 36.8465 91.1129 36.8853 91.2221 37.0004C91.3314 37.1155 91.3614 37.2848 91.2986 37.4305L90.6161 39.0134L91.4632 38.6993C91.6685 38.6232 91.8967 38.7279 91.9728 38.9333C92.0489 39.1386 91.9442 39.3668 91.7389 39.4429L90.0229 40.0791C89.8742 40.1342 89.7068 40.0954 89.5975 39.9804C89.4882 39.8652 89.4582 39.696 89.5211 39.5503L90.2035 37.9674L89.3565 38.2815C89.1511 38.3576 88.923 38.2529 88.8468 38.0475C88.7707 37.8422 88.8754 37.614 89.0808 37.5379L90.7967 36.9017Z" fill="#CCCCCC"/>
<path d="M102.324 34.2176C102.577 34.3304 102.739 34.5836 102.736 34.8613C102.732 35.139 102.563 35.3878 102.306 35.4935L98.7151 36.9717L100.706 37.8566C101.057 38.0122 101.214 38.4223 101.059 38.7725C100.903 39.1227 100.493 39.2805 100.143 39.1248L96.6693 37.5813C96.4155 37.4685 96.2534 37.2153 96.2573 36.9375C96.2611 36.6599 96.4301 36.4111 96.6869 36.3054L100.278 34.8273L98.2864 33.9423C97.9362 33.7866 97.7784 33.3766 97.9341 33.0264C98.0897 32.6761 98.4998 32.5184 98.85 32.674L102.324 34.2176Z" fill="#CCCCCC"/>
</g>
</svg>
