<svg width="44" height="44" viewBox="0 0 44 44" fill="none" xmlns="http://www.w3.org/2000/svg">
<circle cx="22" cy="22" r="22" fill="white"/>
<path d="M26.4139 12.693C26.556 12.6842 26.705 12.677 26.8589 12.6726C27.8631 12.6438 29.1903 12.7202 30.1671 13.2414C31.0387 13.7065 31.649 14.5398 32.0816 15.448C32.5168 16.3618 32.7988 17.4071 32.9837 18.3782C33.1691 19.3529 33.2607 20.2742 33.306 20.9501C33.3287 21.2887 33.34 21.5674 33.3455 21.7624C33.3483 21.8599 33.3496 21.9366 33.3503 21.9895C33.3506 22.0159 33.3508 22.0365 33.3509 22.0507C33.3509 22.0578 33.3509 22.0633 33.3509 22.0672C33.3509 22.0692 33.3509 22.0707 33.3509 22.0718C33.3509 22.0724 33.3509 22.0729 33.3509 22.0733C33.3509 22.0734 33.3509 22.0737 33.3509 22.0738L32.8005 22.0736L33.3509 22.074L33.348 23.9014L32.3425 22.3808C32.3412 22.3789 32.3387 22.3755 32.3352 22.3706C32.3274 22.3596 32.314 22.3415 32.2954 22.318C32.2581 22.2707 32.2012 22.2031 32.127 22.1287C31.9747 21.9759 31.7701 21.8144 31.5328 21.7222C31.3074 21.6346 31.0465 21.6057 30.7392 21.7184C30.4203 21.8354 30.0021 22.1234 29.514 22.7671C29.3438 22.9915 29.1146 23.0826 28.9154 23.1163C28.8977 23.1754 28.8757 23.2341 28.8495 23.2919C28.6217 23.7955 28.014 24.4283 26.7977 25.3015C23.806 27.4491 21.447 28.9151 17.5274 29.8888C15.3299 30.4347 14.0215 30.5943 11.7583 30.5924L11.7321 30.5924L11.7061 30.5899C11.1958 30.5407 10.7491 30.4134 10.4265 30.148C10.0718 29.8562 9.93862 29.4582 9.95654 29.0509C9.97313 28.6738 10.1167 28.2856 10.2992 27.9208C10.4857 27.5481 10.7374 27.1524 11.017 26.7507C11.5641 25.9648 12.2979 25.0481 12.9129 24.2112C13.3445 23.6239 13.7357 23.1084 14.026 22.5854C14.1151 22.563 14.1975 22.547 14.2864 22.5182L14.2868 22.5181C14.2873 22.518 14.2881 22.5178 14.2891 22.5174C14.2912 22.5168 14.2944 22.5157 14.2988 22.5143C14.3076 22.5115 14.321 22.5072 14.3387 22.5016C14.3742 22.4904 14.4273 22.4737 14.4962 22.4526C14.6339 22.4103 14.8348 22.3501 15.0851 22.2786C15.5862 22.1355 16.2835 21.9482 17.0679 21.7713C18.6582 21.4127 20.5295 21.1153 21.859 21.2693C22.9805 21.3991 24.4113 21.8637 25.5912 22.3129C26.1747 22.535 26.6854 22.7488 27.0499 22.907C27.232 22.986 27.3774 23.051 27.4767 23.096C27.5264 23.1186 27.5645 23.1361 27.59 23.1479C27.6027 23.1538 27.6123 23.1583 27.6186 23.1612C27.6217 23.1626 27.624 23.1637 27.6255 23.1643C27.6262 23.1647 27.6267 23.1649 27.627 23.1651L27.6273 23.1652L28.3147 23.4881L28.4071 22.7311L28.4072 22.7309C28.4072 22.7308 28.4072 22.7307 28.4072 22.7305C28.4073 22.7302 28.4073 22.7297 28.4074 22.7291C28.4075 22.7279 28.4077 22.7263 28.408 22.7242C28.4085 22.7201 28.4092 22.7141 28.4101 22.7064C28.4119 22.6909 28.4145 22.6683 28.4178 22.6392C28.4243 22.5809 28.4335 22.4963 28.4443 22.3891C28.4659 22.1749 28.4938 21.8703 28.5197 21.5067C28.5715 20.7814 28.6161 19.8121 28.5841 18.8525C28.5278 17.1641 27.9173 15.534 27.3414 14.3481C27.0512 13.7505 26.7645 13.2551 26.5497 12.908C26.5005 12.8284 26.4549 12.7566 26.4139 12.693ZM23.1944 11.0769C23.6268 11.0275 24.0003 11.2067 24.2767 11.41C24.5559 11.6156 24.9394 11.9668 25.1423 12.4587C25.2259 12.6613 25.1807 12.8452 25.2921 12.9999C25.2922 13 25.2923 13.0003 25.2925 13.0005C25.2931 13.0014 25.2943 13.003 25.296 13.0054C25.2993 13.0101 25.3047 13.0177 25.3119 13.028C25.3263 13.0487 25.3482 13.0803 25.3764 13.1223C25.433 13.2064 25.5151 13.3317 25.6145 13.4924C25.8138 13.8143 26.0813 14.2765 26.3518 14.8336C26.8974 15.9571 27.4348 17.425 27.4837 18.8905C27.5139 19.7966 27.472 20.7237 27.4216 21.4284C27.4108 21.5802 27.3994 21.7213 27.3885 21.8492C27.0215 21.6912 26.5338 21.4887 25.9822 21.2787C24.7897 20.8248 23.2514 20.3172 21.986 20.1707C20.4557 19.9935 18.4246 20.3321 16.8275 20.6923C16.0182 20.8748 15.3004 21.0677 14.785 21.2149C14.669 21.248 14.5632 21.2788 14.4687 21.3067C14.5621 20.7603 14.5991 20.1945 14.6271 19.6081C14.6642 18.8353 14.686 18.0061 14.8292 17.2277C14.975 16.4355 15.252 15.6545 15.8237 14.9627C16.3932 14.2736 17.2205 13.7149 18.398 13.3025C19.2099 12.9788 20.0498 12.7658 20.681 12.6338C20.9992 12.5672 21.2678 12.5205 21.4579 12.4904C21.4692 12.4886 21.4803 12.4869 21.4911 12.4852C21.5731 12.353 21.6891 12.1784 21.831 11.9989C21.9776 11.8136 22.1627 11.6092 22.3779 11.4406C22.589 11.2751 22.8667 11.1143 23.1944 11.0769ZM22.6091 15.3138C22.6152 15.2657 22.5983 15.2062 22.4285 15.2659C21.7676 15.4984 18.4757 17.2855 18.4952 17.2712C18.4881 17.2665 18.6893 16.9467 18.7256 16.9092C18.7898 16.8428 18.7304 16.7529 18.6391 16.7916C18.4841 16.8574 18.2445 17.3897 18.2445 17.3897C18.2401 17.3914 17.6459 17.6283 17.492 17.7621C17.4557 17.7937 17.4845 17.8987 17.5389 17.9024C17.6572 17.9104 18.1065 17.747 18.1065 17.747C18.1057 17.7486 17.9865 18.0059 18.1158 18.1191C18.1456 18.1453 18.2392 18.1229 18.1885 18.0439C18.1516 17.9865 18.2608 17.7157 18.2972 17.6988C18.8068 17.4651 22.9685 17.3519 23.0404 17.4075C23.1124 17.463 23.1593 17.3186 22.9708 17.2674C22.7822 17.2162 20.0939 17.2819 18.3838 17.5043C18.6381 17.4027 20.7965 16.0929 22.4479 15.3954C22.5129 15.368 22.6047 15.3485 22.6091 15.3138ZM21.169 17.5201C21.1269 17.4955 21.0606 17.4959 21.0151 17.5241C20.9845 17.543 20.9712 17.565 20.9629 17.6001C20.9579 17.6351 20.9648 17.6682 20.9847 17.6973C21.0066 17.7247 21.0375 17.7377 21.0717 17.7423C21.111 17.743 21.1452 17.7348 21.1754 17.7089C21.1776 17.7064 21.1796 17.704 21.1817 17.7017C21.185 17.7104 21.1883 17.7189 21.1916 17.7274C21.2031 17.7263 21.2143 17.7253 21.2255 17.7243C21.2219 17.6858 21.2185 17.6484 21.2151 17.611C21.1755 17.6147 21.137 17.6182 21.0986 17.6218C21.0996 17.6333 21.1007 17.6446 21.1017 17.6558C21.1261 17.6548 21.1498 17.6539 21.1735 17.653C21.1676 17.668 21.1555 17.6782 21.1419 17.6863C21.1066 17.703 21.0594 17.7134 21.0282 17.6816C20.9993 17.6521 21.0007 17.608 21.019 17.5798C21.0237 17.5726 21.0345 17.5624 21.0381 17.5608C21.0645 17.5479 21.0852 17.5444 21.1146 17.548C21.1298 17.5511 21.1394 17.5565 21.1513 17.5676C21.1589 17.5746 21.1675 17.5885 21.1676 17.5887L21.209 17.585C21.209 17.585 21.2049 17.5609 21.197 17.5479C21.189 17.5347 21.1809 17.5272 21.169 17.5201ZM20.7109 17.7757C20.7249 17.7744 20.7386 17.7732 20.7522 17.7719C20.7484 17.7154 20.7446 17.6604 20.7409 17.6055C20.7485 17.6149 20.7565 17.6237 20.7649 17.6325C20.782 17.6505 20.7988 17.6686 20.8149 17.6876C20.8229 17.6971 20.8907 17.7585 20.8913 17.759L20.9364 17.7548C20.9364 17.7548 20.9268 17.6036 20.9196 17.528C20.9042 17.5295 20.8893 17.5308 20.8744 17.5322C20.8781 17.5875 20.8854 17.6949 20.8854 17.6949L20.8245 17.6282C20.8236 17.6272 20.7931 17.5957 20.7787 17.5787C20.7738 17.5729 20.7437 17.5451 20.7429 17.5444C20.7429 17.5444 20.7076 17.5476 20.6902 17.5492C20.6973 17.6262 20.704 17.701 20.7109 17.7757ZM20.6067 17.6329C20.6079 17.6463 20.6091 17.6597 20.6103 17.6731C20.6115 17.6862 20.6126 17.6994 20.6138 17.7125C20.6142 17.7176 20.6147 17.7226 20.6152 17.7275C20.6156 17.7325 20.616 17.7374 20.6164 17.7422C20.6169 17.7468 20.6173 17.7513 20.6177 17.7557C20.6181 17.7598 20.6184 17.7638 20.6187 17.7677C20.62 17.7766 20.62 17.7765 20.6241 17.78C20.6382 17.7787 20.6518 17.7774 20.6654 17.7762C20.6584 17.6992 20.6516 17.6244 20.6448 17.5497C20.6295 17.5511 20.6146 17.5524 20.5997 17.5538C20.6021 17.5802 20.6044 17.6066 20.6067 17.6329ZM20.3498 17.8054C20.3638 17.8041 20.3775 17.8029 20.3911 17.8016C20.3873 17.745 20.3835 17.6901 20.3797 17.6351C20.3873 17.6446 20.3954 17.6534 20.4037 17.6622C20.4209 17.6802 20.4377 17.6983 20.4538 17.7172C20.4617 17.7267 20.5282 17.787 20.5301 17.7887L20.5753 17.7845C20.5751 17.7825 20.5656 17.6328 20.5584 17.5577C20.5431 17.5591 20.5282 17.5605 20.5133 17.5619C20.517 17.6169 20.5243 17.7236 20.5243 17.7245L20.4634 17.6579C20.4634 17.6579 20.4322 17.6256 20.4176 17.6083C20.4127 17.6025 20.3817 17.5741 20.3817 17.5741C20.3804 17.5742 20.3462 17.5774 20.3292 17.579C20.3362 17.6559 20.343 17.7307 20.3498 17.8054ZM20.2595 17.8138C20.2749 17.8124 20.2898 17.811 20.3047 17.8096C20.2977 17.7326 20.2909 17.6579 20.2841 17.5831C20.2687 17.5845 20.2538 17.5859 20.2389 17.5873C20.2459 17.6643 20.2527 17.7391 20.2595 17.8138ZM19.9828 17.6907C19.984 17.7041 19.9852 17.7176 19.9864 17.731C19.9876 17.7441 19.9888 17.7572 19.99 17.7704C19.9904 17.7754 19.9908 17.7804 19.9913 17.7853C19.9917 17.7903 19.9921 17.7952 19.9925 17.8001C19.993 17.8047 19.9934 17.8091 19.9938 17.8136C19.9944 17.8205 19.9952 17.8275 19.9962 17.8344C20.0003 17.8378 20.0002 17.8378 20.011 17.8373C20.0159 17.8369 20.0206 17.8364 20.0254 17.836C20.0305 17.8355 20.0357 17.8351 20.0409 17.8346C20.0491 17.8338 20.0573 17.833 20.0655 17.8323C20.0708 17.8318 20.0762 17.8313 20.0815 17.8308C20.0854 17.8305 20.0854 17.8304 20.0892 17.8301C20.1217 17.827 20.1552 17.8213 20.1804 17.799C20.2049 17.7734 20.2206 17.7454 20.2206 17.7091C20.2179 17.6759 20.2057 17.6483 20.181 17.6256C20.1527 17.604 20.1187 17.5976 20.0838 17.6008C20.0811 17.6011 20.0783 17.6014 20.0756 17.6017C20.0667 17.6025 20.0578 17.6034 20.0489 17.6044C20.0427 17.605 20.0365 17.6056 20.0303 17.6062C20.0122 17.608 19.994 17.6098 19.9758 17.6117C19.9782 17.638 19.9805 17.6643 19.9828 17.6907ZM19.5925 17.6472C19.5936 17.6588 19.5942 17.6704 19.5967 17.6818C19.5974 17.6841 19.5981 17.6863 19.5988 17.6885C19.5995 17.6912 19.6003 17.6938 19.601 17.6963C19.6128 17.7359 19.617 17.7704 19.6132 17.8116C19.6127 17.8157 19.6127 17.8157 19.6123 17.8198C19.612 17.8225 19.6117 17.8251 19.6115 17.8277C19.6099 17.8415 19.6099 17.8415 19.6132 17.8737C19.6358 17.8717 19.6585 17.8697 19.6812 17.8676C19.6904 17.8668 19.6996 17.8659 19.7088 17.8651C19.7224 17.8639 19.7361 17.8627 19.7497 17.8614C19.7541 17.861 19.7583 17.8607 19.7626 17.8603C19.7669 17.8599 19.771 17.8595 19.7752 17.8591C19.7791 17.8588 19.783 17.8584 19.7868 17.8581C19.7903 17.8577 19.7937 17.8574 19.7971 17.8571C19.8048 17.856 19.8048 17.8559 19.8082 17.8519C19.8072 17.8403 19.8062 17.8291 19.8051 17.8178C19.731 17.8228 19.731 17.8228 19.6583 17.8276C19.6591 17.8082 19.6598 17.7893 19.6606 17.7704C19.704 17.7663 19.7462 17.7624 19.7884 17.7585C19.7872 17.7456 19.786 17.7332 19.7849 17.7207C19.7414 17.7235 19.6991 17.7262 19.6568 17.7288C19.6528 17.7124 19.6488 17.6964 19.6448 17.6804C19.6934 17.6759 19.7405 17.6716 19.7876 17.6672C19.7865 17.6544 19.7853 17.6419 19.7842 17.6294C19.719 17.6355 19.6558 17.6413 19.5925 17.6472ZM19.3632 17.6685C19.3829 17.744 19.3911 17.7927 19.3845 17.8677C19.3834 17.8791 19.3816 17.8848 19.3876 17.8946C19.4103 17.8926 19.433 17.8906 19.4556 17.8885C19.4648 17.8877 19.474 17.8868 19.4832 17.886C19.4969 17.8848 19.5106 17.8836 19.5242 17.8823C19.5286 17.8819 19.5328 17.8815 19.5371 17.8812C19.5414 17.8808 19.5455 17.8804 19.5497 17.88C19.5536 17.8797 19.5575 17.8793 19.5614 17.8789C19.5649 17.8786 19.5682 17.8783 19.5716 17.878C19.5793 17.8769 19.5793 17.8768 19.5827 17.8727C19.5817 17.8612 19.5806 17.8499 19.5796 17.8387C19.5298 17.8434 19.4814 17.8479 19.4331 17.8523C19.4337 17.8316 19.4345 17.8114 19.4351 17.7913C19.4798 17.7871 19.5232 17.7831 19.5666 17.7791C19.5635 17.7451 19.5635 17.7451 19.5594 17.7416C19.5527 17.742 19.5461 17.7424 19.5395 17.7431C19.5366 17.7433 19.5339 17.7436 19.5311 17.7439C19.5222 17.7447 19.5134 17.7456 19.5046 17.7465C19.4984 17.7471 19.4922 17.7476 19.486 17.7482C19.4718 17.7496 19.4575 17.751 19.4433 17.7524C19.4374 17.7529 19.4374 17.753 19.4317 17.7535C19.4275 17.7358 19.4234 17.7186 19.4193 17.7014C19.4692 17.6968 19.5176 17.6923 19.5659 17.6878C19.5648 17.675 19.5636 17.6625 19.5625 17.65C19.4948 17.6563 19.429 17.6624 19.3632 17.6685ZM19.1636 17.7666C19.1648 17.78 19.166 17.7935 19.1672 17.8069C19.1683 17.82 19.1695 17.8332 19.1707 17.8464C19.1711 17.8514 19.1716 17.8564 19.172 17.8613C19.1725 17.8663 19.1729 17.8712 19.1733 17.876C19.1737 17.8806 19.1741 17.8851 19.1745 17.8896C19.1751 17.8965 19.1759 17.9035 19.1768 17.9104C19.1809 17.9138 19.181 17.9138 19.1895 17.9135C19.1947 17.913 19.1947 17.913 19.1998 17.9125C19.206 17.9119 19.2123 17.9113 19.2186 17.9103C19.222 17.9062 19.222 17.9061 19.2216 17.8977C19.2213 17.894 19.2209 17.8904 19.2206 17.8868C19.2202 17.8832 19.2199 17.8796 19.2195 17.8761C19.2168 17.8478 19.2168 17.8477 19.2141 17.8194C19.2601 17.8151 19.3047 17.811 19.3494 17.8068C19.3481 17.7927 19.3468 17.779 19.3455 17.7653C19.2995 17.7695 19.2549 17.7737 19.2102 17.7779C19.2085 17.7586 19.2068 17.7399 19.2051 17.7212C19.2524 17.7169 19.2983 17.7126 19.3442 17.7083C19.343 17.6955 19.3419 17.683 19.3407 17.6706C19.2781 17.6764 19.2174 17.682 19.1566 17.6877C19.1589 17.714 19.1612 17.7403 19.1636 17.7666ZM18.7776 17.7166C18.7596 17.718 18.7427 17.7198 18.7259 17.727C18.6933 17.7448 18.6724 17.769 18.6604 17.8046C18.6521 17.8369 18.6594 17.8707 18.6758 17.899C18.6939 17.9275 18.7179 17.9437 18.7508 17.9512C18.7965 17.9557 18.8459 17.9501 18.8825 17.9204C18.9082 17.8966 18.9195 17.8672 18.9211 17.8322C18.9195 17.7993 18.9077 17.77 18.8852 17.7459C18.8552 17.7205 18.8276 17.7133 18.7891 17.7157C18.7852 17.716 18.7814 17.7162 18.7776 17.7166ZM18.9589 17.9306C18.9728 17.9293 19.0032 17.9264 19.004 17.9263L18.996 17.8395C18.996 17.8395 19.0111 17.8382 19.0243 17.8374C19.0293 17.837 19.0343 17.8365 19.0392 17.836C19.0446 17.8355 19.05 17.8351 19.0553 17.8346C19.0638 17.8338 19.0723 17.833 19.0808 17.8322C19.0864 17.8317 19.0919 17.8312 19.0975 17.8307C19.1002 17.8304 19.1028 17.8302 19.1054 17.83C19.115 17.8291 19.1352 17.8272 19.1352 17.8272C19.1351 17.8263 19.1325 17.7974 19.1314 17.7851C19.0832 17.7896 18.9936 17.798 18.9923 17.7981L18.9872 17.7414C18.9893 17.7412 19.0834 17.7325 19.13 17.7281C19.1287 17.7141 19.1274 17.7004 19.1262 17.6867C19.0623 17.6926 19.0003 17.6983 18.9383 17.7041C18.9453 17.7811 18.9521 17.8558 18.9589 17.9306ZM20.0601 17.6415C20.0846 17.6387 20.1061 17.6376 20.1303 17.643C20.15 17.6517 20.1623 17.6651 20.1704 17.6849C20.1765 17.7048 20.1783 17.7276 20.1687 17.7466C20.1668 17.7493 20.1649 17.752 20.163 17.7547C20.1611 17.7575 20.1593 17.7601 20.1574 17.7628C20.1378 17.7823 20.1161 17.7864 20.0896 17.7887C20.0854 17.789 20.0814 17.7892 20.0773 17.7895C20.0639 17.7905 20.0508 17.7915 20.0378 17.7925C20.0332 17.7424 20.0288 17.6938 20.0244 17.6453C20.0424 17.6433 20.0424 17.6434 20.0601 17.6415ZM18.5091 17.7414C18.4798 17.7438 18.4567 17.7462 18.4323 17.7662C18.412 17.7829 18.402 17.804 18.3957 17.8229C18.3869 17.8556 18.3909 17.8962 18.407 17.926C18.4258 17.9519 18.4534 17.9691 18.4843 17.976C18.5288 17.9802 18.5763 17.9746 18.6119 17.9457C18.6354 17.923 18.641 17.9005 18.6425 17.8685C18.6271 17.8699 18.6123 17.8713 18.5974 17.8727C18.5966 17.8779 18.5958 17.8831 18.595 17.8882C18.5831 17.9102 18.5691 17.9219 18.5458 17.9308C18.5188 17.9372 18.4939 17.9363 18.4693 17.9227C18.4528 17.9065 18.4442 17.8893 18.4404 17.8666C18.4399 17.84 18.4445 17.8218 18.462 17.8015C18.4836 17.7852 18.5076 17.7819 18.5362 17.7833C18.555 17.7842 18.5723 17.7953 18.5797 17.804C18.5876 17.8132 18.5902 17.8215 18.5936 17.8312C18.6089 17.8298 18.6238 17.8284 18.6386 17.8271C18.6365 17.8038 18.6311 17.7887 18.6152 17.7719C18.5862 17.7467 18.558 17.7382 18.5201 17.7405C18.5146 17.741 18.5146 17.741 18.5091 17.7414ZM18.7236 17.7811C18.7583 17.7455 18.8228 17.7472 18.8539 17.7766C18.867 17.789 18.8705 17.8027 18.8741 17.8183C18.877 17.8449 18.8714 17.863 18.8555 17.8844C18.8388 17.9026 18.8196 17.9101 18.7955 17.9129C18.7634 17.9144 18.7434 17.9057 18.7196 17.8842C18.7054 17.8648 18.7014 17.8449 18.7026 17.8211C18.706 17.8059 18.7087 17.7963 18.7236 17.7811ZM19.8842 17.7077C19.8687 17.7091 19.8572 17.723 19.8586 17.7387C19.8601 17.7543 19.8738 17.7658 19.8894 17.7644C19.9049 17.7629 19.9164 17.749 19.915 17.7334C19.9135 17.7178 19.8998 17.7063 19.8842 17.7077ZM22.2168 16.104C22.1014 16.1062 22.1381 16.2347 22.0771 16.2558C21.9798 16.2896 21.8474 16.3133 21.7608 16.3403C21.7055 16.3576 21.7112 16.4495 21.7536 16.4495C21.8571 16.4493 22.0326 16.3975 22.035 16.3968C21.9796 16.525 21.9484 16.597 21.898 16.7236C21.8953 16.7251 21.5468 16.924 21.5416 16.8669C21.5378 16.8254 21.5861 16.7734 21.599 16.7493C21.6096 16.7298 21.5936 16.6889 21.5936 16.6889C21.595 16.6891 21.6458 16.6951 21.654 16.6662C21.6624 16.6369 21.7371 16.5717 21.7363 16.5292C21.7347 16.4456 21.6487 16.4268 21.5885 16.4877C21.5139 16.5631 21.5497 16.6645 21.5497 16.6645C21.5497 16.6645 21.5157 16.6664 21.4977 16.6769C21.4168 16.7244 21.3561 16.9108 21.45 16.9858C21.559 17.0728 21.8132 16.8983 21.8153 16.8968C21.8141 16.899 21.7477 17.027 21.76 17.0599C21.7767 17.1041 21.8455 17.1046 21.8683 17.0631C21.9513 16.9127 22.1267 16.4323 22.1929 16.3821C22.2815 16.3149 22.5048 16.3323 22.5005 16.2851C22.4975 16.2529 22.5013 16.232 22.4717 16.2192C22.4283 16.2004 22.2471 16.2286 22.2471 16.2286C22.2471 16.2286 22.3208 16.1019 22.2168 16.104ZM20.749 16.4437C20.7862 16.4155 20.7644 16.3014 20.6623 16.3451C20.5602 16.3888 20.3558 16.6629 20.2179 16.9173C20.2171 16.9168 20.1881 16.8957 20.1666 16.8955C20.0547 16.8944 19.7751 16.9242 19.6982 16.9541C19.5766 17.0016 19.5614 17.3037 19.7286 17.2882C19.981 17.2648 19.9185 17.0421 19.9185 17.0421C20.0103 17.0077 20.0646 17.0038 20.1638 17.0099C20.1638 17.0099 20.1036 17.0974 20.1079 17.1446C20.1143 17.2146 20.1484 17.2351 20.1837 17.2289C20.2732 17.2129 20.4475 16.9527 20.4979 16.9752C20.5019 17.0186 20.503 17.1093 20.5816 17.1444C20.6976 17.1962 20.9075 16.9981 20.9075 16.9981C20.9079 16.9997 20.9267 17.0681 21.004 17.0805C21.1762 17.1081 21.3437 16.7401 21.4341 16.58C21.4582 16.5371 21.392 16.4579 21.345 16.5178C21.2462 16.6441 21.0668 16.9491 21.0362 16.9557C21.033 16.9492 21.1235 16.7356 21.0302 16.7241C20.9136 16.7097 20.9184 16.869 20.9184 16.8696C20.8245 16.8993 20.674 17.0558 20.6368 17.0232C20.5998 16.9905 20.6317 16.9112 20.5762 16.8765C20.5016 16.8299 20.352 16.9335 20.352 16.9335C20.4881 16.6939 20.7117 16.472 20.749 16.4437ZM22.5345 16.4732C22.4347 16.4804 22.3212 16.4979 22.235 16.5249C22.1996 16.536 22.1744 16.5642 22.1575 16.5932C22.1403 16.6228 22.1285 16.6586 22.1218 16.6943C22.115 16.7301 22.1131 16.768 22.1169 16.8027C22.1206 16.8365 22.1304 16.8719 22.1512 16.8984C22.1948 16.9539 22.2709 16.9571 22.331 16.9405C22.3933 16.9233 22.4576 16.8808 22.4916 16.8179C22.51 16.784 22.5132 16.7395 22.5134 16.7097C22.5134 16.7007 22.5131 16.6922 22.5127 16.6847C22.5283 16.6799 22.5498 16.6742 22.5743 16.6701C22.6286 16.661 22.6906 16.6601 22.7376 16.6811C22.7637 16.6927 22.7969 16.6952 22.8217 16.6706C22.842 16.6503 22.8451 16.6219 22.8441 16.6023C22.843 16.5807 22.8365 16.5577 22.8256 16.5378C22.8148 16.5182 22.7974 16.4976 22.7721 16.4868C22.7475 16.4764 22.7106 16.472 22.6724 16.4703C22.6324 16.4685 22.5847 16.4696 22.5345 16.4732ZM19.7932 17.0405C19.8042 17.0371 19.8148 17.0479 19.8158 17.0594C19.8187 17.0912 19.7308 17.1688 19.7293 17.1701C19.7295 17.1689 19.7493 17.0541 19.7932 17.0405ZM22.3375 16.6583C22.3484 16.655 22.359 16.6657 22.3601 16.6772C22.363 16.709 22.2747 16.7869 22.2735 16.788C22.2738 16.7861 22.2936 16.6719 22.3375 16.6583Z" fill="#460001"/>
</svg>
