<svg width="44" height="44" viewBox="0 0 44 44" fill="none" xmlns="http://www.w3.org/2000/svg">
<circle cx="22" cy="22" r="22" fill="#460001"/>
<path d="M25.4139 10.693C25.556 10.6842 25.705 10.677 25.8589 10.6726C26.8631 10.6438 28.1903 10.7202 29.1671 11.2414C30.0387 11.7065 30.649 12.5398 31.0816 13.448C31.5168 14.3618 31.7988 15.4071 31.9837 16.3782C32.1691 17.3529 32.2607 18.2742 32.306 18.9501C32.3287 19.2887 32.34 19.5674 32.3455 19.7624C32.3483 19.8599 32.3496 19.9366 32.3503 19.9895C32.3506 20.0159 32.3508 20.0365 32.3509 20.0507C32.3509 20.0578 32.3509 20.0633 32.3509 20.0672C32.3509 20.0692 32.3509 20.0707 32.3509 20.0718C32.3509 20.0724 32.3509 20.0729 32.3509 20.0733C32.3509 20.0734 32.3509 20.0737 32.3509 20.0738L31.8005 20.0736L32.3509 20.074L32.348 21.9014L31.3425 20.3808C31.3412 20.3789 31.3387 20.3755 31.3352 20.3706C31.3274 20.3596 31.314 20.3415 31.2954 20.318C31.2581 20.2707 31.2012 20.2031 31.127 20.1287C30.9747 19.9759 30.7701 19.8144 30.5327 19.7222C30.3074 19.6346 30.0465 19.6057 29.7392 19.7184C29.4203 19.8354 29.0021 20.1234 28.514 20.7671C28.3438 20.9915 28.1146 21.0826 27.9154 21.1163C27.8977 21.1754 27.8757 21.2341 27.8495 21.2919C27.6217 21.7955 27.014 22.4283 25.7977 23.3015C22.806 25.4491 20.447 26.9151 16.5274 27.8888C14.3299 28.4347 13.0215 28.5943 10.7583 28.5924L10.7321 28.5924L10.7061 28.5899C10.1958 28.5407 9.74911 28.4134 9.4265 28.148C9.07177 27.8562 8.93862 27.4582 8.95654 27.0509C8.97313 26.6738 9.11671 26.2856 9.29924 25.9208C9.48572 25.5481 9.73744 25.1524 10.017 24.7507C10.5641 23.9648 11.2979 23.0481 11.9129 22.2112C12.3445 21.6239 12.7357 21.1084 13.026 20.5854C13.1151 20.563 13.1975 20.547 13.2864 20.5182L13.2868 20.5181C13.2873 20.518 13.2881 20.5178 13.2891 20.5174C13.2912 20.5168 13.2944 20.5157 13.2988 20.5143C13.3076 20.5115 13.321 20.5072 13.3387 20.5016C13.3742 20.4904 13.4273 20.4737 13.4962 20.4526C13.6339 20.4103 13.8348 20.3501 14.0851 20.2786C14.5862 20.1355 15.2835 19.9482 16.0679 19.7713C17.6582 19.4127 19.5295 19.1153 20.859 19.2693C21.9805 19.3991 23.4113 19.8637 24.5912 20.3129C25.1747 20.535 25.6854 20.7488 26.0499 20.907C26.232 20.986 26.3774 21.051 26.4767 21.096C26.5264 21.1186 26.5645 21.1361 26.59 21.1479C26.6027 21.1538 26.6123 21.1583 26.6186 21.1612C26.6217 21.1626 26.624 21.1637 26.6255 21.1643C26.6262 21.1647 26.6267 21.1649 26.627 21.1651L26.6273 21.1652L27.3147 21.4881L27.4071 20.7311L27.4072 20.7309C27.4072 20.7308 27.4072 20.7307 27.4072 20.7305C27.4073 20.7302 27.4073 20.7297 27.4074 20.7291C27.4075 20.7279 27.4077 20.7263 27.408 20.7242C27.4085 20.7201 27.4092 20.7141 27.4101 20.7064C27.4119 20.6909 27.4145 20.6683 27.4178 20.6392C27.4243 20.5809 27.4335 20.4963 27.4443 20.3891C27.4658 20.1749 27.4938 19.8703 27.5197 19.5067C27.5715 18.7814 27.6161 17.8121 27.5841 16.8525C27.5278 15.1641 26.9173 13.534 26.3414 12.3481C26.0512 11.7505 25.7645 11.2551 25.5497 10.908C25.5005 10.8284 25.4549 10.7566 25.4139 10.693ZM22.1944 9.07688C22.6268 9.02754 23.0003 9.20666 23.2767 9.41005C23.5559 9.61556 23.9394 9.96677 24.1423 10.4587C24.2259 10.6613 24.1807 10.8452 24.2921 10.9999C24.2922 11 24.2923 11.0003 24.2925 11.0005C24.2931 11.0014 24.2943 11.003 24.296 11.0054C24.2993 11.0101 24.3047 11.0177 24.3119 11.028C24.3262 11.0487 24.3482 11.0803 24.3764 11.1223C24.433 11.2064 24.5151 11.3317 24.6145 11.4924C24.8138 11.8143 25.0813 12.2765 25.3518 12.8336C25.8974 13.9571 26.4348 15.425 26.4837 16.8905C26.5139 17.7966 26.472 18.7237 26.4216 19.4284C26.4108 19.5802 26.3994 19.7213 26.3885 19.8492C26.0215 19.6912 25.5338 19.4887 24.9822 19.2787C23.7897 18.8248 22.2514 18.3172 20.986 18.1707C19.4557 17.9935 17.4246 18.3321 15.8275 18.6923C15.0182 18.8748 14.3004 19.0677 13.785 19.2149C13.669 19.248 13.5632 19.2788 13.4687 19.3067C13.5621 18.7603 13.5991 18.1945 13.6271 17.6081C13.6642 16.8353 13.686 16.0061 13.8292 15.2277C13.975 14.4355 14.252 13.6545 14.8237 12.9627C15.3932 12.2736 16.2205 11.7149 17.398 11.3025C18.2099 10.9788 19.0498 10.7658 19.681 10.6338C19.9992 10.5672 20.2678 10.5205 20.4579 10.4904C20.4692 10.4886 20.4803 10.4869 20.4911 10.4852C20.5731 10.353 20.6891 10.1784 20.831 9.99893C20.9776 9.8136 21.1627 9.60921 21.3779 9.44055C21.589 9.27511 21.8667 9.11429 22.1944 9.07688ZM21.6091 13.3138C21.6152 13.2657 21.5983 13.2062 21.4285 13.2659C20.7676 13.4984 17.4757 15.2855 17.4952 15.2712C17.4881 15.2665 17.6893 14.9467 17.7256 14.9092C17.7898 14.8428 17.7304 14.7529 17.6391 14.7916C17.4841 14.8574 17.2445 15.3897 17.2445 15.3897C17.2401 15.3914 16.6459 15.6283 16.492 15.7621C16.4557 15.7937 16.4845 15.8987 16.5389 15.9024C16.6572 15.9104 17.1065 15.747 17.1065 15.747C17.1057 15.7486 16.9865 16.0059 17.1158 16.1191C17.1456 16.1453 17.2392 16.1229 17.1885 16.0439C17.1516 15.9865 17.2608 15.7157 17.2972 15.6988C17.8068 15.4651 21.9685 15.3519 22.0404 15.4075C22.1124 15.463 22.1593 15.3186 21.9708 15.2674C21.7822 15.2162 19.0939 15.2819 17.3838 15.5043C17.6381 15.4027 19.7965 14.0929 21.4479 13.3954C21.5129 13.368 21.6047 13.3485 21.6091 13.3138ZM20.169 15.5201C20.1269 15.4955 20.0606 15.4959 20.0151 15.5241C19.9845 15.543 19.9712 15.565 19.9629 15.6001C19.9579 15.6351 19.9648 15.6682 19.9847 15.6973C20.0066 15.7247 20.0375 15.7377 20.0717 15.7423C20.111 15.743 20.1452 15.7348 20.1754 15.7089C20.1776 15.7064 20.1796 15.704 20.1817 15.7017C20.185 15.7104 20.1883 15.7189 20.1916 15.7274C20.2031 15.7263 20.2143 15.7253 20.2255 15.7243C20.2219 15.6858 20.2185 15.6484 20.2151 15.611C20.1755 15.6147 20.137 15.6182 20.0986 15.6218C20.0996 15.6333 20.1007 15.6446 20.1017 15.6558C20.1261 15.6548 20.1498 15.6539 20.1735 15.653C20.1676 15.668 20.1555 15.6782 20.1419 15.6863C20.1066 15.703 20.0594 15.7134 20.0282 15.6816C19.9993 15.6521 20.0007 15.608 20.019 15.5798C20.0237 15.5726 20.0345 15.5624 20.0381 15.5608C20.0645 15.5479 20.0852 15.5444 20.1146 15.548C20.1298 15.5511 20.1394 15.5565 20.1513 15.5676C20.1589 15.5746 20.1675 15.5885 20.1676 15.5887L20.209 15.585C20.209 15.585 20.2049 15.5609 20.197 15.5479C20.189 15.5347 20.1809 15.5272 20.169 15.5201ZM19.7108 15.7757C19.7249 15.7744 19.7386 15.7732 19.7522 15.7719C19.7484 15.7154 19.7446 15.6604 19.7409 15.6055C19.7485 15.6149 19.7565 15.6237 19.7649 15.6325C19.782 15.6505 19.7988 15.6686 19.8149 15.6876C19.8229 15.6971 19.8907 15.7585 19.8913 15.759L19.9364 15.7548C19.9364 15.7548 19.9268 15.6036 19.9196 15.528C19.9042 15.5295 19.8893 15.5308 19.8744 15.5322C19.8781 15.5875 19.8854 15.6949 19.8854 15.6949L19.8245 15.6282C19.8236 15.6272 19.7931 15.5957 19.7787 15.5787C19.7738 15.5729 19.7437 15.5451 19.7429 15.5444C19.7429 15.5444 19.7076 15.5476 19.6902 15.5492C19.6973 15.6262 19.704 15.701 19.7108 15.7757ZM19.6067 15.6329C19.6079 15.6463 19.6091 15.6597 19.6103 15.6731C19.6115 15.6863 19.6126 15.6994 19.6138 15.7125C19.6142 15.7176 19.6147 15.7226 19.6152 15.7275C19.6156 15.7325 19.616 15.7374 19.6164 15.7422C19.6169 15.7468 19.6173 15.7513 19.6177 15.7557C19.6181 15.7598 19.6184 15.7638 19.6187 15.7677C19.62 15.7766 19.62 15.7765 19.6241 15.78C19.6382 15.7787 19.6518 15.7774 19.6654 15.7762C19.6584 15.6992 19.6516 15.6244 19.6448 15.5497C19.6295 15.5511 19.6146 15.5524 19.5997 15.5538C19.6021 15.5802 19.6044 15.6066 19.6067 15.6329ZM19.3498 15.8054C19.3638 15.8041 19.3775 15.8029 19.3911 15.8016C19.3873 15.745 19.3835 15.6901 19.3797 15.6351C19.3873 15.6446 19.3954 15.6534 19.4037 15.6622C19.4209 15.6802 19.4377 15.6983 19.4538 15.7172C19.4617 15.7267 19.5282 15.787 19.5301 15.7887L19.5753 15.7845C19.5751 15.7825 19.5656 15.6328 19.5584 15.5577C19.543 15.5591 19.5282 15.5605 19.5133 15.5619C19.517 15.6169 19.5243 15.7236 19.5243 15.7245L19.4634 15.6579C19.4634 15.6579 19.4322 15.6256 19.4176 15.6083C19.4127 15.6025 19.3817 15.5741 19.3817 15.5741C19.3804 15.5742 19.3462 15.5774 19.3292 15.579C19.3362 15.6559 19.343 15.7307 19.3498 15.8054ZM19.2595 15.8138C19.2749 15.8124 19.2898 15.811 19.3047 15.8096C19.2977 15.7326 19.2909 15.6579 19.2841 15.5831C19.2687 15.5845 19.2538 15.5859 19.2389 15.5873C19.2459 15.6643 19.2527 15.7391 19.2595 15.8138ZM18.9828 15.6907C18.984 15.7041 18.9852 15.7176 18.9864 15.731C18.9876 15.7441 18.9888 15.7572 18.99 15.7704C18.9904 15.7754 18.9908 15.7804 18.9913 15.7853C18.9917 15.7903 18.9921 15.7952 18.9925 15.8001C18.993 15.8047 18.9934 15.8091 18.9938 15.8136C18.9944 15.8205 18.9952 15.8275 18.9962 15.8344C19.0003 15.8378 19.0002 15.8378 19.011 15.8373C19.0159 15.8369 19.0206 15.8364 19.0253 15.836C19.0305 15.8355 19.0357 15.8351 19.0409 15.8346C19.0491 15.8338 19.0573 15.833 19.0655 15.8323C19.0708 15.8318 19.0762 15.8313 19.0815 15.8308C19.0854 15.8305 19.0854 15.8304 19.0892 15.8301C19.1217 15.827 19.1552 15.8213 19.1804 15.799C19.2049 15.7734 19.2206 15.7454 19.2206 15.7091C19.2179 15.6759 19.2057 15.6483 19.181 15.6256C19.1527 15.604 19.1187 15.5976 19.0838 15.6008C19.081 15.6011 19.0783 15.6014 19.0756 15.6017C19.0667 15.6025 19.0578 15.6034 19.0489 15.6044C19.0427 15.605 19.0365 15.6056 19.0303 15.6062C19.0122 15.608 18.994 15.6098 18.9758 15.6117C18.9782 15.638 18.9805 15.6643 18.9828 15.6907ZM18.5925 15.6472C18.5936 15.6588 18.5942 15.6704 18.5967 15.6818C18.5974 15.6841 18.5981 15.6863 18.5988 15.6885C18.5995 15.6912 18.6003 15.6938 18.601 15.6963C18.6128 15.7359 18.617 15.7704 18.6132 15.8116C18.6127 15.8157 18.6127 15.8157 18.6123 15.8198C18.612 15.8225 18.6117 15.8251 18.6115 15.8277C18.6099 15.8415 18.6099 15.8415 18.6132 15.8737C18.6358 15.8717 18.6585 15.8697 18.6812 15.8676C18.6904 15.8668 18.6996 15.8659 18.7088 15.8651C18.7224 15.8639 18.7361 15.8627 18.7497 15.8614C18.7541 15.861 18.7583 15.8607 18.7626 15.8603C18.7669 15.8599 18.771 15.8595 18.7752 15.8591C18.7791 15.8588 18.783 15.8584 18.7868 15.8581C18.7903 15.8577 18.7937 15.8574 18.7971 15.8571C18.8048 15.856 18.8048 15.8559 18.8082 15.8519C18.8072 15.8403 18.8062 15.8291 18.8051 15.8178C18.731 15.8228 18.731 15.8228 18.6583 15.8276C18.6591 15.8082 18.6598 15.7893 18.6606 15.7704C18.704 15.7663 18.7462 15.7624 18.7884 15.7585C18.7872 15.7456 18.786 15.7332 18.7849 15.7207C18.7414 15.7235 18.6991 15.7262 18.6568 15.7288C18.6528 15.7124 18.6488 15.6964 18.6448 15.6804C18.6934 15.6759 18.7405 15.6716 18.7876 15.6672C18.7865 15.6544 18.7853 15.6419 18.7842 15.6294C18.719 15.6355 18.6558 15.6414 18.5925 15.6472ZM18.3632 15.6685C18.3829 15.744 18.3911 15.7927 18.3845 15.8677C18.3834 15.8791 18.3816 15.8848 18.3876 15.8946C18.4103 15.8926 18.433 15.8906 18.4556 15.8885C18.4648 15.8877 18.474 15.8868 18.4832 15.886C18.4969 15.8848 18.5106 15.8836 18.5242 15.8823C18.5286 15.8819 18.5328 15.8815 18.5371 15.8812C18.5414 15.8808 18.5455 15.8804 18.5497 15.88C18.5536 15.8797 18.5575 15.8793 18.5614 15.8789C18.5649 15.8786 18.5682 15.8783 18.5716 15.878C18.5793 15.8769 18.5793 15.8768 18.5827 15.8727C18.5817 15.8612 18.5806 15.8499 18.5796 15.8387C18.5298 15.8434 18.4814 15.8479 18.4331 15.8523C18.4337 15.8316 18.4345 15.8114 18.4351 15.7913C18.4798 15.7871 18.5232 15.7831 18.5666 15.7791C18.5635 15.7451 18.5635 15.7451 18.5594 15.7416C18.5527 15.742 18.5461 15.7424 18.5395 15.7431C18.5366 15.7433 18.5339 15.7436 18.5311 15.7439C18.5222 15.7447 18.5134 15.7456 18.5046 15.7465C18.4984 15.7471 18.4922 15.7476 18.486 15.7482C18.4718 15.7496 18.4575 15.751 18.4433 15.7524C18.4374 15.7529 18.4374 15.753 18.4317 15.7535C18.4275 15.7358 18.4234 15.7186 18.4193 15.7014C18.4692 15.6968 18.5176 15.6923 18.5659 15.6878C18.5648 15.675 18.5636 15.6625 18.5625 15.65C18.4948 15.6563 18.429 15.6624 18.3632 15.6685ZM18.1636 15.7666C18.1648 15.78 18.166 15.7935 18.1672 15.8069C18.1683 15.82 18.1695 15.8332 18.1706 15.8464C18.1711 15.8514 18.1716 15.8564 18.172 15.8613C18.1725 15.8663 18.1729 15.8712 18.1733 15.876C18.1737 15.8806 18.1741 15.8851 18.1745 15.8896C18.1751 15.8965 18.1759 15.9035 18.1768 15.9104C18.1809 15.9138 18.181 15.9138 18.1895 15.9135C18.1947 15.913 18.1947 15.913 18.1998 15.9125C18.206 15.9119 18.2123 15.9113 18.2186 15.9103C18.222 15.9062 18.222 15.9061 18.2216 15.8977C18.2213 15.894 18.2209 15.8904 18.2206 15.8868C18.2202 15.8832 18.2199 15.8796 18.2195 15.8761C18.2168 15.8478 18.2168 15.8477 18.2141 15.8194C18.2601 15.8151 18.3047 15.811 18.3494 15.8068C18.3481 15.7927 18.3468 15.779 18.3455 15.7653C18.2995 15.7695 18.2549 15.7737 18.2102 15.7779C18.2085 15.7586 18.2068 15.7399 18.2051 15.7212C18.2524 15.7169 18.2983 15.7126 18.3442 15.7083C18.343 15.6955 18.3419 15.683 18.3407 15.6706C18.2781 15.6764 18.2174 15.682 18.1566 15.6877C18.1589 15.714 18.1612 15.7403 18.1636 15.7666ZM17.7776 15.7166C17.7596 15.718 17.7427 15.7198 17.7259 15.727C17.6932 15.7448 17.6724 15.769 17.6604 15.8046C17.6521 15.8369 17.6594 15.8707 17.6758 15.899C17.6939 15.9275 17.7179 15.9437 17.7508 15.9512C17.7965 15.9557 17.8459 15.9501 17.8825 15.9204C17.9082 15.8966 17.9195 15.8672 17.9211 15.8322C17.9195 15.7993 17.9077 15.77 17.8852 15.7459C17.8552 15.7205 17.8276 15.7133 17.7891 15.7157C17.7852 15.716 17.7814 15.7162 17.7776 15.7166ZM17.9589 15.9306C17.9728 15.9293 18.0032 15.9264 18.004 15.9263L17.996 15.8395C17.996 15.8395 18.0111 15.8382 18.0243 15.8374C18.0293 15.837 18.0343 15.8365 18.0392 15.836C18.0446 15.8355 18.05 15.8351 18.0553 15.8346C18.0638 15.8338 18.0723 15.833 18.0808 15.8322C18.0864 15.8317 18.0919 15.8312 18.0975 15.8307C18.1002 15.8304 18.1028 15.8302 18.1054 15.83C18.115 15.8291 18.1352 15.8272 18.1352 15.8272C18.1351 15.8263 18.1325 15.7974 18.1314 15.7851C18.0832 15.7896 17.9936 15.798 17.9923 15.7981L17.9872 15.7414C17.9893 15.7412 18.0834 15.7325 18.13 15.7281C18.1287 15.7141 18.1274 15.7004 18.1262 15.6867C18.0623 15.6926 18.0003 15.6983 17.9383 15.7041C17.9453 15.7811 17.9521 15.8558 17.9589 15.9306ZM19.0601 15.6415C19.0846 15.6387 19.1061 15.6376 19.1303 15.643C19.15 15.6517 19.1623 15.6651 19.1704 15.6849C19.1765 15.7048 19.1783 15.7276 19.1687 15.7466C19.1668 15.7493 19.1649 15.752 19.163 15.7547C19.1611 15.7575 19.1593 15.7601 19.1574 15.7628C19.1378 15.7823 19.1161 15.7864 19.0896 15.7887C19.0854 15.789 19.0814 15.7892 19.0773 15.7895C19.0639 15.7905 19.0508 15.7915 19.0378 15.7925C19.0332 15.7424 19.0288 15.6938 19.0244 15.6453C19.0424 15.6433 19.0424 15.6434 19.0601 15.6415ZM17.5091 15.7414C17.4798 15.7438 17.4567 15.7462 17.4323 15.7662C17.412 15.7829 17.402 15.804 17.3957 15.8229C17.3869 15.8556 17.3909 15.8962 17.407 15.926C17.4258 15.9519 17.4534 15.9691 17.4843 15.976C17.5288 15.9802 17.5763 15.9746 17.6119 15.9457C17.6354 15.923 17.641 15.9005 17.6425 15.8685C17.6271 15.8699 17.6123 15.8713 17.5974 15.8727C17.5966 15.8779 17.5958 15.8831 17.595 15.8882C17.5831 15.9102 17.5691 15.9219 17.5458 15.9308C17.5188 15.9372 17.4938 15.9363 17.4693 15.9227C17.4528 15.9065 17.4442 15.8893 17.4404 15.8666C17.4399 15.84 17.4445 15.8218 17.462 15.8015C17.4836 15.7852 17.5076 15.7819 17.5362 15.7833C17.555 15.7842 17.5723 15.7953 17.5797 15.804C17.5876 15.8132 17.5902 15.8215 17.5936 15.8312C17.6089 15.8298 17.6238 15.8284 17.6386 15.8271C17.6365 15.8038 17.6311 15.7887 17.6152 15.7719C17.5862 15.7467 17.558 15.7382 17.5201 15.7405C17.5146 15.741 17.5146 15.741 17.5091 15.7414ZM17.7236 15.7811C17.7583 15.7455 17.8228 15.7472 17.8539 15.7766C17.867 15.789 17.8705 15.8027 17.8741 15.8183C17.877 15.8449 17.8714 15.863 17.8555 15.8844C17.8388 15.9026 17.8196 15.9101 17.7955 15.9129C17.7634 15.9144 17.7434 15.9057 17.7196 15.8842C17.7054 15.8648 17.7014 15.8449 17.7026 15.8211C17.706 15.8059 17.7087 15.7963 17.7236 15.7811ZM18.8842 15.7077C18.8687 15.7091 18.8572 15.723 18.8586 15.7387C18.8601 15.7543 18.8738 15.7658 18.8894 15.7644C18.9049 15.7629 18.9164 15.749 18.915 15.7334C18.9135 15.7178 18.8998 15.7063 18.8842 15.7077ZM21.2168 14.104C21.1014 14.1062 21.1381 14.2347 21.0771 14.2558C20.9798 14.2896 20.8474 14.3133 20.7608 14.3403C20.7055 14.3576 20.7112 14.4495 20.7536 14.4495C20.8571 14.4493 21.0326 14.3975 21.035 14.3968C20.9796 14.525 20.9484 14.597 20.898 14.7236C20.8953 14.7251 20.5468 14.924 20.5416 14.8669C20.5378 14.8254 20.5861 14.7734 20.599 14.7493C20.6096 14.7298 20.5936 14.6889 20.5936 14.6889C20.595 14.6891 20.6458 14.6951 20.654 14.6662C20.6624 14.6369 20.7371 14.5717 20.7363 14.5292C20.7347 14.4456 20.6487 14.4268 20.5885 14.4877C20.5139 14.5631 20.5497 14.6645 20.5497 14.6645C20.5497 14.6645 20.5157 14.6664 20.4977 14.6769C20.4168 14.7244 20.3561 14.9108 20.45 14.9858C20.559 15.0728 20.8132 14.8983 20.8153 14.8968C20.8141 14.899 20.7477 15.027 20.76 15.0599C20.7767 15.1041 20.8455 15.1046 20.8683 15.0631C20.9513 14.9127 21.1267 14.4323 21.1929 14.3821C21.2815 14.3149 21.5048 14.3323 21.5005 14.2851C21.4975 14.2529 21.5013 14.232 21.4717 14.2192C21.4283 14.2005 21.2471 14.2286 21.2471 14.2286C21.2471 14.2286 21.3208 14.1019 21.2168 14.104ZM19.749 14.4437C19.7862 14.4155 19.7644 14.3014 19.6623 14.3451C19.5602 14.3888 19.3558 14.6629 19.2179 14.9173C19.2171 14.9168 19.1881 14.8957 19.1666 14.8955C19.0547 14.8944 18.7751 14.9242 18.6982 14.9541C18.5766 15.0016 18.5614 15.3037 18.7286 15.2882C18.981 15.2648 18.9185 15.0421 18.9185 15.0421C19.0103 15.0077 19.0646 15.0038 19.1638 15.0099C19.1638 15.0099 19.1036 15.0974 19.1079 15.1446C19.1143 15.2146 19.1484 15.2351 19.1837 15.2289C19.2732 15.2129 19.4475 14.9527 19.4979 14.9752C19.5019 15.0186 19.503 15.1093 19.5816 15.1444C19.6976 15.1962 19.9075 14.9981 19.9075 14.9981C19.9079 14.9997 19.9267 15.0681 20.004 15.0805C20.1762 15.1081 20.3437 14.7401 20.4341 14.58C20.4582 14.5371 20.392 14.4579 20.345 14.5178C20.2462 14.6441 20.0668 14.9491 20.0362 14.9557C20.033 14.9492 20.1235 14.7356 20.0302 14.7241C19.9136 14.7097 19.9184 14.869 19.9184 14.8696C19.8245 14.8993 19.674 15.0558 19.6368 15.0232C19.5998 14.9905 19.6317 14.9112 19.5762 14.8765C19.5016 14.8299 19.352 14.9335 19.352 14.9335C19.4881 14.6939 19.7117 14.472 19.749 14.4437ZM21.5345 14.4732C21.4347 14.4804 21.3212 14.4979 21.235 14.5249C21.1996 14.536 21.1744 14.5642 21.1575 14.5932C21.1403 14.6228 21.1285 14.6586 21.1218 14.6943C21.115 14.7301 21.113 14.768 21.1169 14.8027C21.1206 14.8365 21.1304 14.8719 21.1512 14.8984C21.1948 14.9539 21.2709 14.9571 21.331 14.9405C21.3933 14.9233 21.4576 14.8808 21.4916 14.8179C21.51 14.784 21.5132 14.7395 21.5134 14.7097C21.5134 14.7007 21.5131 14.6922 21.5127 14.6847C21.5283 14.6799 21.5498 14.6742 21.5743 14.6701C21.6286 14.661 21.6906 14.6601 21.7376 14.6811C21.7637 14.6927 21.7969 14.6952 21.8217 14.6706C21.842 14.6503 21.8451 14.6219 21.8441 14.6023C21.843 14.5807 21.8365 14.5577 21.8256 14.5378C21.8148 14.5182 21.7974 14.4976 21.7721 14.4868C21.7475 14.4764 21.7106 14.472 21.6724 14.4703C21.6324 14.4685 21.5847 14.4696 21.5345 14.4732ZM18.7932 15.0405C18.8042 15.0371 18.8148 15.0479 18.8158 15.0594C18.8186 15.0912 18.7308 15.1688 18.7293 15.1701C18.7295 15.1689 18.7493 15.0541 18.7932 15.0405ZM21.3375 14.6583C21.3484 14.655 21.359 14.6657 21.3601 14.6772C21.363 14.709 21.2747 14.7869 21.2735 14.788C21.2738 14.7861 21.2936 14.6719 21.3375 14.6583Z" fill="#FFFAFA"/>
<path d="M22.4613 28.937C22.763 28.8661 23.0646 29.0432 23.1348 29.3324C23.2049 29.6217 23.0173 29.9136 22.7156 29.9844L20.2404 30.5657C19.9387 30.6365 19.6373 30.4595 19.5671 30.1702C19.4969 29.881 19.6846 29.5891 19.9863 29.5182L22.4613 28.937Z" fill="#FFFAFA"/>
<path d="M19.9903 26.2609C19.9375 25.9626 20.1362 25.676 20.4341 25.6207C20.732 25.5655 21.0162 25.7625 21.069 26.0608L21.3517 27.6587C21.4045 27.9571 21.2058 28.2437 20.9079 28.2989C20.6101 28.3542 20.3258 28.1572 20.273 27.8588L19.9903 26.2609Z" fill="#FFFAFA"/>
<path d="M29.5632 18.9081C30.9792 18.6409 32.0898 19.6561 32.464 20.914C33.0587 22.9127 32.6644 24.221 32.0051 25.0339C31.6875 25.4256 31.3293 25.6753 31.0515 25.8272C31.0075 25.8513 30.9652 25.8728 30.9252 25.8924C30.9104 26.0954 30.8817 26.371 30.8253 26.6991C30.7046 27.4014 30.4565 28.353 29.945 29.3491C28.9098 31.3649 26.821 33.5076 22.6988 34.1664C21.5317 34.3529 20.4667 34.0004 19.555 33.4172C18.6484 32.8371 17.8663 32.013 17.2329 31.195C16.5969 30.3737 16.0934 29.5358 15.7497 28.906C15.5774 28.5903 15.4442 28.3249 15.3536 28.1374C15.3083 28.0435 15.2735 27.969 15.2498 27.9173C15.238 27.8915 15.2289 27.8713 15.2226 27.8572C15.2195 27.8502 15.217 27.8447 15.2152 27.8407C15.2144 27.8388 15.2137 27.8372 15.2132 27.8361C15.2129 27.8355 15.2128 27.835 15.2126 27.8347C15.2125 27.8345 15.2124 27.8342 15.2124 27.8341C15.2128 27.8337 15.2291 27.8264 15.7145 27.6126L15.2122 27.8338L14.9562 27.2477L15.5727 27.0816C15.5727 27.0816 15.5728 27.0815 15.573 27.0815C15.5732 27.0814 15.5737 27.0813 15.5744 27.0811C15.5757 27.0808 15.5778 27.0801 15.5806 27.0794C15.5862 27.0778 15.5949 27.0755 15.6065 27.0723C15.6295 27.066 15.664 27.0564 15.7089 27.0437C15.7989 27.0184 15.9308 26.9808 16.0968 26.9318C16.429 26.8337 16.897 26.6904 17.4388 26.5102C18.5266 26.1484 19.8944 25.6432 21.0549 25.0615C22.1078 24.5338 23.6776 23.6473 25.0405 22.836C25.7207 22.431 26.3447 22.0477 26.8223 21.7403C27.0615 21.5864 27.2606 21.4537 27.4104 21.3482C27.4587 21.3142 27.5005 21.2837 27.5361 21.2571C27.5428 21.2213 27.5506 21.1821 27.5597 21.1401C27.6038 20.9384 27.6806 20.6625 27.8125 20.3724C28.0738 19.798 28.592 19.0913 29.5632 18.9081ZM31.4132 21.2297C31.1449 20.328 30.4603 19.8577 29.7647 19.9889C29.2854 20.0793 28.995 20.4217 28.8102 20.8279C28.7191 21.0281 28.6635 21.2254 28.631 21.3743C28.6149 21.4479 28.6049 21.5076 28.5991 21.547C28.5962 21.5666 28.5944 21.5811 28.5934 21.5896C28.5929 21.5939 28.5926 21.5966 28.5925 21.5977L28.5925 21.5981L28.575 21.7897L28.4399 21.9292C28.3464 22.0258 28.1933 22.1399 28.0399 22.248C27.8726 22.3658 27.6593 22.5077 27.4137 22.6658C26.9218 22.9823 26.2863 23.3726 25.5994 23.7815C24.2278 24.598 22.6319 25.5 21.5442 26.0452C20.3149 26.6614 18.8901 27.1858 17.7829 27.5541C17.2726 27.7239 16.826 27.8613 16.4919 27.9608C16.555 28.0843 16.6284 28.2243 16.7118 28.377C17.0376 28.974 17.5099 29.7586 18.0993 30.5197C18.6913 31.2842 19.3843 32.0026 20.1457 32.4897C20.9019 32.9736 21.6978 33.2129 22.5276 33.0803C26.2847 32.4799 28.0856 30.5692 28.9702 28.8465C29.4186 27.9733 29.6379 27.1344 29.7446 26.5135C29.7979 26.2037 29.8227 25.9504 29.8343 25.7773C29.84 25.6908 29.8425 25.6246 29.8435 25.5815C29.844 25.56 29.8442 25.5443 29.8442 25.5349C29.8442 25.5301 29.8442 25.5269 29.8442 25.5253C29.8442 25.5245 29.8442 25.5241 29.8442 25.5241L29.838 25.0993L30.2435 24.9876C30.2431 24.9877 30.2431 24.9877 30.2434 24.9876C30.2443 24.9874 30.2475 24.9865 30.2527 24.9847C30.2632 24.9813 30.2819 24.9749 30.3073 24.965C30.3584 24.9452 30.4355 24.912 30.5273 24.8618C30.7121 24.7607 30.9478 24.5957 31.1548 24.3405C31.5448 23.8596 31.9236 22.9454 31.4132 21.2297Z" fill="#FFFAFA"/>
</svg>
