<svg width="14" height="14" viewBox="0 0 14 14" fill="none" xmlns="http://www.w3.org/2000/svg">
<g clip-path="url(#clip0_236_127)">
<path d="M6.052 6.88425V10.5787M8.53117 6.88425V10.5787M2.33325 4.42129H12.2499M11.6301 4.42129L11.0928 11.8976C11.0705 12.2083 10.9306 12.4991 10.7011 12.7114C10.4717 12.9236 10.1698 13.0417 9.85628 13.0417H4.72689C4.41336 13.0417 4.11148 12.9236 3.88204 12.7114C3.6526 12.4991 3.51266 12.2083 3.4904 11.8976L2.95304 4.42129H11.6301ZM9.15096 4.42129V2.57407C9.15096 2.41076 9.08566 2.25415 8.96943 2.13867C8.85319 2.0232 8.69555 1.95833 8.53117 1.95833H6.052C5.88762 1.95833 5.72998 2.0232 5.61374 2.13867C5.49751 2.25415 5.43221 2.41076 5.43221 2.57407V4.42129H9.15096Z" stroke="white" stroke-width="2" stroke-linecap="round" stroke-linejoin="round"/>
</g>
<defs>
<clipPath id="clip0_236_127">
<rect width="14" height="14" fill="white"/>
</clipPath>
</defs>
</svg>
