<svg width="14" height="14" viewBox="0 0 14 14" fill="none" xmlns="http://www.w3.org/2000/svg">
<g clip-path="url(#clip0_241_383)">
<path d="M6.05212 6.88427V10.5787M8.53129 6.88427V10.5787M2.33337 4.42131H12.25M11.6302 4.42131L11.0929 11.8976C11.0706 12.2083 10.9307 12.4991 10.7013 12.7114C10.4718 12.9237 10.1699 13.0417 9.85641 13.0417H4.72701C4.41348 13.0417 4.1116 12.9237 3.88216 12.7114C3.65273 12.4991 3.51279 12.2083 3.49053 11.8976L2.95317 4.42131H11.6302ZM9.15108 4.42131V2.57408C9.15108 2.41078 9.08578 2.25416 8.96955 2.13869C8.85332 2.02322 8.69567 1.95834 8.53129 1.95834H6.05212C5.88775 1.95834 5.7301 2.02322 5.61387 2.13869C5.49763 2.25416 5.43233 2.41078 5.43233 2.57408V4.42131H9.15108Z" stroke="white" stroke-linecap="round" stroke-linejoin="round"/>
</g>
<defs>
<clipPath id="clip0_241_383">
<rect width="14" height="14" fill="white"/>
</clipPath>
</defs>
</svg>
