<svg width="14" height="14" viewBox="0 0 14 14" fill="none" xmlns="http://www.w3.org/2000/svg">
<path d="M9.91666 11.6667H12.8333V10.5C12.8333 10.1363 12.72 9.78166 12.5091 9.48536C12.2982 9.18906 12.0002 8.96582 11.6566 8.84668C11.313 8.72755 10.9408 8.71842 10.5917 8.82059C10.2427 8.92275 9.93414 9.13113 9.70899 9.41674M9.91666 11.6667H4.08332M4.08332 11.6667V10.5C4.08332 10.1173 4.15682 9.75158 4.29099 9.41674C4.50761 8.87539 4.88147 8.41135 5.36433 8.08448C5.84718 7.75762 6.4169 7.58292 6.99999 7.58292C7.58308 7.58292 8.1528 7.75762 8.63566 8.08448C9.11851 8.41135 9.49237 8.87539 9.70899 9.41674C9.84316 9.75158 9.91666 10.1173 9.91666 10.5V11.6667M4.08332 11.6667H1.16666V10.5C1.16668 10.1363 1.28002 9.78166 1.49091 9.48536C1.7018 9.18906 1.99977 8.96582 2.34339 8.84668C2.68701 8.72755 3.05921 8.71842 3.40825 8.82059C3.7573 8.92275 4.06584 9.13113 4.29099 9.41674M8.74999 4.08333C8.74999 4.54746 8.56562 4.99258 8.23743 5.32077C7.90924 5.64895 7.46412 5.83333 6.99999 5.83333C6.53586 5.83333 6.09074 5.64895 5.76255 5.32077C5.43436 4.99258 5.24999 4.54746 5.24999 4.08333C5.24999 3.6192 5.43436 3.17408 5.76255 2.84589C6.09074 2.5177 6.53586 2.33333 6.99999 2.33333C7.46412 2.33333 7.90924 2.5177 8.23743 2.84589C8.56562 3.17408 8.74999 3.6192 8.74999 4.08333ZM12.25 5.83333C12.25 6.14275 12.1271 6.43949 11.9083 6.65829C11.6895 6.87708 11.3927 6.99999 11.0833 6.99999C10.7739 6.99999 10.4772 6.87708 10.2584 6.65829C10.0396 6.43949 9.91666 6.14275 9.91666 5.83333C9.91666 5.52391 10.0396 5.22716 10.2584 5.00837C10.4772 4.78958 10.7739 4.66666 11.0833 4.66666C11.3927 4.66666 11.6895 4.78958 11.9083 5.00837C12.1271 5.22716 12.25 5.52391 12.25 5.83333ZM4.08332 5.83333C4.08332 6.14275 3.96041 6.43949 3.74161 6.65829C3.52282 6.87708 3.22608 6.99999 2.91666 6.99999C2.60724 6.99999 2.31049 6.87708 2.0917 6.65829C1.87291 6.43949 1.74999 6.14275 1.74999 5.83333C1.74999 5.52391 1.87291 5.22716 2.0917 5.00837C2.31049 4.78958 2.60724 4.66666 2.91666 4.66666C3.22608 4.66666 3.52282 4.78958 3.74161 5.00837C3.96041 5.22716 4.08332 5.52391 4.08332 5.83333Z" stroke="#681F1F" stroke-linecap="round" stroke-linejoin="round"/>
</svg>
