<svg width="120" height="120" viewBox="0 0 120 120" fill="none" xmlns="http://www.w3.org/2000/svg">
<path d="M52.9444 71.0556L63.5 60.5M63.5 60.5L74.0556 49.9444M63.5 60.5L52.9444 49.9444M63.5 60.5L74.0556 71.0556M111 60.5C111 66.7378 109.771 72.9145 107.384 78.6775C104.997 84.4404 101.498 89.6768 97.0876 94.0876C92.6768 98.4983 87.4404 101.997 81.6775 104.384C75.9145 106.771 69.7378 108 63.5 108C57.2622 108 51.0855 106.771 45.3225 104.384C39.5596 101.997 34.3232 98.4983 29.9124 94.0876C25.5016 89.6768 22.0028 84.4404 19.6157 78.6775C17.2286 72.9145 16 66.7378 16 60.5C16 47.9022 21.0044 35.8204 29.9124 26.9124C38.8204 18.0045 50.9022 13 63.5 13C76.0978 13 88.1796 18.0045 97.0876 26.9124C105.996 35.8204 111 47.9022 111 60.5Z" stroke="#460001" stroke-width="5" stroke-linecap="round" stroke-linejoin="round"/>
</svg>
